
<svg xmlns="http://www.w3.org/2000/svg" version="1.1" xmlns:xlink="http://www.w3.org/1999/xlink" preserveAspectRatio="none" x="0px" y="0px" width="1280px" height="1024px" viewBox="0 0 1280 1024">
<defs>
<image id="Bitmap_3" x="0" y="0" width="500" height="890" xlink:href="./images/Bitmap_3.png"/>

<image id="Bitmap_4" x="0" y="0" width="309" height="487" xlink:href="./images/Bitmap_4.png"/>

<g id="Layer12_0_FILL">
<path fill="#88206D" stroke="none" d="
M 638.4 356.75
Q 583.215625 356.56640625 545.15 374.85 513.45 390.05 524.6 399 378.8556640625 407.5345703125 282 449.2 232.72421875 411.6037109375 188 468.4
L 188 468.4
Q 244.1138671875 632.1037109375 608.3 728.8 244.1138671875 632.1037109375 188 468.4 44.6255859375 471.9845703125 16.9 534.75 17.95 536.1 18.95 537.45 20.55 539.5 22.15 541.55 47.4228515625 681.5837890625 121.35 777.7 406.5263671875 832.5083984375 506.15 976.6 568.3845703125 985.590625 638.4 987.55
L 638.4 768.4 639.2 635.25 638.4 599.75 638.4 356.75
M 297 480
Q 309.240234375 531.9185546875 365 572 309.240234375 531.9185546875 297 480 Z"/>

<path fill="#AAB64A" stroke="none" d="
M 1156.1 780.95
Q 1157.3951171875 779.2982421875 1158.65 777.6 873.1361328125 832.415625 773.4 976.65 841.3107421875 966.861328125 899.9 948.7 1064.5 897.75 1156.1 780.95 Z"/>

<path fill="#641751" stroke="none" d="
M 1257.85 541.55
Q 1259.45 539.5 1261.05 537.45 1262.05 536.1 1263.1 534.75 1235.209765625 471.6119140625 1090.25 468.35
L 1090.3 468.4 1090.3 468.45
Q 1034.2 632.1 670 728.8 1034.2 632.1 1090.3 468.45
L 1090.3 468.4 1090.25 468.35
Q 1045.842578125 411.9236328125 996.85 448.75 996.5759765625 448.989453125 996.3 449.2 996.5759765625 448.989453125 996.85 448.75 906.328125 410.4048828125 772.2 401.15 756.2248046875 385.09921875 734.85 374.85 696.75 356.55 641.5 356.75 640.75 356.75 640 356.75 639.25 356.75 638.5 356.75 638.4501953125 356.7498046875 638.4 356.75
L 638.4 599.75 639.2 635.25 638.4 768.4 638.4 987.55
Q 639.1984375 987.578515625 640 987.6 710.6853515625 985.7025390625 773.4 976.65 873.1361328125 832.415625 1158.65 777.6 1232.5876953125 681.5251953125 1257.85 541.55
M 981.3 480
Q 969.05 531.9 913.3 572 969.05 531.9 981.3 480 Z"/>

<path fill="#CBD959" stroke="none" d="
M 121.35 777.7
Q 122.636328125 779.3380859375 123.9 780.95 215.5 897.75 380.1 948.7 438.5205078125 966.808984375 506.15 976.6 406.5263671875 832.5083984375 121.35 777.7 Z"/>
</g>

<g id="Layer10_0_FILL">
<path fill="#641751" stroke="none" d="
M 683.4 685.35
Q 751.2748046875 655.5162109375 804.75 573.9
L 812 422.8
Q 757.15 607 639 682.75 638.4998046875 682.444921875 638 682.15
L 638 699.55
Q 638.3556640625 699.635546875 638.7 699.7
L 638.95 699.75 639 699.75 683.4 685.35
Q 747.40078125 654.5791015625 798.2 573.9 747.40078125 654.5791015625 683.4 685.35 Z"/>

<path fill="#88206D" stroke="none" d="
M 460 422.8
L 467.25 573.9
Q 519.3830078125 653.467578125 588.5 683.8 523.391796875 652.5068359375 473.9 573.9 523.391796875 652.5068359375 588.5 683.8 611.2125 691.2875 633.9 698.75
L 635.9 699.2
Q 636.9650390625 699.38359375 638 699.55
L 638 682.15
Q 514.6291015625 606.2580078125 460 422.8
M 802 631.9
Q 846.65 627.7 884 572.5
L 874 367.9
Q 846.15 411.25 812 422.8
L 804.75 573.9 802 631.9 Z"/>

<path fill="#C22E9C" stroke="none" d="
M 467.25 573.9
L 460 422.8
Q 425.85 411.25 398 367.9
L 388 572.5
Q 425.35 627.7 470 631.9
L 467.25 573.9 Z"/>

<path fill="#3C0D30" stroke="none" d="
M 638 310.1
Q 637.0015625 310.052734375 636 310 495.45 317.4 398 367.9 425.85 411.25 460 422.8 514.6291015625 606.2580078125 638 682.15
L 638 310.1 Z"/>

<path fill="#2F0A25" stroke="none" d="
M 812 422.8
Q 846.15 411.25 874 367.9 777.2443359375 317.759765625 638 310.1
L 638 682.15
Q 638.4998046875 682.444921875 639 682.75 757.15 607 812 422.8 Z"/>
</g>

<g id="Layer6_0_FILL">
<path fill="#C22E9C" stroke="none" d="
M 520.2 404.95
Q 501.1 390.8 499.6 425.1 498.2 459.5 517.2 481.35 524.55 489.85 525.85 479.65
L 520.2 404.95 Z"/>

<path fill="#88206D" stroke="none" d="
M 752.3 479.6
Q 753.6 489.8 760.95 481.3 779.95 459.45 778.55 425.05 777.05 390.75 757.95 404.9
L 752.3 479.6 Z"/>
</g>

<g id="Layer5_0_FILL">
<path fill="#CBD959" stroke="none" d="
M 639.05 361.2
Q 628.5349609375 310.4830078125 582.05 308.15 535.611328125 305.8044921875 555 370.55 524.3115234375 379.5091796875 520.65 438.15
L 522.65 534
Q 525.9 567.6 546.55 585.55
L 589.55 616 597.9 638.05
Q 606.8 652.35 621.55 653
L 639.05 653 639.05 361.2 Z"/>

<path fill="#88206D" stroke="none" d="
M 639.05 254.2
L 639 254.2
Q 624.275 254.30625 609.55 258 520.9 283.4 520.65 438.15 524.3115234375 379.5091796875 555 370.55 535.611328125 305.8044921875 582.05 308.15 628.5349609375 310.4830078125 639.05 361.2
L 639.05 254.2 Z"/>

<path fill="#AAB64A" stroke="none" d="
M 723.15 370.55
Q 742.55 305.8 696.05 308.15 649.6 310.5 639.05 361.2
L 639.05 653 656.5 653
Q 671.25 652.35 680.15 638.05
L 688.5 616 731.5 585.55
Q 752.15 567.6 755.4 534
L 757.4 438.15
Q 757.398828125 437.3794921875 757.4 436.6 757.12421875 432.834765625 756.75 429.3 756.45 426.35 756.1 423.6 749.8 378.3 723.15 370.55 Z"/>

<path fill="#641751" stroke="none" d="
M 696.05 308.15
Q 742.55 305.8 723.15 370.55 749.8 378.3 756.1 423.6 756.45 426.35 756.75 429.3 757.12421875 432.834765625 757.4 436.6 757.376953125 432.90625 757.3 429.25 757.259375 426.401171875 757.15 423.55 752.891796875 282.1798828125 668.5 258 653.775 254.30625 639.05 254.2
L 639.05 361.2
Q 649.6 310.5 696.05 308.15 Z"/>
</g>

<g id="Layer4_0_FILL">
<path fill="#3C0D30" stroke="none" d="
M 616 438.9
Q 616.6 438.2 616.9 437.9 616.95 437.75 617.05 437.7 617.05 437.65 617.1 437.6 617.2 437.55 617.35 437.5 617.55 437.35 617.7 437.15 615.4 436.3 613.05 435.45 612.15 434.9 611.2 434.35 610 433.85 608.8 433.5 604.75 432 600.65 430.75 600.05 430.55 599.45 430.4 598.1 429.9 596.9 429.65 585.5 426.5 584.55 426.3 583.4 425.9 582.1 425.65 579.9 425.15 577.7 424.65
L 552.9 421.75 558.85 435.3
Q 576.6 458.1 610.9 443.3
L 610.95 443.25
Q 611.3 443.05 611.55 442.9 615.25 439.9 616 438.9 Z"/>

<path fill="#2F0A25" stroke="none" d="
M 725.4 421.75
L 700.65 424.65
Q 698.15 425.2 695.6 425.8 694.65 426.05 693.75 426.3 692.9 426.5 681.4 429.65 680.25 429.9 678.9 430.4 678.05 430.65 677.05 430.9 673.3 432.2 669.55 433.5 668.35 433.85 667.2 434.35 666.2 434.9 665.3 435.45 662.95 436.3 660.65 437.15 660.9 437.35 661.05 437.5 661.15 437.55 661.25 437.6 661.3 437.65 661.3 437.7 661.4 437.75 661.45 437.9 661.75 438.2 662.35 438.9 663.1 439.9 666.75 442.9 667.1 443.05 667.4 443.25
L 667.45 443.3
Q 701.75 458.1 719.4 435.3
L 725.4 421.75 Z"/>
</g>

<g id="Layer3_0_FILL">
<path fill="#88206D" stroke="none" d="
M 713.6 425.4
L 697.85 427.2
Q 696.45 427.55 695.05 427.85 694.2 428 693.5 428.25 692.9 428.4 685.65 430.4 684.9 430.55 684.05 430.85 683.65 430.95 683.25 431.1 680.65 431.9 678.1 432.85 677.35 433.05 676.55 433.4 675.95 433.75 675.4 434.1 673.9 434.6 672.45 435.15 672.55 435.3 672.65 435.4 672.75 435.4 672.8 435.45
L 672.85 435.5
Q 672.9 435.55 672.95 435.65 673.15 435.8 673.5 436.25 674 436.9 676.35 438.8 676.5 438.9 676.7 439.05
L 676.75 439.05
Q 698.55 448.45 709.8 434
L 713.6 425.4
M 583 427.85
Q 581.6 427.55 580.2 427.2
L 564.45 425.4 568.25 434
Q 579.5 448.45 601.3 439.05
L 601.35 439.05
Q 601.55 438.9 601.7 438.8 604.05 436.9 604.55 436.25 604.9 435.8 605.1 435.65 605.15 435.55 605.2 435.5
L 605.25 435.45
Q 605.3 435.4 605.4 435.4 605.5 435.3 605.6 435.15 604.15 434.6 602.65 434.1 602.1 433.75 601.5 433.4 600.7 433.05 599.95 432.85 597.4 431.9 594.8 431.1 594.4 430.95 594 430.85 593.15 430.55 592.4 430.4 585.15 428.4 584.55 428.25 583.85 428 583 427.85 Z"/>
</g>

<g id="Symbole_30_0_Layer0_0_FILL">
<path fill="#252525" stroke="none" d="
M 69.75 46.1
Q 68.220703125 46.279296875 67.1 47.4
L 62.5 52
Q 61.2 53.3 61.2 55.15 61.2 57 62.5 58.3 63.8 59.6 65.65 59.6 67.5 59.6 68.8 58.3
L 69.75 57.35 70.25 56.85 71.7 58.3
Q 73 59.6 74.85 59.6 76.7 59.6 78 58.3 79.3 57 79.3 55.15 79.3 53.3 78 52
L 73.4 47.4
Q 72.1 46.1 70.25 46.1 69.9947265625 46.1 69.75 46.1
M 88.2 51.35
Q 109.8 55.5 108.2 33.35 105.45 15.05 79.2 20.35 73.55 24.85 75.2 29.35 78.1 46.95 88.2 51.35 Z"/>

<path fill="#E7B13B" stroke="none" d="
M 69.75 46.1
L 69.75 0
Q 51.54375 0.241015625 32.95 13.35 25.45 18.1 25.45 30.35
L 25.45 54.35
Q 25.45 54.75 25.45 55.15 25.65 63.25 29.25 67.95 32.4 72.1 38.3 73.55 38.2 73.95 38.25 74.35
L 38.25 88.75
Q 38.215625 90.7798828125 39.2 92.4 41.5302734375 96.19140625 45.45 95.95 48.378125 95.92265625 50.5 93.85 52.6 91.7 52.6 88.75
L 52.6 74.35 54.6 74.35 54.6 88.75
Q 54.55 91.7 56.7 93.85 58.8 95.95 61.75 95.95 64.7 95.95 66.85 93.85 68.95 91.7 68.95 88.75
L 68.95 74.35 69.75 74.35 69.75 57.35 68.8 58.3
Q 67.5 59.6 65.65 59.6 63.8 59.6 62.5 58.3 61.2 57 61.2 55.15 61.2 53.3 62.5 52
L 67.1 47.4
Q 68.220703125 46.279296875 69.75 46.1
M 61.45 20.35
Q 67.1 24.85 65.45 29.35 62.55 46.95 52.45 51.35 30.85 55.5 32.45 33.35 35.2 15.05 61.45 20.35 Z"/>

<path fill="#333333" stroke="none" d="
M 65.45 29.35
Q 67.1 24.85 61.45 20.35 35.2 15.05 32.45 33.35 30.85 55.5 52.45 51.35 62.55 46.95 65.45 29.35 Z"/>

<path fill="#C89933" stroke="none" d="
M 114.45 30.35
Q 114.45 18.1 106.95 13.35 88.556640625 -0.191015625 69.75 0
L 69.75 46.1
Q 69.9947265625 46.1 70.25 46.1 72.1 46.1 73.4 47.4
L 78 52
Q 79.3 53.3 79.3 55.15 79.3 57 78 58.3 76.7 59.6 74.85 59.6 73 59.6 71.7 58.3
L 70.25 56.85 69.75 57.35 69.75 74.35 70.95 74.35 70.95 88.75
Q 70.9 91.7 73.05 93.85 75.15 95.95 78.1 95.95 81.05 95.95 83.2 93.85 85.3 91.7 85.3 88.75
L 85.3 74.35 87.35 74.35 87.35 88.75
Q 87.3 91.7 89.45 93.85 91.55 95.95 94.5 95.95 94.9859375 95.95 95.45 95.9 98.8138671875 95.800390625 100.1 93.25 101.7 91.3111328125 101.7 88.75
L 101.7 74.35
Q 101.7 73.95 101.65 73.55 107.5 72.1 110.7 67.95 114.25 63.25 114.45 55.15 114.45 54.75 114.45 54.35
L 114.45 30.35
M 108.2 33.35
Q 109.8 55.5 88.2 51.35 78.1 46.95 75.2 29.35 73.55 24.85 79.2 20.35 105.45 15.05 108.2 33.35 Z"/>
</g>

<path id="Layer12_0_1_STROKES" stroke="#000000" stroke-opacity="0.2" stroke-width="8" stroke-linejoin="round" stroke-linecap="round" fill="none" d="
M 1090.275 468.375
L 1090.3 468.4 1090.3 468.45
Q 1034.2 632.1 670 728.8
M 996.3 449.2
Q 996.5759765625 448.989453125 996.85 448.775
M 981.3 480
Q 969.05 531.9 913.3 572
M 188 468.425
Q 244.1138671875 632.1037109375 608.3 728.8
M 297 480
Q 309.240234375 531.9185546875 365 572"/>

<path id="Layer11_0_1_STROKES" stroke="#000000" stroke-opacity="0.09803921568627451" stroke-width="8" stroke-linejoin="round" stroke-linecap="round" fill="none" d="
M 640.4 818.8
Q 640.3 818.6556640625 640.2 818.5 640.0998046875 818.655859375 640 818.8
L 640 901 640 947
M 640.2 818.5
Q 640.1 818.3681640625 640 818.225
L 640 818.8
M 640 816.8
L 640 818.225
M 640 947
L 640 984.8"/>

<path id="Layer11_0_2_STROKES" stroke="#000000" stroke-opacity="0.2" stroke-width="8" stroke-linejoin="round" stroke-linecap="round" fill="none" d="
M 1070 651
Q 1105.9390625 700.1423828125 1160 707
M 214 651
Q 178.05 700.15 124 707
M 640 947
Q 673 918.506640625 706 922
M 353.4 685.6
Q 569.4849609375 717.1103515625 640 818.225
M 640 901
Q 612.188671875 874.5572265625 578 880
M 927 685.6
Q 710.607421875 717.155078125 640.2 818.5"/>

<path id="Layer10_0_1_STROKES" stroke="#000000" stroke-opacity="0.2" stroke-width="8" stroke-linejoin="round" stroke-linecap="round" fill="none" d="
M 654.1 709.25
Q 721.6 697.8 778.1 653.25
M 638.7 699.7
L 638.95 699.75 639 699.75 683.4 685.375
Q 747.40078125 654.5791015625 798.2 573.9
M 588.5 683.8
Q 611.2125 691.2875 633.925 698.775
L 635.925 699.2
Q 636.93828125 699.4048828125 637.95 699.6 638.3310546875 699.6380859375 638.7 699.7
M 614 708
Q 546.478125 696.565234375 490 652
M 473.9 573.9
Q 523.391796875 652.5068359375 588.5 683.8"/>

<path id="Layer4_0_1_STROKES" stroke="#000000" stroke-opacity="0.25882352941176473" stroke-width="8" stroke-linejoin="round" stroke-linecap="round" fill="none" d="
M 650 457
L 661 464
M 628 457
L 617 464"/>

<path id="Layer2_0_1_STROKES" stroke="#000000" stroke-opacity="0.25882352941176473" stroke-width="8" stroke-linejoin="round" stroke-linecap="round" fill="none" d="
M 670.2 572.25
L 612.1 572.5
M 701.65 548.95
Q 641.15 537.6 580.6 548.95"/>

<path id="Layer0_0_1_STROKES" stroke="#7E8737" stroke-width="8" stroke-linejoin="round" stroke-linecap="round" fill="none" d="
M 736.8 411.15
L 658.35 438.3 656.05 423.15"/>

<path id="Layer0_0_2_STROKES" stroke="#96A142" stroke-width="8" stroke-linejoin="round" stroke-linecap="round" fill="none" d="
M 542.7 411.15
L 621.15 438.3 623.45 423.15"/>
</defs>

<g transform="matrix( 1, 0, 0, 1, -540,-544) ">
<use xlink:href="#Bitmap_3"/>
</g>

<g transform="matrix( 3.435821533203125, 0, 0, 3.435821533203125, 1351,-371) ">
<use xlink:href="#Bitmap_4"/>
</g>

<g transform="matrix( 1, 0, 0, 1, 0,0) ">
<use xlink:href="#Layer12_0_FILL"/>

<use xlink:href="#Layer12_0_1_STROKES"/>
</g>

<g transform="matrix( 1, 0, 0, 1, 0,0) ">
<use xlink:href="#Layer11_0_1_STROKES"/>

<use xlink:href="#Layer11_0_2_STROKES"/>
</g>

<g transform="matrix( 1, 0, 0, 1, 0,0) ">
<use xlink:href="#Layer10_0_FILL"/>

<use xlink:href="#Layer10_0_1_STROKES"/>
</g>

<g transform="matrix( 1, 0, 0, 1, 0,0) ">
<use xlink:href="#Layer6_0_FILL"/>
</g>

<g transform="matrix( 1, 0, 0, 1, 0,0) ">
<use xlink:href="#Layer5_0_FILL"/>
</g>

<g transform="matrix( 1, 0, 0, 1, 0,0) ">
<use xlink:href="#Layer4_0_FILL"/>

<use xlink:href="#Layer4_0_1_STROKES"/>
</g>

<g transform="matrix( 1, 0, 0, 1, 0,0) ">
<use xlink:href="#Layer3_0_FILL"/>
</g>

<g transform="matrix( 1, 0, 0, 1, 0,0) ">
<use xlink:href="#Layer2_0_1_STROKES"/>
</g>

<g transform="matrix( 0.6933135986328125, 0, 0, 0.8094482421875, 590.65,689.95) ">
<g transform="matrix( 1, 0, 0, 1, 0,0) ">
<use xlink:href="#Symbole_30_0_Layer0_0_FILL"/>
</g>
</g>

<g transform="matrix( 1, 0, 0, 1, 0,0) ">
<use xlink:href="#Layer0_0_1_STROKES"/>

<use xlink:href="#Layer0_0_2_STROKES"/>
</g>
</svg>
