
<svg xmlns="http://www.w3.org/2000/svg" version="1.1" xmlns:xlink="http://www.w3.org/1999/xlink" preserveAspectRatio="none" x="0px" y="0px" width="1280px" height="1024px" viewBox="0 0 1280 1024">
<defs>
<g id="Layer21_0_FILL">
<path fill="#E29289" stroke="none" d="
M 661.05 389.55
Q 660.45 389.05 659.9 388.6 659.55 388.3 659.15 388.05
L 639.8 398.6 616.15 385.55 616.15 348.75
Q 576.2 312.45 547.6 377.65 543.65 386.6 540 397.4
L 554.45 411.8 554.45 511.6
Q 552.3 516.1 549.95 520 548.95 521.8 547.9 523.45 547.15 527.25 547.3 530.8 547.8 550.7 574.15 561.5
L 622.7 541.8
Q 633.3 536.95 639.8 513.65
L 639.8 413.1 651.5 413.1
Q 653.65 413.05 655.55 412.55 656.35 412.2 657.15 411.85 659.2 410.85 661.05 409.05 665.05 405.05 665.05 399.35 665.05 393.6 661.05 389.55
M 575.45 389
Q 585.25 390.55 592.9 392.8 598.05 394.35 602.25 396.2 615.1 401.9 618.8 410.5 600.25 412.6 587.25 410.6 562 406.7 558.35 386.85 567.6 387.7 575.45 389 Z"/>

<path fill="#C47E76" stroke="none" d="
M 663.45 348.75
L 663.45 385.55 659.15 388.05
Q 659.55 388.3 659.9 388.6 660.45 389.05 661.05 389.55 665.05 393.6 665.05 399.35 665.05 405.05 661.05 409.05 659.2 410.85 657.15 411.85 656.35 412.2 655.55 412.55 653.65 413.05 651.5 413.1
L 639.8 413.1 639.8 513.65
Q 646.3 536.95 656.85 541.8
L 705.5 561.5
Q 729.5 551.65 732.1 534.2 732.75 529.1 731.75 523.45 729.9 520.6 728.2 517.4 726.6 514.65 725.15 511.6
L 725.15 411.8 739.65 397.4
Q 735.9 386.6 731.95 377.65 703.35 312.45 663.45 348.75
M 704.15 389
Q 712 387.7 721.2 386.85 717.6 406.7 692.35 410.6 679.4 412.6 660.8 410.5 664.5 401.9 677.35 396.2 681.6 394.35 686.65 392.8 694.4 390.55 704.15 389 Z"/>
</g>

<g id="Layer19_0_FILL">
<path fill="#333333" stroke="none" d="
M 592.9 392.8
Q 592.3 393.2 591.7 393.75 589.9 395.6 589.9 398.2 589.9 400.8 591.7 402.7 593.6 404.55 596.25 404.55 598.8 404.55 600.7 402.7 602.55 400.8 602.55 398.2 602.55 397.15 602.25 396.2 598.05 394.35 592.9 392.8 Z"/>

<path fill="#C03076" stroke="none" d="
M 592.9 392.8
Q 585.25 390.55 575.45 389 567.6 387.7 558.35 386.85 562 406.7 587.25 410.6 600.25 412.6 618.8 410.5 615.1 401.9 602.25 396.2 602.55 397.15 602.55 398.2 602.55 400.8 600.7 402.7 598.8 404.55 596.25 404.55 593.6 404.55 591.7 402.7 589.9 400.8 589.9 398.2 589.9 395.6 591.7 393.75 592.3 393.2 592.9 392.8 Z"/>
</g>

<g id="Layer18_0_FILL">
<path fill="#B12C6D" stroke="none" d="
M 686.65 392.8
Q 687.35 393.2 687.85 393.75 689.7 395.6 689.7 398.2 689.7 400.8 687.85 402.7 686.05 404.55 683.4 404.55 680.8 404.55 678.95 402.7 677.1 400.8 677.1 398.2 677.1 397.15 677.35 396.2 664.5 401.9 660.8 410.5 679.4 412.6 692.35 410.6 717.6 406.7 721.2 386.85 712 387.7 704.15 389 694.4 390.55 686.65 392.8 Z"/>

<path fill="#333333" stroke="none" d="
M 687.85 393.75
Q 687.35 393.2 686.65 392.8 681.6 394.35 677.35 396.2 677.1 397.15 677.1 398.2 677.1 400.8 678.95 402.7 680.8 404.55 683.4 404.55 686.05 404.55 687.85 402.7 689.7 400.8 689.7 398.2 689.7 395.6 687.85 393.75 Z"/>
</g>

<g id="Layer17_0_FILL">
<path fill="#333333" stroke="none" d="
M 639.8 732.2
Q 606.7 732.2 577 727.45 597.7 780.1 608.4 834.45 621.4 900.4 619.7 968.85 629.7 968.9 639.8 968.85
L 639.8 732.2
M 512.45 376.35
L 471.7 362.65 320.7 312
Q 374.8 360.2 434.95 391.65 454.35 401.75 474.35 410.15 479.6 412.3 484.85 414.45 515.55 430.5 529.5 480.1 534 433.5 512.45 376.35
M 554.45 317.25
Q 531.1 348.05 525.55 386.85
L 524.25 397.4 545.25 417.05 554.45 511.6 554.45 411.8 540 397.4
Q 543.65 386.6 547.6 377.65 576.2 312.45 616.15 348.75 573.7 257.7 511.15 312 535.2 303.6 554.45 317.25 Z"/>

<path fill="#EBB636" stroke="none" d="
M 576.9 727.4
Q 576.95 727.4 577 727.45 606.7 732.2 639.8 732.2
L 639.8 676.35
Q 603.4 718.3 537.7 718.6 556.45 724.15 576.9 727.4
M 445.8 669.75
Q 459.65 682.5 479.4 693.9 495.95 703.4 514.2 710.55 557.2 696.2 568.9 658.65 495.7 693.55 445.8 669.75
M 422.75 620.4
Q 418.95 620.65 415.25 620.9 416 624.6 417.3 628.2 417.5 628.65 417.65 629.1 420.15 636.25 424.05 643.05 471.8 649.55 505.85 628.45 465.05 637.3 435.95 626.6 429 624.05 422.75 620.4 Z"/>

<path fill="#E29289" stroke="none" d="
M 417.2 431.55
Q 434.9 457.05 458.25 469.55 412.65 429.4 434.95 391.65 374.8 360.2 320.7 312 375.9 371.75 417.2 431.55
M 507.2 481.7
Q 517.95 481.8 529.5 480.1 515.55 430.5 484.85 414.45 479.6 412.3 474.35 410.15 462.85 455.6 507.2 481.7
M 497.95 481.25
Q 502.5 481.6 507.2 481.7 462.85 455.6 474.35 410.15 454.35 401.75 434.95 391.65 412.65 429.4 458.25 469.55 476.35 479.3 497.95 481.25
M 772.45 481.7
Q 777.1 481.6 781.6 481.25 803.25 479.3 821.35 469.55 867 429.4 844.65 391.65 825.3 401.75 805.3 410.15 816.75 455.6 772.45 481.7
M 805.3 410.15
Q 800.05 412.3 794.75 414.45 764.1 430.5 750.1 480.1 761.65 481.8 772.45 481.7 816.75 455.6 805.3 410.15
M 958.95 312
Q 904.8 360.2 844.65 391.65 867 429.4 821.35 469.55 844.7 457.05 862.4 431.55 903.7 371.75 958.95 312 Z"/>

<path fill="#C85086" stroke="none" d="
M 279.4 615
Q 103.7 583.65 57.35 731.05
L 37.4 840.4
Q 279.1 959.05 579.65 968.15 599.55 968.75 619.7 968.85 621.4 900.4 608.4 834.45 597.7 780.1 577 727.45 576.95 727.4 576.9 727.4 556.45 724.15 537.7 718.6 518.4 718.7 496.65 715.2 505.95 713.25 514.2 710.55 495.95 703.4 479.4 693.9 459.65 682.5 445.8 669.75 430.6 662.55 417.65 649.95 417.15 649.5 416.75 649.05 412.6 644.9 408.7 640.3 411.65 640.9 414.55 641.5 414.85 641.55 415.2 641.6 419.65 642.45 424.05 643.05 420.15 636.25 417.65 629.1 417.5 628.65 417.3 628.2 416 624.6 415.25 620.9 414.05 620.95 412.95 621.05 412.65 621.05 412.35 621.1 345.85 624.9 279.4 615 Z"/>

<path fill="#FFFFFF" stroke="none" d="
M 575.15 248.95
Q 561.65 239.3 547.9 236.45 541.15 273.45 567.6 280.5 561.35 262.55 575.15 248.95
M 609.8 238.85
Q 599.8 219.3 556.6 215.95 565.65 236.85 609.8 238.85
M 604.25 277.85
Q 595.85 267.1 587.25 259.1 581.35 287.8 596.45 305.4 596.7 291.3 608.15 283.1 606.3 280.5 604.25 277.85
M 376.3 254.7
Q 371.9 259.15 371.9 265.4 371.9 271.6 376.3 276 380.75 280.5 387 280.5 393.15 280.5 397.55 276.25
L 469.55 322.1 475.65 326.45
Q 494.65 324.4 492.7 304.1
L 471.7 296.55 401.1 271.15
Q 402.1 268.45 402.1 265.4 402.1 259.15 397.65 254.7 393.25 250.3 387 250.3 380.75 250.3 376.3 254.7
M 640 75
Q 632.9 75 627.85 80 622.8 85.1 622.8 92.2 622.8 99.3 627.85 104.3 631.4 107.85 636 108.95
L 632.3 175.5
Q 635.95 175.25 639.8 175.15 639.9 175.15 640 175.15
L 640 75 Z"/>

<path fill="#66A0B3" stroke="none" d="
M 639.05 256.85
Q 638.9 256.8 638.7 256.8 626.35 255.7 618.05 241.15 610.3 212.25 553.1 208.9
L 547.35 204.25
Q 546.25 203.45 544.9 203.6 543.5 203.7 542.6 204.85 541.75 205.9 541.9 207.3 542 208.65 543.15 209.55
L 548.8 214.15
Q 555.75 244.05 612.9 245.75 623.1 262.75 638.25 263.55 638.95 263.65 639.6 263.65
L 639.8 263.65 640 263.65 640 256.9
Q 639.95 256.9 639.9 256.9
L 639.8 256.9 639.75 256.9
Q 639.4 256.9 639.05 256.85
M 556.6 215.95
Q 599.8 219.3 609.8 238.85 565.65 236.85 556.6 215.95 Z"/>

<path fill="#40356F" stroke="none" d="
M 475.65 326.45
L 469.55 322.1
Q 467.3 343.5 471.7 362.65
L 512.45 376.35
Q 534 433.5 529.5 480.1 517.95 481.8 507.2 481.7 502.5 481.6 497.95 481.25 485.5 509.7 454.6 497.15 458.25 508.7 464.7 518.25 465.35 519.15 465.95 520 470 525.8 475.2 530.8 475.6 531.2 476 531.55 476.1 531.65 476.2 531.75 480.75 536 486.1 539.7 468.25 551.1 450.4 549.95 450.1 549.95 449.85 549.95 441.65 549.35 433.55 546.15 413.9 538.4 394.2 515.55 398.2 550.1 419.7 568.75 423.25 571.85 427.35 574.55 427.5 574.65 427.75 574.8 439.75 582.55 456 586.5 438.9 590.75 421.5 585.6 421.2 585.45 421 585.4 417.95 584.5 414.95 583.25 396.25 575.85 377.15 557.6 389.45 594.8 412.8 613.6 413.1 613.75 413.4 614 413.6 614.2 413.95 614.45 418.1 617.7 422.75 620.4 429 624.05 435.95 626.6 465.05 637.3 505.85 628.45 471.8 649.55 424.05 643.05 419.65 642.45 415.2 641.6 414.85 641.55 414.55 641.5 411.65 640.9 408.7 640.3 412.6 644.9 416.75 649.05 417.15 649.5 417.65 649.95 430.6 662.55 445.8 669.75 495.7 693.55 568.9 658.65 557.2 696.2 514.2 710.55 505.95 713.25 496.65 715.2 518.4 718.7 537.7 718.6 603.4 718.3 639.8 676.35
L 639.8 513.65
Q 633.3 536.95 622.7 541.8
L 574.15 561.5
Q 547.8 550.7 547.3 530.8 547.15 527.25 547.9 523.45 548.95 521.8 549.95 520 552.3 516.1 554.45 511.6
L 545.25 417.05 524.25 397.4 525.55 386.85
Q 531.1 348.05 554.45 317.25 535.2 303.6 511.15 312 573.7 257.7 616.15 348.75
L 616.15 385.55 639.8 398.6 639.8 332.75
Q 639.15 332.75 638.5 332.7 627.35 331.9 625.35 321.2 622.55 303.15 608.15 283.1 596.7 291.3 596.45 305.4 581.35 287.8 587.25 259.1 581.25 253.3 575.15 248.95 561.35 262.55 567.6 280.5 541.15 273.45 547.9 236.45 518.85 230.25 488.75 254.2 478.25 273.15 471.7 296.55
L 492.7 304.1
Q 494.65 324.4 475.65 326.45
M 542.6 530.8
Q 521.5 556.5 491.4 543.15 521.5 556.5 542.6 530.8 Z"/>

<path fill="#80C8E0" stroke="none" d="
M 632.3 175.5
Q 631.05 175.55 629.85 175.6 529.3 181.95 488.75 254.2 518.85 230.25 547.9 236.45 561.65 239.3 575.15 248.95 581.25 253.3 587.25 259.1 595.85 267.1 604.25 277.85 606.3 280.5 608.15 283.1 622.55 303.15 625.35 321.2 627.35 331.9 638.5 332.7 639.15 332.75 639.8 332.75
L 639.8 263.65 639.6 263.65
Q 638.95 263.65 638.25 263.55 623.1 262.75 612.9 245.75 555.75 244.05 548.8 214.15
L 543.15 209.55
Q 542 208.65 541.9 207.3 541.75 205.9 542.6 204.85 543.5 203.7 544.9 203.6 546.25 203.45 547.35 204.25
L 553.1 208.9
Q 610.3 212.25 618.05 241.15 626.35 255.7 638.7 256.8 638.9 256.8 639.05 256.85 639.4 256.9 639.75 256.9
L 639.8 256.9 639.8 175.15
Q 635.95 175.25 632.3 175.5
M 633.25 300.2
L 626.65 285.75 633.25 300.2 Z"/>

<path fill="#D4A430" stroke="none" d="
M 864.9 620.8
Q 860.95 620.6 857.05 620.3 850.85 623.9 844.05 626.5 814.8 637.35 773.8 628.45 807.95 649.65 856.05 642.95 859.9 636.25 862.35 629.25 862.55 628.85 862.65 628.4 863.95 624.65 864.9 620.8
M 765.65 710.6
Q 784 703.45 800.55 693.9 820.6 682.4 834.6 669.45 784.5 693.85 710.75 658.65 722.45 696.3 765.65 710.6
M 700.25 727.85
Q 702 727.6 703.75 727.3 723.8 724.05 742.35 718.6 676.35 718.4 639.8 676.35
L 639.8 732.2
Q 639.9 732.2 640 732.2 671.7 732.2 700.25 727.85 Z"/>

<path fill="#B34778" stroke="none" d="
M 703.75 727.3
Q 702 731.85 700.25 736.45 682.7 783.05 673.05 831 659.3 898.6 660.95 968.85 696.45 968.65 731.2 966.95 1013.35 952.9 1242.6 840.35
L 1222.65 731
Q 1176.35 583.6 1000.65 614.95 933.85 624.9 867.1 620.95 866.8 620.9 866.55 620.9 865.7 620.85 864.9 620.8 863.95 624.65 862.65 628.4 862.55 628.85 862.35 629.25 859.9 636.25 856.05 642.95 860.1 642.4 864.35 641.65 864.6 641.55 864.95 641.55 867.9 640.95 870.95 640.3 866.9 645.1 862.65 649.25 862.25 649.7 861.8 650.1 849.2 662.25 834.6 669.45 820.6 682.4 800.55 693.9 784 703.45 765.65 710.6 773.7 713.3 782.95 715.2 761.45 718.6 742.35 718.6 723.8 724.05 703.75 727.3 Z"/>

<path fill="#262626" stroke="none" d="
M 703.75 727.3
Q 702 727.6 700.25 727.85 671.7 732.2 640 732.2 639.9 732.2 639.8 732.2
L 639.8 968.85
Q 639.9 968.85 640 968.85 650.55 968.9 660.95 968.85 659.3 898.6 673.05 831 682.7 783.05 700.25 736.45 702 731.85 703.75 727.3 Z"/>

<path fill="#242424" stroke="none" d="
M 754.05 386.85
Q 748.55 348.05 725.15 317.25 744.4 303.6 768.5 312 705.95 257.7 663.45 348.75 703.35 312.45 731.95 377.65 735.9 386.6 739.65 397.4
L 725.15 411.8 725.15 511.6 734.35 417.05 755.35 397.4 754.05 386.85
M 807.95 362.65
L 767.2 376.35
Q 745.6 433.5 750.1 480.1 764.1 430.5 794.75 414.45 800.05 412.3 805.3 410.15 825.3 401.75 844.65 391.65 904.8 360.2 958.95 312
L 807.95 362.65 Z"/>

<path fill="#E9E9E9" stroke="none" d="
M 786.9 304.1
Q 785 324.4 804 326.45
L 810.05 322.1 882.1 276.25
Q 886.5 280.5 892.6 280.5 898.8 280.5 903.35 276 907.7 271.6 907.7 265.4 907.7 259.15 903.35 254.7 898.8 250.3 892.6 250.3 886.35 250.3 881.95 254.7 877.5 259.15 877.5 265.4 877.5 268.45 878.55 271.15
L 807.95 296.55 786.9 304.1
M 704.45 248.95
Q 718.3 262.55 712 280.5 738.45 273.45 731.75 236.45 718 239.3 704.45 248.95
M 675.4 277.85
Q 673.3 280.5 671.45 283.1 682.95 291.3 683.15 305.4 698.25 287.8 692.35 259.1 683.8 267.1 675.4 277.85
M 669.8 238.85
Q 714.05 236.85 723.05 215.95 679.85 219.3 669.8 238.85
M 657.2 92.2
Q 657.2 85.1 652.1 80 647.1 75 640 75
L 640 175.15
Q 643.2 175.25 646.4 175.4 646.7 175.4 647.05 175.5
L 643.35 109.1
Q 643.45 109.1 643.6 109.05 648.4 108.05 652.1 104.3 657.2 99.3 657.2 92.2 Z"/>

<path fill="#382E62" stroke="none" d="
M 807.95 296.55
Q 801.4 273.15 790.85 254.2 760.75 230.25 731.75 236.45 738.45 273.45 712 280.5 718.3 262.55 704.45 248.95 698.4 253.3 692.35 259.1 698.25 287.8 683.15 305.4 682.95 291.3 671.45 283.1 657.1 303.15 654.25 321.2 652.25 331.95 641.15 332.7 640.45 332.75 639.9 332.75
L 639.8 332.75 639.8 398.6 663.45 385.55 663.45 348.75
Q 705.95 257.7 768.5 312 744.4 303.6 725.15 317.25 748.55 348.05 754.05 386.85
L 755.35 397.4 734.35 417.05 725.15 511.6
Q 726.6 514.65 728.2 517.4 729.9 520.6 731.75 523.45 732.75 529.1 732.1 534.2 729.5 551.65 705.5 561.5
L 656.85 541.8
Q 646.3 536.95 639.8 513.65
L 639.8 676.35
Q 676.35 718.4 742.35 718.6 761.45 718.6 782.95 715.2 773.7 713.3 765.65 710.6 722.45 696.3 710.75 658.65 784.5 693.85 834.6 669.45 849.2 662.25 861.8 650.1 862.25 649.7 862.65 649.25 866.9 645.1 870.95 640.3 867.9 640.95 864.95 641.55 864.6 641.55 864.35 641.65 860.1 642.4 856.05 642.95 807.95 649.65 773.8 628.45 814.8 637.35 844.05 626.5 850.85 623.9 857.05 620.3 861.8 617.5 866.15 614.1 866.2 614.1 866.2 614.05 866.4 613.85 866.7 613.7 890.15 594.95 902.5 557.6 883.55 575.65 865.1 583.15 861.8 584.45 858.55 585.45 858.25 585.55 858 585.65 840.65 590.75 823.65 586.5 839.8 582.6 851.8 574.9 852 574.7 852.2 574.6 856.5 571.8 860.3 568.45 881.4 549.85 885.4 515.55 865.9 538.2 846.4 546.05 838 549.35 829.6 549.95 829.35 549.95 829.1 550.05 811.3 551.05 793.5 539.7 797.35 537.05 800.65 534.2 802 533 803.3 531.85 803.4 531.7 803.55 531.6 810.15 525.4 815.1 518.1 815.3 517.75 815.55 517.4 821.5 508.2 824.95 497.15 794.1 509.7 781.6 481.25 777.1 481.6 772.45 481.7 761.65 481.8 750.1 480.1 745.6 433.5 767.2 376.35
L 807.95 362.65
Q 812.3 343.5 810.05 322.1
L 804 326.45
Q 785 324.4 786.9 304.1
L 807.95 296.55
M 740.1 534.2
Q 760.25 555.55 788.2 543.15 760.25 555.55 740.1 534.2 Z"/>

<path fill="#69A5B8" stroke="none" d="
M 732.2 204.35
Q 733.25 203.45 734.7 203.6 736.1 203.7 737 204.8 737.85 205.85 737.7 207.25 737.55 208.65 736.5 209.55
L 730.85 214.15
Q 723.9 244.05 666.7 245.8 656.45 262.75 641.35 263.55 640.7 263.65 640 263.65
L 639.8 263.65 639.8 332.75 639.9 332.75
Q 640.45 332.75 641.15 332.7 652.25 331.95 654.25 321.2 657.1 303.15 671.45 283.1 673.3 280.5 675.4 277.85 683.8 267.1 692.35 259.1 698.4 253.3 704.45 248.95 718 239.3 731.75 236.45 760.75 230.25 790.85 254.2 749.8 181 647.05 175.5 646.7 175.4 646.4 175.4 643.2 175.25 640 175.15 639.9 175.15 639.8 175.15
L 639.8 256.9 639.9 256.9
Q 639.95 256.9 640 256.9 640.3 256.9 640.55 256.85 640.75 256.8 640.9 256.8 653.2 255.7 661.6 241.15 669.3 212.25 726.55 208.9
L 732.2 204.35
M 646.4 300.2
L 652.9 285.75 646.4 300.2 Z"/>

<path fill="#548493" stroke="none" d="
M 734.7 203.6
Q 733.25 203.45 732.2 204.35
L 726.55 208.9
Q 669.3 212.25 661.6 241.15 653.2 255.7 640.9 256.8 640.75 256.8 640.55 256.85 640.3 256.9 640 256.9
L 640 263.65
Q 640.7 263.65 641.35 263.55 656.45 262.75 666.7 245.8 723.9 244.05 730.85 214.15
L 736.5 209.55
Q 737.55 208.65 737.7 207.25 737.85 205.85 737 204.8 736.1 203.7 734.7 203.6
M 723.05 215.95
Q 714.05 236.85 669.8 238.85 679.85 219.3 723.05 215.95 Z"/>
</g>

<g id="Layer16_0_FILL">
<path fill="#333333" stroke="none" d="
M 652.1 720.75
Q 656.9 715.95 656.9 709.2 656.9 702.45 652.1 697.65 647.35 692.85 640.55 692.85 633.8 692.85 629 697.65 624.25 702.45 624.25 709.2 624.25 715.95 629 720.75 633.8 725.55 640.55 725.55 647.35 725.55 652.1 720.75 Z"/>
</g>

<path id="Layer20_0_1_STROKES" stroke="#000000" stroke-opacity="0.2" stroke-width="6" stroke-linejoin="round" stroke-linecap="round" fill="none" d="
M 639.8 398.6
L 639.8 413.1 651.5 413.1
Q 653.65 413.05 655.55 412.55 656.35 412.2 657.15 411.85 659.2 410.85 661.05 409.05 665.05 405.05 665.05 399.35 665.05 393.6 661.05 389.55 660.45 389.05 659.9 388.6 659.55 388.3 659.15 388.05
M 687.05 371.1
Q 705.8 361.75 704.15 389 712 387.7 721.2 386.85 729.65 384.25 731.95 377.65
M 718.6 457.8
Q 714.75 430.05 692.35 410.6 679.4 412.6 660.8 410.5 664.5 401.9 677.35 396.2 681.6 394.35 686.65 392.8 694.4 390.55 704.15 389
M 655.55 412.55
L 655.55 439.35 679.25 439.35
Q 700.7 469.5 704.15 505.05
M 608.8 455.15
L 625.35 455.15
Q 627.95 462.25 639.8 463.4
L 639.9 463.4
Q 651.65 462.25 654.25 455.15
L 670.8 455.15
M 679.25 439.35
L 679.25 455.15
M 692.35 410.6
Q 717.6 406.7 721.2 386.85
M 561 457.8
Q 564.9 430.05 587.25 410.6 562 406.7 558.35 386.85 549.95 384.25 547.6 377.65
M 558.35 386.85
Q 567.6 387.7 575.45 389 573.8 361.75 592.5 371.1
M 587.25 410.6
Q 600.25 412.6 618.8 410.5 615.1 401.9 602.25 396.2 598.05 394.35 592.9 392.8 585.25 390.55 575.45 389
M 575.45 505.05
Q 578.95 469.5 600.4 439.35
L 624.05 439.35 624.05 412.55
Q 623.25 412.2 622.5 411.85 620.4 410.85 618.6 409.05 614.6 405.05 614.6 399.35 614.6 393.6 618.6 389.55 619.1 389.05 619.7 388.6 620.05 388.3 620.45 388.05
M 624.05 412.55
Q 626 413.05 628.1 413.1
L 639.8 413.1
M 600.4 439.35
L 600.4 455.15"/>

<path id="Layer17_0_1_STROKES" stroke="#000000" stroke-opacity="0.2" stroke-width="8" stroke-linejoin="round" stroke-linecap="round" fill="none" d="
M 697.6 515.55
L 672.65 497.15 607 497.15 582.05 515.55
M 740.1 534.2
Q 760.25 555.55 788.2 543.15
M 639.8 513.65
Q 638.55 513.65 637.2 513.55 621.7 513.5 617.45 519.5
M 633.25 300.2
L 626.65 285.75
M 542.6 530.8
Q 521.5 556.5 491.4 543.15
M 639.8 513.65
Q 640.1 513.65 640.45 513.65 641.45 513.55 642.45 513.55 657.85 513.5 662.15 519.5
M 646.4 300.2
L 652.9 285.75"/>

<path id="Layer17_0_2_STROKES" stroke="#000000" stroke-opacity="0.2" stroke-width="6" stroke-linejoin="round" stroke-linecap="round" fill="none" d="
M 805.3 410.15
Q 816.75 455.6 772.45 481.7
M 844.65 391.65
Q 867 429.4 821.35 469.55
M 474.35 410.15
Q 462.85 455.6 507.2 481.7
M 434.95 391.65
Q 412.65 429.4 458.25 469.55"/>
</defs>

<g transform="matrix( 1, 0, 0, 1, 0,0) ">
<use xlink:href="#Layer21_0_FILL"/>
</g>

<g transform="matrix( 1, 0, 0, 1, 0,0) ">
<use xlink:href="#Layer20_0_1_STROKES"/>
</g>

<g transform="matrix( 1, 0, 0, 1, 0,0) ">
<use xlink:href="#Layer19_0_FILL"/>
</g>

<g transform="matrix( 1, 0, 0, 1, 0,0) ">
<use xlink:href="#Layer18_0_FILL"/>
</g>

<g transform="matrix( 1, 0, 0, 1, 0,0) ">
<use xlink:href="#Layer17_0_FILL"/>

<use xlink:href="#Layer17_0_1_STROKES"/>

<use xlink:href="#Layer17_0_2_STROKES"/>
</g>

<g transform="matrix( 1, 0, 0, 1, 0,0) ">
<use xlink:href="#Layer16_0_FILL"/>
</g>
</svg>
