
<svg xmlns="http://www.w3.org/2000/svg" version="1.1" xmlns:xlink="http://www.w3.org/1999/xlink" preserveAspectRatio="none" x="0px" y="0px" width="1280px" height="1024px" viewBox="0 0 1280 1024">
<defs>
<image id="Bitmap_14" x="0" y="0" width="1821" height="2800" xlink:href="./images/Bitmap_14.png"/>

<g id="Layer4_0_FILL">
<path fill="#E7A996" stroke="none" d="
M -168 132
L -168 264 -36 264 -36 132 -168 132 Z"/>

<path fill="#F1C2AB" stroke="none" d="
M -36 132
L -36 0 -168 0 -168 132 -36 132 Z"/>
</g>

<g id="Layer3_0_FILL">
<path fill="#A73B2E" stroke="none" d="
M 922.15 917.6
Q 929.485546875 914.4046875 929.95 901.9
L 882.35 837.4 688.35 863.4 792.35 959.45
Q 857.4189453125 944.48125 922.15 917.6
M 671 470.35
Q 672.3 451.5 658 432.65
L 640 451.75 639 450.7 639 498.4
Q 639.498828125 498.71953125 640 499 656.8 489.6 671 470.35 Z"/>

<path fill="#CF4A3A" stroke="none" d="
M 488.2 959.6
L 592.35 863.4 398.35 837.4 350.05 903
Q 350.859765625 914.528125 357.85 917.6 422.8591796875 944.59140625 488.2 959.6
M 639 450.7
L 622 432.65
Q 607.7 451.5 609 470.35 622.7763671875 489.02578125 639 498.4
L 639 450.7 Z"/>

<path fill="#F1C2AB" stroke="none" d="
M 614.55 977.35
Q 626.7865234375 978.0234375 639 978.25
L 639.35 879.9 567.1 973.3
Q 590.817578125 976.1302734375 614.55 977.35
M 388 764.3
Q 385.229296875 766.1771484375 382.65 768.25
L 584.35 800.4 639.4 858.45 640 687.85 579.15 627
Q 582.048046875 649.832421875 581.3 670.25 581.19765625 673.6587890625 580.95 677 580.91875 677.9111328125 580.85 678.8 580.7826171875 679.7001953125 580.65 680.55 580.359765625 683.5734375 579.7 686.6
L 579.7 686.65 577.6 694.3 577.55 694.25
Q 574.580078125 695.6375 571.55 697 568.542578125 698.3501953125 388 764.3
M 529.25 517.2
L 529.2 517.2
Q 532.0498046875 542.141015625 539.55 565.05 540.05234375 566.658984375 540.55 568.2 541.1396484375 569.790234375 541.7 571.35 542.6828125 574.1095703125 543.7 576.85 555.4978515625 605.8501953125 579.1 626.95
L 579.15 626.95
Q 579.6013671875 627.2859375 580.05 627.6 591.75 635.7 602.85 641.15 618.2 648.65 632.55 651.05 635.3876953125 651.51640625 639 651.9
L 639 511.55
Q 580.2732421875 482.771484375 527.05 477.9 526.5154296875 497.87890625 529.25 517.2
M 747.85 433.25
Q 747.163671875 430.540234375 746.4 427.8 720.65 363.9 640 392.15
L 639.8 392
Q 639.3990234375 391.859765625 639 391.7 559.31640625 364.23125 533.7 427.8 533.0107421875 430.5365234375 532.4 433.2 571.8931640625 426.291015625 622 432.65
L 639 450.7 640 451.75 658 432.65
Q 671.35 430.95 683.95 430.2 706.95 428.85 727.5 430.65 737.996484375 431.54609375 747.85 433.25
M 639.55 428.4
Q 639.6751953125 428.1623046875 639.8 427.9 639.899609375 428.1126953125 640 428.3 640.025 428.3521484375 640.05 428.4
L 639.55 428.4 Z"/>

<path fill="#E7A996" stroke="none" d="
M 640.35 878.6
L 639.35 879.9 639 978.25
Q 639.4998046875 978.26640625 640 978.25 640.5001953125 978.26640625 641 978.25 653.2154296875 978.0244140625 665.4 977.35 689.5044921875 976.115234375 713.5 973.25
L 640.35 878.6
M 698.9 638.55
Q 699.786328125 628.9708984375 700.6 627.05 700.2044921875 627.3302734375 699.8 627.6 688.1 635.7 677 641.15 661.65 648.65 647.3 651.05 644.05 651.6 640 651.95
L 640 652
Q 639.4927734375 651.949609375 639 651.9 635.3876953125 651.51640625 632.55 651.05 618.2 648.65 602.85 641.15 591.75 635.7 580.05 627.6 579.6013671875 627.2859375 579.15 626.95
L 579.15 627 640 687.85 639.4 858.45 639.4 860.4 696.35 800.4 897.45 768.35
Q 894.8322265625 766.2197265625 892 764.3 708.054296875 697.0185546875 702.05 694.3 701.4552734375 694.025390625 700.85 693.75 699.861328125 687.3072265625 699.3 680.55 698.8658203125 675.4935546875 698.65 670.25 697.9078125 649.8091796875 698.9 638.55
M 639.8 427.9
Q 639.6751953125 428.1623046875 639.55 428.4
L 640.05 428.4
Q 640.025 428.3521484375 640 428.3 639.899609375 428.1126953125 639.8 427.9 Z"/>

<path fill="#F1CB2F" stroke="none" d="
M 382.65 768.25
L 264.35 749.4 353.3 818.65
Q 351.6236328125 826.280859375 350.7 834.7 350.19765625 839.7232421875 349.95 845
L 350 899
Q 349.9662109375 900.78046875 350.05 902.4 350.0658203125 902.703515625 350.05 903
L 398.35 837.4 592.35 863.4 488.2 959.6
Q 501.1029296875 962.557421875 514 965.05 540.52421875 970.16875 567.1 973.3
L 639.35 879.9 639.4 860.4 639.4 858.45 584.35 800.4 382.65 768.25
M 609 470.35
Q 607.7 451.5 622 432.65 571.8931640625 426.291015625 532.4 433.2 527.371875 455.218359375 527.15 474.8 527.0890625 476.3541015625 527.05 477.9 580.2732421875 482.771484375 639 511.55
L 639 498.4
Q 622.7763671875 489.02578125 609 470.35 Z"/>

<path fill="#314965" stroke="none" d="
M 639.05 291.3
L 639.05 291.9
Q 554.087890625 285.623046875 512.1 365
L 388 764.3
Q 568.542578125 698.3501953125 571.55 697 574.580078125 695.6375 577.55 694.25
L 577.6 694.3 579.7 686.65 579.7 686.6
Q 580.359765625 683.5734375 580.65 680.55 580.7826171875 679.7001953125 580.85 678.8 580.91875 677.9111328125 580.95 677 581.19765625 673.6587890625 581.3 670.25 582.048046875 649.832421875 579.15 627
L 579.15 626.95 579.1 626.95
Q 555.4978515625 605.8501953125 543.7 576.85 542.6828125 574.1095703125 541.7 571.35 541.1396484375 569.790234375 540.55 568.2 540.05234375 566.658984375 539.55 565.05 532.0498046875 542.141015625 529.2 517.2
L 529.25 517.2
Q 526.5154296875 497.87890625 527.05 477.9 527.0890625 476.3541015625 527.15 474.8 527.371875 455.218359375 532.4 433.2 533.0107421875 430.5365234375 533.7 427.8 559.31640625 364.23125 639 391.7 639.3990234375 391.859765625 639.8 392
L 639.8 291.6
Q 639.4265625 291.4671875 639.05 291.3 Z"/>

<path fill="#D7B142" stroke="none" d="
M 1016.35 749.4
L 897.45 768.35 696.35 800.4 639.4 860.4 639.35 879.9 640.35 878.6 713.5 973.25
Q 739.8466796875 970.100390625 766.1 965 779.2265625 962.4880859375 792.35 959.45
L 688.35 863.4 882.35 837.4 929.95 901.9
Q 930.0298828125 900.50390625 930 899
L 930.05 845
Q 929.6041015625 835.53203125 928.25 826.95 927.608203125 822.9453125 926.75 819.1
L 1016.35 749.4
M 752.8 477.9
Q 752.761328125 476.3603515625 752.7 474.8
L 752.9 474.8
Q 752.9232421875 463.9037109375 751.5 453 750.26328125 443.1421875 747.85 433.25 737.996484375 431.54609375 727.5 430.65 706.95 428.85 683.95 430.2 671.35 430.95 658 432.65 672.3 451.5 671 470.35 656.8 489.6 640 499 639.498828125 498.71953125 639 498.4
L 639 511.55
Q 639.4998046875 511.8033203125 640 512.05 661.9 501.25 683.1 493.75 713.65 482.95 742.6 479.1 747.703125 478.3640625 752.8 477.9 Z"/>

<path fill="#EAAB97" stroke="none" d="
M 752.85 487.65
L 752.9 484.45
Q 752.9015625 481.1908203125 752.8 477.9 747.703125 478.3640625 742.6 479.1 713.65 482.95 683.1 493.75 661.9 501.25 640 512.05 639.4998046875 511.8033203125 639 511.55
L 639 651.9
Q 639.4927734375 651.949609375 640 652
L 640 651.95
Q 644.05 651.6 647.3 651.05 661.65 648.65 677 641.15 688.1 635.7 699.8 627.6 700.2044921875 627.3302734375 700.6 627.05 700.6544921875 627.0302734375 700.7 627
L 700.7 626.95
Q 701.128125 626.56796875 701.55 626.15 724.3404296875 605.5265625 735.85 577.4 735.9884765625 577.1251953125 736.1 576.85 737.15 574.1 738.15 571.35 738.7 569.8 739.25 568.25 739.8 566.65 740.3 565.1 740.6392578125 564.062109375 740.95 563
L 748.7 530.85 750.1 521.2
Q 750.373046875 519.222265625 750.6 517.2 750.6275390625 517.005859375 750.65 516.8
L 750.65 516.55 750.65 516.55
Q 752.5046875 501.933203125 752.85 487.65 Z"/>

<path fill="#273950" stroke="none" d="
M 746.4 427.8
Q 747.163671875 430.540234375 747.85 433.25 750.26328125 443.1421875 751.5 453 752.9232421875 463.9037109375 752.9 474.8 752.932421875 476.35 752.95 477.9 752.9759765625 481.166015625 752.9 484.45
L 752.85 487.65
Q 752.5046875 501.933203125 750.65 516.55
L 750.65 516.55 750.65 516.8
Q 750.6291015625 517.04375 750.6 517.25
L 750.6 517.25
Q 750.609375 517.3611328125 750.6 517.45 750.585546875 517.5748046875 750.55 517.7 750.557421875 517.849609375 750.55 518 750.3568359375 519.621875 750.1 521.2
L 748.7 530.85 740.95 563
Q 740.6392578125 564.062109375 740.3 565.1 739.8 566.65 739.25 568.25 738.7 569.8 738.15 571.35 737.15 574.1 736.1 576.85 735.9884765625 577.1251953125 735.85 577.4 724.3404296875 605.5265625 701.55 626.15 701.128125 626.56796875 700.7 626.95
L 700.7 627
Q 700.6544921875 627.0302734375 700.6 627.05 699.786328125 628.9708984375 698.9 638.55 697.9078125 649.8091796875 698.65 670.25 698.8658203125 675.4935546875 699.3 680.55 699.861328125 687.3072265625 700.85 693.75 701.4552734375 694.025390625 702.05 694.3 708.054296875 697.0185546875 892 764.3
L 767.5 365
Q 725.6236328125 285.8337890625 641 291.85 640.7755859375 291.8833984375 640.55 291.9
L 640.55 291.35
Q 640.22109375 291.4595703125 639.9 291.55 639.8498046875 291.605078125 639.8 291.6
L 639.8 392 640 392.15
Q 720.65 363.9 746.4 427.8 Z"/>
</g>

<g id="Layer1_0_FILL">
<path fill="#333333" stroke="none" d="
M 592.4 517.05
Q 595.05 517.05 596.9 515.2 598.55 513.55 598.8 511.35 598.8 511 598.8 510.65 598.8 510.5 598.8 510.35 597.85 510.05 596.9 509.85 595.95 509.6 595 509.4 590.9 508.65 586.45 508.25 586.15 508.85 586.1 509.55 586 510.05 586 510.65 586 513.35 587.85 515.2 589.7 517.05 592.4 517.05 Z"/>

<path fill="#000000" fill-opacity="0.2" stroke="none" d="
M 562.2 509.25
Q 561.85 508.65 561.5 508.1 563.95 507.85 566.25 507.85
L 567.8 507.75
Q 571.9 507.55 575.85 507.6
L 577.5 507.65
Q 578.25 507.65 579.05 507.7 581.7 507.8 584.2 508.05 584.8 508.1 585.4 508.15 585.95 508.2 586.45 508.25 590.9 508.65 595 509.4 592.45 506.95 589.2 505.1 588.1 504.45 586.85 503.9 573.1 497.5 549.35 501.85 554.1 519.3 575.9 522.8 575.55 522.65 575.3 522.5
L 574.8 522.15
Q 574.2 521.85 573.6 521.45
L 562.2 509.25
M 712 507.75
L 713.6 507.85
Q 715.95 507.9 718.4 508.1 718.1 508.7 717.7 509.25
L 706.1 521.7
Q 705.5 522.1 704.9 522.4
L 704.4 522.75
Q 704.1 522.9 703.8 523.1 725.95 519.5 730.75 501.75 706.65 497.35 692.65 503.85 691.4 504.4 690.25 505.05 687 506.95 684.35 509.45 688.55 508.7 693.05 508.25 693.6 508.2 694.1 508.15 694.7 508.1 695.35 508.05 697.9 507.8 700.55 507.7 701.4 507.65 702.2 507.65
L 703.85 507.6
Q 707.9 507.55 712 507.75 Z"/>

<path fill="#FFFFFF" stroke="none" d="
M 561.5 508.1
Q 561.85 508.65 562.2 509.25
L 573.6 521.45
Q 574.2 521.85 574.8 522.15
L 575.3 522.5
Q 575.55 522.65 575.9 522.8 592.15 531.7 617 518.55 615.8 517.7 614.5 516.85 614.4 516.8 614.35 516.75 613.05 515.95 611.75 515.2 609.8 514.2 607.7 513.25 604.9 512.05 601.75 511.2 600.25 510.7 598.8 510.35 598.8 510.5 598.8 510.65 598.8 511 598.8 511.35 598.55 513.55 596.9 515.2 595.05 517.05 592.4 517.05 589.7 517.05 587.85 515.2 586 513.35 586 510.65 586 510.05 586.1 509.55 586.15 508.85 586.45 508.25 585.95 508.2 585.4 508.15 584.8 508.1 584.2 508.05 581.7 507.8 579.05 507.7 578.25 507.65 577.5 507.65
L 575.85 507.6
Q 571.9 507.55 567.8 507.75
L 566.25 507.85
Q 563.95 507.85 561.5 508.1
M 713.6 507.85
L 712 507.75
Q 707.9 507.55 703.85 507.6
L 702.2 507.65
Q 701.4 507.65 700.55 507.7 697.9 507.8 695.35 508.05 694.7 508.1 694.1 508.15 693.6 508.2 693.05 508.25 693.35 508.85 693.45 509.6 693.55 510.1 693.55 510.75 693.55 513.45 691.65 515.35 689.75 517.25 687 517.25 684.3 517.25 682.4 515.35 680.75 513.65 680.5 511.4 680.5 511.05 680.5 510.75 680.5 510.55 680.5 510.4 679 510.75 677.5 511.25 674.3 512.1 671.45 513.35 669.3 514.3 667.3 515.35 666 516.1 664.7 516.9 664.6 516.95 664.5 517 663.25 517.85 662 518.75 687.25 532.1 703.8 523.1 704.1 522.9 704.4 522.75
L 704.9 522.4
Q 705.5 522.1 706.1 521.7
L 717.7 509.25
Q 718.1 508.7 718.4 508.1 715.95 507.9 713.6 507.85 Z"/>

<path fill="#000000" fill-opacity="0.2980392156862745" stroke="none" d="
M 563.65 479.5
Q 562.7 479.65 561.7 479.9 576.7 488.1 591.75 495.45
L 624.85 511.75 612.7 498.45
Q 588.85 487.65 563.65 479.5
M 717.95 479.9
Q 716.95 479.65 716.05 479.5 690.8 487.65 666.95 498.45
L 654.8 511.75 687.9 495.45
Q 702.95 488.1 717.95 479.9 Z"/>

<path fill="#282828" stroke="none" d="
M 691.65 515.35
Q 693.55 513.45 693.55 510.75 693.55 510.1 693.45 509.6 693.35 508.85 693.05 508.25 688.55 508.7 684.35 509.45 683.4 509.65 682.4 509.85 681.45 510.1 680.5 510.4 680.5 510.55 680.5 510.75 680.5 511.05 680.5 511.4 680.75 513.65 682.4 515.35 684.3 517.25 687 517.25 689.75 517.25 691.65 515.35 Z"/>
</g>

<g id="Layer0_0_FILL">
<path fill="#F49799" stroke="none" d="
M 639.75 591.2
Q 633 586.15 618.45 591.85
L 604.35 598.4
Q 609.5 615.55 639.75 617.1 639.9 617.1 640 617.1
L 640 601.55 622.2 601.2
Q 625.25 601 628.2 600.35 632 599.15 635.7 600.05 638.35 600.75 639.75 599.85 639.85 599.95 640 600
L 640 591.05
Q 639.85 591.1 639.75 591.2 Z"/>

<path fill="#FFFFFF" stroke="none" d="
M 656.5 601.15
Q 653.9 600.9 651.2 600.35 647.45 599.15 643.7 600.05 641.3 600.7 640 600 639.85 599.95 639.75 599.85 638.35 600.75 635.7 600.05 632 599.15 628.2 600.35 625.25 601 622.2 601.2
L 640 601.55 656.5 601.15 Z"/>

<path fill="#D18183" stroke="none" d="
M 651.2 600.35
Q 653.9 600.9 656.5 601.15
L 640 601.55 640 617.1
Q 669.95 615.5 675.1 598.4
L 661 591.85
Q 646.65 586.25 640 591.05
L 640 600
Q 641.3 600.7 643.7 600.05 647.45 599.15 651.2 600.35 Z"/>
</g>

<path id="Layer3_0_1_STROKES" stroke="#000000" stroke-opacity="0.2" stroke-width="0.1" stroke-linejoin="round" stroke-linecap="round" fill="none" d="
M 746.4 427.8
Q 720.65 363.9 640 392.15"/>

<path id="Layer2_0_1_STROKES" stroke="#000000" stroke-opacity="0.2" stroke-width="8" stroke-linejoin="round" stroke-linecap="round" fill="none" d="
M 760.4 764.6
Q 689.25 770.2 662.55 790.5
M 518.7 764.6
Q 589.85 770.2 616.55 790.5
M 426.1 936.2
Q 428.65 902.85 457.05 874.35 481.3 851.1 483.05 821.15
M 854 936.2
Q 851.45 902.85 823.05 874.35 798.8 851.1 797.05 821.15"/>

<path id="Symbole_33_0_Layer0_0_1_STROKES" stroke="#000000" stroke-opacity="0.2" stroke-width="8" stroke-linejoin="round" stroke-linecap="round" fill="none" d="
M 5.5 2.35
L 0 0
M 19.15 2.35
L 24.6 0"/>
</defs>

<g transform="matrix( 1, 0, 0, 1, 1325,-442) ">
<use xlink:href="#Bitmap_14"/>
</g>

<g transform="matrix( 1, 0, 0, 1, 0,0) ">
<use xlink:href="#Layer4_0_FILL"/>
</g>

<g transform="matrix( 1, 0, 0, 1, 0,0) ">
<use xlink:href="#Layer3_0_FILL"/>

<use xlink:href="#Layer3_0_1_STROKES"/>
</g>

<g transform="matrix( 1, 0, 0, 1, 0,0) ">
<use xlink:href="#Layer2_0_1_STROKES"/>
</g>

<g transform="matrix( 1, 0, 0, 1, 627.7,569.25) ">
<g transform="matrix( 1, 0, 0, 1, 0,0) ">
<use xlink:href="#Symbole_33_0_Layer0_0_1_STROKES"/>
</g>
</g>

<g transform="matrix( 1, 0, 0, 1, 0,0) ">
<use xlink:href="#Layer1_0_FILL"/>
</g>

<g transform="matrix( 1, 0, 0, 1, 0,0) ">
<use xlink:href="#Layer0_0_FILL"/>
</g>
</svg>
