
<svg xmlns="http://www.w3.org/2000/svg" version="1.1" xmlns:xlink="http://www.w3.org/1999/xlink" preserveAspectRatio="none" x="0px" y="0px" width="1280px" height="1024px" viewBox="0 0 1280 1024">
<defs>
<g id="Layer8_0_FILL">
<path fill="#D6222B" stroke="none" d="
M 576.8 592.05
L 581.35 589.55 576.8 583.4 576.8 580.15 504.95 483
Q 510.3 579.7 499 636.7
L 536.2 616 503.8 636.7
Q 514 641.4 524.2 645.1 533.65 648.55 543.15 651.1
L 576.8 614.35 576.8 611.7 589.6 597.7 583.1 591.25
Q 578.7896484375 592.99375 574.4 594.9
L 574.4 596
Q 565.59921875 599.9994140625 556.45 604.75
L 576.8 593.45 576.8 592.05 Z"/>

<path fill="#B01B22" stroke="none" d="
M 722.4 566.6
L 705.45 589.55 722.4 598.95 722.4 599.55
Q 712.8703125 594.95703125 703.7 591.25
L 697.2 597.7 722.4 625.25 722.4 631.4 740.45 651.1
Q 749.95 648.55 759.4 645.1 769.6 641.4 779.8 636.7
L 747.4 616 784.6 636.7
Q 773.3 579.7 778.65 483
L 722.4 559.05 722.4 566.6 Z"/>
</g>

<g id="Layer7_0_FILL">
<path fill="#32C1FD" stroke="none" d="
M 640 741.85
Q 617.8568359375 738.738671875 596.45 731.95
L 640 802.5 640 741.85
M 370.45 714.25
Q 334.85 727.75 332.05 729.6 397.4 836.35 416.5 954.7 461.85 966.2 507 973.1 529.3 976.5 551.6 978.85 560.35 979.75 569.15 980.45 588.5 982.1 607.9 982.85 608.3 982.85 608.75 982.9 609.45 982.9 610.2 982.95 624.7 983.5 639.2 983.55 639.461328125 983.55 640 983.55
L 640 950.75
Q 567.5169921875 834.3296875 545.6 710 540.8 682.75 538.4 655.1 504.75 670.15 455.4 685.45 406 700.7 370.45 714.25 Z"/>

<path fill="#2BA7DC" stroke="none" d="
M 640.5 741.85
Q 640.45 741.85 640.4 741.9 640.2001953125 741.872265625 640 741.85
L 640 802.5 640.3 803 640.3 803.1 640.35 803 684.2 731.95
Q 662.75 738.75 640.5 741.85
M 742.25 655.1
Q 739.85 682.75 735.05 710 713.05 834.8 640.55 951.65 640.275 951.2095703125 640 950.75
L 640 983.55
Q 640.2859375 983.55 640.65 983.55
L 643.15 983.55
Q 643.3 983.55 643.4 983.55 656.95 983.45 670.45 982.95 671.2 982.9 671.9 982.9 672.35 982.85 672.75 982.85 692.15 982.1 711.5 980.45 720.3 979.75 729.05 978.85 751.35 976.5 773.65 973.1 818.8 966.2 864.15 954.7 864.2 954.5 864.2 954.35 883.35 836.3 948.45 729.85 948.55 729.7 948.6 729.6 947.2 728.7 937.7 724.9 928.1 721.05 910.2 714.25 874.65 700.7 825.25 685.45 775.9 670.15 742.25 655.1 Z"/>

<path fill="#506BD0" stroke="none" d="
M 544.4 605.1
L 538.4 655.1
Q 540.8 682.75 545.6 710 570.45 723.7 596.45 731.95 617.8568359375 738.738671875 640 741.85 640.2001953125 741.872265625 640.4 741.9 640.45 741.85 640.5 741.85
L 640.55 704 544.4 605.1
M 275.15 741.6
Q 252.6 750.8 236.75 766.75 207.2 796.5 194.35 871.95 200.55 874.5 206.05 877.15 311.7 928.15 416.5 954.7 397.4 836.35 332.05 729.6 299.65 731.65 275.15 741.6 Z"/>

<path fill="#333333" stroke="none" d="
M 596.45 731.95
Q 570.45 723.7 545.6 710 567.5169921875 834.3296875 640 950.75
L 640 802.5 596.45 731.95 Z"/>

<path fill="#4258AC" stroke="none" d="
M 1040.25 766.75
Q 1025.1 751.5 1003.85 742.45 980 732.25 948.45 729.85 883.35 836.3 864.2 954.35 968.25 927.8 1073.15 877.15 1077.05 875.3 1080.95 873.35 1081.5 873.1 1082.05 872.8 1082.4 872.25 1082.7 872.1 1077.6 842 1069.85 819.2 1063.55 800.8 1055.6 787.15 1048.6 775.1 1040.25 766.75
M 735.05 710
Q 739.85 682.75 742.25 655.1
L 725.8 548.6 638.5 549.4 551.15 548.6 544.4 605.1 640.55 704 640.5 741.85
Q 662.75 738.75 684.2 731.95 710.2 723.7 735.05 710 Z"/>

<path fill="#252525" stroke="none" d="
M 735.05 710
Q 710.2 723.7 684.2 731.95
L 640.35 803 640.3 803.1 640.3 803 640 802.5 640 950.75
Q 640.275 951.2095703125 640.55 951.65 713.05 834.8 735.05 710 Z"/>
</g>

<g id="Layer5_0_FILL">
<path fill="#000000" fill-opacity="0.2" stroke="none" d="
M 585.3 688.45
Q 583.95 687.45 582.25 687.75 580.55 688.05 579.55 689.45 578.6 690.8 578.85 692.55 589 752.25 624.25 795.25 625.35 796.55 627.05 796.75 628.75 796.95 630.1 795.85 631.35 794.75 631.6 793.05 631.75 791.3 630.65 790 596.75 748.6 587 691.15 586.7 689.45 585.3 688.45
M 403.45 738.85
Q 402.15 739.95 401.95 741.65 401.8 743.3 402.95 744.65 404 745.95 405.7 746.15 471.4 752.5 549.5 782.8 551.05 783.35 552.6 782.7 554.2 782 554.85 780.4 555.45 778.75 554.75 777.25 554.05 775.7 552.5 775.1 473.15 744.3 406.5 737.9 404.8 737.7 403.45 738.85
M 725.5 780.65
Q 724.8 782.2 725.45 783.85 726.05 785.4 727.6 786.1 729.15 786.8 730.75 786.2 808.85 755.9 874.55 749.55 876.2 749.35 877.3 748.05 878.45 746.7 878.3 745.05 878.05 743.35 876.75 742.25 875.45 741.15 873.8 741.3 807.1 747.7 727.75 778.5 726.1 779.1 725.5 780.65
M 699.7 689.45
Q 698.75 688.05 697.1 687.75 695.4 687.45 694 688.45 692.6 689.45 692.3 691.15 682.55 748.6 648.65 790 647.6 791.3 647.75 793.05 647.95 794.75 649.3 795.85 650.55 796.95 652.3 796.75 654 796.55 655.1 795.25 690.3 752.25 700.45 692.55 700.75 690.8 699.7 689.45 Z"/>
</g>

<g id="Layer4_0_FILL">
<path fill="#364991" stroke="none" d="
M 640 573.4
Q 639.95 573.372265625 639.9 573.35 639.45 573.55 639 573.75 638.3 574.05 637.6 574.35 595.02265625 592.373046875 536.6 583.3 539.410546875 603.0947265625 549.05 614.85
L 561.15 626.1 605.4 667.25
Q 617.35 679.25 629.25 678.6
L 639.25 678.6 640.75 678.6 640 573.65 640 573.6 640 573.4 Z"/>

<path fill="#F2C2A9" stroke="none" d="
M 531.75 528
L 531.75 528.05 536.3 580.8
Q 536.4185546875 581.82265625 536.55 582.8
L 536.55 582.85
Q 536.567578125 582.920703125 536.55 582.95 536.5998046875 583.1564453125 536.6 583.3 595.02265625 592.373046875 637.6 574.35 638.3 574.05 639 573.75 639.45 573.55 639.9 573.35 639.95 573.372265625 640 573.4
L 640 564.95 640 561.35
Q 639.8580078125 552.43515625 639.8 543.55 639.8259765625 543.2375 639.8 542.9
L 531.5 526.4 531.75 528
M 552.75 444.55
L 547.85 444.55 547.85 451.85 585.35 433.25 565.1 433.25 565.1 434.3 559.6 434.3 559.6 439.2 552.75 439.2 552.75 444.55
M 638.55 293.05
Q 639.35859375 293.070703125 640.15 293.1
L 640.15 293.05 638.55 293.05
M 601.1 296.25
Q 600.1390625 296.460546875 599.15 296.65 595.1525390625 297.493359375 591.35 298.6 586.15 300 581.2 302.1 579.4767578125 302.7853515625 577.8 303.55 587.7662109375 299.28984375 599.15 296.7 600.141796875 296.4833984375 601.1 296.25 Z"/>

<path fill="#2B3A76" stroke="none" d="
M 743.3 583.75
Q 743.35859375 583.536328125 743.4 583.3 741.7755859375 583.5478515625 740.2 583.8 682.75 592.05 640.8 573.75 640.4 573.572265625 640 573.4
L 640 573.6 640 573.65 640.75 678.6 639.25 678.6 639.25 678.65 650.75 678.65
Q 662.65 679.35 674.6 667.3
L 720.4 624.75 730.95 614.9
Q 740.4916015625 603.2638671875 743.3 583.75 Z"/>

<path fill="#E8A994" stroke="none" d="
M 748.25 528.05
L 748.4 527 642 543.25 639.8 542.9
Q 639.8259765625 543.2375 639.8 543.55 639.8580078125 552.43515625 640 561.35
L 640 564.95 640 573.4
Q 640.4 573.572265625 640.8 573.75 682.75 592.05 740.2 583.8 741.7755859375 583.5478515625 743.4 583.3 743.555859375 582.0916015625 743.7 580.85
L 748.25 528.1 748.25 528.05
M 640.6 293.1
L 640.6 293.05 640.15 293.05 640.15 293.1
Q 640.3748046875 293.0935546875 640.6 293.1
M 731.8 449.65
L 731.8 443.25 727.5 443.25 727.5 436 721.15 436 721.15 432.2 696.55 432.2 731.8 449.65 Z"/>

<path fill="#F9FD34" stroke="none" d="
M 524.65 463.35
L 510.15 443.3 437 342.35 524.65 525.35 524.65 463.35
M 601.1 296.25
Q 600.141796875 296.4833984375 599.15 296.7
L 627 412.6 640.15 406.05 640.15 293.1
Q 639.35859375 293.070703125 638.55 293.05 638.3123046875 293.0513671875 638.05 293.05
L 634.15 293.05
Q 616.2986328125 293.1404296875 601.1 296.25 Z"/>

<path fill="#D6222B" stroke="none" d="
M 577.8 303.55
Q 576.132421875 304.270703125 574.5 305.05 568.8404296875 307.7521484375 563.7 311.05 509.616015625 344.940234375 510.15 443.3
L 524.65 463.35 547.85 451.85 547.85 444.55 552.75 444.55 552.75 439.2 559.6 439.2 559.6 434.3 565.1 434.3 565.1 433.25 585.35 433.25 627 412.6 599.15 296.7
Q 587.7662109375 299.28984375 577.8 303.55 Z"/>

<path fill="#C9C710" stroke="none" d="
M 657 412.6
L 683.95 297.35
Q 666.8203125 293.1421875 645.85 293.1
L 643 293.1 642.75 293.1 641 293.1 640.6 293.1
Q 640.3748046875 293.0935546875 640.15 293.1
L 640.15 406.05 642 405.15 657 412.6
M 773.85 443.35
L 759.35 463.35 759.35 525.35 847 342.35 773.85 443.35 Z"/>

<path fill="#B01B22" stroke="none" d="
M 731.8 449.65
L 759.35 463.35 773.85 443.35
Q 774.6943359375 289.8732421875 642.75 293.1
L 643 293.1 645.85 293.1
Q 666.8203125 293.1421875 683.95 297.35
L 657 412.6 696.55 432.2 721.15 432.2 721.15 436 727.5 436 727.5 443.25 731.8 443.25 731.8 449.65 Z"/>
</g>

<g id="Layer3_0_FILL">
<path fill="#333333" stroke="none" d="
M 533.35 528.05
Q 494.5 533.45 455.6 518 484.55 573.25 535.4 616
L 533.35 528.05
M 825.8 518
Q 786.9 533.45 748.05 528.05
L 746 616
Q 796.85 573.25 825.8 518 Z"/>
</g>

<g id="Layer2_0_FILL">
<path fill="#32C1FD" stroke="none" d="
M 534.65 471.35
Q 538.15859375 461.948828125 542.1 454.7
L 524.65 463.35 524.65 525.35 532.95 526.6 534.65 471.35
M 605.65 444.35
Q 595.7958984375 436.0298828125 586.9 432.45
L 542.1 454.7
Q 538.15859375 461.948828125 534.65 471.35
L 532.95 526.6 639.8 542.9
Q 639.7419921875 526.771875 640 510.7
L 640 509.55 640 486 640 485.5 640 478.55 640 477.25 605.65 444.35
M 640.15 427.95
L 640.15 417.8 640.15 406.05 586.9 432.45
Q 595.7958984375 436.0298828125 605.65 444.35
L 640 477.25 640 474.95 640 471.7 640 466.6
Q 640.169921875 464.3900390625 640 461.6 640.2123046875 449.905078125 640.2 438 640.1021484375 433.16171875 640.15 427.95 Z"/>

<path fill="#2BA7DC" stroke="none" d="
M 640 478.55
L 640.65 477.9 640 477.25 640 478.55
M 695.75 431.95
Q 695.8326171875 431.9201171875 695.9 431.9
L 642 405.15 640.15 406.05 640.15 417.8 640.15 427.95
Q 640.1021484375 433.16171875 640.2 438 640.2123046875 449.905078125 640 461.6 640.169921875 464.3900390625 640 466.6
L 640 471.7 640 474.95 640 477.25 640.65 477.9 675.7 444.35
Q 685.55 436.05 694.4 432.5 695.1 432.2 695.75 431.95
M 759.35 463.35
L 738.2 452.85
Q 738.2845703125 452.984765625 738.35 453.1 738.8 453.9 739.2 454.7 743.2 461.95 746.7 471.35
L 748.35 526.65 746.7 471.35
Q 743.2 461.95 739.2 454.7 738.8 453.9 738.35 453.1 738.2845703125 452.984765625 738.2 452.85
L 695.9 431.9
Q 695.8326171875 431.9201171875 695.75 431.95 695.1 432.2 694.4 432.5 685.55 436.05 675.7 444.35
L 640.65 477.9 640 478.55 640 485.5 640 486 640 509.55 640 510.7
Q 639.7419921875 526.771875 639.8 542.9
L 642 543.25 759.35 525.35 759.35 463.35 Z"/>
</g>

<g id="Layer1_0_FILL">
<path fill="#333333" fill-opacity="0.4" stroke="none" d="
M 588.6 514.5
Q 589.75 514.95 591.1 514.95 593.9 514.95 595.9 512.95 597.85 511 597.85 508.2 597.85 507.4 597.7 506.7
L 591.8 505 586.35 503.4
Q 586.3 503.45 586.3 503.5 584.4 505.4 584.35 508.1 584.35 508.15 584.35 508.2 584.35 511 586.35 512.95 587.35 514 588.6 514.5 Z"/>

<path fill="#94DCFD" stroke="none" d="
M 560.35 499.9
L 565.4 511.25
Q 580.3 530.4 609.2 518
L 609.2 517.95
Q 609.45 517.8 609.65 517.65 612.8 515.1 613.4 514.3 613.9 513.7 614.2 513.4 614.25 513.35 614.35 513.3 614.35 513.25 614.4 513.2 614.45 513.15 614.5 513.1 614.7 513 614.85 512.8 612.95 512.05 610.95 511.35 610.2 510.9 609.35 510.45 608.4 510.05 607.4 509.7 604 508.5 600.55 507.45 600 507.25 599.5 507.1 598.4 506.75 597.35 506.5 596.1 506.15 595 505.85 593.2 505.35 591.8 505
L 597.7 506.7
Q 597.85 507.4 597.85 508.2 597.85 511 595.9 512.95 593.9 514.95 591.1 514.95 589.75 514.95 588.6 514.5 587.35 514 586.35 512.95 584.35 511 584.35 508.2 584.35 508.15 584.35 508.1 584.4 505.4 586.3 503.5 585.6 503.25 584.9 503.1 583.1 502.7 581.2 502.3
L 560.35 499.9 Z"/>

<path fill="#333333" fill-opacity="0.2" stroke="none" d="
M 696.7 503.55
Q 696.65 503.5 696.55 503.4
L 686.4 506.35 685.2 506.7
Q 685.05 507.4 685.05 508.2 685.05 511 687 512.95 689 514.95 691.8 514.95 693.15 514.95 694.3 514.5 695.55 514 696.55 512.95 698.55 511 698.55 508.2 698.55 508.15 698.55 508.1 698.5 505.45 696.7 503.55 Z"/>

<path fill="#32C1FD" stroke="none" d="
M 716 511.75
L 721.05 500.4 700.2 502.8
Q 698.4 503.2 696.7 503.55 698.5 505.45 698.55 508.1 698.55 508.15 698.55 508.2 698.55 511 696.55 512.95 695.55 514 694.3 514.5 693.15 514.95 691.8 514.95 689 514.95 687 512.95 685.05 511 685.05 508.2 685.05 507.4 685.2 506.7
L 686.4 506.35
Q 685.3 506.65 684.05 507 683 507.25 681.9 507.6 681.4 507.75 680.85 507.95 677.4 509 674 510.2 673 510.55 672.05 510.95 671.2 511.4 670.45 511.85 668.45 512.55 666.55 513.3 666.7 513.5 666.9 513.6 666.95 513.65 667 513.7 667.05 513.75 667.05 513.8 667.15 513.85 667.2 513.9 667.5 514.2 668 514.8 668.6 515.6 671.75 518.15 671.95 518.3 672.2 518.45
L 672.2 518.5
Q 701.1 530.9 716 511.75 Z"/>
</g>

<path id="Layer8_0_1_STROKES" stroke="#333333" stroke-width="8" stroke-linejoin="round" stroke-linecap="round" fill="none" d="
M 747.4 616
L 779.8 636.7
Q 769.6 641.4 759.4 645.1 749.95 648.55 740.45 651.1
M 536.2 616
L 503.8 636.7
Q 514 641.4 524.2 645.1 533.65 648.55 543.15 651.1"/>

<path id="Layer6_0_1_STROKES" stroke="#000000" stroke-opacity="0.2" stroke-width="8" stroke-linejoin="round" stroke-linecap="round" fill="none" d="
M 321.1 916.15
Q 318.65 903.45 318.55 890.6 318.35 872.05 323.1 853.15
M 954.8 851.05
Q 961.35 877.3 958.5 902.9 957.9 908.5 956.8 914.05"/>

<path id="Layer5_0_1_STROKES" stroke="#000000" stroke-opacity="0.2" stroke-width="8" stroke-linejoin="round" stroke-linecap="round" fill="none" d="
M 641.05 869.8
L 641.05 973.05"/>

<path id="Layer3_0_1_STROKES" stroke="#333333" stroke-width="8" stroke-linejoin="round" stroke-linecap="round" fill="none" d="
M 748.05 528.05
L 746 616
M 533.35 528.05
L 535.4 616"/>

<path id="Layer2_0_1_STROKES" stroke="#333333" stroke-opacity="0.2" stroke-width="8" stroke-linejoin="round" stroke-linecap="round" fill="none" d="
M 739.2 454.7
Q 743.2 461.95 746.7 471.35
L 748.35 526.65
M 694.4 432.5
Q 685.55 436.05 675.7 444.35
L 640.675 477.9 640 478.55
M 640 477.25
L 640.675 477.9
M 586.925 432.475
Q 595.7958984375 436.0298828125 605.65 444.35
L 640 477.25
M 532.975 526.625
L 534.65 471.35
Q 538.15859375 461.948828125 542.125 454.7"/>

<path id="Layer2_0_2_STROKES" stroke="#333333" stroke-width="8" stroke-linejoin="round" stroke-linecap="round" fill="none" d="
M 738.225 452.875
Q 738.2845703125 452.984765625 738.35 453.1 738.8 453.9 739.2 454.7
M 695.925 431.9
Q 695.8326171875 431.9201171875 695.75 431.95 695.1 432.2 694.4 432.5
M 542.125 454.7
Q 542.5533203125 453.8828125 543 453.1 560.2 422.75 585.6 431.95 586.2650390625 432.1927734375 586.925 432.475
M 738.225 452.875
Q 721.1095703125 422.883203125 695.925 431.9"/>

<path id="Layer1_0_1_STROKES" stroke="#333333" stroke-opacity="0.4" stroke-width="10.95" stroke-linejoin="round" stroke-linecap="round" fill="none" d="
M 619.05 507
L 577.2 486.8
Q 565.4 482.5 556.6 488.15"/>

<path id="Layer1_0_2_STROKES" stroke="#333333" stroke-opacity="0.2" stroke-width="10.95" stroke-linejoin="round" stroke-linecap="round" fill="none" d="
M 662.75 507
L 704.7 486.8
Q 716.45 482.5 725.25 488.15"/>

<path id="Layer0_0_1_STROKES" stroke="#000000" stroke-opacity="0.2" stroke-width="8" stroke-linejoin="round" stroke-linecap="round" fill="none" d="
M 628.75 555.7
Q 640.85 559.45 651.45 555.7"/>
</defs>

<g transform="matrix( 1, 0, 0, 1, 0,0) ">
<use xlink:href="#Layer8_0_FILL"/>

<use xlink:href="#Layer8_0_1_STROKES"/>
</g>

<g transform="matrix( 1, 0, 0, 1, 0,0) ">
<use xlink:href="#Layer7_0_FILL"/>
</g>

<g transform="matrix( 1, 0, 0, 1, 0,0) ">
<use xlink:href="#Layer6_0_1_STROKES"/>
</g>

<g transform="matrix( 1, 0, 0, 1, 0,0) ">
<use xlink:href="#Layer5_0_FILL"/>

<use xlink:href="#Layer5_0_1_STROKES"/>
</g>

<g transform="matrix( 1, 0, 0, 1, 0,0) ">
<use xlink:href="#Layer4_0_FILL"/>
</g>

<g transform="matrix( 1, 0, 0, 1, 0,0) ">
<use xlink:href="#Layer3_0_FILL"/>

<use xlink:href="#Layer3_0_1_STROKES"/>
</g>

<g transform="matrix( 1, 0, 0, 1, 0,0) ">
<use xlink:href="#Layer2_0_FILL"/>

<use xlink:href="#Layer2_0_1_STROKES"/>

<use xlink:href="#Layer2_0_2_STROKES"/>
</g>

<g transform="matrix( 1, 0, 0, 1, 0,0) ">
<use xlink:href="#Layer1_0_FILL"/>

<use xlink:href="#Layer1_0_1_STROKES"/>

<use xlink:href="#Layer1_0_2_STROKES"/>
</g>

<g transform="matrix( 1, 0, 0, 1, 0,0) ">
<use xlink:href="#Layer0_0_1_STROKES"/>
</g>
</svg>
