
<svg xmlns="http://www.w3.org/2000/svg" version="1.1" xmlns:xlink="http://www.w3.org/1999/xlink" preserveAspectRatio="none" x="0px" y="0px" width="1280px" height="1024px" viewBox="0 0 1280 1024">
<defs>
<g id="Layer17_0_FILL">
<path fill="#F2C2A9" stroke="none" d="
M 539.25 655.1
Q 524.7572265625 655.326171875 509.9 657.2 519.3587890625 672.2978515625 543.8 684.35 583.3205078125 703.8375 639.05 704
L 545.2 605.1 539.25 655.1 Z"/>

<path fill="#FF8C32" stroke="none" d="
M 276 741.6
Q 253.45 750.8 237.6 766.75 208.05 796.5 195.2 871.95 201.4 874.5 206.9 877.15 358.25 950.2 507.85 973.1 574.1232421875 983.233984375 640.05 983.5 640.449609375 983.5484375 640.85 983.55
L 640.85 983.5 640.85 839
Q 640.15 838.6 639.45 838.25
L 639.45 704.4 639.05 704
Q 583.3205078125 703.8375 543.8 684.35 519.3587890625 672.2978515625 509.9 657.2 490.8771484375 659.590625 471.25 664.7 465.6896484375 666.1685546875 460.05 667.85 401.6330078125 685.1357421875 338.5 725.95 335.7009765625 727.749609375 332.9 729.6 300.5 731.65 276 741.6 Z"/>

<path fill="#D7762A" stroke="none" d="
M 769.95 657.35
Q 760.50546875 672.371484375 736.15 684.35 708.75 697.9 673.45 702.1 657.55 704 640 704 639.533984375 704 639.05 704
L 639.45 704.4 639.45 838.25
Q 640.15 838.6 640.85 839
L 640.85 983.5 640.85 983.55
Q 706.751953125 983.2384765625 773.05 973.1 922.65 950.2 1074 877.15 1077.9 875.3 1081.8 873.35 1082.3466796875 873.0767578125 1082.9 872.8 1083.2439453125 872.24609375 1083.55 872.1
L 1083.55 872.05
Q 1078.4365234375 842.0115234375 1070.65 819.2 1064.410546875 800.804296875 1056.4 787.1 1049.4287109375 775.1208984375 1041.1 766.75 1025.95 751.5 1004.7 742.45 979.55 731.7 945.8 729.6 881.05 686.8 821.3 668.6 795.1568359375 660.6298828125 769.95 657.35 Z"/>

<path fill="#EAA993" stroke="none" d="
M 742 655.15
Q 740.748828125 655.1205078125 739.5 655.1
L 726.65 548.6 639.35 549.4 552 548.6 545.2 605.1 639.05 704
Q 639.533984375 704 640 704 657.55 704 673.45 702.1 708.75 697.9 736.15 684.35 760.50546875 672.371484375 769.95 657.35 755.8361328125 655.511328125 742 655.15 Z"/>
</g>

<g id="Layer7_0_FILL">
<path fill="#F2C2A9" stroke="none" d="
M 524.1 443.9
Q 499.65 434.5 501.95 475.85 504.2 517.15 529.4 535.75 539.25 542.95 539.6 530.35
L 524.1 443.9
M 522.75 469.6
L 522.75 484.4
Q 522.05 485.1 521.35 486.1 519.35 489.15 519.35 493.55 519.35 497.95 521.35 501 523.35 504 527.5 504.05 529.1 506.2 531.2 507.85 531 509.75 530.9 511.6 524.1 518.25 518.55 509.1 509 490.95 511.8 467.85 514.75 454.95 522.75 469.6 Z"/>

<path fill="#EAA993" stroke="none" d="
M 522.75 484.4
L 522.75 469.6
Q 514.75 454.95 511.8 467.85 509 490.95 518.55 509.1 524.1 518.25 530.9 511.6 531 509.75 531.2 507.85 529.1 506.2 527.5 504.05 523.35 504 521.35 501 519.35 497.95 519.35 493.55 519.35 489.15 521.35 486.1 522.05 485.1 522.75 484.4 Z"/>

<path fill="#D29784" stroke="none" d="
M 777.75 475.9
Q 780 434.5 755.65 443.9
L 740.1 530.4
Q 740.5 542.95 750.25 535.75 775.5 517.15 777.75 475.9
M 757.8 487.8
Q 757.1 486.8 756.4 486.1
L 756.4 471.3
Q 764.4 456.65 767.35 469.55 770.15 492.65 760.6 510.8 755.05 519.95 748.25 513.3 748.15 511.45 747.95 509.55 750.05 507.9 751.65 505.75 755.8 505.7 757.8 502.7 759.8 499.65 759.8 495.25 759.8 490.85 757.8 487.8 Z"/>

<path fill="#A67868" stroke="none" d="
M 756.4 486.1
Q 757.1 486.8 757.8 487.8 759.8 490.85 759.8 495.25 759.8 499.65 757.8 502.7 755.8 505.7 751.65 505.75 750.05 507.9 747.95 509.55 748.15 511.45 748.25 513.3 755.05 519.95 760.6 510.8 770.15 492.65 767.35 469.55 764.4 456.65 756.4 471.3
L 756.4 486.1 Z"/>
</g>

<g id="Layer6_0_FILL">
<path fill="#F2C2A9" stroke="none" d="
M 515.6 451
Q 514.227734375 467.2501953125 520 457 516.3306640625 456.9712890625 515.6 451
M 514.75 443
Q 510.9984375 442.446484375 508 445.2 509.8912109375 454.280078125 515.6 451 515.111328125 446.987109375 514.75 443
M 627.7 393.1
Q 623.338671875 388.35 624.25 381.3 610.2 367.8 628.85 335.3 606.5 328.85 599.95 358.45 544.2 352.75 544.5 396.55
L 544.5 447.4
Q 527.65 469.6 529.45 495.95 529.6896484375 499.5974609375 527 499
L 532.6 528 532.6 528.05 537.15 580.8
Q 539.65 602.35 549.9 614.85
L 606.25 667.25
Q 618.2 679.25 630.1 678.6
L 640.1 678.6 641.6 678.6 641.6 564.95 641.6 561.5 641.6 485.95 641.6 485.5 641.6 471.6 641.6 466.6 641.6 461.6 641.6 438 641.6 428 641.6 417.5 641.6 417
Q 641.3009765625 417.011328125 641 417
L 641 402.7
Q 630.831640625 397.2671875 627.7 393.1 Z"/>

<path fill="#D9B31E" stroke="none" d="
M 675.1 378.1
Q 672.95 372.3 685.5 366.5 694.7 363.65 701.65 354.95 711.5345703125 368.718359375 721 373.95 727.95 382.2 736.3 383.35 758.1 407.65 745.55 447.4 756.6 459.65 751.95 508 782.553515625 420.087890625 767.5 370 768.7 328.95 731.7 316.85 729.7 285.3 695.9 275.25 613.75 261.2 559.5 307.6 489.5732421875 343.8583984375 508 445.2 510.9984375 442.446484375 514.75 443 515.111328125 446.987109375 515.6 451 516.3306640625 456.9712890625 520 457 520.372265625 479.8103515625 526 497.1
L 527 499
Q 529.6896484375 499.5974609375 529.45 495.95 527.65 469.6 544.5 447.4
L 544.5 396.55
Q 544.2 352.75 599.95 358.45 606.5 328.85 628.85 335.3 610.2 367.8 624.25 381.3 623.338671875 388.35 627.7 393.1 630.831640625 397.2671875 641 402.7 674.931640625 413.345703125 701.65 371.15 679.6 385.9 675.1 378.1
M 758.1 380.85
Q 751.1 384.5 745.45 383.8 751.1 384.5 758.1 380.85 759.95 379.9 761.85 378.65 759.95 379.9 758.1 380.85
M 747.05 367.15
Q 746.95 367.25 746.85 367.4 738.15 377.7 728.7 372.5 738.15 377.7 746.85 367.4 746.95 367.25 747.05 367.15
M 708.15 349.95
Q 734.25 307.45 681.6 293.35 734.25 307.45 708.15 349.95
M 561.85 315.05
Q 562 316.15 562.25 317.25 567.45 344.85 594.2 347.5 567.45 344.85 562.25 317.25 562 316.15 561.85 315.05
M 628 381.3
Q 633.7 386.75 644.75 389.1 653.65 390.95 665 385 653.65 390.95 644.75 389.1 633.7 386.75 628 381.3
M 598.8 320.3
Q 620 307.85 631.15 321.45 620 307.85 598.8 320.3
M 537 348
Q 511.0779296875 371.238671875 514.8 436.6 511.0779296875 371.238671875 537 348 Z"/>

<path fill="#EAA993" stroke="none" d="
M 685.5 366.5
Q 672.95 372.3 675.1 378.1 679.6 385.9 701.65 371.15 674.931640625 413.345703125 641 402.7
L 641 417
Q 641.3009765625 417.011328125 641.6 417
L 641.6 417.5 641.6 428 641.6 438 641.6 461.6 641.6 466.6 641.6 471.6 641.6 485.5 641.6 485.95 641.6 561.5 641.6 564.95 641.6 678.6 640.1 678.6 640.1 678.65 651.6 678.65
Q 663.5 679.35 675.45 667.3
L 731.8 614.9
Q 742.05 602.4 744.55 580.85
L 749.1 528.1 749.1 528.05 751.95 508
Q 756.6 459.65 745.55 447.4 758.1 407.65 736.3 383.35 727.95 382.2 721 373.95 711.5345703125 368.718359375 701.65 354.95 694.7 363.65 685.5 366.5 Z"/>
</g>

<g id="Layer5_0_FILL">
<path fill="#FFFFFF" stroke="none" d="
M 584 491.75
Q 584.04921875 489.046484375 585.9 487.1 585.26328125 486.912109375 584.55 486.75 582.75 486.35 580.85 485.95
L 560 483.55 565.05 494.9
Q 579.95 514.05 608.85 501.65
L 608.85 501.6
Q 609.1 501.45 609.3 501.3 612.45 498.75 613.05 497.95 613.55 497.35 613.85 497.05 613.9 497 614 496.95 614 496.9 614.05 496.85 614.1 496.8 614.15 496.75 614.35 496.65 614.5 496.45 612.6 495.7 610.6 495 609.85 494.55 609 494.1 608.05 493.7 607.05 493.35 603.65 492.15 600.2 491.1 599.65 490.9 599.15 490.75 598.05 490.4 597 490.15 595.75 489.8 594.65 489.5 592.855859375 489.0146484375 591.45 488.65
L 597.35 490.35
Q 597.5 491.05 597.5 491.85 597.5 494.65 595.55 496.6 593.55 498.6 590.75 498.6 589.4 498.6 588.25 498.15 587 497.65 586 496.6 584 494.65 584 491.85 584 491.8 584 491.75
M 673.65 493.85
Q 672.65 494.2 671.7 494.6 670.85 495.05 670.1 495.5 668.1 496.2 666.2 496.95 666.35 497.15 666.55 497.25 666.6 497.3 666.65 497.35 666.7 497.4 666.7 497.45 666.8 497.5 666.85 497.55 667.15 497.85 667.65 498.45 668.25 499.25 671.4 501.8 671.6 501.95 671.85 502.1
L 671.85 502.15
Q 700.75 514.55 715.65 495.4
L 720.7 484.05 699.85 486.45
Q 698.055859375 486.827734375 696.35 487.2 698.151953125 489.10859375 698.2 491.75 698.2 491.8 698.2 491.85 698.2 494.65 696.2 496.6 695.2 497.65 693.95 498.15 692.8 498.6 691.45 498.6 688.65 498.6 686.65 496.6 684.7 494.65 684.7 491.85 684.7 491.05 684.85 490.35
L 686.05 490
Q 684.95 490.3 683.7 490.65 682.65 490.9 681.55 491.25 681.05 491.4 680.5 491.6 677.05 492.65 673.65 493.85 Z"/>

<path fill="#00CCFF" stroke="none" d="
M 585.9 487.1
Q 584.04921875 489.046484375 584 491.75 584 491.8 584 491.85 584 494.65 586 496.6 587 497.65 588.25 498.15 589.4 498.6 590.75 498.6 593.55 498.6 595.55 496.6 597.5 494.65 597.5 491.85 597.5 491.05 597.35 490.35
L 591.45 488.65 586 487.05
Q 585.9669921875 487.0830078125 585.9 487.1
M 686.05 490
L 684.85 490.35
Q 684.7 491.05 684.7 491.85 684.7 494.65 686.65 496.6 688.65 498.6 691.45 498.6 692.8 498.6 693.95 498.15 695.2 497.65 696.2 496.6 698.2 494.65 698.2 491.85 698.2 491.8 698.2 491.75 698.151953125 489.10859375 696.35 487.2 696.2771484375 487.1271484375 696.2 487.05
L 686.05 490 Z"/>
</g>

<path id="Layer18_0_1_STROKES" stroke="#33FF00" stroke-width="0.1" stroke-linejoin="round" stroke-linecap="round" fill="none" d="
M 512 463
L 524.6 471.6"/>

<path id="Layer17_0_1_STROKES" stroke="#0000FF" stroke-width="0.1" stroke-linejoin="round" stroke-linecap="round" fill="none" d="
M 1083.55 872.075
Q 1083.8740234375 871.9169921875 1084.2 871.75"/>

<path id="Layer12_0_1_STROKES" stroke="#000000" stroke-opacity="0.09803921568627451" stroke-width="8" stroke-linejoin="round" stroke-linecap="round" fill="none" d="
M 641.6 869.8
L 641.6 973.05"/>

<path id="Layer11_0_1_STROKES" stroke="#000000" stroke-opacity="0.2" stroke-width="8" stroke-linejoin="round" stroke-linecap="round" fill="none" d="
M 325.05 916.15
Q 322.6 903.45 322.5 890.6 322.3 872.05 327.05 853.15
M 958.75 851.05
Q 965.3 877.3 962.45 902.9 961.85 908.5 960.75 914.05
M 622.2 792
Q 589.55 741.7 583 687.7
M 577 792
Q 496.5 754.15 407 746.2
M 705.2 792
Q 785.7 754.15 875.2 746.2
M 660 792
Q 692.65 741.7 699.2 687.7"/>

<path id="Layer11_0_2_STROKES" stroke="#000000" stroke-opacity="0.2" stroke-width="6" stroke-linejoin="round" stroke-linecap="round" fill="none" d="
M 777.75 701.45
Q 777.75 701.75 777.75 702.1 777.75 707.5 781.6 711.4 785.45 715.2 790.9 715.2 791.5 715.2 792.05 715.1 796.75 714.8 800.15 711.4 803.95 707.55 804 702.25
L 804 702.1
Q 804 701.75 804 701.45 803.9 701.45 803.8 701.45 798.35 701.45 794.45 697.6 790.7 693.8 790.7 688.35 790.7 688 790.75 687.7
M 830.2 701.45
Q 830.2 701.75 830.2 702.1 830.2 707.5 826.4 711.4 822.9 714.8 818.25 715.1 818.25 715.45 818.25 715.8 818.25 721.2 814.4 725.1 810.55 728.9 805.15 728.9 799.7 728.9 795.85 725.1 792.05 721.2 792.05 715.8 792.05 715.45 792.05 715.1
M 818.25 715.1
Q 817.7 715.2 817.15 715.2 811.65 715.2 807.85 711.4 804.05 707.55 804 702.25
M 816.9 687.7
Q 816.9 688 816.9 688.35 816.9 693.8 813.05 697.6 809.3 701.4 804 701.45
M 559.95 913.55
Q 559.95 913.85 559.95 914.2 559.95 919.6 563.8 923.5 567.65 927.3 573.1 927.3 573.7 927.3 574.25 927.2 578.95 926.9 582.35 923.5 586.15 919.65 586.2 914.35
L 586.2 914.2
Q 586.2 913.85 586.2 913.55 586.1 913.55 586 913.55 580.55 913.55 576.65 909.7 572.9 905.9 572.9 900.45 572.9 900.1 572.95 899.8
M 612.4 913.55
Q 612.4 913.85 612.4 914.2 612.4 919.6 608.6 923.5 605.1 926.9 600.45 927.2 600.45 927.55 600.45 927.9 600.45 933.3 596.6 937.2 592.75 941 587.35 941 581.9 941 578.05 937.2 574.25 933.3 574.25 927.9 574.25 927.55 574.25 927.2
M 599.1 899.8
Q 599.1 900.1 599.1 900.45 599.1 905.9 595.25 909.7 591.5 913.5 586.2 913.55
M 600.45 927.2
Q 599.9 927.3 599.35 927.3 593.85 927.3 590.05 923.5 586.25 919.65 586.2 914.35
M 428.25 805.75
Q 428.25 806.05 428.25 806.4 428.25 811.8 424.45 815.7 420.95 819.1 416.3 819.4 416.3 819.75 416.3 820.1 416.3 825.5 412.45 829.4 408.6 833.2 403.2 833.2 397.75 833.2 393.9 829.4 390.1 825.5 390.1 820.1 390.1 819.75 390.1 819.4 389.55 819.5 388.95 819.5 383.5 819.5 379.65 815.7 375.8 811.8 375.8 806.4 375.8 806.05 375.8 805.75
M 414.95 792
Q 414.95 792.3 414.95 792.65 414.95 798.1 411.1 801.9 407.35 805.7 402.05 805.75 402.05 806.05 402.05 806.4
L 402.05 806.55
Q 402.1 811.85 405.9 815.7 409.7 819.5 415.2 819.5 415.75 819.5 416.3 819.4
M 390.1 819.4
Q 394.8 819.1 398.2 815.7 402 811.85 402.05 806.55
M 402.05 805.75
Q 401.95 805.75 401.85 805.75 396.4 805.75 392.5 801.9 388.75 798.1 388.75 792.65 388.75 792.3 388.8 792
M 907.95 840.8
Q 907.95 841.1 907.95 841.45 907.95 846.9 904.1 850.7 900.35 854.5 895.05 854.55 895.05 854.85 895.05 855.2
L 895.05 855.35
Q 895.1 860.65 898.9 864.5 902.7 868.3 908.2 868.3 908.75 868.3 909.3 868.2 913.95 867.9 917.45 864.5 921.25 860.6 921.25 855.2 921.25 854.85 921.25 854.55
M 895.05 854.55
Q 894.95 854.55 894.85 854.55 889.4 854.55 885.5 850.7 881.75 846.9 881.75 841.45 881.75 841.1 881.8 840.8
M 868.8 854.55
Q 868.8 854.85 868.8 855.2 868.8 860.6 872.65 864.5 876.5 868.3 881.95 868.3 882.55 868.3 883.1 868.2 887.8 867.9 891.2 864.5 895 860.65 895.05 855.35
M 909.3 868.2
Q 909.3 868.55 909.3 868.9 909.3 874.3 905.45 878.2 901.6 882 896.2 882 890.75 882 886.9 878.2 883.1 874.3 883.1 868.9 883.1 868.55 883.1 868.2"/>

<path id="Layer6_0_1_STROKES" stroke="#000000" stroke-opacity="0.09803921568627451" stroke-width="8" stroke-linejoin="round" stroke-linecap="round" fill="none" d="
M 761.85 378.65
Q 759.95 379.9 758.1 380.85 751.1 384.5 745.45 383.8
M 747.05 367.15
Q 746.95 367.25 746.85 367.4 738.15 377.7 728.7 372.5
M 708.15 349.95
Q 734.25 307.45 681.6 293.35
M 561.85 315.05
Q 562 316.15 562.25 317.25 567.45 344.85 594.2 347.5
M 628 381.3
Q 633.7 386.75 644.75 389.1 653.65 390.95 665 385
M 598.8 320.3
Q 620 307.85 631.15 321.45
M 537 348
Q 511.0779296875 371.238671875 514.8 436.6"/>

<path id="Layer5_0_1_STROKES" stroke="#000000" stroke-opacity="0.2" stroke-width="8" stroke-linejoin="round" stroke-linecap="round" fill="none" d="
M 623 612
L 659 612"/>

<path id="Layer5_0_2_STROKES" stroke="#000000" stroke-opacity="0.2" stroke-width="10.95" stroke-linejoin="round" stroke-linecap="round" fill="none" d="
M 661.4 494.1
L 701.45 474.8
Q 712.7 470.7 721.1 476.1
M 619.65 494.1
L 579.65 474.8
Q 568.35 470.7 559.95 476.1"/>

<path id="Layer3_0_1_STROKES" stroke="#000000" stroke-opacity="0.2" stroke-width="8" stroke-linejoin="round" stroke-linecap="round" fill="none" d="
M 630.15 555.7
Q 642.25 559.45 652.85 555.7
M 590.85 592.55
Q 640.2 583.85 687.85 592.55"/>

<path id="Layer2_0_1_STROKES" stroke="#33FF00" stroke-width="0.1" stroke-linejoin="round" stroke-linecap="round" fill="none" d="
M 520.55 463
L 521 462.65"/>
</defs>

<g transform="matrix( 1, 0, 0, 1, 0,0) ">
<use xlink:href="#Layer18_0_1_STROKES"/>
</g>

<g transform="matrix( 1, 0, 0, 1, 0,0) ">
<use xlink:href="#Layer17_0_FILL"/>

<use xlink:href="#Layer17_0_1_STROKES"/>
</g>

<g transform="matrix( 1, 0, 0, 1, 0,0) ">
<use xlink:href="#Layer12_0_1_STROKES"/>
</g>

<g transform="matrix( 1, 0, 0, 1, 0,0) ">
<use xlink:href="#Layer11_0_1_STROKES"/>

<use xlink:href="#Layer11_0_2_STROKES"/>
</g>

<g transform="matrix( 1, 0, 0, 1, 0,0) ">
<use xlink:href="#Layer7_0_FILL"/>
</g>

<g transform="matrix( 1, 0, 0, 1, 0,0) ">
<use xlink:href="#Layer6_0_FILL"/>

<use xlink:href="#Layer6_0_1_STROKES"/>
</g>

<g transform="matrix( 1, 0, 0, 1, 0,0) ">
<use xlink:href="#Layer5_0_FILL"/>

<use xlink:href="#Layer5_0_1_STROKES"/>

<use xlink:href="#Layer5_0_2_STROKES"/>
</g>

<g transform="matrix( 1, 0, 0, 1, 0,0) ">
<use xlink:href="#Layer3_0_1_STROKES"/>
</g>

<g transform="matrix( 1, 0, 0, 1, 0,0) ">
<use xlink:href="#Layer2_0_1_STROKES"/>
</g>
</svg>
