
<svg xmlns="http://www.w3.org/2000/svg" version="1.1" xmlns:xlink="http://www.w3.org/1999/xlink" preserveAspectRatio="none" x="0px" y="0px" width="1280px" height="1024px" viewBox="0 0 1280 1024">
<defs>
<g id="Layer12_0_FILL">
<path fill="#333333" stroke="none" d="
M 0 1024
L 1280 1024 1280 0 0 0 0 1024 Z"/>
</g>

<g id="Layer10_0_FILL">
<path fill="#E7A996" stroke="none" d="
M -36 132
L -168 132 -168 264 -36 264 -36 132 Z"/>

<path fill="#F1C2AB" stroke="none" d="
M -36 132
L -36 0 -168 0 -168 132 -36 132 Z"/>
</g>

<g id="Layer9_0_FILL">
<path fill="#282828" stroke="none" d="
M 640 983.7
L 640 983.6
Q 639.805859375 983.6328125 639.6 983.65 639.3 983.6 639 983.6 639.4859375 983.712109375 640 983.7
M 574.1 827.6
L 579.1 819.5
Q 577.1123046875 822.0841796875 575.55 824.8 574.7748046875 826.1830078125 574.1 827.6
M 706.55 597.4
Q 706.25 597.6 706 597.9 705.55 598.25 705.05 598.75
L 705.05 598.8
Q 705 598.85 704.95 598.85 704.5 599.15 704.15 599.4 691.6 608.4 679.7 614.45 663.25 622.8 647.9 625.45 645.4365234375 625.8783203125 642.55 626.2 641.8171875 626.29140625 640.15 626.45
L 640.15 626.5
Q 640.074609375 626.49375 640 626.5
L 640 638.55
Q 642.6650390625 638.5962890625 644.3 638.55 674.599609375 638.21953125 704.85 632.55 704.559375 616.780859375 705.45 607.1 706 600.65 706.55 597.4
M 743.4 438.9
Q 743.67421875 434.8724609375 743.75 430.55 693.55 418.95 640.2 470.25
L 640.15 470.3 640.15 470.5 640.15 491.05 640.2 491.05
Q 703.6060546875 515.5279296875 728.2 486.05 741.380078125 470.240625 743.4 438.9
M 657.1 388.8
Q 667.7 388.45 678.2 388.8 680.75 388.9 683.3 389.05 715.8 390.7 747 399.4 753.25 473.2 736.95 544.1 734.1966796875 555.8732421875 730.85 567.55 735.6708984375 559.739453125 739.5 551.25 741.1994140625 547.576171875 742.7 543.75 742.8 543.5 742.9 543.15 744.1 540.1 745.15 537.05 745.8 535.3 746.3 533.6 746.95 531.85 747.45 530.1 747.8 528.95 748.1 527.8
L 756.45 492.15 758 481.5
Q 758.15 479.25 758.45 477 758.55 476.8 758.55 476.55
L 758.6 476.35 758.6 476.25
Q 760.5 460.1 760.95 444.3
L 761 440.65
Q 760.95 437.05 760.85 433.45 760.8 431.7 760.7 430
L 760.95 430
Q 760.95 417.9 759.55 405.75 758.05 394.9 755.5 383.95 754.8 380.9 753.95 377.85 753.2142578125 375.95 752.4 374.1 770.42421875 349.541015625 801.8 333 831.85 349.4 856.05 371.6 857.2 370.15 858.6 368.75 865.4 361.95 874.35 360.45 857.95 311.7 822.8 268.55 810.85 253.85 777.05 264.45 743.4849609375 274.9919921875 692.35 313.25 677.030078125 306.1892578125 659.15 303.15 649.95 301.55 640.15 301.05
L 640.15 388.8 657.1 388.8
M 748.8 369.6
Q 730.75 333.9 697.8 317.6 730.75 333.9 748.8 369.6 Z"/>

<path fill="#E5DDDA" stroke="none" d="
M 472.35 705.2
Q 470.63515625 707.3994140625 468.8 709.5 454.9162109375 725.612890625 434.15 738.95 422.7 744.3 417.6 755.35 410.4 770.95 420.1 788.8 423.6607421875 795.352734375 428.7 800.8 437.472265625 810.1923828125 450.7 816.3 471.6 825.95 491.5 821.7 511.4 817.5 518.6 801.9 518.8505859375 801.351171875 519.05 800.8 520.78359375 796.733203125 521.4 792.55
L 535.6 743.7
Q 535.8 741.9 536.25 740.15 536.78359375 738.171484375 537.6 736.35 541.7576171875 727.1970703125 553.25 722.6 566.95 717.1 583.1 721.45 599.25 725.8 608.45 737.4 615.9400390625 746.94765625 615.05 756.8 614.875 758.91796875 614.3 761.05 614.119140625 761.7361328125 613.9 762.4 613.508984375 763.6380859375 613 764.8 612.22734375 766.5296875 611.2 768.1 610.3189453125 769.4326171875 609.25 770.65
L 579.1 819.5 574.1 827.6
Q 570.1 836 570.1 845.6 570.1 865.0310546875 586.4 879.4 588.512890625 881.2712890625 590.9 883.05 596.7140625 887.3998046875 603.2 890.5 607.0798828125 892.409765625 611.2 893.85 624.2240234375 898.398046875 639.65 898.6
L 640.1 661.85 616 637.75
Q 595.4275390625 636.3392578125 574.8 632.5 574.7375 637.005859375 574.55 642 574.35 647.85 573.85 653.5 573.6 657.1 573.15 660.65 572.7 664.45 572.15 668.1 571.5 668.35 571 668.6 570.9 668.6 570.85 668.7 568.3140625 669.835546875 537.6 681.2 513.5873046875 690.086328125 472.35 705.2
M 640.15 388.8
L 624.4 388.8
Q 612.25 388.35 600.3 388.8 565.9 390.15 533 399.35 532.85 400.9 532.75 402.45 529.8 440.15 532.75 477.15 533.65 488.6 535.15 499.95 535.95 506.15 536.95 512.35 540.85 537.25 547.55 561.85 548.2978515625 564.60546875 549.05 567.3 549.6078125 568.194140625 550.15 569.05 559.75390625 584.21484375 573 596.85 573.9 597.75 574.85 598.6
L 576.7 600
Q 579.15 601.7 581.6 603.35 591.15 609.7 600.35 614.45 616.75 622.8 632.1 625.45 635.2 625.9 639 626.4 639.480859375 626.44375 640 626.5 640.074609375 626.49375 640.15 626.5
L 640.15 626.45 640.15 491.05
Q 640.1 491 640.05 491 576.5505859375 515.540234375 551.9 486.05 536.97890625 470.92578125 536.3 439 536.4716796875 438.96640625 536.65 438.9 536.3779296875 434.872265625 536.3 430.55 586.55 418.95 640.05 470.35 640.1 470.45 640.15 470.5
L 640.15 470.3 640.15 388.8
M 377.75 368.75
Q 369 377.55 369 390 369 402.45 377.75 411.2 386.55 420 399 420 411.45 420 420.2 411.2 429 402.45 429 390 429 379.5 422.75 371.6 421.6 370.15 420.2 368.75 413.4 361.95 404.45 360.45 401.8 360 399 360 386.55 360 377.75 368.75 Z"/>

<path fill="#333333" stroke="none" d="
M 360.75 746.1
Q 360.45 746.2 360.15 746.35 328.5564453125 758.4189453125 322.3 800.8 321.8697265625 803.8943359375 321.55 807.15 320.65 811.4 319.95 815.85 319.259375 820.22421875 318.75 824.8 318.2197265625 830.16171875 317.95 835.8
L 318 895.75
Q 317.95 897.4 318 898.9 318.55 912.8 326.75 916.35 398.55 946.2 470.65 962.8 485.2 966.1 499.75 968.95 528.85 974.55 558.1 978.05 572.25 979.7224609375 586.4 980.9 594.8 981.644921875 603.2 982.2 607.2 982.4703125 611.2 982.7 611.3 982.6943359375 611.4 982.7 625 983.3 638.5 983.6 638.75 983.6 638.95 983.6
L 639 983.6
Q 639.3 983.6 639.6 983.65 639.805859375 983.6328125 640 983.6
L 639.65 898.6
Q 624.2240234375 898.398046875 611.2 893.85 607.0798828125 892.409765625 603.2 890.5 596.7140625 887.3998046875 590.9 883.05 588.512890625 881.2712890625 586.4 879.4 570.1 865.0310546875 570.1 845.6 570.1 836 574.1 827.6 574.7748046875 826.1830078125 575.55 824.8 577.1123046875 822.0841796875 579.1 819.5
L 609.25 770.65
Q 610.3189453125 769.4326171875 611.2 768.1 612.22734375 766.5296875 613 764.8 613.508984375 763.6380859375 613.9 762.4 614.119140625 761.7361328125 614.3 761.05 614.875 758.91796875 615.05 756.8 615.9400390625 746.94765625 608.45 737.4 599.25 725.8 583.1 721.45 566.95 717.1 553.25 722.6 541.7576171875 727.1970703125 537.6 736.35 536.78359375 738.171484375 536.25 740.15 535.8 741.9 535.6 743.7
L 521.4 792.55
Q 520.78359375 796.733203125 519.05 800.8 518.8505859375 801.351171875 518.6 801.9 511.4 817.5 491.5 821.7 471.6 825.95 450.7 816.3 437.472265625 810.1923828125 428.7 800.8 423.6607421875 795.352734375 420.1 788.8 410.4 770.95 417.6 755.35 422.7 744.3 434.15 738.95 454.9162109375 725.612890625 468.8 709.5 470.63515625 707.3994140625 472.35 705.2 470.590625 705.8705078125 468.8 706.5 424.4076171875 722.815234375 360.75 746.1
M 640.15 470.5
Q 640.1 470.45 640.05 470.35 586.55 418.95 536.3 430.55 536.3779296875 434.872265625 536.65 438.9 538.69140625 470.2564453125 551.9 486.05 576.5505859375 515.540234375 640.05 491 640.1 491 640.15 491.05
L 640.15 470.5 Z"/>

<path fill="#BE3A31" stroke="none" d="
M 727.2 722
Q 714.141015625 717.344921875 698.9 721.45 682.75 725.8 673.55 737.4 666.0599609375 746.94765625 666.9 756.8 667.125 758.91796875 667.7 761.05 667.880859375 761.7361328125 668.1 762.4 668.491015625 763.6380859375 669 764.8 670.4357421875 768.0142578125 672.75 770.65
L 707.9 827.6
Q 711.9 836 711.9 845.6 711.9 867.55 691.1 883.05 684.750390625 887.8005859375 677.6 891.1 677.2013671875 891.294921875 676.8 891.45 674.830078125 892.3548828125 672.8 893.1 658.780859375 898.4533203125 641.9 898.6
L 640.1 898.6
Q 639.8697265625 898.598046875 639.65 898.6
L 640 983.6 640 983.7
Q 640.1734375 983.7126953125 640.35 983.7 641.05 983.55 647.9 983.6 654.7 983.65 668.3 982.95 670.55 982.8275390625 672.8 982.7 674.8 982.5763671875 676.8 982.45 677.1998046875 982.4240234375 677.6 982.4 699.5998046875 980.9416015625 721.6 978.3 750.85 974.8 779.95 969.25 794.5 966.4 809.05 963.1 881.15 946.45 952.95 916.6 961.15 913.05 961.7 899.2 961.75 897.65 961.7 896
L 961.75 836.1
Q 961.25 825.6 959.75 816.1 959 811.65 958.1 807.4 953.45 759.55 919.55 746.6 855.507421875 723.16484375 810.9 706.8 825.3341796875 724.4892578125 847.85 738.95 859.3 744.3 864.4 755.35 871.6 770.95 861.9 788.8 858.3392578125 795.352734375 853.25 800.8 844.527734375 810.1923828125 831.3 816.3 810.4 825.95 790.5 821.7 770.6 817.5 763.4 801.9 763.1494140625 801.351171875 762.9 800.8 761.21640625 796.733203125 760.6 792.55
L 746.4 743.7
Q 746.2 741.9 745.75 740.15 745.677734375 739.88203125 745.6 739.6 742.1943359375 727.977734375 728.75 722.6 727.97890625 722.2904296875 727.2 722
M 640 626.5
Q 639.480859375 626.44375 639 626.4 635.2 625.9 632.1 625.45 616.75 622.8 600.35 614.45 591.15 609.7 581.6 603.35
L 616 637.75
Q 628.008984375 638.5912109375 640 638.6
L 640 638.55 640 626.5 Z"/>

<path fill="#C2BBB8" stroke="none" d="
M 705.15 642.3
Q 704.9583984375 637.1806640625 704.85 632.55 674.599609375 638.21953125 644.3 638.55 642.6650390625 638.5962890625 640 638.55
L 640 638.6
Q 628.008984375 638.5912109375 616 637.75
L 640.1 661.85 639.65 898.6
Q 639.8697265625 898.598046875 640.1 898.6
L 641.9 898.6
Q 658.780859375 898.4533203125 672.8 893.1 674.830078125 892.3548828125 676.8 891.45 677.2013671875 891.294921875 677.6 891.1 684.750390625 887.8005859375 691.1 883.05 711.9 867.55 711.9 845.6 711.9 836 707.9 827.6
L 672.75 770.65
Q 670.4357421875 768.0142578125 669 764.8 668.491015625 763.6380859375 668.1 762.4 667.880859375 761.7361328125 667.7 761.05 667.125 758.91796875 666.9 756.8 666.0599609375 746.94765625 673.55 737.4 682.75 725.8 698.9 721.45 714.141015625 717.344921875 727.2 722 727.97890625 722.2904296875 728.75 722.6 742.1943359375 727.977734375 745.6 739.6 745.677734375 739.88203125 745.75 740.15 746.2 741.9 746.4 743.7
L 760.6 792.55
Q 761.21640625 796.733203125 762.9 800.8 763.1494140625 801.351171875 763.4 801.9 770.6 817.5 790.5 821.7 810.4 825.95 831.3 816.3 844.527734375 810.1923828125 853.25 800.8 858.3392578125 795.352734375 861.9 788.8 871.6 770.95 864.4 755.35 859.3 744.3 847.85 738.95 825.3341796875 724.4892578125 810.9 706.8 798.2703125 702.1615234375 787.2 698.1 786.7990234375 697.9466796875 786.4 697.8 762.2509765625 688.913671875 745.6 682.75 734.8322265625 678.769140625 727.2 675.9 710.678515625 669.76875 708.85 668.95 708.25 668.7 707.55 668.35 706.4 661.2 705.85 653.75 705.35 648.1 705.15 642.3
M 678.2 388.8
Q 667.7 388.45 657.1 388.8
L 640.15 388.8 640.15 470.3 640.2 470.25
Q 693.55 418.95 743.75 430.55 743.67421875 434.8724609375 743.4 438.9 743.5798828125 438.9666015625 743.75 439 743.0900390625 470.90703125 728.2 486.05 703.6060546875 515.5279296875 640.2 491.05
L 640.15 491.05 640.15 626.45
Q 641.8171875 626.29140625 642.55 626.2 645.4365234375 625.8783203125 647.9 625.45 663.25 622.8 679.7 614.45 691.6 608.4 704.15 599.4 704.5 599.15 704.95 598.85 705 598.85 705.05 598.8
L 705.05 598.75
Q 705.55 598.25 706 597.9 706.25 597.6 706.55 597.4 720.7986328125 583.891796875 730.85 567.55 734.1966796875 555.8732421875 736.95 544.1 753.25 473.2 747 399.4 715.8 390.7 683.3 389.05 680.75 388.9 678.2 388.8
M 879.8 360
Q 877 360 874.35 360.45 865.4 361.95 858.6 368.75 857.2 370.15 856.05 371.6 849.8 379.5 849.8 390 849.8 402.45 858.6 411.2 867.35 420 879.8 420 892.25 420 901.05 411.2 909.8 402.45 909.8 390 909.8 377.55 901.05 368.75 892.25 360 879.8 360 Z"/>

<path fill="#E54D42" stroke="none" d="
M 573.6 600.3
Q 573.9 603.05 574.25 606.85 575.146484375 616.5939453125 574.8 632.5 595.4275390625 636.3392578125 616 637.75
L 581.6 603.35
Q 579.15 601.7 576.7 600
L 574.85 598.6
Q 573.9 597.75 573 596.85 573.35 598.6 573.6 600.3
M 420.2 368.75
Q 421.6 370.15 422.75 371.6 446.95 349.4 477 333 509.1904296875 349.9705078125 527.3 375.4 526.78515625 376.6123046875 526.3 377.85 525.6 380.9 524.95 383.9 519.5 408.2 519.3 430 519.25 431.7 519.25 433.4 518.6 455.6 521.6 477 524.55 504.65 532.6 530.1 533.1 531.85 533.7 533.6 534.35 535.3 534.85 537.05 536 540.1 537.1 543.15 542.0798828125 555.940625 549.05 567.3 548.2978515625 564.60546875 547.55 561.85 540.85 537.25 536.95 512.35 535.95 506.15 535.15 499.95 533.65 488.6 532.75 477.15 529.8 440.15 532.75 402.45 532.85 400.9 533 399.35 565.9 390.15 600.3 388.8 612.25 388.35 624.4 388.8
L 640.15 388.8 640.15 301.05
Q 630.8 301.55 622.05 303 603.10625 306.1080078125 587 313.7 535.5 275.05 501.75 264.45 467.95 253.85 456 268.55 420.85 311.7 404.45 360.45 413.4 361.95 420.2 368.75
M 531 370
Q 549.051171875 334.316796875 582 318 549.051171875 334.316796875 531 370 Z"/>
</g>

<g id="Layer7_0_FILL">
<path fill="#C2BBB8" stroke="none" d="
M 641.25 906.25
Q 640.5 906.25 639.8 906.3
L 640 950.65 640 950.7
Q 640.6 950.7 641.25 950.7 654.55 950.7 664 944.15 673.4 937.65 673.4 928.5 673.4 919.3 664 912.75 654.55 906.25 641.25 906.25
M 874.15 831.35
Q 871.2 824.05 861.7 821.85 852.15 819.7 841.55 823.9 831 828.15 825.55 836.3 820.15 844.45 823.1 851.75 826 859.05 835.5 861.25 845.1 863.45 855.65 859.2 866.25 855 871.65 846.8 877.05 838.65 874.15 831.35 Z"/>

<path fill="#E5DDDA" stroke="none" d="
M 618.5 912.75
Q 609.1 919.3 609.1 928.5 609.1 937.65 618.5 944.15 627.25 950.25 640 950.65
L 639.8 906.3
Q 627.4 906.6 618.5 912.75
M 420.6 821.85
Q 411.1 824.05 408.15 831.35 405.25 838.65 410.65 846.8 416.05 855 426.65 859.2 437.2 863.45 446.8 861.25 456.3 859.05 459.2 851.75 462.15 844.45 456.75 836.3 451.3 828.15 440.75 823.9 430.15 819.7 420.6 821.85 Z"/>
</g>

<g id="Layer6_0_FILL">
<path fill="#FFFFFF" stroke="none" d="
M 601.5 466.75
Q 601.5 467.15 601.5 467.55 601.5 472 598.3 475.15 595.15 478.35 590.7 478.35 586.25 478.35 583.05 475.15 579.9 472 579.9 467.55 579.9 465.25 580.8 463.2 580.45 463.15 580.1 463.15 569.2 462.45 556.25 463.35 565.7 474.5 574.2 479.45 580.45 483.1 586.2 483.35 601 483.8 618.35 474.75 611.3 469.7 601.5 466.75
M 682.4 475.15
Q 679.2 472 679.2 467.55 679.2 467.15 679.2 466.75 669.4 469.7 662.35 474.75 679.7 483.8 694.5 483.35 700.25 483.1 706.5 479.45 715 474.5 724.45 463.35 711.5 462.45 700.6 463.15 700.25 463.15 699.9 463.2 700.8 465.25 700.8 467.55 700.8 472 697.65 475.15 694.45 478.35 690 478.35 685.55 478.35 682.4 475.15 Z"/>

<path fill="#0487CF" stroke="none" d="
M 600.75 466.55
Q 597.1 465.5 593.05 464.75 587.3 463.7 580.8 463.2 579.9 465.25 579.9 467.55 579.9 472 583.05 475.15 586.25 478.35 590.7 478.35 595.15 478.35 598.3 475.15 601.5 472 601.5 467.55 601.5 467.15 601.5 466.75 601.1 466.65 600.75 466.55
M 687.65 464.75
Q 683.6 465.5 679.95 466.55 679.6 466.65 679.2 466.75 679.2 467.15 679.2 467.55 679.2 472 682.4 475.15 685.55 478.35 690 478.35 694.45 478.35 697.65 475.15 700.8 472 700.8 467.55 700.8 465.25 699.9 463.2 693.4 463.7 687.65 464.75 Z"/>
</g>

<g id="Layer5_0_FILL">
<path fill="#333333" stroke="none" d="
M 635.3 561.75
Q 638.25 562.55 639.75 561.55 639.95 561.65 640.1 561.7
L 640.1 551.8
Q 639.95 551.85 639.75 552 632.35 546.35 616.2 552.7
L 600.5 559.95
Q 606.25 578.95 639.75 580.65 640 580.65 640.1 580.65
L 640.1 563.45 620.35 563.05
Q 623.75 562.85 626.95 562.15 631.2 560.8 635.3 561.75 Z"/>

<path fill="#FFFFFF" stroke="none" d="
M 658.35 563
Q 655.5 562.7 652.5 562.15 648.3 560.8 644.2 561.75 641.5 562.5 640.1 561.7 639.95 561.65 639.75 561.55 638.25 562.55 635.3 561.75 631.2 560.8 626.95 562.15 623.75 562.85 620.35 563.05
L 640.1 563.45 658.35 563 Z"/>

<path fill="#282828" stroke="none" d="
M 652.5 562.15
Q 655.5 562.7 658.35 563
L 640.1 563.45 640.1 580.65
Q 673.3 578.9 679 559.95
L 663.35 552.7
Q 647.45 546.45 640.1 551.8
L 640.1 561.7
Q 641.5 562.5 644.2 561.75 648.3 560.8 652.5 562.15 Z"/>
</g>

<path id="Layer9_0_1_STROKES" stroke="#000000" stroke-opacity="0.2" stroke-width="8" stroke-linejoin="round" stroke-linecap="round" fill="none" d="
M 748.8 369.6
Q 730.75 333.9 697.8 317.6
M 531 370
Q 549.051171875 334.316796875 582 318"/>

<path id="Layer8_0_1_STROKES" stroke="#000000" stroke-opacity="0.2" stroke-width="8" stroke-linejoin="round" stroke-linecap="round" fill="none" d="
M 745.6 749.85
Q 735.9236328125 751.1361328125 727.2 752.75 696.5 758.403125 677.6 767.95
M 537.6 750.4
Q 572.7419921875 755.441015625 594.775 764.8 599.259375 766.7080078125 603.2 768.8
M 402.85 937.25
Q 405.7 900.25 437.2 868.65 457.7671875 848.925390625 463.725 824.8
M 877.4 937.25
Q 874.6 900.25 843.1 868.65 822.4943359375 848.925390625 816.525 824.8"/>

<path id="Symbole_33_0_Layer0_0_1_STROKES" stroke="#000000" stroke-opacity="0.2" stroke-width="8" stroke-linejoin="round" stroke-linecap="round" fill="none" d="
M 5.5 2.35
L 0 0
M 19.15 2.35
L 24.6 0"/>
</defs>

<g transform="matrix( 1, 0, 0, 1, 0,0) ">
<use xlink:href="#Layer12_0_FILL"/>
</g>

<g transform="matrix( 1, 0, 0, 1, 0,0) ">
<use xlink:href="#Layer10_0_FILL"/>
</g>

<g transform="matrix( 1, 0, 0, 1, 0,0) ">
<use xlink:href="#Layer9_0_FILL"/>

<use xlink:href="#Layer9_0_1_STROKES"/>
</g>

<g transform="matrix( 1, 0, 0, 1, 0,0) ">
<use xlink:href="#Layer8_0_1_STROKES"/>
</g>

<g transform="matrix( 1.1090087890625, 0, 0, 1.1090087890625, 626.35,527.6) ">
<g transform="matrix( 1, 0, 0, 1, 0,0) ">
<use xlink:href="#Symbole_33_0_Layer0_0_1_STROKES"/>
</g>
</g>

<g transform="matrix( 1, 0, 0, 1, 0,0) ">
<use xlink:href="#Layer7_0_FILL"/>
</g>

<g transform="matrix( 1, 0, 0, 1, 0,0) ">
<use xlink:href="#Layer6_0_FILL"/>
</g>

<g transform="matrix( 1, 0, 0, 1, 0,0) ">
<use xlink:href="#Layer5_0_FILL"/>
</g>
</svg>
