
<svg xmlns="http://www.w3.org/2000/svg" version="1.1" xmlns:xlink="http://www.w3.org/1999/xlink" preserveAspectRatio="none" x="0px" y="0px" width="1280px" height="1024px" viewBox="0 0 1280 1024">
<defs>
<g id="Layer10_0_FILL">
<path fill="#8D563C" stroke="none" d="
M 567.2 588.05
L 567.5 588.15
Q 567.35 588.05 567.3 588
L 567.2 588.05 Z"/>

<path fill="#313A5D" stroke="none" d="
M 504.6 551.45
Q 502.45 551.55 500.35 551.65 498.8 551.75 497.3 551.8 496.3 551.85 495.4 551.9
L 494.95 553.1
Q 494.9 553.3 494.85 553.55
L 484.25 585.85
Q 537.4 582.55 590.15 581.25
L 558.05 549.25
Q 531.3 550 504.6 551.45 Z"/>

<path fill="#1B1D34" stroke="none" d="
M 686.85 548.2
Q 670.55 547.85 654.35 547.85 650.6 547.8 646.9 547.8 645.4 547.8 643.95 547.8 642.7 547.8 641.55 547.8 640.35 547.8 639.2 547.8
L 639.2 521.25 508.8 515.15 504.6 551.45
Q 531.3 550 558.05 549.25
L 590.15 581.25
Q 614.7 580.7 639.2 580.55 646.75 580.5 654.35 580.5 716.1 580.5 777.4 583.35 786.7 583.8 796.1 584.2
L 785.55 551.65
Q 779.55 551.35 773.55 551.05 743.1 549.55 712.7 548.8 701.4 548.45 690.25 548.25 689.65 548.2 689 548.2 687.95 548.2 686.85 548.2 Z"/>

<path fill="#181A2F" stroke="none" d="
M 654.35 547.85
Q 670.55 547.85 686.85 548.2 687.95 548.2 689 548.2 689.65 548.2 690.25 548.25 701.4 548.45 712.7 548.8 743.1 549.55 773.55 551.05
L 769.1 516.35 639.2 521.25 639.2 547.8
Q 640.35 547.8 641.55 547.8 642.7 547.8 643.95 547.8 645.4 547.8 646.9 547.8 650.6 547.8 654.35 547.85 Z"/>
</g>

<g id="Layer9_0_FILL">
<path fill="#262848" stroke="none" d="
M 497.75 579.8
L 498.15 578.6
Q 461.5 580.8 423.25 591.05 412.95 593.85 402.55 597.15 402.5 597.15 402.45 597.15 400.65 597.75 398.85 598.35 327.4 621.9 250.45 672.75 218.75 794.05 230.1 910.5 324.35 941.75 425.15 959.1 528.7 976.9 639 980
L 639.25 574.95
Q 570.05 572.25 497.75 579.8
M 567.5 588.15
L 567.2 588.05 567.3 588
Q 567.35 588.05 567.5 588.15 Z"/>

<path fill="#968B90" stroke="none" d="
M 250.45 672.75
Q 171.3 677.65 129.3 720 92.8 756.7 76.4 848.2 101.4 860.3 127 871.3 177.5 893.05 230.1 910.5 218.75 794.05 250.45 672.75 Z"/>

<path fill="#786F73" stroke="none" d="
M 1148.95 720
Q 1107 677.65 1027.8 672.75 1064.1 776.6 1050.7 910.3 1103 892.9 1153.35 871.25 1177.95 860.65 1202.05 849.05 1185.6 756.9 1148.95 720 Z"/>

<path fill="#181A2F" stroke="none" d="
M 765.45 577.5
Q 709.45 574.9 653.05 574.9 646.15 574.9 639.25 574.95
L 639 980
Q 639.55 980 640.1 980 751.1 977 855.3 959.1 956.2 941.7 1050.7 910.3 1064.1 776.6 1027.8 672.75 950.75 621.8 879.2 598.25 868.3 594.7 857.55 591.7 810.3 578.75 765.45 577.5 Z"/>
</g>

<g id="Layer8_0_FILL">
<path fill="#968B90" stroke="none" d="
M 622.35 325.5
L 614.7 325.5
Q 610.1 324.55 605.75 323.7
L 589.25 339.55 580.3 339.55 580.3 362.55 554.85 380.3 535.75 410.9 535.75 478.4
Q 536.4 489.7 543.35 497.1
L 558.6 469.5 543.35 497.1
Q 550.7 504.8 565.1 508.15
L 584.15 493.7 587.95 470.8 600.65 464.35 603.25 450.4 600.65 464.35 587.95 470.8 584.15 493.7 565.1 508.15
Q 571.3 509.65 579.05 510.3
L 638.9 510.3 638.9 440.15 602 440.15 638.9 440.15 638.9 421.05 573.95 421.05 550.95 440.15 573.95 421.05 638.9 421.05 638.9 384.15 632.5 384.15 628.7 376.55 617.25 380.3 609.6 363.75 617.25 358.65 609.6 363.75 617.25 380.3 628.7 376.55 632.5 384.15 638.9 384.15 638.9 325.5 622.35 325.5 622.35 340.85 622.35 325.5
M 535.75 318.85
Q 530.65 320 526.8 321.75
L 515.3 308.75
Q 509.2 326.25 507.7 347.2
L 507.7 366.3 535.75 394.35 535.75 410.9 554.85 380.3 580.3 362.55 580.3 339.55 553.55 339.55 535.75 318.85
M 579.05 269.5
L 568.85 266.95 563.75 250.3
Q 528.6 271.25 515.3 308.75
L 526.8 321.75
Q 530.65 320 535.75 318.85 555.5 314.6 594.25 321.5
L 595.6 306.4 584.15 297.55 579.05 269.5
M 568.85 266.95
L 579.05 269.5 584.15 297.55 595.6 306.4 594.25 321.5
Q 599.85 322.5 605.75 323.7 610.1 324.55 614.7 325.5
L 622.35 325.5 638.9 325.5 638.9 226.4
Q 613.6 229.75 593.05 236.75
L 595.6 251.65 615.95 263.1 621.1 293.7 615.95 263.1 595.6 251.65 593.05 236.75
Q 576.85 242.35 563.75 250.3
L 568.85 266.95 Z"/>

<path fill="#786F73" stroke="none" d="
M 725.95 339.55
L 703.9 339.55 706.4 362.55 733.25 385.4 743.75 407.05 743.75 394.35 771.8 366.3 771.8 347.2
Q 770.3 326.25 764.15 308.75
L 752.65 321.75
Q 748.85 320 743.75 318.85
L 725.95 339.55
M 703.9 339.55
L 690.25 339.55 673.7 323.7
Q 669.4 324.55 664.75 325.5
L 638.9 325.5 638.9 384.15 646.95 384.15 650.7 376.55 662.2 380.3 669.85 363.75 662.2 358.65 669.85 363.75 662.2 380.3 650.7 376.55 646.95 384.15 638.9 384.15 638.9 421.05 638.9 440.15 677.55 440.15 638.9 440.15 638.9 510.3 700.45 510.3
Q 705.75 509.8 710.35 509
L 698.8 501.4 697.55 475.85 678.4 465.7 673.35 450.4 678.4 465.7 697.55 475.85 698.8 501.4 710.35 509
Q 712.5 508.6 714.4 508.15 728.4 504.85 735.75 497.45
L 731.9 484.8 717.9 475.85 731.9 484.8 735.75 497.45
Q 735.9 497.3 736.1 497.1 743.15 489.7 743.75 478.4
L 743.75 407.05 733.25 385.4 706.4 362.55 703.9 339.55
M 728.45 440.15
L 705.5 421.05 640.55 421.05 705.5 421.05 728.45 440.15
M 708.95 264.4
L 691.1 277.1 691.1 300.1 680.95 306.4 680.95 322.3
Q 683 321.9 685.15 321.5 724.05 314.6 743.75 318.85 748.85 320 752.65 321.75
L 764.15 308.75
Q 750.85 271.25 715.75 250.3 713.05 248.7 710.25 247.1
L 708.95 264.4
M 691.1 277.1
L 708.95 264.4 710.25 247.1
Q 699.3 241.2 686.4 236.75 665.75 229.7 640.2 226.35 639.95 226.3 639.7 226.3 639.55 226.3 639.35 226.35 639.05 226.35 638.9 226.4
L 638.9 325.5 664.75 325.5
Q 669.4 324.55 673.7 323.7 677.4 322.95 680.95 322.3
L 680.95 306.4 691.1 300.1 691.1 277.1 Z"/>
</g>

<g id="Symbol_2_0_Layer0_0_FILL">
<path fill="#F5A45A" stroke="none" d="
M -26.65 -3.7
Q -31.3 -4.65 -35.65 -5.4 -66.15 -10.8 -81.65 -7.5
L -67.65 8.75 -39.65 8.75 -26.65 -3.7 Z"/>

<path fill="#F58823" stroke="none" d="
M 35.65 -5.4
Q 34 -5.1 32.35 -4.8 29.55 -4.3 26.65 -3.7
L 39.65 8.75 67.65 8.75 81.65 -7.5
Q 66.15 -10.8 35.65 -5.4 Z"/>
</g>

<g id="Layer7_0_FILL">
<path fill="#313A5D" stroke="none" d="
M 638.9 226.4
L 638.9 216.1
Q 563.95 221.5 516.65 272 475.8 316.1 486 496.3 520.35 526.25 552.35 545.1 554.25 546.15 556.05 547.2
L 638.9 549.95 638.9 510.3 579.05 510.3
Q 571.3 509.65 565.1 508.15 550.7 504.8 543.35 497.1 536.4 489.7 535.75 478.4
L 535.75 394.35 507.7 366.3 507.7 347.2
Q 509.2 326.25 515.3 308.75 528.6 271.25 563.75 250.3 576.85 242.35 593.05 236.75 613.6 229.75 638.9 226.4 Z"/>

<path fill="#21233E" stroke="none" d="
M 710.25 247.1
Q 713.05 248.7 715.75 250.3 750.85 271.25 764.15 308.75 770.3 326.25 771.8 347.2
L 771.8 366.3 743.75 394.35 743.75 478.4
Q 743.15 489.7 736.1 497.1 735.9 497.3 735.75 497.45 728.4 504.85 714.4 508.15 712.5 508.6 710.35 509 705.75 509.8 700.45 510.3
L 638.9 510.3 638.9 549.95 723.35 547.2
Q 757.1 528.05 793.45 496.3 803.75 316.1 762.85 272 715.25 221.15 639.7 216 639.35 216 638.9 216.1
L 638.9 226.4
Q 639.05 226.35 639.35 226.35 639.55 226.3 639.7 226.3 639.95 226.3 640.2 226.35 665.75 229.7 686.4 236.75 699.3 241.2 710.25 247.1 Z"/>
</g>

<g id="Layer6_0_FILL">
<path fill="#313A5D" stroke="none" d="
M 444.55 614.45
Q 441.5 606.7 419.9 608.95 398.25 611.15 370.7 622 343.15 632.8 325.8 645.9 308.45 659.05 311.5 666.8 314.5 674.5 336.15 672.25 357.8 670.05 385.35 659.25 412.9 648.4 430.25 635.3 447.55 622.15 444.55 614.45 Z"/>
</g>

<path id="Layer8_0_1_STROKES" stroke="#000000" stroke-opacity="0.2" stroke-width="8" stroke-linejoin="round" stroke-linecap="round" fill="none" d="
M 680.95 322.3
L 680.95 306.4 691.1 300.1 691.1 277.1 708.95 264.4 710.25 247.1
M 638.9 325.5
L 664.75 325.5
Q 669.4 324.55 673.7 323.7
M 743.75 318.85
Q 748.85 320 752.65 321.75
L 764.15 308.75
M 703.9 339.55
L 706.4 362.55 733.25 385.4 743.75 407.05
M 638.9 384.15
L 646.95 384.15 650.7 376.55 662.2 380.3 669.85 363.75 662.2 358.65
M 728.45 440.15
L 705.5 421.05 640.55 421.05
M 710.35 509
L 698.8 501.4 697.55 475.85 678.4 465.7 673.35 450.4
M 717.9 475.85
L 731.9 484.8 735.75 497.45
M 563.75 250.3
L 568.85 266.95 579.05 269.5 584.15 297.55 595.6 306.4 594.25 321.5
M 605.75 323.7
Q 610.1 324.55 614.7 325.5
L 622.35 325.5 638.9 325.5
M 638.9 440.15
L 677.55 440.15
M 593.05 236.75
L 595.6 251.65 615.95 263.1 621.1 293.7
M 515.3 308.75
L 526.8 321.75
Q 530.65 320 535.75 318.85
M 622.35 325.5
L 622.35 340.85
M 617.25 358.65
L 609.6 363.75 617.25 380.3 628.7 376.55 632.5 384.15 638.9 384.15
M 580.3 339.55
L 580.3 362.55 554.85 380.3 535.75 410.9
M 565.1 508.15
L 584.15 493.7 587.95 470.8 600.65 464.35 603.25 450.4
M 602 440.15
L 638.9 440.15
M 550.95 440.15
L 573.95 421.05 638.9 421.05
M 543.35 497.1
L 558.6 469.5"/>
</defs>

<g transform="matrix( 1, 0, 0, 1, 0,0) ">
<use xlink:href="#Layer10_0_FILL"/>
</g>

<g transform="matrix( 1, 0, 0, 1, 0,0) ">
<use xlink:href="#Layer9_0_FILL"/>
</g>

<g transform="matrix( 1, 0, 0, 1, 0,0) ">
<use xlink:href="#Layer8_0_FILL"/>

<use xlink:href="#Layer8_0_1_STROKES"/>
</g>

<g transform="matrix( 1.2739715576171875, 0, 0, 1.2739715576171875, 639.7,328.4) ">
<g transform="matrix( 1, 0, 0, 1, 0,0) ">
<use xlink:href="#Symbol_2_0_Layer0_0_FILL"/>
</g>
</g>

<g transform="matrix( 1, 0, 0, 1, 0,0) ">
<use xlink:href="#Layer7_0_FILL"/>
</g>

<g transform="matrix( 1, 0, 0, 1, 0,0) ">
<use xlink:href="#Layer6_0_FILL"/>
</g>
</svg>
