
<svg xmlns="http://www.w3.org/2000/svg" version="1.1" xmlns:xlink="http://www.w3.org/1999/xlink" preserveAspectRatio="none" x="0px" y="0px" width="1280px" height="1024px" viewBox="0 0 1280 1024">
<defs>
<g id="Symbol_1_0_Layer0_0_FILL">
<path fill="#333333" stroke="none" d="
M -14.15 39.9
L 0 39.9 0 -27.55 -14.15 -27.55 -14.15 39.9
M -28.65 -27.55
L -56.9 -27.55 -56.9 39.9 -28.65 39.9 -28.65 -27.55
M -86.2 -46.35
L -86.2 -3.2 -71.6 18.2 -71.6 -30.15 -86.2 -46.35
M -130.95 -68.8
L -122.9 -57 -122.9 -87.2 -130.25 -95.35 -130.95 -68.8
M -92.95 -53.9
L -103.65 -65.8 -103.65 -28.8 -92.95 -13.15 -92.95 -53.9
M -117.9 -81.65
L -117.9 -49.7 -109.6 -37.45 -109.6 -72.35 -117.9 -81.65
M -129 -53.85
L -136.4 -65.7 -172.15 25.65 -147.6 23.3 -129 -53.85 Z"/>

<path fill="#D9D9D9" stroke="none" d="
M 60.55 55.3
L 0 55.3 -60.55 55.3 32.45 148.35 98.5 114.65 80.85 22.95 60.55 55.3 Z"/>

<path fill="#868185" stroke="none" d="
M 0 -27.55
L 0 -40.3 -68.85 -40.3
Q -69.7 -40.3 -70.45 -40.6 -71.25 -40.95 -71.8 -41.55
L -135.85 -107.85 -139.4 -70.45 -137.1 -66.8 -136.4 -65.7 -129 -53.85 -80.85 22.95 -60.55 55.3 0 55.3 0 39.9 -14.15 39.9 -14.15 -27.55 0 -27.55
M -117.9 -49.7
L -117.9 -81.65 -109.6 -72.35 -109.6 -37.45 -117.9 -49.7
M -103.65 -65.8
L -92.95 -53.9 -92.95 -13.15 -103.65 -28.8 -103.65 -65.8
M -122.9 -57
L -130.95 -68.8 -130.25 -95.35 -122.9 -87.2 -122.9 -57
M -86.2 -3.2
L -86.2 -46.35 -71.6 -30.15 -71.6 18.2 -86.2 -3.2
M -56.9 -27.55
L -28.65 -27.55 -28.65 39.9 -56.9 39.9 -56.9 -27.55
M -112.6 -267.25
L -117.55 -267.2 -227.95 -266.4
Q -177.4 -225.8 -143.05 -161.95
L -136 -161.95 -124.65 -161.95 -57 -161.95 -21.7 -133.05 -17.8 -133.05 -1.2 -133.05 -1.2 -146.5 -19 -146.5 -31.7 -157.2 -39.2 -163.4 -48.7 -171.45 -52.7 -202.3 -54.75 -217.75 -55.8 -226.05 -64.65 -232.45 -108.05 -263.9 -112.6 -267.25
M -108.05 -387.5
L -151 -387.5 -115.15 -275.3
Q -109.15 -292.4 -93.8 -307.95 -88.95 -290.15 -77.1 -275.85 -76.35 -278.75 -75.4 -281.5
L -108.05 -387.5 Z"/>

<path fill="#6B676A" stroke="none" d="
M 0 -27.55
L 14.1 -27.55 14.1 39.9 0 39.9 0 55.3 60.55 55.3 80.85 22.95 128.95 -53.85 135.9 -65 137.05 -66.85 139.35 -70.45 135.85 -107.85 71.8 -41.55
Q 71.2 -40.95 70.45 -40.6 69.65 -40.3 68.85 -40.3
L 0 -40.3 0 -27.55
M 28.6 -27.55
L 56.85 -27.55 56.85 39.9 28.6 39.9 28.6 -27.55
M 123.7 -87.2
L 131.05 -95.35 131.75 -68.8 123.7 -57 123.7 -87.2
M 118.7 -81.65
L 118.7 -49.7 110.4 -37.45 110.4 -72.35 118.7 -81.65
M 93.75 -53.9
L 104.45 -65.8 104.45 -28.8 93.75 -13.15 93.75 -53.9
M 87 -46.35
L 87 -3.2 72.4 18.2 72.4 -30.15 87 -46.35
M 54.7 -217.75
L 52.7 -202.3 48.65 -171.45 39.15 -163.4 32.95 -158.2 19 -146.5 -1.2 -146.5 -1.2 -133.05 17.8 -133.05 21.65 -133.05 56.95 -161.95 125.1 -161.95 136.5 -161.95 143.05 -161.95
Q 177.35 -225.8 227.9 -266.4
L 117.65 -267.2 112.6 -267.25 108.3 -264.15 108 -263.9 65.1 -232.8 55.8 -226.05 54.7 -217.75 Z"/>

<path fill="#212121" stroke="none" d="
M 87 -3.2
L 87 -46.35 72.4 -30.15 72.4 18.2 87 -3.2
M 104.45 -65.8
L 93.75 -53.9 93.75 -13.15 104.45 -28.8 104.45 -65.8
M 118.7 -49.7
L 118.7 -81.65 110.4 -72.35 110.4 -37.45 118.7 -49.7
M 131.05 -95.35
L 123.7 -87.2 123.7 -57 131.75 -68.8 131.05 -95.35
M 56.85 -27.55
L 28.6 -27.55 28.6 39.9 56.85 39.9 56.85 -27.55
M 14.1 -27.55
L 0 -27.55 0 39.9 14.1 39.9 14.1 -27.55
M -98.55 114.65
L -157.9 66
Q -232.6 74.8 -293.9 95.4
L -227.95 187.1 -30.9 227.75 -30.9 436.35
Q -30.7 436.35 -30.6 436.35 -29.75 436.35 -28.9 436.35 -14.5 436.45 -0.3 436.4 -0.15 436.4 0 436.4 0.15 436.4 0.3 436.4 0.7 436.4 1.15 436.4
L 1.15 164.3 0 164.9 -98.55 114.65
M -226.15 94.35
Q -220.85 91.45 -212.8 90.3 -204.8 88.95 -198.85 90.1 -192.8 91.25 -192.4 94.15 -191.9 97.05 -197.3 99.95 -202.65 102.85 -210.6 104.1 -218.65 105.4 -224.65 104.2 -230.55 103.15 -231.05 100.25 -231.5 97.35 -226.15 94.35
M 135.9 -65
L 128.95 -53.85 147.55 23.3 172.1 25.65 136.4 -65.7 135.9 -65
M -427.3 152.65
Q -433.7 153.35 -439.85 154.25 -515.3 165.35 -557.2 210.25 -599.55 255.55 -601.8 328.35 -600.85 328.8 -599.9 329.25 -413.25 419.55 -150.65 433.7
L -317.7 386.55 -427.3 152.65
M -474.35 182.6
Q -459.25 180.85 -455 188.2 -450.8 195.6 -459.8 207.75 -468.9 219.9 -485.9 229.75 -503 239.6 -518.1 241.4 -533.25 243.2 -537.45 235.8 -541.7 228.45 -532.65 216.25 -523.55 204.05 -506.45 194.2 -489.4 184.35 -474.35 182.6 Z"/>

<path fill="#BBBBBB" stroke="none" d="
M 137.85 -110
L 138.3 -110.4
Q 139.4 -111.65 139.4 -113.3 139.4 -115.05 138.15 -116.15 137 -117.3 135.45 -117.35 135.3 -117.35 135.25 -117.35 133.55 -117.3 132.4 -116.1
L 67.1 -48.5 66.1 -48.5 26.05 -48.5 25.2 -48.5 -25.2 -48.5 -26.05 -48.5 -65.6 -48.5 -67.15 -48.5 -132.4 -116.1
Q -133.55 -117.3 -135.25 -117.35 -135.35 -117.35 -135.4 -117.35 -137 -117.35 -138.2 -116.15 -139.45 -115.05 -139.45 -113.3 -139.45 -111.65 -138.25 -110.4
L -137.9 -110 -135.85 -107.85 -71.8 -41.55
Q -71.25 -40.95 -70.45 -40.6 -69.7 -40.3 -68.85 -40.3
L 0 -40.3 68.85 -40.3
Q 69.65 -40.3 70.45 -40.6 71.2 -40.95 71.8 -41.55
L 135.85 -107.85 137.85 -110
M 157.9 66
L 147.55 23.3 128.95 -53.85 80.85 22.95 98.5 114.65 157.9 66
M -147.6 23.3
L -157.9 66 -98.55 114.65 -80.85 22.95 -129 -53.85 -147.6 23.3 Z"/>

<path fill="#FFFFFF" stroke="none" d="
M -36.8 -245.05
L -18.95 -245.05 -14.45 -249.55 -42.05 -249.55 -36.8 -245.05
M -9.1 -245.05
L -1.7 -245.05 2.8 -249.55 -4.6 -249.55 -9.1 -245.05
M 42.7 -306.7
Q 29.65 -317.45 13.4 -320.4
L -52.5 -253.25 -46.3 -253.25 -42.05 -249.55 -14.45 -249.55 42.7 -306.7
M 51.5 -298.15
Q 49.85 -300.05 48.05 -301.85 47.95 -301.95 47.9 -302
L -4.6 -249.55 2.8 -249.55 51.5 -298.15 Z"/>

<path fill="#BEE0E2" stroke="none" d="
M -4.6 -249.55
L -14.45 -249.55 -18.95 -245.05 -9.1 -245.05 -4.6 -249.55
M 42.45 -249.55
L 2.8 -249.55 -1.7 -245.05 37.25 -245.05 42.45 -249.55
M 42.45 -249.55
L 46.75 -253.25 67.85 -253.25 67.7 -256.3
Q 67.65 -259.35 67.3 -262.25
L 67.35 -262.2
Q 67.3 -262.65 67.25 -263.15 67.2 -263.5 67.1 -263.9 67.1 -263.95 67.1 -264.05 66.8 -266.05 66.45 -267.95 66.3 -268.5 66.25 -268.95 66.25 -269.1 66.25 -269.15 66.15 -269.25 66.15 -269.4 66.1 -269.5 66.1 -269.55 64.5 -276.7 61.4 -283.2 60.85 -284.4 60.25 -285.6 56.65 -292.25 51.5 -298.15
L 2.8 -249.55 42.45 -249.55
M 0 -211.8
Q 0.15 -211.8 0.3 -211.8
L 0.3 -242.65 -0.15 -242.65
Q -0.65 -242.65 -1.2 -242.6 -3.05 -242.5 -4.75 -241.95 -8.2 -240.9 -10.95 -238.15 -15.45 -233.65 -15.45 -227.25 -15.45 -220.8 -10.95 -216.3 -6.85 -212.2 -1.2 -211.8 -0.65 -211.8 -0.15 -211.8
L 0 -211.8
M 47.9 -302
Q 46.15 -303.75 44.45 -305.25 43.55 -306 42.7 -306.7
L -14.45 -249.55 -4.6 -249.55 47.9 -302
M -64.65 -240.3
L -64.65 -232.45 -55.8 -226.05 -54.75 -217.75 -26.15 -217.75 -26.15 -240.3 -64.65 -240.3
M 66.45 -267.95
L 66.55 -267.75
Q 66.45 -268 66.4 -268.25
L 66.45 -267.95
M 13.4 -320.4
Q 7.25 -321.55 0.6 -321.55 0.4 -321.6 0.2 -321.55 0.05 -321.6 -0.15 -321.55 -6.9 -321.55 -13.15 -320.35 -32.7 -316.75 -47.55 -301.85 -55.4 -294.05 -60.1 -285 -63.8 -277.75 -65.6 -269.65 -65.65 -269.6 -65.65 -269.55 -65.7 -269.25 -65.8 -268.95 -65.8 -268.9 -65.8 -268.85 -65.85 -268.8 -65.85 -268.7
L -65.85 -268.6
Q -65.9 -268.45 -65.9 -268.25
L -65.9 -268.2
Q -65.95 -268.05 -65.95 -267.95 -66.4 -266.05 -66.6 -264.1 -66.65 -263.95 -66.65 -263.9 -66.75 -263.5 -66.75 -263.15 -66.8 -262.65 -66.85 -262.2 -67.15 -259.35 -67.2 -256.45 -67.2 -255.95 -67.2 -255.5
L -67.25 -253.25 -52.5 -253.25 13.4 -320.4 Z"/>

<path fill="#98060C" stroke="none" d="
M 78.45 -272.45
L 78.45 -272.3
Q 78.05 -274.1 77.55 -275.95 76.8 -278.8 75.85 -281.55 73.75 -287.3 70.85 -292.6
L 70.85 -292.65 60.25 -285.6
Q 60.85 -284.4 61.4 -283.2 64.5 -276.7 66.1 -269.55 66.1 -269.5 66.15 -269.4 66.15 -269.25 66.25 -269.15 66.25 -269.1 66.25 -268.95 66.3 -268.5 66.45 -267.95
L 66.4 -268.25
Q 66.45 -268 66.55 -267.75
L 66.45 -267.95
Q 66.8 -266.05 67.1 -264.05 67.1 -263.95 67.1 -263.9 67.2 -263.5 67.25 -263.15 67.3 -262.65 67.35 -262.2
L 67.3 -262.25
Q 67.65 -259.35 67.7 -256.3
L 67.85 -253.25 46.75 -253.25 42.45 -249.55 67 -249.55 42.45 -249.55 37.25 -245.05 -1.7 -245.05 -9.1 -245.05 -18.95 -245.05 -36.8 -245.05 -42.05 -249.55 -67.05 -249.55 -42.05 -249.55 -46.3 -253.25 -52.5 -253.25 -67.25 -253.25 -67.2 -255.5
Q -67.2 -255.95 -67.2 -256.45 -67.15 -259.35 -66.85 -262.2 -66.8 -262.65 -66.75 -263.15 -66.75 -263.5 -66.65 -263.9 -66.65 -263.95 -66.6 -264.1 -66.4 -266.05 -65.95 -267.95 -65.95 -268.05 -65.9 -268.2
L -65.95 -268.15 -65.9 -268.25
Q -65.9 -268.45 -65.85 -268.6
L -65.85 -268.7
Q -65.85 -268.8 -65.8 -268.85 -65.8 -268.9 -65.8 -268.95 -65.7 -269.25 -65.65 -269.55 -65.65 -269.6 -65.6 -269.65 -63.8 -277.75 -60.1 -285
L -70.65 -292.15
Q -73.45 -287 -75.4 -281.5 -76.35 -278.75 -77.1 -275.85 -77.6 -274.05 -78 -272.3 -78 -272.2 -78 -272.15 -78.25 -271.55 -78.3 -270.9 -78.3 -270.75 -78.3 -270.5 -78.35 -270.35 -78.45 -270.1 -78.9 -267.95 -79.15 -265.7
L -79.15 -265.65
Q -79.2 -265.15 -79.25 -264.7 -79.3 -264.25 -79.4 -263.9
L -108.05 -263.9 -64.65 -232.45 -64.65 -240.3 -26.15 -240.3 -26.15 -217.75 -54.75 -217.75 -52.7 -202.3
Q -25.1 -205.15 -1.2 -205.15 -0.65 -205.15 -0.15 -205.15 0.1 -205.2 0.3 -205.15 0.45 -205.15 0.6 -205.15 25.05 -205.2 52.7 -202.3
L 54.7 -217.75 26.6 -217.75 26.6 -240.3 65.1 -240.3 65.1 -232.8 108 -263.9 79.8 -263.9
Q 79.75 -264.25 79.75 -264.7 79.7 -265.15 79.65 -265.65
L 79.65 -265.7
Q 79.3 -268.15 78.85 -270.5 78.8 -270.7 78.8 -270.85
L 78.75 -271.05
Q 78.7 -271.55 78.5 -272.15 78.45234375 -272.3408203125 78.45 -272.45
M 11.4 -238.15
Q 12.7 -236.85 13.65 -235.35 15.9 -231.8 15.9 -227.25 15.9 -220.8 11.4 -216.3 6.95 -211.85 0.6 -211.8
L 0.45 -211.8
Q 0.4 -211.8 0.3 -211.8 0.15 -211.8 0 -211.8
L -0.15 -211.8
Q -0.65 -211.8 -1.2 -211.8 -6.85 -212.2 -10.95 -216.3 -15.45 -220.8 -15.45 -227.25 -15.45 -233.65 -10.95 -238.15 -8.2 -240.9 -4.75 -241.95 -3.05 -242.5 -1.2 -242.6 -0.65 -242.65 -0.15 -242.65
L 0.3 -242.65 0.6 -242.65
Q 6.95 -242.6 11.4 -238.15
M 0.6 -321.55
Q 7.25 -321.55 13.4 -320.4
L 15.55 -332.9
Q 8.3 -334.2 0.6 -334.2 0.4 -334.25 0.2 -334.2 0.05 -334.25 -0.15 -334.2 -8.1 -334.2 -15.45 -332.85
L -13.15 -320.35
Q -6.9 -321.55 -0.15 -321.55 0.05 -321.6 0.2 -321.55 0.4 -321.6 0.6 -321.55
M -591.2 -53.9
L -502.9 -8.8 -427.3 152.65 -317.7 386.55 -150.65 433.7
Q -144.35 434.1 -138 434.4 -85.9 436.85 -30.9 436.35
L -30.9 227.75 -227.95 187.1 -293.9 95.4 -401.3 -53.9 -591.2 -53.9 Z"/>

<path fill="#A2BFC1" stroke="none" d="
M 13.65 -235.35
Q 12.7 -236.85 11.4 -238.15 6.95 -242.6 0.6 -242.65
L 0.3 -242.65 0.3 -211.8
Q 0.4 -211.8 0.45 -211.8
L 0.6 -211.8
Q 6.95 -211.85 11.4 -216.3 15.9 -220.8 15.9 -227.25 15.9 -231.8 13.65 -235.35
M 26.6 -240.3
L 26.6 -217.75 54.7 -217.75 55.8 -226.05 65.1 -232.8 65.1 -240.3 26.6 -240.3 Z"/>

<path fill="#C69507" stroke="none" d="
M 15.55 -332.9
L 13.4 -320.4
Q 29.65 -317.45 42.7 -306.7 43.55 -306 44.45 -305.25 46.15 -303.75 47.9 -302 47.95 -301.95 48.05 -301.85 49.85 -300.05 51.5 -298.15 56.65 -292.25 60.25 -285.6
L 70.85 -292.65
Q 65.45 -302.4 57.05 -310.8 55.25 -312.6 53.4 -314.25 36.8 -329.15 15.55 -332.9
M 143.05 -161.95
L 187.85 -117.1 353.05 -140.55 143.05 -161.95
M 78.45 -272.3
L 78.45 -272.45
Q 78.45234375 -272.3408203125 78.5 -272.15 78.7 -271.55 78.75 -271.05
L 78.8 -270.85
Q 78.8 -270.7 78.85 -270.5 79.3 -268.15 79.65 -265.7
L 79.65 -265.65
Q 79.7 -265.15 79.75 -264.7 79.75 -264.25 79.8 -263.9
L 108 -263.9 108.3 -264.15 112.6 -267.25 115.25 -275.5
Q 109.15 -292.45 93.9 -307.95 89.1 -290.2 77.55 -275.95 78.05 -274.1 78.45 -272.3 Z"/>

<path fill="#000000" stroke="none" d="
M 227.9 187.1
L 293.85 95.4
Q 232.55 74.8 157.9 66
L 98.5 114.65 32.45 148.35 1.15 164.3 1.15 436.4
Q 15.75 436.4 30.55 436.25 30.75 436.25 30.85 436.25
L 30.85 227.75 227.9 187.1
M -39.2 -163.4
L -39.2 -188.05 -52.7 -202.3 -48.7 -171.45 -39.2 -163.4
M 39.15 -188.05
L 39.15 -163.4 48.65 -171.45 52.7 -202.3 39.15 -188.05
M 439.85 154.25
Q 433.65 153.35 427.25 152.65
L 317.65 386.55 150.95 433.65
Q 414.65 419.3 601.8 328.35 599.5 255.55 557.2 210.25 515.25 165.35 439.85 154.25
M 491.3 188.75
Q 499.9 189.8 509.65 195.45 519.45 201.1 524.65 208.05 529.8 215.05 527.4 219.25 524.95 223.5 516.3 222.4 507.7 221.4 497.9 215.75 488.15 210.1 483 203.2 477.8 196.25 480.2 192 482.65 187.8 491.3 188.75 Z"/>

<path fill="#EAEAEA" stroke="none" d="
M -212.8 90.3
Q -220.85 91.45 -226.15 94.35 -231.5 97.35 -231.05 100.25 -230.55 103.15 -224.65 104.2 -218.65 105.4 -210.6 104.1 -202.65 102.85 -197.3 99.95 -191.9 97.05 -192.4 94.15 -192.8 91.25 -198.85 90.1 -204.8 88.95 -212.8 90.3
M -60.55 55.3
L -80.85 22.95 -98.55 114.65 0 164.9 1.15 164.3 32.45 148.35 -60.55 55.3
M 509.65 195.45
Q 499.9 189.8 491.3 188.75 482.65 187.8 480.2 192 477.8 196.25 483 203.2 488.15 210.1 497.9 215.75 507.7 221.4 516.3 222.4 524.95 223.5 527.4 219.25 529.8 215.05 524.65 208.05 519.45 201.1 509.65 195.45
M -455 188.2
Q -459.25 180.85 -474.35 182.6 -489.4 184.35 -506.45 194.2 -523.55 204.05 -532.65 216.25 -541.7 228.45 -537.45 235.8 -533.25 243.2 -518.1 241.4 -503 239.6 -485.9 229.75 -468.9 219.9 -459.8 207.75 -450.8 195.6 -455 188.2 Z"/>

<path fill="#092958" stroke="none" d="
M -26.05 -48.5
L -25.2 -48.5 -11.9 -56.3 -17.8 -133.05 -26.05 -48.5
M -124.65 -161.95
L -136 -161.95 -135.4 -117.35
Q -135.35 -117.35 -135.25 -117.35 -133.55 -117.3 -132.4 -116.1
L -67.15 -48.5 -65.6 -48.5 -71.25 -120.4 -124.6 -161.9 -124.65 -161.95 Z"/>

<path fill="#FDBE0A" stroke="none" d="
M -136 -161.95
L -143.05 -161.95 -352.6 -140.55 -137.9 -110 -138.25 -110.4
Q -139.45 -111.65 -139.45 -113.3 -139.45 -115.05 -138.2 -116.15 -137 -117.35 -135.4 -117.35
L -136 -161.95
M -13.15 -320.35
L -15.45 -332.85
Q -38.85 -328.55 -56.5 -310.8 -65.2 -302.2 -70.65 -292.15
L -60.1 -285
Q -55.4 -294.05 -47.55 -301.85 -32.7 -316.75 -13.15 -320.35 Z"/>

<path fill="#FFEA2A" stroke="none" d="
M -71.25 -120.4
L -21.7 -133.05
Q -66.15 -156.2 -124.6 -161.9
L -71.25 -120.4
M 21.65 -133.05
L 71.7 -120.4 125.1 -161.95
Q 66.3 -156.3 21.65 -133.05 Z"/>

<path fill="#F7CF21" stroke="none" d="
M -21.7 -133.05
L -57 -161.95 -124.65 -161.95 -124.6 -161.9
Q -66.15 -156.2 -21.7 -133.05
M 56.95 -161.95
L 21.65 -133.05
Q 66.3 -156.3 125.1 -161.95
L 56.95 -161.95 Z"/>

<path fill="#227EC4" stroke="none" d="
M -17.8 -133.05
L -21.7 -133.05 -71.25 -120.4 -65.6 -48.5 -26.05 -48.5 -17.8 -133.05 Z"/>

<path fill="#7B8C9F" stroke="none" d="
M -65.95 -268.15
L -65.9 -268.2 -65.9 -268.25 -65.95 -268.15 Z"/>

<path fill="#E6B531" stroke="none" d="
M -115.15 -275.3
L -112.6 -267.25 -108.05 -263.9 -79.4 -263.9
Q -79.3 -264.25 -79.25 -264.7 -79.2 -265.15 -79.15 -265.65
L -79.15 -265.7
Q -78.9 -267.95 -78.45 -270.1 -78.35 -270.35 -78.3 -270.5 -78.3 -270.75 -78.3 -270.9 -78.25 -271.55 -78 -272.15 -78 -272.2 -78 -272.3 -77.6 -274.05 -77.1 -275.85 -88.95 -290.15 -93.8 -307.95 -109.15 -292.4 -115.15 -275.3 Z"/>

<path fill="#969195" stroke="none" d="
M -166.2 -435
Q -221.65 -441.55 -267.15 -417.2
L -227.95 -266.4 -117.55 -267.2 -112.6 -267.25 -115.15 -275.3 -151 -387.5 -166.2 -435 Z"/>

<path fill="#1D6BA5" stroke="none" d="
M 11.85 -56.3
L 17.8 -133.05 -1.2 -133.05 -17.8 -133.05 -11.9 -56.3 11.85 -56.3 Z"/>

<path fill="#061A38" stroke="none" d="
M 25.2 -48.5
L 11.85 -56.3 -11.9 -56.3 -25.2 -48.5 25.2 -48.5 Z"/>

<path fill="#072148" stroke="none" d="
M 25.2 -48.5
L 26.05 -48.5 17.8 -133.05 11.85 -56.3 25.2 -48.5
M 136.5 -161.95
L 125.1 -161.95 71.7 -120.4 66.1 -48.5 67.1 -48.5 132.4 -116.1
Q 133.55 -117.3 135.25 -117.35 135.3 -117.35 135.45 -117.35
L 136.5 -161.95 Z"/>

<path fill="#4E0306" stroke="none" d="
M 19 -146.5
L 32.95 -158.2
Q -2.1 -182.6 -31.7 -157.2
L -19 -146.5 -1.2 -146.5 19 -146.5 Z"/>

<path fill="#1F72B0" stroke="none" d="
M 21.65 -133.05
L 17.8 -133.05 26.05 -48.5 66.1 -48.5 71.7 -120.4 21.65 -133.05 Z"/>

<path fill="#A87E05" stroke="none" d="
M 143.05 -161.95
L 136.5 -161.95 135.45 -117.35
Q 137 -117.3 138.15 -116.15 139.4 -115.05 139.4 -113.3 139.4 -111.65 138.3 -110.4
L 137.85 -110 187.85 -117.1 143.05 -161.95 Z"/>

<path fill="#80060C" stroke="none" d="
M 0.6 -205.15
Q 0.45 -205.15 0.3 -205.15 0.1 -205.2 -0.15 -205.15 -0.65 -205.15 -1.2 -205.15 -25.1 -205.15 -52.7 -202.3
L -39.2 -188.05 -39.2 -163.4 -31.7 -157.2
Q -2.1 -182.6 32.95 -158.2
L 39.15 -163.4 39.15 -188.05 52.7 -202.3
Q 25.05 -205.2 0.6 -205.15
M 0.6 -334.2
Q 8.3 -334.2 15.55 -332.9
L 0.05 -399.05 -15.45 -332.85
Q -8.1 -334.2 -0.15 -334.2 0.05 -334.25 0.2 -334.2 0.4 -334.25 0.6 -334.2
M 502.85 -8.8
L 591.2 -53.9 401.25 -53.9 293.85 95.4 227.9 187.1 30.85 227.75 30.85 436.25
Q 31.85 436.25 32.8 436.35 89.5 436.75 143.05 434.1 147 433.9 150.95 433.65
L 317.65 386.55 427.25 152.65 502.85 -8.8 Z"/>

<path fill="#514E50" stroke="none" d="
M 151 -387.5
L 108 -387.5 75.85 -281.55
Q 76.8 -278.8 77.55 -275.95 89.1 -290.2 93.9 -307.95 109.15 -292.45 115.25 -275.5
L 151 -387.5 Z"/>

<path fill="#636062" stroke="none" d="
M 267.1 -417.2
Q 221.65 -441.55 166.2 -435
L 151 -387.5 115.25 -275.5 112.6 -267.25 117.65 -267.2 227.9 -266.4 267.1 -417.2 Z"/>
</g>

<g id="Layer25_0_FILL">
<path fill="#C69507" stroke="none" d="
M 1222.95 877.8
Q 1222.9943359375 877.7556640625 1223.05 877.75
L 1220.25 858.95 1075.8 896.85 1083 923.05
Q 1153.85 903.5 1222.95 877.8
M 640 737
L 640 982.25 818 737 640 737
M 1220.25 858.95
L 1213 811 1065.2 858 1075.8 896.85 1220.25 858.95 Z"/>

<path fill="#FDBE0A" stroke="none" d="
M 197 923
L 197 923 205 893.75 60.25 855.75 56.9 877.75 56.95 877.75
Q 125.95 903.4 196.85 922.95 196.95 922.95 197 923
M 640 737
L 462 737 640 982.25 640 737
M 205 893.75
L 214.8 858 67 811 60.25 855.75 205 893.75 Z"/>

<path fill="#BF624B" stroke="none" d="
M 283.95 677
L 283.95 677.05
Q 244.7384765625 728.0341796875 218.8 839.95 218.6861328125 841.4966796875 218.05 846 218.05 846.05 218.05 846.15 217.956640625 846.7837890625 217.85 847.4 216.830859375 854.6041015625 216.05 862 214.188671875 878.512890625 213.25 895.9 212.4259765625 911.1841796875 212.3 927.15
L 212.35 927.15
Q 405.3 978.35 611.45 984.6 624.675 984.75 637.9 984.9 637.95 984.9 638 984.9 638.0396484375 984.9 638.05 984.9 639.0396484375 984.9 640 984.9 640.9 984.9 641.85 984.9 641.8775390625 984.9 641.9 984.9
L 640 982.25 462 737 447.8 703 399.7 588
Q 328.15 619.4 283.95 677 Z"/>

<path fill="#9C4F3C" stroke="none" d="
M 832.2 703
L 818 737 640 982.25 641.9 984.9
Q 641.9552734375 984.9 642 984.9 655.25 984.775 668.5 984.65 874.55 978.4 1067.55 927.2 1067.593359375 927.2 1067.65 927.2 1067.45078125 893.0568359375 1063.95 862 1063.2 854.8974609375 1062.2 848 1062.0853515625 847.0681640625 1061.95 846.15 1061.95 846.05 1061.95 846 1061.314453125 841.5015625 1061.2 840 1035.262109375 728.03515625 996.05 677.05
L 996.05 677
Q 951.85 619.4 880.3 588
L 832.2 703 Z"/>

<path fill="#333333" stroke="none" d="
M 641.85 985
Q 641.9240234375 984.9990234375 642 985
L 641.95 984.95 641.9 984.9
Q 641.8775390625 984.9 641.85 984.9 640.9 984.9 640 984.9 639.0396484375 984.9 638.05 984.9
L 638 984.95 638 985
Q 639 985 640 985 640.9 985 641.85 985
M 655 621.1
L 655 542.95
Q 648.65 542.65 642 542.5 641.05 542.45 640.1 542.45 640.05 542.45 640 542.45 639 542.45234375 638 542.5 631.35 542.65 625 542.95
L 625 621.1
Q 631.9126953125 621.2400390625 639 621.25 639.4994140625 621.25 640 621.25 647.6 621.25 655 621.1
M 470.4 540
L 466.45 541.65
Q 462.95 545.3 460.95 549.15 458 554.6 458 560.5 458 568.65 463.6 576 466.55 557.2 470.4 540
M 816.45 576
Q 822 568.65 822 560.5 822 550.5 813.55 541.65
L 809.6 540
Q 813.45 557.2 816.45 576
M 595 545.05
Q 579.3 546.6 565.8 549
L 565.8 616.2
Q 579.85 618.25 595 619.5
L 595 545.05
M 540.8 554.75
Q 527.15 558.75 516.8 564
L 516.8 605.2
Q 528.3068359375 608.794140625 540.8 611.55
L 540.8 554.75
M 763.2 564
Q 752.85 558.75 739.2 554.75
L 739.2 611.55
Q 751.69375 608.7939453125 763.2 605.2
L 763.2 564
M 714.2 549
Q 700.7 546.6 685 545.05
L 685 619.5
Q 700.15 618.3 714.2 616.2
L 714.2 549 Z"/>

<path fill="#8C4736" stroke="none" d="
M 1192 682
Q 1099.55 593.25 996.05 677.05 1035.262109375 728.03515625 1061.2 840 1061.314453125 841.5015625 1061.95 846 1061.95 846.05 1061.95 846.15
L 1065.2 858 1213 811 1229 806
Q 1241.2 740.35 1192 682 Z"/>

<path fill="#A75734" stroke="none" d="
M 447.8 703
L 462 737 640 737 640 703 639 703 447.8 703 Z"/>

<path fill="#FF8551" stroke="none" d="
M 393 572
L 399.7 588 447.8 703 639 703 639 664.25
Q 550.8955078125 664.1091796875 488.45 639.3 425.65 614.4 425.65 579.2 425.65 577.4 425.85 575.65 426.15 572 427.2 568.5 427.4 567.8 427.6 567.15 427.9 566.3 428.2 565.45 427.9 566.3 427.6 567.15 427.4 567.8 427.2 568.5 426.15 572 425.85 575.65 425.65 577.4 425.65 579.2 425.65 614.4 488.45 639.3 550.8955078125 664.1091796875 639 664.25
L 639 621.25
Q 631.9126953125 621.2400390625 625 621.1 609.5 620.7 595 619.5 579.85 618.25 565.8 616.2 552.8416015625 614.255078125 540.8 611.55 528.3068359375 608.794140625 516.8 605.2 514.021484375 604.358984375 511.3 603.45 475.25 591.4 463.6 576 458 568.65 458 560.5 458 554.6 460.95 549.15 462.95 545.3 466.45 541.65
L 393 572 Z"/>

<path fill="#E17547" stroke="none" d="
M 822 560.5
Q 822 568.65 816.45 576 804.75 591.4 768.7 603.45 765.97890625 604.3587890625 763.2 605.2 751.69375 608.7939453125 739.2 611.55 727.1583984375 614.255078125 714.2 616.2 700.15 618.3 685 619.5 670.5 620.7 655 621.1 647.6 621.25 640 621.25 639.4994140625 621.25 639 621.25
L 639 664.25
Q 639.4990234375 664.25 640 664.25 728.9 664.25 791.7 639.3 854.5 614.4 854.5 579.2 854.5 572.15 852 565.55 854.5 572.15 854.5 579.2 854.5 614.4 791.7 639.3 728.9 664.25 640 664.25 639.4990234375 664.25 639 664.25
L 639 703 640 703 832.2 703 880.3 588 887 572 813.55 541.65
Q 822 550.5 822 560.5 Z"/>

<path fill="#E7A8A9" stroke="none" d="
M 640 419
Q 597.55 419 567.5 413.85 537.5 408.75 537.5 401.5 537.5 401.25 537.55 401.05 497.25 441.3 476.4 516.2 473.5 526.5 471 537.5 470.7 538.75 470.4 540 466.55 557.2 463.6 576 475.25 591.4 511.3 603.45 514.021484375 604.358984375 516.8 605.2
L 516.8 564
Q 527.15 558.75 540.8 554.75
L 540.8 611.55
Q 552.8416015625 614.255078125 565.8 616.2
L 565.8 549
Q 579.3 546.6 595 545.05
L 595 619.5
Q 609.5 620.7 625 621.1
L 625 542.95
Q 631.35 542.65 638 542.5 639 542.45234375 640 542.45
L 640 419
M 568.45 466.8
Q 581.35 453.9 596.6 450.95 611.95 448.1 620.75 456.9 629.55 465.7 626.65 481 626.15 483.7 625.35 486.35 623.05 493.5 618.5 500.15 615.25 504.8 610.85 509.2 608.4 511.65 605.85 513.8 600.15 518.45 594 521.35 588.45 523.9 582.65 525 567.35 527.9 558.55 519.1 553.6 514.15 552.35 507.05 551.35 501.6 552.6 494.95 552.8 494.05 553 493.2 553.5 491.1 554.2 489 556.3 482.6 560.25 476.7 563.65 471.6 568.45 466.8
M 742.5 401.5
Q 742.5 401.25 742.5 401.05 741.5 394.1 712.45 389.1 682.45 384 640 384
L 640 419
Q 682.45 419 712.45 413.85 742.5 408.75 742.5 401.5 Z"/>

<path fill="#FFFFFF" stroke="none" d="
M 596.6 450.95
Q 581.35 453.9 568.45 466.8 563.65 471.6 560.25 476.7 556.3 482.6 554.2 489 553.5 491.1 553 493.2 552.8 494.05 552.6 494.95 551.35 501.6 552.35 507.05 553.6 514.15 558.55 519.1 567.35 527.9 582.65 525 588.45 523.9 594 521.35 600.15 518.45 605.85 513.8 608.4 511.65 610.85 509.2 615.25 504.8 618.5 500.15 623.05 493.5 625.35 486.35 626.15 483.7 626.65 481 629.55 465.7 620.75 456.9 611.95 448.1 596.6 450.95
M 683.4 450.95
Q 668.05 448.1 659.25 456.9 650.45 465.7 653.35 481 653.85 483.7 654.65 486.35 656.95 493.5 661.5 500.15 664.75 504.8 669.15 509.2 671.6 511.65 674.15 513.8 679.85 518.45 686 521.35 691.55 523.9 697.35 525 712.65 527.9 721.45 519.1 726.4 514.15 727.65 507.1 727.219140625 506.970703125 726.85 506.95 727.25625 506.9625 727.65 507.05 728.65 501.6 727.4 494.95 727.2 494.05 727 493.2 725.9 493 724.8 492.8 725.9 492.95 727 493.15 726.5 491.05 725.8 489 723.7 482.6 719.75 476.7 716.35 471.6 711.55 466.8 698.65 453.9 683.4 450.95 Z"/>

<path fill="#783D25" stroke="none" d="
M 818 737
L 832.2 703 640 703 640 737 818 737 Z"/>

<path fill="#E7BFC0" stroke="none" d="
M 640 384
Q 597.55 384 567.5 389.1 538.5 394.1 537.55 401.05 537.5 401.25 537.5 401.5 537.5 408.75 567.5 413.85 597.55 419 640 419
L 640 384 Z"/>

<path fill="#CF9697" stroke="none" d="
M 742.5 401.05
Q 742.5 401.25 742.5 401.5 742.5 408.75 712.45 413.85 682.45 419 640 419
L 640 542.45
Q 640.05 542.45 640.1 542.45 641.05 542.45 642 542.5 648.65 542.65 655 542.95
L 655 621.1
Q 670.5 620.7 685 619.5
L 685 545.05
Q 700.7 546.6 714.2 549
L 714.2 616.2
Q 727.1583984375 614.255078125 739.2 611.55
L 739.2 554.75
Q 752.85 558.75 763.2 564
L 763.2 605.2
Q 765.97890625 604.3587890625 768.7 603.45 804.75 591.4 816.45 576 813.45 557.2 809.6 540 809.3 538.7 809.05 537.45 806.5 526.45 803.6 516.1 782.7 441.3 742.5 401.05
M 659.25 456.9
Q 668.05 448.1 683.4 450.95 698.65 453.9 711.55 466.8 716.35 471.6 719.75 476.7 723.7 482.6 725.8 489 726.5 491.05 727 493.15
L 727 493.2
Q 727.2 494.05 727.4 494.95 728.65 501.6 727.65 507.05
L 727.65 507.1
Q 726.4 514.15 721.45 519.1 712.65 527.9 697.35 525 691.55 523.9 686 521.35 679.85 518.45 674.15 513.8 671.6 511.65 669.15 509.2 664.75 504.8 661.5 500.15 656.95 493.5 654.65 486.35 653.85 483.7 653.35 481 650.45 465.7 659.25 456.9 Z"/>

<path fill="#D86E54" stroke="none" d="
M 283.95 677.05
Q 180.45 593.25 88 682 38.8 740.35 50 806
L 67 811 214.8 858 218.05 846.15
Q 218.05 846.05 218.05 846 218.6861328125 841.4966796875 218.8 839.95 244.7384765625 728.0341796875 283.95 677.05 Z"/>
</g>

<g id="Layer23_0_FILL">
<path fill="#FFFFFF" stroke="none" d="
M 152.25 666.5
Q 141.05 666.55 129.2 673.4 117.35 680.25 111.75 689.85 106.2 699.6 110.15 706.5 114.15 713.4 125.35 713.4 136.55 713.5 148.4 706.65 160.25 699.8 165.85 690.05 171.4 680.35 167.4 673.45 163.45 666.55 152.25 666.5 Z"/>
</g>

<g id="Layer21_0_FILL">
<path fill="#333333" stroke="none" d="
M 598.35 466.75
Q 594.1 471 594.1 477.05 594.1 483.1 598.35 487.35 602.6 491.6 608.65 491.6 614.7 491.6 618.95 487.35 623.2 483.1 623.2 477.05 623.2 471 618.95 466.75 614.7 462.5 608.65 462.5 602.6 462.5 598.35 466.75
M 661.05 466.75
Q 656.8 471 656.8 477.05 656.8 483.1 661.05 487.35 665.3 491.6 671.35 491.6 677.4 491.6 681.65 487.35 685.9 483.1 685.9 477.05 685.9 471 681.65 466.75 677.4 462.5 671.35 462.5 665.3 462.5 661.05 466.75 Z"/>
</g>

<g id="Layer20_0_FILL">
<path fill="#FFB99B" stroke="none" d="
M 527.65 630.4
Q 529.1 628.95 529.1 626.9 529.1 624.85 527.65 623.35 526.1 621.9 524 621.9 521.9 621.9 520.4 623.35 518.85 624.85 518.85 626.9 518.85 628.95 520.4 630.4 521.9 631.9 524 631.9 526.1 631.9 527.65 630.4
M 562.2 639.95
Q 564.3 639.95 565.85 638.45 567.35 637 567.35 634.95 567.35 632.9 565.85 631.4 564.3 629.95 562.2 629.95 560.1 629.95 558.6 631.4 557.1 632.9 557.1 634.95 557.1 637 558.6 638.45 560.1 639.95 562.2 639.95
M 604.75 642.85
Q 606.25 641.4 606.25 639.35 606.25 637.3 604.75 635.8 603.2 634.35 601.1 634.35 599 634.35 597.5 635.8 595.95 637.3 595.95 639.35 595.95 641.4 597.5 642.85 599 644.35 601.1 644.35 603.2 644.35 604.75 642.85
M 636.55 637.15
Q 635 638.65 635 640.7 635 642.75 636.55 644.2 638.05 645.7 640.15 645.7 640.3 645.7 640.45 645.7
L 640.6 645.7
Q 642.65 645.7 644.15 644.2 645.7 642.75 645.7 640.7 645.7 638.65 644.15 637.15 642.65 635.7 640.55 635.7 640.45 635.7 640.35 635.7 640.25 635.7 640.15 635.7 638.05 635.7 636.55 637.15
M 481.55 614.1
Q 481.55 616.15 483.1 617.6 484.6 619.1 486.7 619.1 488.8 619.1 490.35 617.6 491.8 616.15 491.8 614.1 491.8 612.05 490.35 610.55 488.8 609.1 486.7 609.1 484.6 609.1 483.1 610.55 481.55 612.05 481.55 614.1
M 449.95 589.55
Q 448.4 591.05 448.4 593.1 448.4 595.15 449.95 596.6 451.45 598.1 453.55 598.1 455.65 598.1 457.2 596.6 458.65 595.15 458.65 593.1 458.65 591.05 457.2 589.55 455.65 588.1 453.55 588.1 451.45 588.1 449.95 589.55
M 440.05 557.9
Q 440.05 559.95 441.6 561.4 443.1 562.9 445.2 562.9 446.2 562.9 447.1 562.55 448 562.2 448.8 561.4 450.3 559.95 450.3 557.9 450.3 555.85 448.8 554.35 448 553.6 447.1 553.25 446.2 552.9 445.2 552.9 443.1 552.9 441.6 554.35 440.05 555.85 440.05 557.9
M 683.2 635.8
Q 681.7 634.35 679.6 634.35 677.5 634.35 675.95 635.8 674.45 637.3 674.45 639.35 674.45 641.4 675.95 642.85 677.5 644.35 679.6 644.35 681.7 644.35 683.2 642.85 684.75 641.4 684.75 639.35 684.75 637.3 683.2 635.8
M 722.1 631.4
Q 720.6 629.95 718.5 629.95 716.4 629.95 714.85 631.4 713.35 632.9 713.35 634.95 713.35 637 714.85 638.45 716.4 639.95 718.5 639.95 720.6 639.95 722.1 638.45 723.6 637 723.6 634.95 723.6 632.9 722.1 631.4
M 760.3 623.35
Q 758.8 621.9 756.7 621.9 754.6 621.9 753.05 623.35 751.6 624.85 751.6 626.9 751.6 628.95 753.05 630.4 754.6 631.9 756.7 631.9 758.8 631.9 760.3 630.4 761.85 628.95 761.85 626.9 761.85 624.85 760.3 623.35
M 794 619.1
Q 796.1 619.1 797.6 617.6 799.15 616.15 799.15 614.1 799.15 612.05 797.6 610.55 796.1 609.1 794 609.1 791.9 609.1 790.35 610.55 788.9 612.05 788.9 614.1 788.9 616.15 790.35 617.6 791.9 619.1 794 619.1
M 823.5 589.55
Q 822 591.05 822 593.1 822 595.15 823.5 596.6 825.05 598.1 827.15 598.1 829.25 598.1 830.75 596.6 832.3 595.15 832.3 593.1 832.3 591.05 830.75 589.55 829.25 588.1 827.15 588.1 825.05 588.1 823.5 589.55
M 833.6 553.25
Q 832.7 553.6 831.85 554.35 830.4 555.85 830.4 557.9 830.4 559.95 831.85 561.4 832.7 562.2 833.6 562.55 834.5 562.9 835.5 562.9 837.6 562.9 839.1 561.4 840.65 559.95 840.65 557.9 840.65 555.85 839.1 554.35 837.6 552.9 835.5 552.9 834.5 552.9 833.6 553.25 Z"/>
</g>

<path id="Symbol_1_0_Layer0_0_1_STROKES" stroke="#BBBBBB" stroke-width="7.05" stroke-linejoin="round" stroke-linecap="round" fill="none" d="
M 137.075 -66.825
L 172.1 22.8
M -172.15 22.8
L -137.1 -66.775"/>

<path id="Symbol_1_0_Layer0_0_2_STROKES" stroke="#D5060C" stroke-width="8" stroke-linejoin="round" stroke-linecap="round" fill="none" d="
M 67 -249.55
L 42.475 -249.55 2.8 -249.55 -4.6 -249.55 -14.45 -249.55
M -67.05 -249.55
L -42.025 -249.55 -14.45 -249.55"/>

<path id="Layer25_0_1_STROKES" stroke="#000000" stroke-opacity="0.2" stroke-width="8" stroke-linejoin="round" stroke-linecap="round" fill="none" d="
M 639 664.25
Q 639.4990234375 664.25 640 664.25 728.9 664.25 791.7 639.3 854.5 614.4 854.5 579.2 854.5 572.15 852 565.55
M 639 664.25
Q 550.8955078125 664.1091796875 488.45 639.3 425.65 614.4 425.65 579.2 425.65 577.4 425.85 575.65 426.15 572 427.2 568.5 427.4 567.8 427.6 567.15 427.9 566.3 428.2 565.45
M 205.025 893.75
L 60.25 855.775
M 1075.825 896.85
L 1220.25 858.975"/>

<path id="Layer24_0_1_STROKES" stroke="#000000" stroke-opacity="0.2" stroke-width="8" stroke-linejoin="round" stroke-linecap="round" fill="none" d="
M 590 430
Q 630.18046875 478.5310546875 693 428"/>
</defs>

<g transform="matrix( 1, 0, 0, 1, 2163.2,567.4) ">
<g transform="matrix( 1, 0, 0, 1, 0,0) ">
<use xlink:href="#Symbol_1_0_Layer0_0_FILL"/>

<use xlink:href="#Symbol_1_0_Layer0_0_1_STROKES"/>

<use xlink:href="#Symbol_1_0_Layer0_0_2_STROKES"/>
</g>
</g>

<g transform="matrix( 1, 0, 0, 1, 0,0) ">
<use xlink:href="#Layer25_0_FILL"/>

<use xlink:href="#Layer25_0_1_STROKES"/>
</g>

<g transform="matrix( 1, 0, 0, 1, 0,0) ">
<use xlink:href="#Layer24_0_1_STROKES"/>
</g>

<g transform="matrix( 1, 0, 0, 1, 0,0) ">
<use xlink:href="#Layer23_0_FILL"/>
</g>

<g transform="matrix( 1, 0, 0, 1, 0,0) ">
<use xlink:href="#Layer21_0_FILL"/>
</g>

<g transform="matrix( 1, 0, 0, 1, 0,0) ">
<use xlink:href="#Layer20_0_FILL"/>
</g>
</svg>
