
<svg xmlns="http://www.w3.org/2000/svg" version="1.1" xmlns:xlink="http://www.w3.org/1999/xlink" preserveAspectRatio="none" x="0px" y="0px" width="1280px" height="1024px" viewBox="0 0 1280 1024">
<defs>
<g id="Symbol_1_0_Layer0_0_FILL">
<path fill="#212121" stroke="none" d="
M -427.3 152.65
Q -433.7 153.35 -439.85 154.25 -515.3 165.35 -557.2 210.25 -599.55 255.55 -601.8 328.35 -600.85 328.8 -599.9 329.25 -413.25 419.55 -150.65 433.7
L -317.7 386.55 -427.3 152.65
M -474.35 182.6
Q -459.25 180.85 -455 188.2 -450.8 195.6 -459.8 207.75 -468.9 219.9 -485.9 229.75 -503 239.6 -518.1 241.4 -533.25 243.2 -537.45 235.8 -541.7 228.45 -532.65 216.25 -523.55 204.05 -506.45 194.2 -489.4 184.35 -474.35 182.6
M 1.15 164.3
L 0 164.9 -98.55 114.65 -157.9 66
Q -232.6 74.8 -293.9 95.4
L -227.95 187.1 -30.9 227.75 -30.9 436.35
Q -30.7 436.35 -30.6 436.35 -29.75 436.35 -28.9 436.35 -14.5 436.45 -0.3 436.4 -0.15 436.4 0 436.4 0.15 436.4 0.3 436.4 0.7 436.4 1.15 436.4
L 1.15 164.3
M -226.15 94.35
Q -220.85 91.45 -212.8 90.3 -204.8 88.95 -198.85 90.1 -192.8 91.25 -192.4 94.15 -191.9 97.05 -197.3 99.95 -202.65 102.85 -210.6 104.1 -218.65 105.4 -224.65 104.2 -230.55 103.15 -231.05 100.25 -231.5 97.35 -226.15 94.35
M 136.4 -65.7
L 135.9 -65 128.95 -53.85 147.55 23.3 172.1 25.65 136.4 -65.7
M 14.1 -27.55
L 0 -27.55 0 39.9 14.1 39.9 14.1 -27.55
M 87 -3.2
L 87 -46.35 72.4 -30.15 72.4 18.2 87 -3.2
M 118.7 -81.65
L 110.4 -72.35 110.4 -37.45 118.7 -49.7 118.7 -81.65
M 104.45 -65.8
L 93.75 -53.9 93.75 -13.15 104.45 -28.8 104.45 -65.8
M 123.7 -87.2
L 123.7 -57 131.75 -68.8 131.05 -95.35 123.7 -87.2
M 56.85 -27.55
L 28.6 -27.55 28.6 39.9 56.85 39.9 56.85 -27.55 Z"/>

<path fill="#EAEAEA" stroke="none" d="
M -455 188.2
Q -459.25 180.85 -474.35 182.6 -489.4 184.35 -506.45 194.2 -523.55 204.05 -532.65 216.25 -541.7 228.45 -537.45 235.8 -533.25 243.2 -518.1 241.4 -503 239.6 -485.9 229.75 -468.9 219.9 -459.8 207.75 -450.8 195.6 -455 188.2
M 0 164.9
L 1.15 164.3 32.45 148.35 -60.55 55.3 -80.85 22.95 -98.55 114.65 0 164.9
M -212.8 90.3
Q -220.85 91.45 -226.15 94.35 -231.5 97.35 -231.05 100.25 -230.55 103.15 -224.65 104.2 -218.65 105.4 -210.6 104.1 -202.65 102.85 -197.3 99.95 -191.9 97.05 -192.4 94.15 -192.8 91.25 -198.85 90.1 -204.8 88.95 -212.8 90.3
M 509.65 195.45
Q 499.9 189.8 491.3 188.75 482.65 187.8 480.2 192 477.8 196.25 483 203.2 488.15 210.1 497.9 215.75 507.7 221.4 516.3 222.4 524.95 223.5 527.4 219.25 529.8 215.05 524.65 208.05 519.45 201.1 509.65 195.45 Z"/>

<path fill="#BBBBBB" stroke="none" d="
M -147.6 23.3
L -157.9 66 -98.55 114.65 -80.85 22.95 -129 -53.85 -147.6 23.3
M 157.9 66
L 147.55 23.3 128.95 -53.85 80.85 22.95 98.5 114.65 157.9 66
M 135.85 -107.85
L 137.85 -110 138.3 -110.4
Q 139.4 -111.65 139.4 -113.3 139.4 -115.05 138.15 -116.15 137 -117.3 135.45 -117.35 135.3 -117.35 135.25 -117.35 133.55 -117.3 132.4 -116.1
L 67.1 -48.5 66.1 -48.5 26.05 -48.5 25.2 -48.5 -25.2 -48.5 -26.05 -48.5 -65.6 -48.5 -67.15 -48.5 -132.4 -116.1
Q -133.55 -117.3 -135.25 -117.35 -135.35 -117.35 -135.4 -117.35 -137 -117.35 -138.2 -116.15 -139.45 -115.05 -139.45 -113.3 -139.45 -111.65 -138.25 -110.4
L -137.9 -110 -135.85 -107.85 -71.8 -41.55
Q -71.25 -40.95 -70.45 -40.6 -69.7 -40.3 -68.85 -40.3
L 0 -40.3 68.85 -40.3
Q 69.65 -40.3 70.45 -40.6 71.2 -40.95 71.8 -41.55
L 135.85 -107.85 Z"/>

<path fill="#092958" stroke="none" d="
M -26.05 -48.5
L -25.2 -48.5 -11.9 -56.3 -17.8 -133.05 -26.05 -48.5
M -124.6 -161.9
L -124.65 -161.95 -136 -161.95 -135.4 -117.35
Q -135.35 -117.35 -135.25 -117.35 -133.55 -117.3 -132.4 -116.1
L -67.15 -48.5 -65.6 -48.5 -71.25 -120.4 -124.6 -161.9 Z"/>

<path fill="#333333" stroke="none" d="
M -129 -53.85
L -136.4 -65.7 -172.15 25.65 -147.6 23.3 -129 -53.85
M 0 39.9
L 0 -27.55 -14.15 -27.55 -14.15 39.9 0 39.9
M -28.65 -27.55
L -56.9 -27.55 -56.9 39.9 -28.65 39.9 -28.65 -27.55
M -86.2 -46.35
L -86.2 -3.2 -71.6 18.2 -71.6 -30.15 -86.2 -46.35
M -130.25 -95.35
L -130.95 -68.8 -122.9 -57 -122.9 -87.2 -130.25 -95.35
M -109.6 -72.35
L -117.9 -81.65 -117.9 -49.7 -109.6 -37.45 -109.6 -72.35
M -92.95 -53.9
L -103.65 -65.8 -103.65 -28.8 -92.95 -13.15 -92.95 -53.9 Z"/>

<path fill="#FDBE0A" stroke="none" d="
M -136 -161.95
L -143.05 -161.95 -352.6 -140.55 -137.9 -110 -138.25 -110.4
Q -139.45 -111.65 -139.45 -113.3 -139.45 -115.05 -138.2 -116.15 -137 -117.35 -135.4 -117.35
L -136 -161.95
M -13.15 -320.35
L -15.45 -332.85
Q -38.85 -328.55 -56.5 -310.8 -65.2 -302.2 -70.65 -292.15
L -60.1 -285
Q -55.4 -294.05 -47.55 -301.85 -32.7 -316.75 -13.15 -320.35 Z"/>

<path fill="#F7CF21" stroke="none" d="
M -21.7 -133.05
L -57 -161.95 -124.65 -161.95 -124.6 -161.9
Q -66.15 -156.2 -21.7 -133.05
M 56.95 -161.95
L 21.65 -133.05
Q 66.3 -156.3 125.1 -161.95
L 56.95 -161.95 Z"/>

<path fill="#FFEA2A" stroke="none" d="
M -71.25 -120.4
L -21.7 -133.05
Q -66.15 -156.2 -124.6 -161.9
L -71.25 -120.4
M 21.65 -133.05
L 71.7 -120.4 125.1 -161.95
Q 66.3 -156.3 21.65 -133.05 Z"/>

<path fill="#227EC4" stroke="none" d="
M -17.8 -133.05
L -21.7 -133.05 -71.25 -120.4 -65.6 -48.5 -26.05 -48.5 -17.8 -133.05 Z"/>

<path fill="#000000" stroke="none" d="
M -39.2 -163.4
L -39.2 -188.05 -52.7 -202.3 -48.7 -171.45 -39.2 -163.4
M 227.9 187.1
L 293.85 95.4
Q 232.55 74.8 157.9 66
L 98.5 114.65 32.45 148.35 1.15 164.3 1.15 436.4
Q 15.75 436.4 30.55 436.25 30.75 436.25 30.85 436.25
L 30.85 227.75 227.9 187.1
M 439.85 154.25
Q 433.65 153.35 427.25 152.65
L 317.65 386.55 150.95 433.65
Q 414.65 419.3 601.8 328.35 599.5 255.55 557.2 210.25 515.25 165.35 439.85 154.25
M 491.3 188.75
Q 499.9 189.8 509.65 195.45 519.45 201.1 524.65 208.05 529.8 215.05 527.4 219.25 524.95 223.5 516.3 222.4 507.7 221.4 497.9 215.75 488.15 210.1 483 203.2 477.8 196.25 480.2 192 482.65 187.8 491.3 188.75
M 39.15 -188.05
L 39.15 -163.4 48.65 -171.45 52.7 -202.3 39.15 -188.05 Z"/>

<path fill="#FFFFFF" stroke="none" d="
M -36.8 -245.05
L -18.95 -245.05 -14.45 -249.55 -42.05 -249.55 -36.8 -245.05
M -9.1 -245.05
L -1.7 -245.05 2.8 -249.55 -4.6 -249.55 -9.1 -245.05
M 42.7 -306.7
Q 29.65 -317.45 13.4 -320.4
L -52.5 -253.25 -46.3 -253.25 -42.05 -249.55 -14.45 -249.55 42.7 -306.7
M 51.5 -298.15
Q 49.85 -300.05 48.05 -301.85 47.95 -301.95 47.9 -302
L -4.6 -249.55 2.8 -249.55 51.5 -298.15 Z"/>

<path fill="#BEE0E2" stroke="none" d="
M -55.8 -226.05
L -54.75 -217.75 -26.15 -217.75 -26.15 -240.3 -64.65 -240.3 -64.65 -232.45 -55.8 -226.05
M -4.6 -249.55
L -14.45 -249.55 -18.95 -245.05 -9.1 -245.05 -4.6 -249.55
M 42.45 -249.55
L 2.8 -249.55 -1.7 -245.05 37.25 -245.05 42.45 -249.55
M 66.45 -267.95
L 66.55 -267.75
Q 66.45 -268 66.4 -268.25
L 66.45 -267.95
M 42.45 -249.55
L 46.75 -253.25 67.85 -253.25 67.7 -256.3
Q 67.65 -259.35 67.3 -262.25
L 67.35 -262.2
Q 67.3 -262.65 67.25 -263.15 67.2 -263.5 67.1 -263.9 67.1 -263.95 67.1 -264.05 66.8 -266.05 66.45 -267.95 66.3 -268.5 66.25 -268.95 66.25 -269.1 66.25 -269.15 66.15 -269.25 66.15 -269.4 66.1 -269.5 66.1 -269.55 64.5 -276.7 61.4 -283.2 60.85 -284.4 60.25 -285.6 56.65 -292.25 51.5 -298.15
L 2.8 -249.55 42.45 -249.55
M 0 -211.8
Q 0.15 -211.8 0.3 -211.8
L 0.3 -242.65 -0.15 -242.65
Q -0.65 -242.65 -1.2 -242.6 -3.05 -242.5 -4.75 -241.95 -8.2 -240.9 -10.95 -238.15 -15.45 -233.65 -15.45 -227.25 -15.45 -220.8 -10.95 -216.3 -6.85 -212.2 -1.2 -211.8 -0.65 -211.8 -0.15 -211.8
L 0 -211.8
M 47.9 -302
Q 46.15 -303.75 44.45 -305.25 43.55 -306 42.7 -306.7
L -14.45 -249.55 -4.6 -249.55 47.9 -302
M 13.4 -320.4
Q 7.25 -321.55 0.6 -321.55 0.4 -321.6 0.2 -321.55 0.05 -321.6 -0.15 -321.55 -6.9 -321.55 -13.15 -320.35 -32.7 -316.75 -47.55 -301.85 -55.4 -294.05 -60.1 -285 -63.8 -277.75 -65.6 -269.65 -65.65 -269.6 -65.65 -269.55 -65.7 -269.25 -65.8 -268.95 -65.8 -268.9 -65.8 -268.85 -65.85 -268.8 -65.85 -268.7
L -65.85 -268.6
Q -65.9 -268.45 -65.9 -268.25
L -65.9 -268.2
Q -65.95 -268.05 -65.95 -267.95 -66.4 -266.05 -66.6 -264.1 -66.65 -263.95 -66.65 -263.9 -66.75 -263.5 -66.75 -263.15 -66.8 -262.65 -66.85 -262.2 -67.15 -259.35 -67.2 -256.45 -67.2 -255.95 -67.2 -255.5
L -67.25 -253.25 -52.5 -253.25 13.4 -320.4 Z"/>

<path fill="#7B8C9F" stroke="none" d="
M -65.95 -268.15
L -65.9 -268.2 -65.9 -268.25 -65.95 -268.15 Z"/>

<path fill="#868185" stroke="none" d="
M -108.05 -263.9
L -112.6 -267.25 -117.55 -267.2 -227.95 -266.4
Q -177.4 -225.8 -143.05 -161.95
L -136 -161.95 -124.65 -161.95 -57 -161.95 -21.7 -133.05 -17.8 -133.05 -1.2 -133.05 -1.2 -146.5 -19 -146.5 -31.7 -157.2 -39.2 -163.4 -48.7 -171.45 -52.7 -202.3 -54.75 -217.75 -55.8 -226.05 -64.65 -232.45 -108.05 -263.9
M -108.05 -387.5
L -151 -387.5 -115.15 -275.3
Q -109.15 -292.4 -93.8 -307.95 -88.95 -290.15 -77.1 -275.85 -76.35 -278.75 -75.4 -281.5
L -108.05 -387.5
M 0 -27.55
L 0 -40.3 -68.85 -40.3
Q -69.7 -40.3 -70.45 -40.6 -71.25 -40.95 -71.8 -41.55
L -135.85 -107.85 -139.4 -70.45 -137.1 -66.8 -136.4 -65.7 -129 -53.85 -80.85 22.95 -60.55 55.3 0 55.3 0 39.9 -14.15 39.9 -14.15 -27.55 0 -27.55
M -103.65 -65.8
L -92.95 -53.9 -92.95 -13.15 -103.65 -28.8 -103.65 -65.8
M -117.9 -81.65
L -109.6 -72.35 -109.6 -37.45 -117.9 -49.7 -117.9 -81.65
M -130.95 -68.8
L -130.25 -95.35 -122.9 -87.2 -122.9 -57 -130.95 -68.8
M -86.2 -3.2
L -86.2 -46.35 -71.6 -30.15 -71.6 18.2 -86.2 -3.2
M -56.9 -27.55
L -28.65 -27.55 -28.65 39.9 -56.9 39.9 -56.9 -27.55 Z"/>

<path fill="#E6B531" stroke="none" d="
M -112.6 -267.25
L -108.05 -263.9 -79.4 -263.9
Q -79.3 -264.25 -79.25 -264.7 -79.2 -265.15 -79.15 -265.65
L -79.15 -265.7
Q -78.9 -267.95 -78.45 -270.1 -78.35 -270.35 -78.3 -270.5 -78.3 -270.75 -78.3 -270.9 -78.25 -271.55 -78 -272.15 -78 -272.2 -78 -272.3 -77.6 -274.05 -77.1 -275.85 -88.95 -290.15 -93.8 -307.95 -109.15 -292.4 -115.15 -275.3
L -112.6 -267.25 Z"/>

<path fill="#98060C" stroke="none" d="
M -591.2 -53.9
L -502.9 -8.8 -427.3 152.65 -317.7 386.55 -150.65 433.7
Q -144.35 434.1 -138 434.4 -85.9 436.85 -30.9 436.35
L -30.9 227.75 -227.95 187.1 -293.9 95.4 -401.3 -53.9 -591.2 -53.9
M 77.55 -275.95
Q 76.8 -278.8 75.85 -281.55 73.75 -287.3 70.85 -292.6
L 70.85 -292.65 60.25 -285.6
Q 60.85 -284.4 61.4 -283.2 64.5 -276.7 66.1 -269.55 66.1 -269.5 66.15 -269.4 66.15 -269.25 66.25 -269.15 66.25 -269.1 66.25 -268.95 66.3 -268.5 66.45 -267.95
L 66.4 -268.25
Q 66.45 -268 66.55 -267.75
L 66.45 -267.95
Q 66.8 -266.05 67.1 -264.05 67.1 -263.95 67.1 -263.9 67.2 -263.5 67.25 -263.15 67.3 -262.65 67.35 -262.2
L 67.3 -262.25
Q 67.65 -259.35 67.7 -256.3
L 67.85 -253.25 46.75 -253.25 42.45 -249.55 67 -249.55 42.45 -249.55 37.25 -245.05 -1.7 -245.05 -9.1 -245.05 -18.95 -245.05 -36.8 -245.05 -42.05 -249.55 -67.05 -249.55 -42.05 -249.55 -46.3 -253.25 -52.5 -253.25 -67.25 -253.25 -67.2 -255.5
Q -67.2 -255.95 -67.2 -256.45 -67.15 -259.35 -66.85 -262.2 -66.8 -262.65 -66.75 -263.15 -66.75 -263.5 -66.65 -263.9 -66.65 -263.95 -66.6 -264.1 -66.4 -266.05 -65.95 -267.95 -65.95 -268.05 -65.9 -268.2
L -65.95 -268.15 -65.9 -268.25
Q -65.9 -268.45 -65.85 -268.6
L -65.85 -268.7
Q -65.85 -268.8 -65.8 -268.85 -65.8 -268.9 -65.8 -268.95 -65.7 -269.25 -65.65 -269.55 -65.65 -269.6 -65.6 -269.65 -63.8 -277.75 -60.1 -285
L -70.65 -292.15
Q -73.45 -287 -75.4 -281.5 -76.35 -278.75 -77.1 -275.85 -77.6 -274.05 -78 -272.3 -78 -272.2 -78 -272.15 -78.25 -271.55 -78.3 -270.9 -78.3 -270.75 -78.3 -270.5 -78.35 -270.35 -78.45 -270.1 -78.9 -267.95 -79.15 -265.7
L -79.15 -265.65
Q -79.2 -265.15 -79.25 -264.7 -79.3 -264.25 -79.4 -263.9
L -108.05 -263.9 -64.65 -232.45 -64.65 -240.3 -26.15 -240.3 -26.15 -217.75 -54.75 -217.75 -52.7 -202.3
Q -25.1 -205.15 -1.2 -205.15 -0.65 -205.15 -0.15 -205.15 0.1 -205.2 0.3 -205.15 0.45 -205.15 0.6 -205.15 25.05 -205.2 52.7 -202.3
L 54.7 -217.75 26.6 -217.75 26.6 -240.3 65.1 -240.3 65.1 -232.8 108 -263.9 79.8 -263.9
Q 79.75 -264.25 79.75 -264.7 79.7 -265.15 79.65 -265.65
L 79.65 -265.7
Q 79.3 -268.15 78.85 -270.5 78.8 -270.7 78.8 -270.85
L 78.75 -271.05
Q 78.7 -271.55 78.5 -272.15 78.45234375 -272.3408203125 78.45 -272.45
L 78.45 -272.3
Q 78.05 -274.1 77.55 -275.95
M 13.65 -235.35
Q 15.9 -231.8 15.9 -227.25 15.9 -220.8 11.4 -216.3 6.95 -211.85 0.6 -211.8
L 0.45 -211.8
Q 0.4 -211.8 0.3 -211.8 0.15 -211.8 0 -211.8
L -0.15 -211.8
Q -0.65 -211.8 -1.2 -211.8 -6.85 -212.2 -10.95 -216.3 -15.45 -220.8 -15.45 -227.25 -15.45 -233.65 -10.95 -238.15 -8.2 -240.9 -4.75 -241.95 -3.05 -242.5 -1.2 -242.6 -0.65 -242.65 -0.15 -242.65
L 0.3 -242.65 0.6 -242.65
Q 6.95 -242.6 11.4 -238.15 12.7 -236.85 13.65 -235.35
M 13.4 -320.4
L 15.55 -332.9
Q 8.3 -334.2 0.6 -334.2 0.4 -334.25 0.2 -334.2 0.05 -334.25 -0.15 -334.2 -8.1 -334.2 -15.45 -332.85
L -13.15 -320.35
Q -6.9 -321.55 -0.15 -321.55 0.05 -321.6 0.2 -321.55 0.4 -321.6 0.6 -321.55 7.25 -321.55 13.4 -320.4 Z"/>

<path fill="#969195" stroke="none" d="
M -166.2 -435
Q -221.65 -441.55 -267.15 -417.2
L -227.95 -266.4 -117.55 -267.2 -112.6 -267.25 -115.15 -275.3 -151 -387.5 -166.2 -435 Z"/>

<path fill="#D9D9D9" stroke="none" d="
M 80.85 22.95
L 60.55 55.3 0 55.3 -60.55 55.3 32.45 148.35 98.5 114.65 80.85 22.95 Z"/>

<path fill="#80060C" stroke="none" d="
M 502.85 -8.8
L 591.2 -53.9 401.25 -53.9 293.85 95.4 227.9 187.1 30.85 227.75 30.85 436.25
Q 31.85 436.25 32.8 436.35 89.5 436.75 143.05 434.1 147 433.9 150.95 433.65
L 317.65 386.55 427.25 152.65 502.85 -8.8
M 0.6 -205.15
Q 0.45 -205.15 0.3 -205.15 0.1 -205.2 -0.15 -205.15 -0.65 -205.15 -1.2 -205.15 -25.1 -205.15 -52.7 -202.3
L -39.2 -188.05 -39.2 -163.4 -31.7 -157.2
Q -2.1 -182.6 32.95 -158.2
L 39.15 -163.4 39.15 -188.05 52.7 -202.3
Q 25.05 -205.2 0.6 -205.15
M 0.2 -334.2
Q 0.4 -334.25 0.6 -334.2 8.3 -334.2 15.55 -332.9
L 0.05 -399.05 -15.45 -332.85
Q -8.1 -334.2 -0.15 -334.2 0.05 -334.25 0.2 -334.2 Z"/>

<path fill="#C69507" stroke="none" d="
M 143.05 -161.95
L 187.85 -117.1 353.05 -140.55 143.05 -161.95
M 77.55 -275.95
Q 78.05 -274.1 78.45 -272.3
L 78.45 -272.45
Q 78.45234375 -272.3408203125 78.5 -272.15 78.7 -271.55 78.75 -271.05
L 78.8 -270.85
Q 78.8 -270.7 78.85 -270.5 79.3 -268.15 79.65 -265.7
L 79.65 -265.65
Q 79.7 -265.15 79.75 -264.7 79.75 -264.25 79.8 -263.9
L 108 -263.9 108.3 -264.15 112.6 -267.25 115.25 -275.5
Q 109.15 -292.45 93.9 -307.95 89.1 -290.2 77.55 -275.95
M 15.55 -332.9
L 13.4 -320.4
Q 29.65 -317.45 42.7 -306.7 43.55 -306 44.45 -305.25 46.15 -303.75 47.9 -302 47.95 -301.95 48.05 -301.85 49.85 -300.05 51.5 -298.15 56.65 -292.25 60.25 -285.6
L 70.85 -292.65
Q 65.45 -302.4 57.05 -310.8 55.25 -312.6 53.4 -314.25 36.8 -329.15 15.55 -332.9 Z"/>

<path fill="#1D6BA5" stroke="none" d="
M 11.85 -56.3
L 17.8 -133.05 -1.2 -133.05 -17.8 -133.05 -11.9 -56.3 11.85 -56.3 Z"/>

<path fill="#061A38" stroke="none" d="
M 25.2 -48.5
L 11.85 -56.3 -11.9 -56.3 -25.2 -48.5 25.2 -48.5 Z"/>

<path fill="#6B676A" stroke="none" d="
M 0 -40.3
L 0 -27.55 14.1 -27.55 14.1 39.9 0 39.9 0 55.3 60.55 55.3 80.85 22.95 128.95 -53.85 135.9 -65 137.05 -66.85 139.35 -70.45 135.85 -107.85 71.8 -41.55
Q 71.2 -40.95 70.45 -40.6 69.65 -40.3 68.85 -40.3
L 0 -40.3
M 28.6 -27.55
L 56.85 -27.55 56.85 39.9 28.6 39.9 28.6 -27.55
M 123.7 -57
L 123.7 -87.2 131.05 -95.35 131.75 -68.8 123.7 -57
M 93.75 -53.9
L 104.45 -65.8 104.45 -28.8 93.75 -13.15 93.75 -53.9
M 110.4 -72.35
L 118.7 -81.65 118.7 -49.7 110.4 -37.45 110.4 -72.35
M 87 -46.35
L 87 -3.2 72.4 18.2 72.4 -30.15 87 -46.35
M 65.1 -232.8
L 55.8 -226.05 54.7 -217.75 52.7 -202.3 48.65 -171.45 39.15 -163.4 32.95 -158.2 19 -146.5 -1.2 -146.5 -1.2 -133.05 17.8 -133.05 21.65 -133.05 56.95 -161.95 125.1 -161.95 136.5 -161.95 143.05 -161.95
Q 177.35 -225.8 227.9 -266.4
L 117.65 -267.2 112.6 -267.25 108.3 -264.15 108 -263.9 65.1 -232.8 Z"/>

<path fill="#072148" stroke="none" d="
M 25.2 -48.5
L 26.05 -48.5 17.8 -133.05 11.85 -56.3 25.2 -48.5
M 136.5 -161.95
L 125.1 -161.95 71.7 -120.4 66.1 -48.5 67.1 -48.5 132.4 -116.1
Q 133.55 -117.3 135.25 -117.35 135.3 -117.35 135.45 -117.35
L 136.5 -161.95 Z"/>

<path fill="#4E0306" stroke="none" d="
M 19 -146.5
L 32.95 -158.2
Q -2.1 -182.6 -31.7 -157.2
L -19 -146.5 -1.2 -146.5 19 -146.5 Z"/>

<path fill="#1F72B0" stroke="none" d="
M 21.65 -133.05
L 17.8 -133.05 26.05 -48.5 66.1 -48.5 71.7 -120.4 21.65 -133.05 Z"/>

<path fill="#A87E05" stroke="none" d="
M 143.05 -161.95
L 136.5 -161.95 135.45 -117.35
Q 137 -117.3 138.15 -116.15 139.4 -115.05 139.4 -113.3 139.4 -111.65 138.3 -110.4
L 137.85 -110 187.85 -117.1 143.05 -161.95 Z"/>

<path fill="#A2BFC1" stroke="none" d="
M 26.6 -240.3
L 26.6 -217.75 54.7 -217.75 55.8 -226.05 65.1 -232.8 65.1 -240.3 26.6 -240.3
M 15.9 -227.25
Q 15.9 -231.8 13.65 -235.35 12.7 -236.85 11.4 -238.15 6.95 -242.6 0.6 -242.65
L 0.3 -242.65 0.3 -211.8
Q 0.4 -211.8 0.45 -211.8
L 0.6 -211.8
Q 6.95 -211.85 11.4 -216.3 15.9 -220.8 15.9 -227.25 Z"/>

<path fill="#514E50" stroke="none" d="
M 151 -387.5
L 108 -387.5 75.85 -281.55
Q 76.8 -278.8 77.55 -275.95 89.1 -290.2 93.9 -307.95 109.15 -292.45 115.25 -275.5
L 151 -387.5 Z"/>

<path fill="#636062" stroke="none" d="
M 267.1 -417.2
Q 221.65 -441.55 166.2 -435
L 151 -387.5 115.25 -275.5 112.6 -267.25 117.65 -267.2 227.9 -266.4 267.1 -417.2 Z"/>
</g>

<path id="Symbol_1_0_Layer0_0_1_STROKES" stroke="#BBBBBB" stroke-width="7.05" stroke-linejoin="round" stroke-linecap="round" fill="none" d="
M 137.075 -66.825
L 172.1 22.8
M -172.15 22.8
L -137.1 -66.775"/>

<path id="Symbol_1_0_Layer0_0_2_STROKES" stroke="#D5060C" stroke-width="8" stroke-linejoin="round" stroke-linecap="round" fill="none" d="
M -14.45 -249.55
L -42.025 -249.55
M 67 -249.55
L 42.475 -249.55 2.8 -249.55 -4.6 -249.55 -14.45 -249.55
M -42.025 -249.55
L -67.05 -249.55"/>
</defs>

<g transform="matrix( 1, 0, 0, 1, 640,567.4) ">
<g transform="matrix( 1, 0, 0, 1, 0,0) ">
<use xlink:href="#Symbol_1_0_Layer0_0_FILL"/>

<use xlink:href="#Symbol_1_0_Layer0_0_1_STROKES"/>

<use xlink:href="#Symbol_1_0_Layer0_0_2_STROKES"/>
</g>
</g>
</svg>
