
<svg xmlns="http://www.w3.org/2000/svg" version="1.1" xmlns:xlink="http://www.w3.org/1999/xlink" preserveAspectRatio="none" x="0px" y="0px" width="1280px" height="1024px" viewBox="0 0 1280 1024">
<defs>
<image id="Bitmap_5" x="0" y="0" width="300" height="300" xlink:href="./images/Bitmap_5.png"/>

<image id="Bitmap_6" x="0" y="0" width="480" height="480" xlink:href="./images/Bitmap_6.png"/>

<g id="Layer20_0_FILL">
<path fill="#333333" stroke="none" d="
M 0 0
L 0 1024 1280 1024 1280 0 0 0 Z"/>
</g>

<g id="Layer19_0_FILL">
<path fill="#A63D34" stroke="none" d="
M 64.5 -353.25
L 64.5 -385.9
Q 49.55 -384.35 34.5 -383.25
L 64.5 -353.25 Z"/>

<path fill="#CD4B40" stroke="none" d="
M -118 -424.9
Q -95.15 -404.9 -71 -400.9 -93.3 -403.6 -114 -393.9 -104.45 -386.8 -94.95 -384.7 -112.35 -385.25 -128 -376.9 -114 -363.65 -100 -364.9
L -118 -358.8
Q -24.9 -346.9 64.5 -353.25
L 34.5 -383.25
Q 49.55 -384.35 64.5 -385.9 135.4 -393.5 204 -412.8
L 204 -478.9
Q 120.95 -455.55 34.5 -449.35
L 34.5 -417.7
Q -40.5 -414.95 -118 -424.9 Z"/>
</g>

<g id="Layer18_0_FILL">
<path fill="#171717" stroke="none" d="
M 818.65 573.45
L 755.75 410.8 512.85 410.8 451 573.45
Q 631.6 634.45 818.65 573.45 Z"/>
</g>

<g id="Layer16_0_FILL">
<path fill="#CF4835" stroke="none" d="
M 466.85 974.7
L 465.95 974.1 465.45 974.5
Q 466.1 974.6 466.85 974.7 Z"/>

<path fill="#333333" stroke="none" d="
M 645.55 845.55
L 645.55 872.35 656.2 860.2 671.55 875.55 652.9 896.75 692.8 880.65
Q 693.35 881.4 694.15 882.15 716.75 902.4 720.65 916.65 721.35 925 711.25 930.65 711.1 930.8 710.8 930.95
L 639.95 974.35 640.05 990.05 640 990.25 668.55 989.1 724.7 954.6
Q 724.75 954.55 724.95 954.45 725.05 954.4 725.15 954.3 754.05 937.85 747.45 911.1 743.95 890 712.5 861.7 708.3 857.95 702.85 858.25
L 703.3 855.35 691.95 845.55 645.55 845.55
M 686.2 856.9
L 669.15 856.9 678.7 847.35 686.2 856.9 Z"/>

<path fill="#A63D33" stroke="none" d="
M 669.15 856.9
L 686.2 856.9 678.7 847.35 669.15 856.9
M 640.05 813.2
Q 639.5 813.2 639 813.2
L 639.95 974.35 710.8 930.95
Q 711.1 930.8 711.25 930.65 721.35 925 720.65 916.65 716.75 902.4 694.15 882.15 693.35 881.4 692.8 880.65
L 652.9 896.75 671.55 875.55 656.2 860.2 645.55 872.35 645.55 845.55 691.95 845.55 703.3 855.35 702.85 858.25
Q 708.3 857.95 712.5 861.7 743.95 890 747.45 911.1 754.05 937.85 725.15 954.3 725.05 954.4 724.95 954.45 724.75 954.55 724.7 954.6
L 668.55 989.1
Q 742.15 985.7 815.4 974.1 815.2 971.85 815 969.65 808.9 909.2 764.4 864.7 712.9 813.2 640.05 813.2 Z"/>

<path fill="#393939" stroke="none" d="
M 587.75 845.55
L 576.35 855.35 576.85 858.25
Q 571.4 857.95 567.15 861.7 535.75 890 532.3 911.1 525.65 938.05 555.1 954.6 555.35 954.75 555.75 954.9 586.8 970.25 612.5 989.25
L 632.75 989.9
Q 638.8 990.2 640 990.25
L 640.05 990.05 639.95 974.35 633.8 970.95
Q 633.7 970.85 633.5 970.75 604.3 948.4 568.1 930.5 558.35 924.8 559.15 916.65 562.9 902.4 585.5 882.15 586.25 881.4 586.95 880.65
L 626.75 896.75 608.1 875.55 623.5 860.2 634.15 872.35 634.15 845.55 587.75 845.55
M 593.45 856.9
L 601 847.35 610.55 856.9 593.45 856.9 Z"/>

<path fill="#CD4B40" stroke="none" d="
M 601 847.35
L 593.45 856.9 610.55 856.9 601 847.35
M 639 813.2
Q 625.25 813.25 612.15 815.2 557 823.35 515.65 864.7 469.4 910.95 464.7 974.4 465.05 974.4 465.45 974.5
L 465.95 974.1 466.85 974.7
Q 479.05 976.6 491.3 978.3 511.65 981.05 532.15 983.25 572.3 987.45 612.5 989.25 586.8 970.25 555.75 954.9 555.35 954.75 555.1 954.6 525.65 938.05 532.3 911.1 535.75 890 567.15 861.7 571.4 857.95 576.85 858.25
L 576.35 855.35 587.75 845.55 634.15 845.55 634.15 872.35 623.5 860.2 608.1 875.55 626.75 896.75 586.95 880.65
Q 586.25 881.4 585.5 882.15 562.9 902.4 559.15 916.65 558.35 924.8 568.1 930.5 604.3 948.4 633.5 970.75 633.7 970.85 633.8 970.95
L 639.95 974.35 639 813.2 Z"/>

<path fill="#71B7D6" stroke="none" d="
M 299.9 666.35
Q 282.75 675.95 264.15 688.25 187.8 693 147.3 733.8 111 770.3 95.3 862.8 134.65 880.65 174.05 896 210 909.75 246.05 921.55 292.45 936.65 339.05 948.55 353.2 952.15 367.4 955.4 375.35 957.3 383.4 959.05 394.65 961.5 405.9 963.8 407.8 964.15 409.6 964.55 421.9 967 434.25 969.25 449.5 972 464.7 974.4 469.4 910.95 515.65 864.7 557 823.35 612.15 815.2 625.25 813.25 639 813.2
L 639 672.05 530.85 563.9 526.8 597.65
Q 465.3 598.65 398.75 624.65 397.3 625 392.35 626.65 385.6 628.95 378.15 631.7 337.75 647.15 299.9 666.35 Z"/>

<path fill="#5C97B0" stroke="none" d="
M 746.4 473.45
L 746.3 472.8 642.5 473.65 540.5 472.8 539.65 479.6 540.85 479.6 530.85 563.9 639 672.05 639 813.2
Q 639.5 813.2 640.05 813.2 712.9 813.2 764.4 864.7 808.9 909.2 815 969.65 815.2 971.85 815.4 974.1 828.6 972 841.85 969.65 842.9 969.45 843.95 969.25 856.3 967 868.6 964.55 889.75 960.3 910.85 955.4 926.05 951.85 941.35 948 987.8 936.1 1034.05 920.9 1065.05 910.75 1096 899.15 1100.05 897.55 1104.15 896 1114 892.15 1123.9 888.3
L 1182.9 862.8
Q 1167.2 770.3 1130.95 733.8 1090.45 693 1014.05 688.25 996 676.3 978.3 666 931.55 640.35 881.5 622.15 818.5 598.65 760 597.65
L 745.9 479.6 747.05 479.6 746.25 473.45 746.4 473.45 Z"/>
</g>

<g id="Layer15_0_FILL">
<path fill="#272727" stroke="none" d="
M 512.85 410.8
L 502.3 410.8 379.45 594.3 443 594.3 512.85 410.8
M 767.35 410.8
L 755.75 410.8 826.65 594.3 890.2 594.3 767.35 410.8 Z"/>
</g>

<g id="Layer14_0_FILL">
<path fill="#CD4B40" stroke="none" d="
M 770.6 442.65
L 720.7 462.6
Q 752.5 539.3 772.05 624.6
L 795.95 615.05
Q 810.9 689.8 816.75 771 827.9 741.9 826.75 716.35 828.55 739.65 839.45 757.55 843.15 745.8 843.1 735.65 845.7 753.3 854.7 766.55 862.3 748.45 858.95 734.7
L 866.65 751.05
Q 859.6 653.6 839.45 565.3
L 821.95 604.65
Q 818.55 589.8 814.8 575.15 796.85 506 770.6 442.65
M 562.5 473.8
L 512.6 453.85
Q 486.35 517.2 468.4 586.35 464.65 601 461.25 615.85
L 443.75 576.5
Q 423.6 664.8 416.55 762.25
L 424.25 745.9
Q 420.9 759.65 428.5 777.75 437.5 764.5 440.1 746.85 440.05 757 443.75 768.75 454.65 750.85 456.45 727.55 455.3 753.1 466.45 782.2 472.3 701 487.25 626.25
L 511.15 635.8
Q 530.7 550.5 562.5 473.8 Z"/>

<path fill="#A63D34" stroke="none" d="
M 839.45 565.3
L 814.8 575.15
Q 818.55 589.8 821.95 604.65
L 839.45 565.3
M 468.4 586.35
L 443.75 576.5 461.25 615.85
Q 464.65 601 468.4 586.35 Z"/>
</g>

<g id="Layer13_0_FILL">
<path fill="#000000" fill-opacity="0.2" stroke="none" d="
M 574.3 646.75
Q 572.35 647.15 571.25 648.75 570.15 650.2 570.45 652.25 581.9 720 621.95 768.7 623.2 770.25 625.15 770.45 627.05 770.65 628.55 769.4 630 768.15 630.3 766.2 630.45 764.25 629.2 762.8 590.8 715.8 579.7 650.65 579.35 648.75 577.75 647.6 576.25 646.45 574.3 646.75
M 370.9 711.35
Q 372.15 712.8 374 713 448.55 720.25 537.15 754.6 538.95 755.2 540.7 754.5 542.45 753.65 543.2 751.9 543.95 750 543.1 748.3 542.3 746.55 540.6 745.9 450.55 710.9 374.9 703.65 372.95 703.4 371.45 704.7 370 706 369.75 707.9 369.6 709.8 370.9 711.35
M 739.15 758.35
Q 740.95 759.15 742.75 758.45 831.3 724.1 905.9 716.9 907.8 716.7 909 715.2 910.3 713.7 910.15 711.8 909.85 709.85 908.35 708.65 906.9 707.4 905 707.55 829.35 714.8 739.4 749.75 737.45 750.4 736.85 752.15 736.05 753.95 736.7 755.8 737.4 757.55 739.15 758.35
M 704.55 646.75
Q 702.7 646.45 701.05 647.6 699.5 648.75 699.15 650.65 688.1 715.8 649.65 762.8 648.45 764.25 648.6 766.2 648.85 768.15 650.35 769.4 651.75 770.65 653.8 770.45 655.65 770.25 657 768.7 696.85 720 708.35 652.25 708.75 650.2 707.55 648.75 706.45 647.15 704.55 646.75 Z"/>
</g>

<g id="Layer4_0_FILL">
<path fill="#71B7D6" stroke="none" d="
M 521.7 401.7
Q 521.75 400.55 521.9 399.35 521.8 400.05 521.7 400.9
L 521.7 401.7
M 617.2 430
Q 617.35 427.65 617.5 425.4
L 608.95 421.65
Q 588.85 457.25 558.05 437.25 548.15 429.15 538.35 414.4 522.35 416.8 521.7 403.75
L 521.7 466.35 548.65 486.45 548.65 574.25
Q 593.8 634.55 638.85 637.85
L 638.85 489.1 608.95 460.05 608.95 441.4 617.2 430 Z"/>

<path fill="#5A92AB" stroke="none" d="
M 608.95 421.65
L 617.5 425.4
Q 619 403.25 618.05 386.4 529.95 358.35 522.35 396.75
L 521.9 399.35
Q 521.75 400.55 521.7 401.7
L 521.7 403.75
Q 522.35 416.8 538.35 414.4 551.15 397.9 586.1 411.3
L 608.95 421.65 Z"/>

<path fill="#49788C" stroke="none" d="
M 758.4 400.4
Q 758.2 398.5 757.85 396.8 750.2 358.35 662.1 386.4 661.1 403.2 662.6 425.25
L 671.2 421.65 694.05 411.3
Q 729 397.9 741.85 414.4 759.35 414 758.4 400.4 Z"/>

<path fill="#5C97B0" stroke="none" d="
M 758.45 400.9
Q 758.45 400.65 758.4 400.4 759.35 414 741.85 414.4 732 429.15 722.1 437.25 691.35 457.25 671.2 421.65
L 662.6 425.25
Q 662.75 427.6 662.95 430
L 671.2 441.4 671.2 460.05 640.1 490.25 638.85 489.1 638.85 637.85
Q 639.5 637.85 640.1 637.9 685.75 635.4 731.5 574.25
L 731.5 486.45 758.45 466.35 758.45 400.9 Z"/>
</g>

<g id="Layer1_0_FILL">
<path fill="#3D6475" stroke="none" d="
M 611.85 423.25
Q 612.25 422.5 612.2 421.55 612.15 420.6 611.7 419.85 611.15 419.05 610.35 418.7
L 587.45 408.35
Q 587.35 408.3 587.3 408.25 549.5 393.7 535.75 412.45 535.1 413.3 535.05 414.3 535 415.35 535.6 416.25 545.75 431.45 556 439.85 556.2 439.95 556.35 440.05 573.2 451 587.2 446.5 601.05 442.4 611.85 423.25
M 604.25 423.1
Q 595.7 436.85 585.25 440.2 573.8 443.5 560.05 434.65 551.2 427.3 542.5 414.75 554.8 402.8 584.95 414.35
L 604.25 423.1 Z"/>

<path fill="#CD4B40" stroke="none" d="
M 585.25 440.2
Q 595.7 436.85 604.25 423.1
L 584.95 414.35
Q 554.8 402.8 542.5 414.75 551.2 427.3 560.05 434.65 573.8 443.5 585.25 440.2 Z"/>

<path fill="#2D4B58" stroke="none" d="
M 744.6 416.3
Q 745.15 415.35 745.1 414.3 745.05 413.3 744.5 412.4 730.65 393.7 692.9 408.25 692.8 408.3 692.7 408.35
L 669.85 418.7
Q 668.95 419.05 668.45 419.85 667.95 420.6 667.9 421.55 667.85 422.5 668.35 423.25 679.15 442.4 693 446.5 707.05 451 723.9 440.05 724.05 439.95 724.2 439.85 734.4 431.45 744.6 416.3
M 720.2 434.65
Q 706.35 443.5 694.95 440.2 684.45 436.85 675.9 423.1
L 695.25 414.35
Q 725.35 402.8 737.7 414.75 728.95 427.3 720.2 434.65 Z"/>

<path fill="#A63D33" stroke="none" d="
M 694.95 440.2
Q 706.35 443.5 720.2 434.65 728.95 427.3 737.7 414.75 725.35 402.8 695.25 414.35
L 675.9 423.1
Q 684.45 436.85 694.95 440.2 Z"/>

<path fill="#D7B140" stroke="none" d="
M 509.25 360.4
L 496.85 368.75 496.85 578.45 548.65 627.2 548.65 486.45 521.7 466.35 521.7 400.9
Q 525.45 356.95 618.05 386.4 615.25 341.05 594.35 333.4 606.25 311.1 613.35 290.85
L 509.25 360.4 Z"/>

<path fill="#272727" stroke="none" d="
M 613.35 290.85
Q 626.3 254.3 624.05 224.75 512.75 251.85 509.25 360.4
L 613.35 290.85 Z"/>

<path fill="#F0D174" stroke="none" d="
M 605.8 110.15
Q 587.9 105.65 571.55 111.2 609.3 121.85 619.35 168.3 608.4 163.2 597.5 164.1 621.45 189.55 624.05 224.75 626.3 254.3 613.35 290.85 606.25 311.1 594.35 333.4 615.25 341.05 618.05 386.4 619.15 405 617.2 430
L 608.95 441.4 608.95 460.05 638.85 489.1 638.85 94.5
Q 604.2 34.15 555.25 24 604.55 65.65 605.8 110.15 Z"/>

<path fill="#B79736" stroke="none" d="
M 685.75 333.4
Q 664.95 341.05 662.1 386.4 754.7 356.95 758.45 400.9
L 758.45 466.35 731.5 486.45 731.5 627.2 783.35 578.45 783.35 368.75 770.85 360.4 666.85 290.85
Q 673.95 311.1 685.75 333.4 Z"/>

<path fill="#202020" stroke="none" d="
M 656.05 225.3
Q 654.1 254.7 666.85 290.85
L 770.85 360.4
Q 767.4 251.85 656.05 225.3 Z"/>

<path fill="#F0C549" stroke="none" d="
M 682.65 164.1
Q 671.7 163.2 660.85 168.3 670.95 121.85 708.6 111.2 692.2 105.65 674.35 110.15 675.55 65.65 724.9 24 675.15 34.3 640.1 96.6 639.5 95.5 638.85 94.5
L 638.85 489.1 640.1 490.25 671.2 460.05 671.2 441.4 662.95 430
Q 661 405 662.1 386.4 664.95 341.05 685.75 333.4 673.95 311.1 666.85 290.85 654.1 254.7 656.05 225.3 658.5 189.75 682.65 164.1 Z"/>
</g>

<g id="Layer0_0_FILL">
<path fill="#4D4762" stroke="none" d="
M 506.1 117
L 491.6 129.55 492.2 133.2
Q 485.25 132.9 479.9 137.65 439.7 173.75 435.3 200.75 426.8 235.15 464.4 256.25 464.75 256.45 465.2 256.65 508.4 277.95 543.3 304.7 549.1 309.15 556.3 308.15 563.35 307.15 567.8 301.45 572.25 295.6 571.25 288.5 570.3 281.35 564.55 276.9 527.2 248.35 481.1 225.5 468.6 218.25 469.55 207.8 474.35 189.6 503.3 163.7 504.3 162.8 505.05 161.85
L 555.95 182.45 532.1 155.4 551.8 135.65 565.35 151.2 565.35 117 506.1 117
M 513.4 131.55
L 523 119.35 535.25 131.55 513.4 131.55 Z"/>

<path fill="#433E56" stroke="none" d="
M 716.1 117
L 716.1 151.2 729.65 135.65 749.35 155.4 725.5 182.45 776.35 161.85
Q 777.2 162.8 778.2 163.7 807.05 189.6 811.95 207.8 812.9 218.5 800.05 225.7 799.8 225.85 799.45 226.1
L 718.4 275.95
Q 712.2 279.75 710.5 286.75 708.8 293.75 712.65 300 716.4 306.1 723.45 307.85 730.5 309.5 736.75 305.75
L 817.15 256.25
Q 817.25 256.2 817.45 256.1 817.6 256 817.8 255.95 854.65 234.9 846.3 200.75 841.75 173.75 801.6 137.65 796.3 132.9 789.2 133.2
L 789.9 129.55 775.35 117 716.1 117
M 768.05 131.55
L 746.2 131.55 758.45 119.35 768.05 131.55 Z"/>
</g>

<path id="Layer13_0_1_STROKES" stroke="#000000" stroke-opacity="0.2" stroke-width="8" stroke-linejoin="round" stroke-linecap="round" fill="none" d="
M 249.25 839.4
Q 239.35 878.85 246.75 916.95
M 1027.7 836.8
Q 1037.6 876.2 1030.2 914.45"/>

<path id="Layer3_0_1_STROKES" stroke="#000000" stroke-opacity="0.2" stroke-width="8" stroke-linejoin="round" stroke-linecap="round" fill="none" d="
M 731.5 495.4
L 701.3 475.7"/>

<path id="Layer2_0_1_STROKES" stroke="#000000" stroke-opacity="0.2" stroke-width="8" stroke-linejoin="round" stroke-linecap="round" fill="none" d="
M 548.65 495.4
L 578.8 475.7
M 704.35 533.05
Q 640 520.65 575.7 533.05
M 681.4 558.55
L 598.7 558.8"/>
</defs>

<g transform="matrix( 1, 0, 0, 1, 0,0) ">
<use xlink:href="#Layer20_0_FILL"/>
</g>

<g transform="matrix( 1, 0, 0, 1, 0,0) ">
<use xlink:href="#Layer19_0_FILL"/>
</g>

<g transform="matrix( 1, 0, 0, 1, 0,0) ">
<use xlink:href="#Layer18_0_FILL"/>
</g>

<g transform="matrix( 3.3866729736328125, 0, 0, 3.3866729736328125, -1071,50) ">
<use xlink:href="#Bitmap_5"/>
</g>

<g transform="matrix( 2.852081298828125, 0.085174560546875, -0.085174560546875, 2.852081298828125, 1559.35,-114.6) ">
<use xlink:href="#Bitmap_6"/>
</g>

<g transform="matrix( 1, 0, 0, 1, 0,0) ">
<use xlink:href="#Layer16_0_FILL"/>
</g>

<g transform="matrix( 1, 0, 0, 1, 0,0) ">
<use xlink:href="#Layer15_0_FILL"/>
</g>

<g transform="matrix( 1, 0, 0, 1, 0,0) ">
<use xlink:href="#Layer14_0_FILL"/>
</g>

<g transform="matrix( 1, 0, 0, 1, 0,0) ">
<use xlink:href="#Layer13_0_FILL"/>

<use xlink:href="#Layer13_0_1_STROKES"/>
</g>

<g transform="matrix( 1, 0, 0, 1, 0,0) ">
<use xlink:href="#Layer4_0_FILL"/>
</g>

<g transform="matrix( 1, 0, 0, 1, 0,0) ">
<use xlink:href="#Layer3_0_1_STROKES"/>
</g>

<g transform="matrix( 1, 0, 0, 1, 0,0) ">
<use xlink:href="#Layer2_0_1_STROKES"/>
</g>

<g transform="matrix( 1, 0, 0, 1, 0,0) ">
<use xlink:href="#Layer1_0_FILL"/>
</g>

<g transform="matrix( 1, 0, 0, 1, 0,0) ">
<use xlink:href="#Layer0_0_FILL"/>
</g>
</svg>
