
<svg xmlns="http://www.w3.org/2000/svg" version="1.1" xmlns:xlink="http://www.w3.org/1999/xlink" preserveAspectRatio="none" x="0px" y="0px" width="1280px" height="1024px" viewBox="0 0 1280 1024">
<defs>
<g id="Layer6_0_FILL">
<path fill="#C69F1A" stroke="none" d="
M 640 976.75
Q 640.6 976.65 641.2 976.65 737.35 973.85 816.6 933.85
L 811.9 880.85
Q 806.7 817.1 728.3 797.25 726.8 844.55 689.4 865.55
L 640 810.75 640 976.75 Z"/>

<path fill="#DDB11D" stroke="none" d="
M 640 810.75
L 590.55 865.55
Q 553.15 844.55 551.7 797.25 473.25 817.1 468.05 880.85
L 463.35 933.85
Q 542.6 973.85 638.75 976.65 639.35 976.65 640 976.75
L 640 810.75 Z"/>

<path fill="#F1C2AB" stroke="none" d="
M 640 781.2
L 597.05 738.2 597.05 768.7
Q 613.15 789.4 640 806.6
L 640 781.2
M 563.45 592.3
Q 529.8 592.3 506 562.85 491.6 545.05 485.95 522.8
L 456 522.8
Q 458.95 543.75 463.35 564 457 599.7 471.8 634.7 482.15 659.15 502.95 683.3 536.6 722.45 587 735.85 591.95 737.15 597.05 738.2 616.75 742.25 638.85 742.6
L 640 742.6 640 699.75
Q 631.3 699.75 622.6 698.05 559.3 688.15 509.3 650 559.3 688.15 622.6 698.05 631.3 699.75 640 699.75
L 640 612.3
Q 630.45 612.3 623.75 603.65 617.05 595.05 617.05 582.85 617.05 575.85 619.3 570 620.85 565.7 623.75 562 627 557.85 630.95 555.7 635.1 553.4 640 553.4
L 640 526.4
Q 635.4 542.25 626.25 555.7 623.75 559.35 620.95 562.85 617.8 566.65 614.55 570 592.75 592.3 563.45 592.3
M 620.95 420.7
Q 634.1 437.05 640 457.15
L 640 366.85
Q 493.7 376.1 450.4 409.75 448.65 460.4 454.05 507.5
L 483.15 507.5
Q 482.2 499.85 482.2 491.75 482.2 450.15 506 420.7 529.8 391.25 563.45 391.25 597.15 391.25 620.95 420.7
M 663 582.85
Q 663 570.65 656.25 562 649.55 553.4 640 553.4
L 640 612.3
Q 649.55 612.3 656.25 603.65 663 595.05 663 582.85 Z"/>

<path fill="#FFFFFF" stroke="none" d="
M 597.05 768.7
Q 591.35 761.4 587 753.7
L 551.7 797.25
Q 553.15 844.55 590.55 865.55
L 640 810.75 640 806.6
Q 613.15 789.4 597.05 768.7
M 797.8 491.75
Q 797.8 450.15 774.05 420.7 750.25 391.25 716.55 391.25 682.9 391.25 659.1 420.7 645.9 437.05 640 457.15 634.1 437.05 620.95 420.7 597.15 391.25 563.45 391.25 529.8 391.25 506 420.7 482.2 450.15 482.2 491.75 482.2 499.85 483.15 507.5 484.05 515.4 485.95 522.8 491.6 545.05 506 562.85 529.8 592.3 563.45 592.3 592.75 592.3 614.55 570 617.8 566.65 620.95 562.85 623.75 559.35 626.25 555.7 635.4 542.25 640 526.4 644.6 542.25 653.8 555.7 656.25 559.35 659.1 562.85 662.2 566.65 665.45 570 687.3 592.3 716.55 592.3 750.25 592.3 774.05 562.85 788.4 545.05 794.05 522.8 796 515.4 796.9 507.5 797.8 499.85 797.8 491.75
M 591.3 485.95
Q 596.85 478.05 604.7 478.05 612.5 478.05 618 485.95 623.5 493.9 623.5 505.15 623.5 516.4 618 524.25 612.5 532.2 604.7 532.2 596.85 532.2 591.3 524.25 585.85 516.4 585.85 505.15 585.85 493.9 591.3 485.95
M 610.55 505.15
Q 610.55 500.7 608.8 497.6 607.1 494.55 604.7 494.55 602.25 494.55 600.5 497.6 598.8 500.7 598.8 505.15 598.8 509.55 600.5 512.6 602.25 515.75 604.7 515.75 607.1 515.75 608.8 512.6 610.55 509.55 610.55 505.15 Z"/>

<path fill="#333333" stroke="none" d="
M 436.25 522.8
L 463.35 564
Q 458.95 543.75 456 522.8
L 436.25 522.8
M 640 366.85
L 640 260.25
Q 509.1 261.55 443.35 369.7 414.9 432.6 431.15 507.5
L 431.8 507.5 454.05 507.5
Q 448.65 460.4 450.4 409.75 493.7 376.1 640 366.85
M 604.7 478.05
Q 596.85 478.05 591.3 485.95 585.85 493.9 585.85 505.15 585.85 516.4 591.3 524.25 596.85 532.2 604.7 532.2 612.5 532.2 618 524.25 623.5 516.4 623.5 505.15 623.5 493.9 618 485.95 612.5 478.05 604.7 478.05
M 608.8 497.6
Q 610.55 500.7 610.55 505.15 610.55 509.55 608.8 512.6 607.1 515.75 604.7 515.75 602.25 515.75 600.5 512.6 598.8 509.55 598.8 505.15 598.8 500.7 600.5 497.6 602.25 494.55 604.7 494.55 607.1 494.55 608.8 497.6
M 843.75 522.8
L 824 522.8
Q 821.1 543.75 816.65 564
L 843.75 522.8 Z"/>

<path fill="#F1CBB8" stroke="none" d="
M 431.95 522.8
Q 428.9 522.75 426.75 520.55 426.6 520.45 426.5 520.25 400.65 526.15 399.75 564 400.05 610.85 448.05 637.05 462.25 644.1 471.8 634.7 457 599.7 463.35 564
L 436.25 522.8 431.95 522.8
M 419.8 538.1
Q 431.75 549.05 438.85 561.7 451.15 583.4 449.15 609.95 448.8 614.6 448.05 619.35 448.8 614.6 449.15 609.95 422.9 587.1 438.85 561.7 431.75 549.05 419.8 538.1
M 438.85 561.7
Q 422.9 587.1 449.15 609.95 451.15 583.4 438.85 561.7 Z"/>

<path fill="#292929" stroke="none" d="
M 456 522.8
L 485.95 522.8
Q 484.05 515.4 483.15 507.5
L 454.05 507.5 431.8 507.5
Q 431.45625 507.50625 431.15 507.55 428.6 507.85 426.75 509.75 424.5 511.95 424.5 515.15 424.5 518.15 426.5 520.25 426.6 520.45 426.75 520.55 428.9 522.75 431.95 522.8
L 436.25 522.8 456 522.8 Z"/>

<path fill="#F1D6CA" stroke="none" d="
M 619.3 570
Q 617.05 575.85 617.05 582.85 617.05 595.05 623.75 603.65 630.45 612.3 640 612.3
L 640 553.4
Q 635.1 553.4 630.95 555.7 627 557.85 623.75 562 620.85 565.7 619.3 570 Z"/>

<path fill="#CCCCCC" stroke="none" d="
M 692.95 753.7
Q 688.65 761.4 683 768.65 666.85 789.4 640 806.6
L 640 810.75 689.4 865.55
Q 726.8 844.55 728.3 797.25
L 692.95 753.7 Z"/>

<path fill="#E7A996" stroke="none" d="
M 825.95 507.5
Q 831.4 460.4 829.6 409.75 786.35 376.1 640 366.85
L 640 457.15
Q 645.9 437.05 659.1 420.7 682.9 391.25 716.55 391.25 750.25 391.25 774.05 420.7 797.8 450.15 797.8 491.75 797.8 499.85 796.9 507.5
L 825.95 507.5
M 816.65 564
Q 821.1 543.75 824 522.8
L 794.05 522.8
Q 788.4 545.05 774.05 562.85 750.25 592.3 716.55 592.3 687.3 592.3 665.45 570 662.2 566.65 659.1 562.85 656.25 559.35 653.8 555.7 644.6 542.25 640 526.4
L 640 553.4
Q 649.55 553.4 656.25 562 663 570.65 663 582.85 663 595.05 656.25 603.65 649.55 612.3 640 612.3
L 640 699.75
Q 648.8 699.75 657.5 698.05 720.75 688.15 770.75 650 720.75 688.15 657.5 698.05 648.8 699.75 640 699.75
L 640 742.6 638.85 742.6
Q 616.75 742.25 597.05 738.2
L 640 781.2 640 806.6
Q 666.85 789.4 683 768.65
L 683 738.2
Q 740.1 726.3 777.1 683.3 797.9 659.15 808.25 634.7 823 599.7 816.65 564 Z"/>

<path fill="#232323" stroke="none" d="
M 848.35 507.5
L 848.85 507.5
Q 865.1 432.6 836.7 369.7 770.9 261.55 640 260.25
L 640 366.85
Q 786.35 376.1 829.6 409.75 831.4 460.4 825.95 507.5
L 848.35 507.5 Z"/>

<path fill="#D69C8B" stroke="none" d="
M 853.5 520.25
Q 853.4 520.45 853.3 520.55 851.1 522.75 848.05 522.8
L 843.75 522.8 816.65 564
Q 823 599.7 808.25 634.7 817.8 644.1 831.95 637.05 879.95 610.85 880.25 564 879.35 526.15 853.5 520.25
M 860.25 538.1
Q 848.3 549.05 841.15 561.7 857.1 587.1 830.85 609.95 831.2 614.6 831.95 619.35 831.2 614.6 830.85 609.95 828.85 583.4 841.15 561.7 848.3 549.05 860.25 538.1
M 830.85 609.95
Q 857.1 587.1 841.15 561.7 828.85 583.4 830.85 609.95 Z"/>

<path fill="#1E1E1E" stroke="none" d="
M 853.5 520.25
Q 855.55 518.15 855.55 515.15 855.55 511.95 853.3 509.75 851.4 507.85 848.85 507.55 848.62890625 507.505859375 848.35 507.5
L 825.95 507.5 796.9 507.5
Q 796 515.4 794.05 522.8
L 824 522.8 843.75 522.8 848.05 522.8
Q 851.1 522.75 853.3 520.55 853.4 520.45 853.5 520.25 Z"/>
</g>

<path id="Layer6_0_1_STROKES" stroke="#000000" stroke-opacity="0.2" stroke-width="8" stroke-linejoin="round" stroke-linecap="round" fill="none" d="
M 860.25 538.1
Q 848.3 549.05 841.15 561.7 857.1 587.1 830.85 609.95 831.2 614.6 831.95 619.35
M 640 699.75
Q 648.8 699.75 657.5 698.05 720.75 688.15 770.75 650
M 841.15 561.7
Q 828.85 583.4 830.85 609.95
M 419.8 538.1
Q 431.75 549.05 438.85 561.7 451.15 583.4 449.15 609.95 448.8 614.6 448.05 619.35
M 640 699.75
Q 631.3 699.75 622.6 698.05 559.3 688.15 509.3 650
M 438.85 561.7
Q 422.9 587.1 449.15 609.95"/>

<path id="Layer5_0_1_STROKES" stroke="#333333" stroke-width="11" stroke-linejoin="round" stroke-linecap="round" fill="none" d="
M 667.85 511.2
Q 668.7 502.6 673.85 496.25 680.1 488.65 688.9 488.65 697.65 488.65 703.85 496.25 709.1 502.6 709.95 511.2"/>

<path id="Layer5_0_2_STROKES" stroke="#333333" stroke-width="10" stroke-linejoin="round" stroke-linecap="round" fill="none" d="
M 616.7 379.1
Q 521.7 301.05 469.05 434.45"/>

<path id="Layer5_0_3_STROKES" stroke="#232323" stroke-width="10" stroke-linejoin="round" stroke-linecap="round" fill="none" d="
M 664.35 379.1
Q 759.3 301.05 811.95 434.45"/>
</defs>

<g transform="matrix( 1, 0, 0, 1, 0,0) ">
<use xlink:href="#Layer6_0_FILL"/>

<use xlink:href="#Layer6_0_1_STROKES"/>
</g>

<g transform="matrix( 1, 0, 0, 1, 0,0) ">
<use xlink:href="#Layer5_0_1_STROKES"/>

<use xlink:href="#Layer5_0_2_STROKES"/>

<use xlink:href="#Layer5_0_3_STROKES"/>
</g>
</svg>
