
<svg xmlns="http://www.w3.org/2000/svg" version="1.1" xmlns:xlink="http://www.w3.org/1999/xlink" preserveAspectRatio="none" x="0px" y="0px" width="1280px" height="1024px" viewBox="0 0 1280 1024">
<defs>
<g id="Layer21_0_FILL">
<path fill="#642D14" stroke="none" d="
M 356.6 606.95
L 369.25 628.9 472.6 807.85 528.95 775.35 425.65 596.4 413 574.4
Q 376.5 575.4 356.6 606.95 Z"/>

<path fill="#B55224" stroke="none" d="
M 396.35 545.7
L 340.05 578.2 310.05 595.5 353.35 638.1 369.25 628.9 356.6 606.95
Q 376.5 575.4 413 574.4
L 425.65 596.4 441.6 587.15 426.4 528.35 396.35 545.7
M 242.7 356.9
Q 232.05 364.6 224.05 377.3
L 239.55 404.15
Q 259.45 372.65 295.9 371.65
L 287.4 356.9 280.45 344.75
Q 258.6 345.4 242.7 356.9 Z"/>

<path fill="#233445" stroke="none" d="
M 265.55 449.2
L 268.65 454.6 301.85 512.1 340.05 578.2 396.35 545.7 351.85 468.55 321.95 416.7 295.9 371.65
Q 259.45 372.65 239.55 404.15
L 265.55 449.2
M 294.3 487.2
Q 293.6 487.9 292.8 488.75 293.6 487.9 294.3 487.2 314.7 466.45 342.55 460 314.7 466.45 294.3 487.2
M 313.45 409.6
Q 284.6 416.25 263.75 438.25 284.6 416.25 313.45 409.6
M 323.4 537.65
Q 322.65 538.35 321.95 539.1 322.65 538.35 323.4 537.65 343.8 516.8 371.65 510.35 343.8 516.8 323.4 537.65 Z"/>
</g>

<g id="Layer16_0_FILL">
<path fill="#2295C7" stroke="none" d="
M 470.7 609.5
Q 469.850390625 609.6697265625 469 609.8 452.7990234375 612.774609375 436.25 617.35 452.284375 647.4890625 478 668.35 527.45 708.5 612.95 714.05 625.5798828125 714.86953125 639 714.95
L 639 702.05
Q 627.3794921875 701.9958984375 616.45 701.35 541.85 697.15 498.7 666.55 476.3 650.7 462.35 627.7 461.8 626.8 461.2 625.85 461.8 626.8 462.35 627.7 476.3 650.7 498.7 666.55 541.85 697.15 616.45 701.35 627.3794921875 701.9958984375 639 702.05
L 639 680.2 583.65 624.85 522.15 604.45
Q 500.3232421875 604.8173828125 477.85 608.3 474.290234375 608.88671875 470.7 609.5 Z"/>

<path fill="#233445" stroke="none" d="
M 279.4 692.15
Q 206.15 696.7 167.3 735.85 132.5 770.85 117.4 859.6 155.167578125 876.6990234375 192.95 891.4 271.8763671875 921.6521484375 351.25 941.8 357.07109375 943.3078125 362.9 944.7 370.66953125 946.641796875 378.45 948.45 386.1197265625 950.23515625 393.8 951.9 404.598046875 954.2982421875 415.4 956.45 417.1775390625 956.84609375 418.95 957.2 430.76953125 959.56015625 442.6 961.7 455.7873046875 964.085546875 469 966.15 469.85 966.3119140625 470.7 966.45 471.5875 966.5869140625 472.45 966.7
L 473 966.35 473.85 966.95
Q 505.130859375 971.823046875 536.45 975.1 537.5265625 975.2359375 538.55 975.35 585.99765625 980.266015625 633.55 981.6 636.287109375 981.6853515625 639 981.75
L 639 714.95
Q 625.5798828125 714.86953125 612.95 714.05 527.45 708.5 478 668.35 452.284375 647.4890625 436.25 617.35 429.191015625 619.296875 422.05 621.55 381.7732421875 634.2689453125 339.6 656.4 309.968359375 671.9515625 279.4 692.15 Z"/>

<path fill="#151E27" stroke="none" d="
M 755.25 597.75
L 743.45 498.9 572.55 613.75 583.65 624.85 636.5 642.4 755.25 597.75 Z"/>

<path fill="#192632" stroke="none" d="
M 858.4 622.25
Q 850.914453125 619.86640625 843.5 617.75 827.4755859375 647.7900390625 801.8 668.55 744.7 714.65 640 714.95 639.4994140625 714.9482421875 639 714.95
L 639 981.75 639 982.25 639.75 982.3
Q 639.9 982.3 640 982.3 640.7 982.3 641.35 982.3
L 641.35 981.95 644.75 981.6
Q 683.5068359375 980.501953125 722.15 977 732.154296875 976.129296875 742.15 975.05 774.90390625 971.6173828125 807.55 966.45 811.1380859375 965.8861328125 814.7 965.3 825.1541015625 963.58828125 835.6 961.7 847.43359375 959.56171875 859.25 957.2 879.53359375 953.15078125 899.8 948.45 909.0294921875 946.3076171875 918.25 944 923.64140625 942.700390625 929 941.3 1003.387109375 922.2904296875 1077.35 894.4 1081.3181640625 892.9556640625 1085.25 891.45 1094.7 887.7625 1104.15 884
L 1160.8 859.6
Q 1145.7 770.85 1110.95 735.85 1072.1 696.7 998.8 692.15 969.295703125 672.6546875 940.65 657.5 898.59375 635.209375 858.4 622.25
M 741.9 486.1
L 743.2 486.1 742.3 479.25 638.2 480.15 535.9 479.25 535.05 486.1 536.25 486.1 522.15 604.45 583.65 624.85 572.55 613.75 743.45 498.9 741.9 486.1 Z"/>

<path fill="#1B7DA7" stroke="none" d="
M 756.05 604.45
L 755.25 597.75 636.5 642.4 583.65 624.85 639 680.2 639 702.05
Q 639.075 702.049609375 639.15 702.05 639.6 702.05 640 702.05 731.35 701.85 781.15 666.7 803.55 650.9 817.5 628.05 818.15 626.95 818.85 625.85 818.15 626.95 817.5 628.05 803.55 650.9 781.15 666.7 731.35 701.85 640 702.05 639.6 702.05 639.15 702.05 639.075 702.049609375 639 702.05
L 639 714.95
Q 639.4994140625 714.9482421875 640 714.95 744.7 714.65 801.8 668.55 827.4755859375 647.7900390625 843.5 617.75 828.9716796875 613.705859375 814.7 610.85 808.162890625 609.575 801.65 608.5 778.528515625 604.8283203125 756.05 604.45 Z"/>

<path fill="#CF4835" stroke="none" d="
M 473 966.35
L 472.45 966.7
Q 472.95859375 966.8083984375 473.45 966.85 473.6478515625 966.9185546875 473.85 966.95
L 473 966.35 Z"/>
</g>

<g id="Layer15_0_FILL">
<path fill="#E79D43" stroke="none" d="
M 607 648.1
L 575.8 616.7
Q 551.903125 608.653515625 528 594.55 523.8931640625 592.13515625 519.3 593.3 514.69296875 594.505078125 512.25 598.6 509.8271484375 602.7041015625 511 607.3 512.2076171875 611.898828125 516.3 614.35 561.65078125 641.1056640625 607 648.1 Z"/>

<path fill="#BF8237" stroke="none" d="
M 761.9 614.35
Q 765.9923828125 611.898828125 767.15 607.3 768.3728515625 602.7041015625 765.95 598.6 763.50703125 594.505078125 758.9 593.3 754.306640625 592.13515625 750.2 594.55 663.003515625 645.9984375 575.8 616.7
L 607 648.1
Q 684.45078125 660.0423828125 761.9 614.35 Z"/>

<path fill="#000000" fill-opacity="0.2" stroke="none" d="
M 599.6 714.9
L 589.75 714.9
Q 602.3771484375 744.6689453125 622.65 769.35 623.85 770.8 625.7 771 627.55 771.2 629 770 630.35 768.8 630.65 766.95 630.8 765.05 629.6 763.65 611.4021484375 741.402734375 599.6 714.9
M 653.2 771
Q 655 770.8 656.25 769.35 676.44375 744.6689453125 689.05 714.9
L 679.2 714.9
Q 667.4224609375 741.402734375 649.2 763.65 648.05 765.05 648.2 766.95 648.45 768.8 649.9 770 651.25 771.2 653.2 771
M 393.95 707.75
Q 389.778125 707.2982421875 385.65 706.9 383.8 706.7 382.35 707.95 380.95 709.2 380.7 711 380.55 712.8 381.8 714.3 383 715.7 384.8 715.9 456.3 722.85 541.3 755.8 543 756.4 544.7 755.7 546.4 754.9 547.1 753.2 547.8 751.4 547 749.75 546.25 748.1 544.6 747.45 488.0453125 725.4892578125 437.4 714.9 415.110546875 710.2328125 393.95 707.75
M 735.3 751.15
Q 733.45 751.75 732.85 753.45 732.1 755.2 732.75 756.95 733.4 758.65 735.1 759.4 736.8 760.15 738.55 759.5 823.5 726.55 895.05 719.65 896.85 719.45 898 718 899.25 716.55 899.1 714.75 898.85 712.85 897.4 711.7 896 710.5 894.2 710.65 821.6 717.6 735.3 751.15 Z"/>
</g>

<g id="Layer14_0_FILL">
<path fill="#233445" stroke="none" d="
M 527.8 432.8
Q 528.45 432.25 529.25 431.85
L 527.2 404.95
Q 508.1 390.8 506.6 425.1 505.2 459.5 524.2 481.35 531.55 489.85 532.85 479.65
L 530.85 454.15
Q 527.95 452.75 526.15 449.05 524.15 445 524.55 440.1 525.1 435.4 527.8 432.8 Z"/>

<path fill="#B55223" stroke="none" d="
M 750.35 432.75
Q 753.05 435.35 753.6 440.05 754 444.95 752 449 750.2 452.7 747.3 454.1
L 745.3 479.6
Q 746.6 489.8 753.95 481.3 772.95 459.45 771.55 425.05 770.05 390.75 750.95 404.9
L 748.9 431.8
Q 749.7 432.2 750.35 432.75 Z"/>
</g>

<g id="Layer12_0_FILL">
<path fill="#233445" stroke="none" d="
M 639 253.15
Q 638.4 253.1 637.9 253.1 505.05 248.95 520.6 438.15
L 531.85 545.85
Q 534.85 570.85 541.55 579.6 548.8 589.45 557.2 598.45
L 557.2 598.5
Q 559.7 601.2 562.35 603.9 563.268359375 604.82890625 564.2 605.75 564.598828125 606.1357421875 565 606.5 568.1017578125 609.566015625 571.35 612.5 573.7 614.7 576.3 616.85 585.5 625.25 598.65 630 602.5 631.45 606.7 632.55 614.35 634.15 621.85 635.1 622.5 635.2 623 635.25
L 639.2 635.25 639.2 510.55 639.9 510.8 640.25 510.65 640.25 253.1
Q 639.6275390625 253.1265625 639 253.15 Z"/>

<path fill="#B55223" stroke="none" d="
M 736.4 579.6
Q 743.1 570.85 746 545.85
L 757.3 438.15
Q 772.8767578125 249.0400390625 640.25 253.1
L 640.25 510.65 639.9 510.8 639.2 510.55 639.2 635.25 654.9 635.25
Q 655.45 635.2 656 635.1 663.6 634.15 671.2 632.55 675.4 631.45 679.25 630 692.45 625.25 701.65 616.85 704.25 614.7 706.6 612.5 711.2 608.3 715.6 603.9 715.725 603.7701171875 715.85 603.65 716.25078125 603.2220703125 716.65 602.8 718.716015625 600.6537109375 720.75 598.5
L 720.75 598.45
Q 729.15 589.45 736.4 579.6 Z"/>
</g>

<g id="Layer11_0_FILL">
<path fill="#CCCCCC" stroke="none" d="
M 695.6 435.8
Q 694.65 436.05 693.75 436.3 692.9 436.5 681.4 439.65 680.25 439.9 678.9 440.4 678.05 440.65 677.05 440.9 673.3 442.2 669.55 443.5 668.35 443.85 667.2 444.35 666.2 444.9 665.3 445.45 662.95 446.3 660.65 447.15 660.9 447.35 661.05 447.5 661.15 447.55 661.25 447.6 661.3 447.65 661.3 447.7 661.4 447.75 661.45 447.9 661.75 448.2 662.35 448.9 663.1 449.9 666.75 452.9 667.1 453.05 667.4 453.25
L 667.45 453.3
Q 701.75 468.1 719.4 445.3
L 725.4 431.75 700.65 434.65
Q 698.15 435.2 695.6 435.8 Z"/>
</g>

<g id="Layer1_0_FILL">
<path fill="#233445" stroke="none" d="
M 692.15 953.9
L 725.65 971.25 692.15 953.9 678.65 979.95
Q 701.2142578125 979.0427734375 722.15 977.4 728.833203125 976.87265625 735.35 976.25 738.773046875 975.9638671875 742.15 975.6 757.361328125 974.142578125 771.65 972.25
L 777.45 961.05 707.3 924.7 692.15 953.9
M 722.4 895.5
L 707.3 924.7 777.45 961.05 792.55 931.85 722.4 895.5
M 792.55 931.85
L 807.7 902.65 737.55 866.3 722.4 895.5 792.55 931.85
M 752.7 837.1
L 737.55 866.3 807.7 902.65 822.85 873.45 752.7 837.1
M 837.95 844.2
L 853.1 815 782.95 778.65 767.8 807.85 837.95 844.2
M 822.85 873.45
L 837.95 844.2 767.8 807.85 752.7 837.1 822.85 873.45
M 813.25 720.25
L 883.4 756.6 898.5 727.4 828.35 691.05 813.25 720.25
M 868.25 785.8
L 883.4 756.6 813.25 720.25 798.1 749.45 868.25 785.8
M 858.65 632.6
L 843.5 661.8 913.65 698.15 928.8 668.95 858.65 632.6
M 843.5 661.8
L 828.35 691.05 898.5 727.4 913.65 698.15 843.5 661.8
M 928.8 668.95
L 943.95 639.65 873.8 603.3 858.65 632.6 928.8 668.95
M 798.1 749.45
L 782.95 778.65 853.1 815 868.25 785.8 798.1 749.45 Z"/>

<path fill="#B55223" stroke="none" d="
M 951.6 686.2
Q 949.55 679.85 943.65 676.65 949.55 679.65 956.05 677.65 962.55 675.6 965.7 669.5 968.85 663.4 966.8 656.9 964.7 650.4 958.6 647.25
L 943.95 639.65 928.8 668.95 939.05 674.25 928.8 668.95 913.65 698.15 923.9 703.45 913.65 698.15 898.5 727.4 908.75 732.7 898.5 727.4 883.4 756.6 893.65 761.9 883.4 756.6 868.25 785.8 878.5 791.1 868.25 785.8 853.1 815 863.35 820.3 853.1 815 837.95 844.2 848.2 849.5 837.95 844.2 822.85 873.45 833.1 878.75 822.85 873.45 807.7 902.65 817.95 907.95 807.7 902.65 792.55 931.85 802.8 937.15 792.55 931.85 777.45 961.05 787.7 966.35 777.45 961.05 771.65 972.25
Q 782.2650390625 970.834765625 792.35 969.2 792.242578125 969.12734375 792.1 969.05 792.2564453125 969.1302734375 792.4 969.2 802.12109375 967.638671875 811.35 965.85 812.98203125 964.1619140625 814.15 961.9 817.3 955.85 815.25 949.35 813.216015625 943 807.4 939.8 813.300390625 942.83359375 819.7 940.75 826.2 938.7 829.35 932.6 832.5 926.55 830.45 920.05 828.4 913.65 822.5 910.45 828.4 913.5 834.9 911.45 841.35 909.4 844.5 903.3 847.65 897.25 845.65 890.75 843.55 884.35 837.65 881.15 843.65 884.25 850.05 882.15 856.55 880.1 859.7 874 862.85 867.95 860.8 861.45 858.75 855.05 852.85 851.85 858.75 854.9 865.25 852.85 871.75 850.8 874.9 844.7 878.05 838.65 876 832.15 873.966015625 825.8 868.15 822.6 874.050390625 825.63359375 880.45 823.55 886.9 821.5 890.05 815.4 893.2 809.35 891.2 802.85 889.1 796.45 883.2 793.3 889.15 796.3 895.6 794.25 902.1 792.2 905.25 786.15 908.4 780.05 906.35 773.55 904.8 768.7 901.1 765.75 905.65 767.05 910.5 765.55 917 763.5 920.15 757.4 923.3 751.3 921.25 744.8 919.2 738.45 913.3 735.25 919.2 738.25 925.7 736.25 932.15 734.2 935.3 728.1 938.45 722 936.45 715.5 934.35 709.15 928.45 705.95 934.45 709 940.85 706.95 947.35 704.9 950.5 698.8 953.65 692.7 951.6 686.2
M 800.15 682.1
Q 793.65 684.1 790.5 690.2 787.35 696.3 789.4 702.85 790.95 707.6 794.7 710.65 790.1 709.25 785.25 710.85 778.75 712.85 775.6 718.95 772.45 725 774.5 731.55 776.6 738 782.5 741.1 776.5 738.1 770.1 740.15 763.55 742.15 760.4 748.2 757.25 754.3 759.35 760.85 761.383984375 767.249609375 767.25 770.3 761.299609375 767.416015625 754.9 769.45 748.4 771.45 745.25 777.5 742.1 783.6 744.15 790.15 746.183984375 796.549609375 752.05 799.6 746.099609375 796.716015625 739.7 798.75 733.2 800.75 730.05 806.8 726.9 812.9 728.95 819.45 731.05 825.9 736.95 828.95 730.95 826 724.55 828.05 718 830.05 714.85 836.1 711.7 842.2 713.8 848.75 715.833984375 855.149609375 721.7 858.2 715.749609375 855.316015625 709.35 857.35 702.85 859.35 699.7 865.4 696.55 871.5 698.6 878.05 700.633984375 884.449609375 706.5 887.5 700.549609375 884.616015625 694.15 886.65 687.65 888.65 684.5 894.7 681.35 900.8 683.4 907.35 685.5 913.8 691.4 916.85 685.4 913.9 679 915.95 672.5 917.95 669.35 924 666.15 930.1 668.25 936.65 669.8 941.4 673.5 944.45 668.95 943.05 664.1 944.65 657.6 946.65 654.45 952.75 651.3 958.85 653.35 965.4 655.4 971.8 661.35 974.9 655.35 971.95 648.9 973.95 642.7103515625 975.8544921875 639.55 981.45 656.7943359375 980.7603515625 671.35 980.25 675.0318359375 980.1189453125 678.65 979.95
L 692.15 953.9 681.05 948.15 692.15 953.9 707.3 924.7 696.2 918.95 707.3 924.7 722.4 895.5 711.3 889.75 722.4 895.5 737.55 866.3 726.45 860.55 737.55 866.3 752.7 837.1 741.6 831.35 752.7 837.1 767.8 807.85 756.7 802.1 767.8 807.85 782.95 778.65 771.85 772.9 782.95 778.65 798.1 749.45 787 743.7 798.1 749.45 813.25 720.25 802.15 714.5 813.25 720.25 828.35 691.05 817.25 685.3 828.35 691.05 843.5 661.8 832.4 656.05 843.5 661.8 858.65 632.6 847.55 626.85 858.65 632.6 873.8 603.3 858.25 595.25
Q 852.2 592.1 845.7 594.2 839.2 596.2 836.05 602.3 832.9 608.4 834.95 614.95 837 621.35 842.95 624.45 836.95 621.5 830.5 623.5 824 625.5 820.85 631.6 817.7 637.7 819.75 644.25 821.85 650.65 827.75 653.75 821.75 650.8 815.35 652.8 808.8 654.8 805.65 660.9 802.5 667 804.6 673.55 806.65 679.95 812.6 683.05 806.6 680.1 800.15 682.1 Z"/>
</g>

<path id="Layer21_0_1_STROKES" stroke="#000000" stroke-opacity="0.2" stroke-width="8" stroke-linejoin="round" stroke-linecap="round" fill="none" d="
M 342.55 460
Q 314.7 466.45 294.3 487.2 293.6 487.9 292.8 488.75
M 313.45 409.6
Q 284.6 416.25 263.75 438.25
M 371.65 510.35
Q 343.8 516.8 323.4 537.65 322.65 538.35 321.95 539.1"/>

<path id="Layer16_0_1_STROKES" stroke="#000000" stroke-opacity="0.2" stroke-width="8" stroke-linejoin="round" stroke-linecap="round" fill="none" d="
M 639 702.05
Q 639.075 702.049609375 639.15 702.05 639.6 702.05 640 702.05 731.35 701.85 781.15 666.7 803.55 650.9 817.5 628.05 818.15 626.95 818.85 625.85
M 461.2 625.85
Q 461.8 626.8 462.35 627.7 476.3 650.7 498.7 666.55 541.85 697.15 616.45 701.35 627.3794921875 701.9958984375 639 702.05"/>

<path id="Layer15_0_1_STROKES" stroke="#000000" stroke-opacity="0.2" stroke-width="8" stroke-linejoin="round" stroke-linecap="round" fill="none" d="
M 636.8 830.05
L 636.8 960.6
M 265.1 837.15
Q 255.6 875 262.7 911.55
M 1011.9 834.65
Q 1021.4 872.45 1014.3 909.15"/>

<path id="Layer13_0_1_STROKES" stroke="#2B3F54" stroke-width="16" stroke-linejoin="round" stroke-linecap="round" fill="none" d="
M 528.95 518
Q 466.88984375 576.2828125 481 670.75 481.462890625 757.4943359375 442 808"/>

<path id="Layer13_0_2_STROKES" stroke="#B55223" stroke-width="16" stroke-linejoin="round" stroke-linecap="round" fill="none" d="
M 530.85 518
Q 486 590.35 524.05 677.95 546.95 761.65 521.9 820.6"/>

<path id="Layer10_0_1_STROKES" stroke="#000000" stroke-opacity="0.2" stroke-width="8" stroke-linejoin="round" stroke-linecap="round" fill="none" d="
M 631.5 506.95
L 648.5 506.95"/>

<path id="Layer1_0_1_STROKES" stroke="#000000" stroke-opacity="0.2" stroke-width="8" stroke-linejoin="round" stroke-linecap="round" fill="none" d="
M 681.05 948.15
L 692.15 953.9
M 782.95 778.65
L 853.1 815
M 868.25 785.8
L 798.1 749.45 787 743.7
M 771.85 772.9
L 782.95 778.65
M 767.8 807.85
L 837.95 844.2
M 853.1 815
L 863.35 820.3
M 939.05 674.25
L 928.8 668.95 858.65 632.6
M 913.65 698.15
L 923.9 703.45
M 828.35 691.05
L 898.5 727.4
M 913.65 698.15
L 843.5 661.8 832.4 656.05
M 817.25 685.3
L 828.35 691.05
M 813.25 720.25
L 883.4 756.6
M 898.5 727.4
L 908.75 732.7
M 847.55 626.85
L 858.65 632.6
M 868.25 785.8
L 878.5 791.1
M 883.4 756.6
L 893.65 761.9
M 802.15 714.5
L 813.25 720.25
M 833.1 878.75
L 822.85 873.45 752.7 837.1
M 737.55 866.3
L 807.7 902.65
M 837.95 844.2
L 848.2 849.5
M 741.6 831.35
L 752.7 837.1
M 756.7 802.1
L 767.8 807.85
M 707.3 924.7
L 777.45 961.05
M 792.55 931.85
L 722.4 895.5 711.3 889.75
M 696.2 918.95
L 707.3 924.7
M 692.15 953.9
L 725.65 971.25
M 777.45 961.05
L 787.7 966.35
M 792.55 931.85
L 802.8 937.15
M 726.45 860.55
L 737.55 866.3
M 807.7 902.65
L 817.95 907.95"/>
</defs>

<g transform="matrix( 1, 0, 0, 1, 0,0) ">
<use xlink:href="#Layer21_0_FILL"/>

<use xlink:href="#Layer21_0_1_STROKES"/>
</g>

<g transform="matrix( 1, 0, 0, 1, 0,0) ">
<use xlink:href="#Layer16_0_FILL"/>

<use xlink:href="#Layer16_0_1_STROKES"/>
</g>

<g transform="matrix( 1, 0, 0, 1, 0,0) ">
<use xlink:href="#Layer15_0_FILL"/>

<use xlink:href="#Layer15_0_1_STROKES"/>
</g>

<g transform="matrix( 1, 0, 0, 1, 0,0) ">
<use xlink:href="#Layer14_0_FILL"/>
</g>

<g transform="matrix( 1, 0, 0, 1, 0,0) ">
<use xlink:href="#Layer13_0_1_STROKES"/>

<use xlink:href="#Layer13_0_2_STROKES"/>
</g>

<g transform="matrix( 1, 0, 0, 1, 0,0) ">
<use xlink:href="#Layer12_0_FILL"/>
</g>

<g transform="matrix( 1, 0, 0, 1, 0,0) ">
<use xlink:href="#Layer11_0_FILL"/>
</g>

<g transform="matrix( 1, 0, 0, 1, 0,0) ">
<use xlink:href="#Layer10_0_1_STROKES"/>
</g>

<g transform="matrix( 1, 0, 0, 1, 0,0) ">
<use xlink:href="#Layer1_0_FILL"/>

<use xlink:href="#Layer1_0_1_STROKES"/>
</g>
</svg>
