
<svg xmlns="http://www.w3.org/2000/svg" version="1.1" xmlns:xlink="http://www.w3.org/1999/xlink" preserveAspectRatio="none" x="0px" y="0px" width="1280px" height="1024px" viewBox="0 0 1280 1024">
<defs>
<g id="Layer9_0_FILL">
<path fill="#2A4A2B" stroke="none" d="
M 832.15 834.4
L 839.15 963.55
Q 984.3 938.5 1115 882.25
L 968.15 788.4 990.15 908.4 832.15 834.4 Z"/>

<path fill="#365E37" stroke="none" d="
M 441.1 963.55
L 448 834.4 290 908.4 312 788.4 165.15 882.3
Q 295.85 938.55 441.1 963.55 Z"/>

<path fill="#314965" stroke="none" d="
M 521.2 422.65
L 520.9 426.4
Q 520.45 430.6 490.65 486.25 460.85 541.9 439.3 622.95 481.8 611.55 522.15 610.85
L 530.6 540.1 527.45 510.1 532.3 420.2
Q 527.55 421.2 522.8 422.25 522 422.45 521.2 422.65
M 639.5 242.7
Q 638.7 242.7 637.9 242.75 558.1 247 535.3 302.8 528.6 319.1 526.8 339.9 526.35 345 526.2 350.4
L 524.75 371.45
Q 530.35 370.2 535.95 369.1 541.1 368.05 546.25 367.15 548.5 366.75 550.75 366.35 560.1 356.85 574.25 352.45 586.55 348.65 597.25 343.6 617.6 334 632.25 319.9 635.2 317.05 637.9 314.05 638.7 313.15 639.5 312.25
L 639.5 242.7 Z"/>

<path fill="#CB7D5E" stroke="none" d="
M 639.2 469.95
Q 639.1 469.95 639 469.9 638.4 470.1 637.9 470.25
L 637.9 409.05
Q 590.5 409.25 543.5 418 542.3 418.2 541.1 418.45 536.7 419.3 532.3 420.2
L 527.45 510.1 530.6 540.1 522.15 610.85
Q 481.8 611.55 439.3 622.95 429.8 625.5 420.15 628.6 420.1 628.6 420.05 628.6 418.4 629.15 416.75 629.7 531.75 648.4 638.9 704.6 638.95 704.55 639 704.55
L 639 686.6 572.55 620.15 572.65 620.1
Q 574.4 621.7 576.3 623.25 585.5 631.65 598.65 636.4 602.5 637.85 606.7 638.95 614.35 640.55 621.85 641.5 622.5 641.6 623 641.65
L 639.2 641.65 639.2 469.95
M 637.9 314.05
Q 635.2 317.05 632.25 319.9 617.6 334 597.25 343.6 586.55 348.65 574.25 352.45 560.1 356.85 550.75 366.35 594.1 358.85 637.9 358.65
L 637.9 314.05 Z"/>

<path fill="#B65219" stroke="none" d="
M 279.4 698.55
Q 206.15 703.1 167.3 742.25 133.5 776.25 118.3 860.9 141.45 872.1 165.15 882.3
L 312 788.4 290 908.4 448 834.4 441.1 963.55
Q 536.9 980 639 982.9
L 639 704.55
Q 638.95 704.55 638.9 704.6 531.75 648.4 416.75 629.7 350.6 651.5 279.4 698.55
M 550.75 366.35
Q 548.5 366.75 546.25 367.15 541.1 368.05 535.95 369.1 530.35 370.2 524.75 371.45
L 521.2 422.65
Q 522 422.45 522.8 422.25 527.55 421.2 532.3 420.2 536.7 419.3 541.1 418.45 542.3 418.2 543.5 418 590.5 409.25 637.9 409.05
L 637.9 358.65
Q 594.1 358.85 550.75 366.35 Z"/>

<path fill="#8C3F13" stroke="none" d="
M 1110.95 742.25
Q 1072.1 703.1 998.8 698.55 927.5 651.4 861.3 629.6 746.65 648.3 639.85 704.15 639.7 704.2 639.6 704.25 639.35 704.35 639.05 704.55
L 639 704.55 639 982.9
Q 639.5 982.9 640 982.9 742.75 980.1 839.15 963.55
L 832.15 834.4 990.15 908.4 968.15 788.4 1115 882.25
Q 1137.75 872.45 1160.05 861.7 1144.85 776.4 1110.95 742.25
M 728.7 365.85
Q 690.75 359.65 653.1 358.75 645.5 358.55 637.9 358.65
L 637.9 409.05
Q 646.15 409 654.4 409.2 700.8 410.4 747.65 419.7 753.2 420.75 758.75 422 758.75 421.6 758.8 421.25
L 755.3 370.85
Q 755.25 370.8 755.2 370.8 741.95 368 728.7 365.85 Z"/>

<path fill="#8D563C" stroke="none" d="
M 746 552.25
Q 743.1 577.25 736.4 586 729.15 595.85 720.75 604.85
L 720.75 604.9
Q 718.2 607.6 715.6 610.3 711.2 614.7 706.6 618.9 704.25 621.1 701.65 623.25 692.45 631.65 679.25 636.4 675.4 637.85 671.2 638.95 663.6 640.55 656 641.5 655.45 641.6 654.9 641.65
L 639.2 641.65 623 641.65
Q 622.5 641.6 621.85 641.5 614.35 640.55 606.7 638.95 602.5 637.85 598.65 636.4 585.5 631.65 576.3 623.25 574.4 621.7 572.65 620.1
L 572.55 620.15 639 686.6 639 704.55 639.05 704.55
Q 639.35 704.35 639.6 704.25 639.7 704.2 639.85 704.15 746.65 648.3 861.3 629.6 851.2 626.3 841.25 623.55 797.5 611.55 756.05 610.85
L 747.45 538.7 746 552.25 Z"/>

<path fill="#A9694F" stroke="none" d="
M 747.45 538.7
L 751.85 496.8 747.65 419.7
Q 700.8 410.4 654.4 409.2 646.15 409 637.9 409.05
L 637.9 470.25
Q 638.4 470.1 639 469.9 639.1 469.95 639.2 469.95
L 639.2 641.65 654.9 641.65
Q 655.45 641.6 656 641.5 663.6 640.55 671.2 638.95 675.4 637.85 679.25 636.4 692.45 631.65 701.65 623.25 704.25 621.1 706.6 618.9 711.2 614.7 715.6 610.3 718.2 607.6 720.75 604.9
L 720.75 604.85
Q 729.15 595.85 736.4 586 743.1 577.25 746 552.25
L 747.45 538.7
M 716.1 356.7
Q 711.3 354.2 705.7 352.45 671.85 341.95 650 322.05 644.6 317.15 639.95 311.7 639.75 311.95 639.5 312.25 638.7 313.15 637.9 314.05
L 637.9 358.65
Q 645.5 358.55 653.1 358.75 690.75 359.65 728.7 365.85 723.75 360.95 717.5 357.45 716.8 357.05 716.1 356.7 Z"/>

<path fill="#273950" stroke="none" d="
M 759.15 426.4
L 758.85 422
Q 758.8 422 758.75 422 753.2 420.75 747.65 419.7
L 751.85 496.8 747.45 538.7 756.05 610.85
Q 797.5 611.55 841.25 623.55 832.45 557.75 802.85 500.05 773.2 442.35 759.15 426.4
M 665.2 245.25
Q 659.35 244.25 653.1 243.6 650.3 243.3 647.45 243.1 643.8 242.8 640.05 242.65 639.75 242.65 639.5 242.7
L 639.5 312.25
Q 639.75 311.95 639.95 311.7 644.6 317.15 650 322.05 671.85 341.95 705.7 352.45 711.3 354.2 716.1 356.7 716.8 357.05 717.5 357.45 723.75 360.95 728.7 365.85 741.95 368 755.2 370.8 755.25 370.8 755.3 370.85
L 753.85 350.4
Q 752.65 306.05 731.3 279.9 720 266.05 703.1 257.35 686.75 248.9 665.2 245.25 Z"/>
</g>

<g id="Layer8_0_FILL">
<path fill="#000000" fill-opacity="0.2" stroke="none" d="
M 574 660.65
Q 572.95 662.05 573.25 664 584.25 729 622.65 775.75 623.85 777.2 625.7 777.4 627.55 777.6 629 776.4 630.35 775.2 630.65 773.35 630.8 771.45 629.6 770.05 592.75 725 582.1 662.5 581.8 660.65 580.25 659.55 578.8 658.45 576.95 658.75 575.05 659.1 574 660.65
M 382.35 714.35
Q 380.95 715.6 380.7 717.4 380.55 719.2 381.8 720.7 383 722.1 384.8 722.3 456.3 729.25 541.3 762.2 543 762.8 544.7 762.1 546.4 761.3 547.1 759.6 547.8 757.8 547 756.15 546.25 754.5 544.6 753.85 458.2 720.3 385.65 713.3 383.8 713.1 382.35 714.35
M 735.3 757.55
Q 733.45 758.15 732.85 759.85 732.1 761.6 732.75 763.35 733.4 765.05 735.1 765.8 736.8 766.55 738.55 765.9 823.5 732.95 895.05 726.05 896.85 725.85 898 724.4 899.25 722.95 899.1 721.15 898.85 719.25 897.4 718.1 896 716.9 894.2 717.05 821.6 724 735.3 757.55
M 698.55 659.55
Q 697.05 660.65 696.7 662.5 686.1 725 649.2 770.05 648.05 771.45 648.2 773.35 648.45 775.2 649.9 776.4 651.25 777.6 653.2 777.4 655 777.2 656.25 775.75 694.5 729 705.55 664 705.9 662.05 704.75 660.65 703.7 659.1 701.9 658.75 700.1 658.45 698.55 659.55 Z"/>
</g>

<g id="Layer3_0_FILL">
<path fill="#FFFFFF" stroke="none" d="
M 597.7 459.4
Q 594.8 462.4 590.65 462.4 586.55 462.4 583.6 459.4 580.7 456.6 580.7 452.35 580.7 449.35 582.1 447.05 579.9 446.55 577.7 446.05
L 552.9 443.15 558.85 456.7
Q 576.6 479.5 610.9 464.7
L 610.95 464.65
Q 611.3 464.45 611.55 464.3 615.25 461.3 616 460.3 616.6 459.6 616.9 459.3 616.95 459.15 617.05 459.1 617.05 459.05 617.1 459 617.2 458.95 617.35 458.9 617.55 458.75 617.7 458.55 615.4 457.7 613.05 456.85 612.15 456.3 611.2 455.75 610 455.25 608.8 454.9 604.75 453.4 600.65 452.15 600.65 452.25 600.65 452.35 600.65 456.6 597.7 459.4
M 687.1 462.4
Q 682.9 462.4 679.95 459.4 677.05 456.6 677.05 452.35
L 677.05 452.3
Q 673.3 453.6 669.55 454.9 668.35 455.25 667.2 455.75 666.2 456.3 665.3 456.85 662.95 457.7 660.65 458.55 660.9 458.75 661.05 458.9 661.15 458.95 661.25 459 661.3 459.05 661.3 459.1 661.4 459.15 661.45 459.3 661.75 459.6 662.35 460.3 663.1 461.3 666.75 464.3 667.1 464.45 667.4 464.65
L 667.45 464.7
Q 701.75 479.5 719.4 456.7
L 725.4 443.15 700.65 446.05
Q 698.15 446.6 695.6 447.2 696.95 449.35 697.05 452.15 697.05 452.25 697.05 452.35 697.05 456.6 694.1 459.4 691.2 462.4 687.1 462.4 Z"/>

<path fill="#314965" stroke="none" d="
M 600.65 452.15
Q 600.05 451.95 599.45 451.8 598.1 451.3 596.9 451.05 585.5 447.9 584.55 447.7 583.4 447.3 582.1 447.05 580.7 449.35 580.7 452.35 580.7 456.6 583.6 459.4 586.55 462.4 590.65 462.4 594.8 462.4 597.7 459.4 600.65 456.6 600.65 452.35 600.65 452.25 600.65 452.15 Z"/>

<path fill="#273950" stroke="none" d="
M 681.4 451.05
Q 680.25 451.3 678.9 451.8 678.05 452.05 677.05 452.3
L 677.05 452.35
Q 677.05 456.6 679.95 459.4 682.9 462.4 687.1 462.4 691.2 462.4 694.1 459.4 697.05 456.6 697.05 452.35 697.05 452.25 697.05 452.15 696.95 449.35 695.6 447.2 694.65 447.45 693.75 447.7 692.9 447.9 681.4 451.05 Z"/>
</g>

<path id="Layer8_0_1_STROKES" stroke="#000000" stroke-opacity="0.2" stroke-width="8" stroke-linejoin="round" stroke-linecap="round" fill="none" d="
M 265.1 843.55
Q 255.6 881.4 262.7 917.95
M 1011.9 841.05
Q 1021.4 878.85 1014.3 915.55"/>

<path id="Layer8_0_2_STROKES" stroke="#703210" stroke-width="8" stroke-linejoin="round" stroke-linecap="round" fill="none" d="
M 640 836.45
L 640 967"/>

<path id="Layer2_0_1_STROKES" stroke="#000000" stroke-opacity="0.2" stroke-width="7.85" stroke-linejoin="round" stroke-linecap="round" fill="none" d="
M 657.85 501.75
L 657.85 510 641.15 519.6 624.5 509.95 624.5 501.75"/>

<path id="Layer2_0_2_STROKES" stroke="#000000" stroke-opacity="0.2" stroke-width="8" stroke-linejoin="round" stroke-linecap="round" fill="none" d="
M 670.2 571.15
L 612.1 571.4
M 686.25 547.85
L 595.95 547.85"/>

<path id="Layer1_0_1_STROKES" stroke="#314965" stroke-width="10.95" stroke-linejoin="round" stroke-linecap="round" fill="none" d="
M 616.35 454.35
L 571.4 432.65
Q 558.7 428.1 549.3 434.15"/>

<path id="Layer1_0_2_STROKES" stroke="#273950" stroke-width="10.95" stroke-linejoin="round" stroke-linecap="round" fill="none" d="
M 663.2 454.35
L 708.2 432.65
Q 720.85 428.1 730.25 434.15"/>
</defs>

<g transform="matrix( 1, 0, 0, 1, 0,0) ">
<use xlink:href="#Layer9_0_FILL"/>
</g>

<g transform="matrix( 1, 0, 0, 1, 0,0) ">
<use xlink:href="#Layer8_0_FILL"/>

<use xlink:href="#Layer8_0_1_STROKES"/>

<use xlink:href="#Layer8_0_2_STROKES"/>
</g>

<g transform="matrix( 1, 0, 0, 1, 0,0) ">
<use xlink:href="#Layer3_0_FILL"/>
</g>

<g transform="matrix( 1, 0, 0, 1, 0,0) ">
<use xlink:href="#Layer2_0_1_STROKES"/>

<use xlink:href="#Layer2_0_2_STROKES"/>
</g>

<g transform="matrix( 1, 0, 0, 1, 0,0) ">
<use xlink:href="#Layer1_0_1_STROKES"/>

<use xlink:href="#Layer1_0_2_STROKES"/>
</g>
</svg>
