
<svg xmlns="http://www.w3.org/2000/svg" version="1.1" xmlns:xlink="http://www.w3.org/1999/xlink" preserveAspectRatio="none" x="0px" y="0px" width="1280px" height="1024px" viewBox="0 0 1280 1024">
<defs>
<g id="Layer13_0_FILL">
<path fill="#2D100C" stroke="none" d="
M 641.6 311.15
Q 527.7 316.45 452.6 392.95 408.25 480.4 393.65 567.9 383.65 575.9 372.6 582.85 296.9 636.05 279.6 739.35 275.8 769.3 279.6 796.2 293.75 738.15 326.6 686.8 285.25 825.1 351.2 916.05
L 641.6 812.8 641.6 311.15 Z"/>

<path fill="#1D0A07" stroke="none" d="
M 828.6 746.35
Q 740.95 593.7 863.6 458.4 812.75 329.95 654.6 310.8 648.05 310.85 641.6 311.15
L 641.6 812.8 828.6 746.35 Z"/>
</g>

<g id="Layer12_0_FILL">
<path fill="#E7A996" stroke="none" d="
M -36 132
L -168 132 -168 264 -36 264 -36 132 Z"/>

<path fill="#F1C2AB" stroke="none" d="
M -36 132
L -36 0 -168 0 -168 132 -36 132 Z"/>
</g>

<g id="Layer11_0_FILL">
<path fill="#A73C2F" stroke="none" d="
M 667.25 977.25
Q 690.4134765625 976.0068359375 713.5 973.25 739.7642578125 970.11015625 765.9 965.05 766.01796875 965.0408203125 766.1 965 779.2265625 962.4880859375 792.35 959.45 796.5015625 958.518359375 800.65 957.5 755.9419921875 948.4990234375 712.25 953.85 681.830078125 957.5728515625 667.25 977.25
M 645.95 883.1
Q 645.9083984375 883.1509765625 645.85 883.15
L 654 902.95
Q 736.05 874.5 821.95 898.3
L 821.95 952
Q 822.15 951.9794921875 822.35 951.9 822.7 951.82109375 823.05 951.7 827.726171875 950.453125 832.4 949.1 835.77578125 948.15 839.15 947.15 839.207421875 947.1328125 839.25 947.1 845.4837890625 945.256640625 851.7 943.3 852.8470703125 942.9416015625 854 942.55 853.996484375 941.508203125 853.95 940.45 853.969921875 939.545703125 853.95 938.65 852.55 899.65 823.05 874.9 774.65 861.4 727.3 864.7 686.24765625 867.598828125 645.95 883.1 Z"/>

<path fill="#CF4A3B" stroke="none" d="
M 625 901.95
L 633.2 882.55
Q 547.2857421875 849.8931640625 457.05 874.9 449.1 881.7 443.2 889.65 426.54375 911.80859375 426 942.45 427.311328125 942.891015625 428.6 943.3 434.88515625 945.26328125 441.1 947.1 441.19296875 947.133203125 441.25 947.15 447.024609375 948.8564453125 452.8 950.45 454.925 951.067578125 457.05 951.65
L 457.05 897.3
Q 542.96953125 873.487109375 625 901.95
M 487.25 959.25
Q 500.35 962.25 513.5 964.8 513.8732421875 964.871875 514.25 964.95 540.1240234375 969.8947265625 566.05 973 589.398046875 975.766796875 612.75 977.05 598.2 956.6408203125 567.15 952.85 522.6646484375 947.396875 477.1 956.85 482.1763671875 958.080078125 487.25 959.25 Z"/>

<path fill="#D6B04C" stroke="none" d="
M 645.85 883.15
L 639.35 868.05 639.15 936.9 639.15 937.05
Q 681.204296875 924.593359375 711.85 920.85 764.7638671875 914.3638671875 819.2 928.95 764.7638671875 914.3638671875 711.85 920.85 681.204296875 924.593359375 639.15 937.05
L 639.05 965.9 640.6 978
Q 640.1 978 639.6 978.05 639.3185546875 978.021875 639 978 639.643359375 978.1677734375 640.25 978.05 640.8775390625 977.9728515625 647.05 978 653.2177734375 978.0265625 665.4 977.35 666.3361328125 977.32734375 667.25 977.25 681.830078125 957.5728515625 712.25 953.85 755.9419921875 948.4990234375 800.65 957.5 801.9484375 957.19609375 803.25 956.85 811.2283203125 954.91640625 819.2 952.75 820.5751953125 952.4005859375 821.95 952
L 821.95 898.3
Q 736.05 874.5 654 902.95
L 645.85 883.15 Z"/>

<path fill="#F0CA42" stroke="none" d="
M 639.35 868.05
L 633.2 882.55 625 901.95
Q 542.96953125 873.487109375 457.05 897.3
L 457.05 951.65
Q 458.925 952.1619140625 460.8 952.65 468.94921875 954.8478515625 477.1 956.85 522.6646484375 947.396875 567.15 952.85 598.2 956.6408203125 612.75 977.05 613.448046875 977.112109375 614.15 977.15 621.458984375 977.5080078125 628.75 977.75 633.6791015625 977.89921875 638.6 978 638.80546875 978 639 978
L 639 978
Q 639.3185546875 978.021875 639.6 978.05 640.1 978 640.6 978
L 639.05 965.9 639.15 937.05 639.15 936.9
Q 597.870703125 924.4109375 567.15 920.65 514.721875 914.2232421875 460.8 928.45 514.721875 914.2232421875 567.15 920.65 597.870703125 924.4109375 639.15 936.9
L 639.35 868.05 Z"/>

<path fill="#E7BAA4" stroke="none" d="
M 388.15 763.85
Q 387.86953125 763.9513671875 387.6 764.05 357.05 775.75 352.8 818.9 352 822.7 351.35 826.75 350 835.3 349.55 844.75
L 349.6 898.75
Q 349.55 900.25 349.6 901.65 350.0162109375 912.05390625 355.15 916 356.2173828125 916.8134765625 357.45 917.35 391.6873046875 931.5736328125 426 942.45 426.54375 911.80859375 443.2 889.65 449.1 881.7 457.05 874.9 547.2857421875 849.8931640625 633.2 882.55
L 639.35 868.05 640 687.85 587.25 635.1
Q 585.0984375 633.6630859375 582.9 632.1
L 581.2 630.85
Q 580.364453125 630.076953125 579.55 629.3 579.80859375 630.85859375 580.05 632.35 580.342578125 634.8287109375 580.65 638.3 581.7 649.55 580.9 670 580.75 675.25 580.3 680.35 580.0330078125 683.6025390625 579.65 686.8 579.2646484375 690.1810546875 578.75 693.5 578.2169921875 693.76640625 577.65 694 577.6169921875 694.0220703125 577.55 694.05 571.5587890625 696.74609375 388.15 763.85 Z"/>

<path fill="#DDA18F" stroke="none" d="
M 698.5 631.05
Q 698.1 631.35 697.75 631.6 686.45 639.7 675.75 645.15 660.9 652.65 647.05 655.05 643.95 655.6 640.05 655.95
L 640.05 656
Q 639.55 655.95 639.05 655.9 635.6 655.5 632.85 655.05 619 652.65 604.2 645.15 595.89765625 640.9189453125 587.25 635.1
L 640 687.85 639.35 868.05 645.85 883.15
Q 645.9083984375 883.1509765625 645.95 883.1 686.24765625 867.598828125 727.3 864.7 774.65 861.4 823.05 874.9 852.55 899.65 853.95 938.65 853.969921875 939.545703125 853.95 940.45 853.996484375 941.508203125 854 942.55 856.299609375 941.844140625 858.6 941.1 890.4146484375 930.7791015625 922.15 917.6 929.485546875 914.4046875 929.95 901.9 930.0298828125 900.50390625 930 899
L 930.05 845
Q 929.6041015625 835.53203125 928.25 826.95 927.61015625 822.9576171875 926.75 819.15
L 926.8 819.15 926.75 819.1
Q 922.5296875 775.994921875 892 764.3 708.054296875 697.0185546875 702.05 694.3 701.4552734375 694.025390625 700.85 693.75 699.861328125 687.3072265625 699.3 680.55 698.8658203125 675.4935546875 698.65 670.25 697.9078125 649.8091796875 698.9 638.55 699.449609375 632.715625 699.95 629.7 699.7041015625 629.9615234375 699.45 630.2 699.05 630.55 698.6 630.95
L 698.6 631
Q 698.55 631.05 698.5 631.05 Z"/>
</g>

<g id="Layer10_0_FILL">
<path fill="#F1C2AB" stroke="none" d="
M 533.45 521.75
L 531.65 507
Q 507.25 498.95 509.35 530.9 511.45 562.95 535 577.45 544.25 582.95 544.6 573.15
L 542.8 565.15
Q 532.3 563 526.8 547.55 516.8 520.15 533.45 521.75 Z"/>

<path fill="#E8A994" stroke="none" d="
M 535.25 530.35
Q 534.5 530.85 533.8 531.7 531 534.85 531 539.4 531 543.9 533.8 547.1 536.2 550 539.55 550.3
L 535.25 530.35
M 745.1 531.3
Q 744.4 530.4 743.6 529.9
L 739.3 549.85
Q 742.65 549.55 745.1 546.7 747.85 543.5 747.85 539 747.85 534.45 745.1 531.3 Z"/>

<path fill="#C77C66" stroke="none" d="
M 533.8 531.7
Q 534.5 530.85 535.25 530.35
L 533.45 521.75
Q 516.8 520.15 526.8 547.55 532.3 563 542.8 565.15
L 539.55 550.3
Q 536.2 550 533.8 547.1 531 543.9 531 539.4 531 534.85 533.8 531.7
M 743.6 529.9
Q 744.4 530.4 745.1 531.3 747.85 534.45 747.85 539 747.85 543.5 745.1 546.7 742.65 549.55 739.3 549.85
L 736.05 564.7
Q 746.55 562.6 752.05 547.1 762.05 519.75 745.4 521.35
L 743.6 529.9 Z"/>

<path fill="#E7A996" stroke="none" d="
M 748.8 505.7
L 745.4 521.35
Q 762.05 519.75 752.05 547.1 746.55 562.6 736.05 564.7
L 734.25 572.75
Q 734.6 582.55 743.85 576.95 767.4 562.5 769.5 530.5 771.65 498.45 748.8 505.7 Z"/>
</g>

<g id="Layer9_0_FILL">
<path fill="#F1C2AB" stroke="none" d="
M 543.1 569.1
Q 543.55 570.65 544.1 572.25 544.65 573.8 545.15 575.35 546.15 578.1 547.15 580.85 558.0349609375 608.73671875 579.55 629.3 580.364453125 630.076953125 581.2 630.85
L 582.9 632.1
Q 585.0984375 633.6630859375 587.25 635.1 595.89765625 640.9189453125 604.2 645.15 619 652.65 632.85 655.05 635.6 655.5 639.05 655.9 639.55 655.95 640.05 656
L 640.05 655.95 640.05 510.45
Q 632.7 502.5 623.3 496.55 595.2328125 478.708203125 549 478.85 543.1685546875 510.490234375 533.15 521.3 535.86953125 546.21171875 543.1 569.1 Z"/>

<path fill="#2D100C" stroke="none" d="
M 531.05 479.55
Q 531.05 480.722265625 531.05 481.9 530.5 501.9 533.15 521.2 533.1572265625 521.2669921875 533.15 521.3 543.1685546875 510.490234375 549 478.85 540.3712890625 478.8892578125 531.05 479.55
M 554 440.3
Q 545.1587890625 440.4671875 535.6 439.95 531.2876953125 460.4041015625 531.1 478.8 531.0880859375 479.172265625 531.05 479.55 540.3712890625 478.8892578125 549 478.85 552.07109375 462.4537109375 554 440.3 Z"/>

<path fill="#CF4A3B" stroke="none" d="
M 640.05 422.9
L 639.9 422.5 632 445.25 607.9 446.05 627.1 460.55 620.4 483.7 640.05 470 640.05 422.9 Z"/>

<path fill="#F0CA42" stroke="none" d="
M 640.05 408.8
Q 640.0248046875 408.776953125 640 408.75 632.65 416.7 623.25 422.7 596.711328125 439.490625 554 440.3 552.07109375 462.4537109375 549 478.85 595.2328125 478.708203125 623.3 496.55 632.7 502.5 640.05 510.45
L 640.05 470 620.4 483.7 627.1 460.55 607.9 446.05 632 445.25 639.9 422.5 640.05 422.9 640.05 408.8 Z"/>

<path fill="#A73C2F" stroke="none" d="
M 660.1 483.5
L 653.1 460.4 672.1 445.65 648.05 445.2 640.05 422.9 640.05 470 640.15 469.95 660.1 483.5 Z"/>

<path fill="#E7A996" stroke="none" d="
M 748.8 479.5
Q 739.1939453125 478.85 730.25 478.85 669.2 478.9 640.05 510.45
L 640.05 655.95
Q 643.95 655.6 647.05 655.05 660.9 652.65 675.75 645.15 686.45 639.7 697.75 631.6 698.1 631.35 698.5 631.05 698.55 631.05 698.6 631
L 698.6 630.95
Q 699.05 630.55 699.45 630.2 699.7041015625 629.9615234375 699.95 629.7 721.578125 609.2248046875 732.55 581.4 732.65 581.15 732.75 580.85 733.8 578.1 734.75 575.35 735.3 573.8 735.8 572.25 736.35 570.65 736.8 569.1 737.15 568.05 737.45 567.05
L 744.95 534.85 746.35 525.25
Q 746.5 523.2 746.75 521.2 746.8 521 746.8 520.8
L 746.85 520.6 746.85 520.55
Q 746.9271484375 519.9056640625 747 519.25 748.617578125 505.32109375 749 491.7
L 749.05 488.45
Q 749 485.2 748.9 481.95 748.880859375 481.337109375 748.85 480.7 748.8380859375 480.126953125 748.8 479.5 Z"/>

<path fill="#D6B04C" stroke="none" d="
M 744.7 439.9
Q 738.2029296875 440.275 732.05 440.35 669.70234375 440.799609375 640.05 408.8
L 640.05 422.9 648.05 445.2 672.1 445.65 653.1 460.4 660.1 483.5 640.15 469.95 640.05 470 640.05 510.45
Q 669.2 478.9 730.25 478.85 739.1939453125 478.85 748.8 479.5 748.81171875 479.1658203125 748.8 478.8
L 749 478.8
Q 749 467.9 747.7 457 746.5728515625 448.4591796875 744.7 439.9 Z"/>
</g>

<g id="Layer7_0_FILL">
<path fill="#333333" stroke="none" d="
M 592.4 517.85
Q 595.05 517.85 596.9 516 598.55 514.35 598.8 512.15 598.8 511.8 598.8 511.45 598.8 511.3 598.8 511.15 597.85 510.85 596.9 510.65 595.95 510.4 595 510.2 590.9 509.45 586.45 509.05 586.15 509.65 586.1 510.35 586 510.85 586 511.45 586 514.15 587.85 516 589.7 517.85 592.4 517.85 Z"/>

<path fill="#000000" fill-opacity="0.2" stroke="none" d="
M 562.2 510.05
Q 561.85 509.45 561.5 508.9 563.95 508.65 566.25 508.65
L 567.8 508.55
Q 571.9 508.35 575.85 508.4
L 577.5 508.45
Q 578.25 508.45 579.05 508.5 581.7 508.6 584.2 508.85 584.8 508.9 585.4 508.95 585.95 509 586.45 509.05 590.9 509.45 595 510.2 592.45 507.75 589.2 505.9 588.1 505.25 586.85 504.7 573.1 498.3 549.35 502.65 554.1 520.1 575.9 523.6 575.55 523.45 575.3 523.3
L 574.8 522.95
Q 574.2 522.65 573.6 522.25
L 562.2 510.05
M 712 508.55
L 713.6 508.65
Q 715.95 508.7 718.4 508.9 718.1 509.5 717.7 510.05
L 706.1 522.5
Q 705.5 522.9 704.9 523.2
L 704.4 523.55
Q 704.1 523.7 703.8 523.9 725.95 520.3 730.75 502.55 706.65 498.15 692.65 504.65 691.4 505.2 690.25 505.85 687 507.75 684.35 510.25 688.55 509.5 693.05 509.05 693.6 509 694.1 508.95 694.7 508.9 695.35 508.85 697.9 508.6 700.55 508.5 701.4 508.45 702.2 508.45
L 703.85 508.4
Q 707.9 508.35 712 508.55 Z"/>

<path fill="#FFFFFF" stroke="none" d="
M 561.5 508.9
Q 561.85 509.45 562.2 510.05
L 573.6 522.25
Q 574.2 522.65 574.8 522.95
L 575.3 523.3
Q 575.55 523.45 575.9 523.6 592.15 532.5 617 519.35 615.8 518.5 614.5 517.65 614.4 517.6 614.35 517.55 613.05 516.75 611.75 516 609.8 515 607.7 514.05 604.9 512.85 601.75 512 600.25 511.5 598.8 511.15 598.8 511.3 598.8 511.45 598.8 511.8 598.8 512.15 598.55 514.35 596.9 516 595.05 517.85 592.4 517.85 589.7 517.85 587.85 516 586 514.15 586 511.45 586 510.85 586.1 510.35 586.15 509.65 586.45 509.05 585.95 509 585.4 508.95 584.8 508.9 584.2 508.85 581.7 508.6 579.05 508.5 578.25 508.45 577.5 508.45
L 575.85 508.4
Q 571.9 508.35 567.8 508.55
L 566.25 508.65
Q 563.95 508.65 561.5 508.9
M 713.6 508.65
L 712 508.55
Q 707.9 508.35 703.85 508.4
L 702.2 508.45
Q 701.4 508.45 700.55 508.5 697.9 508.6 695.35 508.85 694.7 508.9 694.1 508.95 693.6 509 693.05 509.05 693.35 509.65 693.45 510.4 693.55 510.9 693.55 511.55 693.55 514.25 691.65 516.15 689.75 518.05 687 518.05 684.3 518.05 682.4 516.15 680.75 514.45 680.5 512.2 680.5 511.85 680.5 511.55 680.5 511.35 680.5 511.2 679 511.55 677.5 512.05 674.3 512.9 671.45 514.15 669.3 515.1 667.3 516.15 666 516.9 664.7 517.7 664.6 517.75 664.5 517.8 663.25 518.65 662 519.55 687.25 532.9 703.8 523.9 704.1 523.7 704.4 523.55
L 704.9 523.2
Q 705.5 522.9 706.1 522.5
L 717.7 510.05
Q 718.1 509.5 718.4 508.9 715.95 508.7 713.6 508.65 Z"/>

<path fill="#2D100C" stroke="none" d="
M 561.45 479.7
Q 561.1544921875 479.796484375 560.95 480 560.74140625 480.2638671875 560.7 480.55 560.66015625 480.8771484375 560.8 481.15 560.9474609375 481.425 561.2 481.55 576.2373046875 489.7880859375 591.3 497.15
L 624.4 513.45
Q 624.7251953125 513.609765625 625.05 513.5 625.429296875 513.4392578125 625.65 513.15 625.866796875 512.860546875 625.85 512.5 625.837890625 512.1412109375 625.6 511.85
L 613.45 498.55
Q 613.3095703125 498.4287109375 613.1 498.35 589.2140625 487.5220703125 563.95 479.35 563.726171875 479.2693359375 563.5 479.3 562.5009765625 479.46015625 561.45 479.7 Z"/>

<path fill="#282828" stroke="none" d="
M 691.65 516.15
Q 693.55 514.25 693.55 511.55 693.55 510.9 693.45 510.4 693.35 509.65 693.05 509.05 688.55 509.5 684.35 510.25 683.4 510.45 682.4 510.65 681.45 510.9 680.5 511.2 680.5 511.35 680.5 511.55 680.5 511.85 680.5 512.2 680.75 514.45 682.4 516.15 684.3 518.05 687 518.05 689.75 518.05 691.65 516.15 Z"/>

<path fill="#1D0A07" stroke="none" d="
M 716.2 479.3
Q 715.9859375 479.2796875 715.75 479.35 690.4482421875 487.522265625 666.55 498.35 666.3529296875 498.4287109375 666.2 498.55
L 654.05 511.85
Q 653.812109375 512.1412109375 653.8 512.5 653.7830078125 512.860546875 654 513.15 654.220703125 513.4392578125 654.55 513.5 654.9248046875 513.609765625 655.25 513.45
L 688.35 497.15
Q 703.4125 489.7880859375 718.4 481.55 718.7025390625 481.425 718.85 481.15 718.98984375 480.8771484375 718.95 480.55 718.90859375 480.2638671875 718.7 480 718.4955078125 479.796484375 718.2 479.7 717.1603515625 479.47265625 716.2 479.3 Z"/>
</g>

<g id="Layer6_0_FILL">
<path fill="#CF4A3B" stroke="none" d="
M 639.75 588.8
Q 633 583.75 618.45 589.45
L 604.35 596
Q 609.5 613.15 639.75 614.7 639.9 614.7 640 614.7
L 640 599.15 622.2 598.8
Q 625.25 598.6 628.2 597.95 632 596.75 635.7 597.65 638.35 598.35 639.75 597.45 639.85 597.55 640 597.6
L 640 588.65
Q 639.85 588.7 639.75 588.8 Z"/>

<path fill="#FFFFFF" stroke="none" d="
M 656.5 598.75
Q 653.9 598.5 651.2 597.95 647.45 596.75 643.7 597.65 641.3 598.3 640 597.6 639.85 597.55 639.75 597.45 638.35 598.35 635.7 597.65 632 596.75 628.2 597.95 625.25 598.6 622.2 598.8
L 640 599.15 656.5 598.75 Z"/>

<path fill="#A73C2F" stroke="none" d="
M 651.2 597.95
Q 653.9 598.5 656.5 598.75
L 640 599.15 640 614.7
Q 669.95 613.1 675.1 596
L 661 589.45
Q 646.65 583.85 640 588.65
L 640 597.6
Q 641.3 598.3 643.7 597.65 647.45 596.75 651.2 597.95 Z"/>
</g>

<g id="Layer0_0_FILL">
<path fill="#F0CA42" stroke="none" d="
M 538.55 617.85
L 550.85 626.2 546.55 611.95 558.2 602.9 543.4 602.6 538.4 588.65 533.55 602.65 518.7 603.15 530.55 612.05 526.4 626.3 538.55 617.85 Z"/>

<path fill="#D6B04C" stroke="none" d="
M 738.8 617.85
L 751.1 626.2 746.8 611.95 758.45 602.9 743.65 602.6 738.65 588.65 733.8 602.65 718.95 603.15 730.8 612.05 726.65 626.3 738.8 617.85 Z"/>
</g>

<path id="Layer11_0_1_STROKES" stroke="#000000" stroke-opacity="0.2" stroke-width="8" stroke-linejoin="round" stroke-linecap="round" fill="none" d="
M 639.15 937.05
Q 681.204296875 924.593359375 711.85 920.85 764.7638671875 914.3638671875 819.2 928.95
M 639.15 936.9
Q 597.870703125 924.4109375 567.15 920.65 514.721875 914.2232421875 460.8 928.475"/>

<path id="Layer9_0_1_STROKES" stroke="#000000" stroke-opacity="0.2" stroke-width="6" stroke-linejoin="round" stroke-linecap="round" fill="none" d="
M 640.05 510.45
Q 669.2 478.9 730.25 478.85 739.1939453125 478.85 748.825 479.525
M 549.025 478.85
Q 540.3712890625 478.8892578125 531.075 479.55
M 640.05 510.45
Q 632.7 502.5 623.3 496.55 595.2328125 478.708203125 549.025 478.85"/>

<path id="Layer8_0_1_STROKES" stroke="#000000" stroke-opacity="0.2" stroke-width="8" stroke-linejoin="round" stroke-linecap="round" fill="none" d="
M 760.4 764.6
Q 689.25 770.2 662.55 790.5
M 518.7 764.6
Q 589.85 770.2 616.55 790.5
M 426.1 936.2
Q 428.65 902.85 457.05 874.35 481.3 851.1 483.05 821.15
M 854 936.2
Q 851.45 902.85 823.05 874.35 798.8 851.1 797.05 821.15"/>

<path id="Symbole_33_0_Layer0_0_1_STROKES" stroke="#000000" stroke-opacity="0.2" stroke-width="8" stroke-linejoin="round" stroke-linecap="round" fill="none" d="
M 5.5 2.35
L 0 0
M 19.15 2.35
L 24.6 0"/>
</defs>

<g transform="matrix( 1, 0, 0, 1, 0,0) ">
<use xlink:href="#Layer13_0_FILL"/>
</g>

<g transform="matrix( 1, 0, 0, 1, 0,0) ">
<use xlink:href="#Layer12_0_FILL"/>
</g>

<g transform="matrix( 1, 0, 0, 1, 0,0) ">
<use xlink:href="#Layer11_0_FILL"/>

<use xlink:href="#Layer11_0_1_STROKES"/>
</g>

<g transform="matrix( 1, 0, 0, 1, 0,0) ">
<use xlink:href="#Layer10_0_FILL"/>
</g>

<g transform="matrix( 1, 0, 0, 1, 0,0) ">
<use xlink:href="#Layer9_0_FILL"/>

<use xlink:href="#Layer9_0_1_STROKES"/>
</g>

<g transform="matrix( 1, 0, 0, 1, 0,0) ">
<use xlink:href="#Layer8_0_1_STROKES"/>
</g>

<g transform="matrix( 1, 0, 0, 1, 627.7,566.85) ">
<g transform="matrix( 1, 0, 0, 1, 0,0) ">
<use xlink:href="#Symbole_33_0_Layer0_0_1_STROKES"/>
</g>
</g>

<g transform="matrix( 1, 0, 0, 1, 0,0) ">
<use xlink:href="#Layer7_0_FILL"/>
</g>

<g transform="matrix( 1, 0, 0, 1, 0,0) ">
<use xlink:href="#Layer6_0_FILL"/>
</g>

<g transform="matrix( 1, 0, 0, 1, 0,0) ">
<use xlink:href="#Layer0_0_FILL"/>
</g>
</svg>
