
<svg xmlns="http://www.w3.org/2000/svg" version="1.1" xmlns:xlink="http://www.w3.org/1999/xlink" preserveAspectRatio="none" x="0px" y="0px" width="1280px" height="1024px" viewBox="0 0 1280 1024">
<defs>
<g id="Layer17_0_FILL">
<path fill="#A6A79D" stroke="none" d="
M 782.85 884.8
L 782.2 885.45
Q 757.961328125 898.144140625 750.3 916.4 752.785546875 929.31640625 753.95 942.2
L 756.55 956.8
Q 758.8607421875 955.8251953125 761.1 954.85 778.85 946.75 795.5 936.1 793.55 915.6 786.95 895.9 785.0802734375 890.3240234375 782.85 884.8
M 624.1 956
Q 630.9775390625 940.78125 640 925.55 655.7505859375 952.123828125 664.95 978.7 680.8337890625 977.51640625 696 974.8 677.003125 921.33203125 640 875.05 617.6265625 903.05546875 601.8 933.7
L 624.1 956 Z"/>

<path fill="#333333" stroke="none" d="
M 647.65 979.55
L 624.1 956
Q 619.7447265625 965.6505859375 616.25 975.3 615.6197265625 977.0384765625 615 978.75 626.935546875 979.6158203125 639.25 979.6 643.45 979.6 647.65 979.55
M 515.6 847.5
Q 503.1958984375 866.1060546875 495.4 885.45 520.7146484375 898.71171875 527.95 918 524.4751953125 933.3802734375 522.2 956.8 522.362890625 956.78671875 522.45 956.95 523.106640625 957.2244140625 523.75 957.5 541.725390625 965.0755859375 560.75 970.05 562.9857421875 970.6119140625 565.2 971.15 574.419140625 973.3857421875 583.9 975 588.0537109375 963.387109375 593.05 952.1 597.1515625 942.788671875 601.8 933.7
L 515.6 847.5 Z"/>

<path fill="#272727" stroke="none" d="
M 624.1 956
L 647.65 979.55
Q 655.0734375 979.3771484375 662.35 978.9 663.6583984375 978.81171875 664.95 978.7 655.7505859375 952.123828125 640 925.55 630.9775390625 940.78125 624.1 956
M 516.1 846.8
Q 515.85 847.1 515.6 847.5
L 601.8 933.7
Q 617.6265625 903.05546875 640 875.05 677.003125 921.33203125 696 974.8 704.7744140625 973.2564453125 713.3 971.2 734.75 965.95 754.75 957.55 755.6525390625 957.1751953125 756.55 956.8
L 753.95 942.2
Q 752.785546875 929.31640625 750.3 916.4 757.961328125 898.144140625 782.2 885.45
L 782.85 884.8
Q 774.9486328125 865.41171875 762.45 846.8
L 643.6 832.45 527.85 839.65 516.1 846.8
M 723.75 852.4
L 726.9 849.4
Q 727.85 851.35 728.7 853.4
L 723.75 852.4 Z"/>

<path fill="#D0D2C5" stroke="none" d="
M 593.05 952.1
Q 588.0537109375 963.387109375 583.9 975 588.1681640625 975.76015625 592.45 976.35 603.5630859375 977.970703125 615 978.75 615.6197265625 977.0384765625 616.25 975.3 619.7447265625 965.6505859375 624.1 956
L 601.8 933.7
Q 597.1515625 942.788671875 593.05 952.1
M 517.45 954.75
Q 519.83125 955.8083984375 522.2 956.8 524.4751953125 933.3802734375 527.95 918 520.7146484375 898.71171875 495.4 885.45 493.3423828125 890.604296875 491.6 895.8 484.95 915.6 483.05 936.05 499.65 946.7 517.45 954.75 Z"/>
</g>

<g id="Layer15_0_FILL">
<path fill="#B38543" fill-opacity="0.9686274509803922" stroke="none" d="
M 254.95 622.2
Q 240 653.1 302.5 680.5 276.8 712.45 348.25 740.6 335.65 774.85 392.2 778.25 395.65 808.25 437.9 792.6 475.15 806.85 489.95 776.45
L 500.7 664.35 429.15 605.2 204.75 529.85
Q 209.2 584.65 254.95 622.2
M 775.2 664.35
L 785.95 776.45
Q 800.75 806.85 837.95 792.6 880.25 808.25 883.7 778.25 940.25 774.85 927.65 740.6 999.05 712.45 973.4 680.5 1035.9 653.1 1020.9 622.2 1066.7 584.65 1071.15 529.85
L 846.7 605.2 775.2 664.35 Z"/>
</g>

<g id="Layer14_0_FILL">
<path fill="#E2E4D6" stroke="none" d="
M 604.9 827.1
Q 595.8 822.5 592.75 816.7 571.6 810.05 560.15 800.25 565.367578125 833.8259765625 590.05 862 590.91328125 863.0203125 591.8 864 592.5 864.6 593.3 865.15 591.845703125 865.0212890625 590.4 864.85 592.541796875 879.012890625 601.85 891.4 612.391015625 884.505859375 622.25 869.9 626.1177734375 894.072265625 637.75 916.4 637.887890625 916.225390625 638 916
L 638 872.45 638.05 872.45 638.05 834.15
Q 618.6 834.15 604.9 827.1 Z"/>

<path fill="#D0D2C5" stroke="none" d="
M 639.9 834.15
Q 639.5 834.15 639 834.15
L 638.95 834.15
Q 638.55 834.15 638.05 834.15
L 638.05 872.45 638 872.45 638 916
Q 650.3544921875 894.025390625 654.15 870.15 663.75 884.5 674.3 891.4 683.55078125 879.089453125 685.7 865.05 685.1796875 865.102734375 684.65 865.15 685.23984375 864.7173828125 685.8 864.25 685.98984375 864.128125 686.15 864 712.4 835 717.8 800.25 706.3 810.05 685.15 816.7 682.1 822.5 673 827.1 659.35 834.15 639.9 834.15 Z"/>

<path fill="#CE994E" stroke="none" d="
M 550.9 786.75
Q 551.1 789.1 552.5 791.55 554.45 795.25 559 799.25 559.55 799.75 560.15 800.25 571.6 810.05 592.75 816.7 595.8 822.5 604.9 827.1 618.6 834.15 638.05 834.15
L 638.05 783.15
Q 614.4 784.6 605.85 790.95 595.3 799.7 566.35 790 595.3 799.7 605.85 790.95 614.4 784.6 638.05 783.15
L 638.05 726.6
Q 635.7 726.6 633.55 726.85 625.55 727.7 619.5 731.6 613.25 735.75 612.1 741.2 603.35 746 596.2 751.1 584.7 759.2 577.4 767.95
L 561.75 773.5
Q 550.2 779.25 550.9 786.75 Z"/>

<path fill="#E2E4D6" fill-opacity="0.9686274509803922" stroke="none" d="
M 453.05 682
L 453.05 682.05
Q 442.9919921875 679.878515625 432 689
L 423 700
Q 431.9146484375 710.8404296875 448.55 710.1 422.1544921875 715.7396484375 411 729 428.1001953125 741.598046875 447.1 739 432.653125 744.534375 430 754 441.223046875 762.7453125 448.65 762 480.63828125 749.3994140625 490 723.6 479.9287109375 692.5412109375 453.05 682 Z"/>

<path fill="#333333" stroke="none" d="
M 462.65 647.65
Q 456.7421875 664.982421875 453.05 682 479.9287109375 692.5412109375 490 723.6 480.63828125 749.3994140625 448.65 762 451.0083984375 778.15234375 457.1 791.85 460.55 799.6 465.15 806.55 476.45 823.55 494.75 835.8 527.3 857.45 581.9 863.95 582.05 864 582.3 864 586.2728515625 864.4826171875 590.4 864.85 591.845703125 865.0212890625 593.3 865.15 592.5 864.6 591.8 864 590.91328125 863.0203125 590.05 862 565.367578125 833.8259765625 560.15 800.25 559.55 799.75 559 799.25 554.45 795.25 552.5 791.55 551.1 789.1 550.9 786.75 550.2 779.25 561.75 773.5
L 577.4 767.95
Q 584.7 759.2 596.2 751.1 603.35 746 612.1 741.2 613.25 735.75 619.5 731.6 625.55 727.7 633.55 726.85 635.7 726.6 638.05 726.6
L 638.05 615.95
Q 615.85 607.55 590.25 607.55 573.85 607.55 558.9 611.05 556.7 611.5 554.45 612.1 535.8 616.15 519.7 621.2 491.5 608.3 476.05 603 440.35 590.6 409.35 584.5 401.25 590.9 406.25 598.75 436.4 604.55 471.3 616.7 482.3 620.5 499.8 628.2 478.35 636.7 462.65 647.65
M 532.3 635.65
Q 531 637.85 528.55 638.85 525.7 639.85 522.95 638.6 521.35 637.85 519.85 637.15 525.85 636.05 532.3 635.65
M 515.6 686.85
Q 526.25 676.15 540.65 675.6 584.3 673.85 603.15 711 607 722.4 600.35 731.05 574.95 764.4 540.6 762.5 526.25 760.55 515.6 749.9 502.5 736.8 502.5 718.4 502.5 699.85 515.6 686.85
M 532.05 696.5
Q 522.55 706 522.55 719.5 522.55 732.9 532.05 742.4 540.7 751.1 552.7 751.9 566.7 750.6 582.65 736.65 587.5 729.1 587.5 719.5 587.5 709.5 582.3 701.75 564 685.2 545.7 688.3 538.1 690.45 532.05 696.5
M 534.7 719.55
Q 534.7 710.45 541.05 704.05 547.45 697.7 556.5 697.7 565.55 697.7 571.95 704.05 578.3 710.45 578.3 719.55 578.3 728.55 571.95 734.95 565.55 741.35 556.5 741.35 547.45 741.35 541.05 734.95 534.7 728.55 534.7 719.55
M 550.8 711.85
Q 547.15 715.55 547.15 720.7 547.15 725.95 550.8 729.55 554.45 733.2 559.65 733.2 564.85 733.2 568.5 729.55 572.15 725.95 572.15 720.7 572.15 715.55 568.5 711.85 564.85 708.25 559.65 708.25 554.45 708.25 550.8 711.85
M 690.4 719.5
Q 690.4 729.1 695.25 736.65 711.25 750.6 725.25 751.9 737.2 751.1 745.9 742.4 755.4 732.9 755.4 719.5 755.4 706 745.9 696.5 739.8 690.45 732.2 688.3 713.9 685.2 695.65 701.75 690.4 709.5 690.4 719.5
M 706 734.95
Q 699.65 728.55 699.65 719.55 699.65 710.45 706 704.05 712.4 697.7 721.4 697.7 730.5 697.7 736.9 704.05 743.25 710.45 743.25 719.55 743.25 728.55 736.9 734.95 730.5 741.35 721.4 741.35 712.4 741.35 706 734.95
M 727.1 711.85
Q 723.45 708.25 718.3 708.25 713.05 708.25 709.4 711.85 705.8 715.55 705.8 720.7 705.8 725.95 709.4 729.55 713.05 733.2 718.3 733.2 723.45 733.2 727.1 729.55 730.75 725.95 730.75 720.7 730.75 715.55 727.1 711.85 Z"/>

<path fill="#FFFFFF" fill-opacity="0.9686274509803922" stroke="none" d="
M 587.5 719.5
Q 587.5 729.1 582.65 736.65 590.4 729.9 598.5 720.2 590.4 709.05 582.3 701.75 587.5 709.5 587.5 719.5
M 522.55 719.5
Q 522.55 706 532.05 696.5 538.1 690.45 545.7 688.3 527.1 691.35 508.5 714.7 527.4 754.15 552.7 751.9 540.7 751.1 532.05 742.4 522.55 732.9 522.55 719.5
M 755.4 719.5
Q 755.4 732.9 745.9 742.4 737.2 751.1 725.25 751.9 750.55 754.15 769.45 714.7 750.8 691.35 732.2 688.3 739.8 690.45 745.9 696.5 755.4 706 755.4 719.5
M 695.25 736.65
Q 690.4 729.1 690.4 719.5 690.4 709.5 695.65 701.75 687.55 709.05 679.45 720.2 687.55 729.9 695.25 736.65 Z"/>

<path fill="#FF9900" fill-opacity="0.9686274509803922" stroke="none" d="
M 541.05 704.05
Q 534.7 710.45 534.7 719.55 534.7 728.55 541.05 734.95 547.45 741.35 556.5 741.35 565.55 741.35 571.95 734.95 578.3 728.55 578.3 719.55 578.3 710.45 571.95 704.05 565.55 697.7 556.5 697.7 547.45 697.7 541.05 704.05
M 547.15 720.7
Q 547.15 715.55 550.8 711.85 554.45 708.25 559.65 708.25 564.85 708.25 568.5 711.85 572.15 715.55 572.15 720.7 572.15 725.95 568.5 729.55 564.85 733.2 559.65 733.2 554.45 733.2 550.8 729.55 547.15 725.95 547.15 720.7 Z"/>

<path fill="#333333" fill-opacity="0.9686274509803922" stroke="none" d="
M 528.55 638.85
Q 531 637.85 532.3 635.65 525.85 636.05 519.85 637.15 521.35 637.85 522.95 638.6 525.7 639.85 528.55 638.85 Z"/>

<path fill="#272727" stroke="none" d="
M 406.25 598.75
Q 408.3 610.9 417.6 620.95 412.9 630.15 420.35 639.35 416.8 647.15 424.9 655 419.5 666.2 431.4 674.25 428.7970703125 683.1943359375 432 689 442.9919921875 679.878515625 453.05 682.05
L 453.05 682
Q 456.7421875 664.982421875 462.65 647.65 478.35 636.7 499.8 628.2 482.3 620.5 471.3 616.7 436.4 604.55 406.25 598.75
M 778.15 628.2
Q 795.7 620.5 806.65 616.7 841.55 604.55 871.7 598.75 874.6 590.6 868.7 584.5 837.65 590.6 801.95 603 786.45 608.3 758.25 621.2 742.15 616.15 723.45 612.1 721.25 611.5 719 611.05 704.1 607.55 687.65 607.55 661.55 607.55 638.95 616.3 638.55 616.15 638.05 615.95
L 638.05 726.6
Q 638.55 726.6 638.95 726.6
L 639 726.6
Q 639.5 726.6 639.9 726.6 642.25 726.6 644.5 726.85 652.4 727.7 658.45 731.6 664.7 735.75 665.9 741.2 674.6 746 681.7 751.1 693.25 759.2 700.55 767.95
L 716.15 773.5
Q 727.7 779.25 727.05 786.75 726.8 789.1 725.5 791.55 723.45 795.25 718.9 799.25 718.35 799.75 717.8 800.25 712.4 835 686.15 864 685.98984375 864.128125 685.8 864.25 685.23984375 864.7173828125 684.65 865.15 685.1796875 865.102734375 685.7 865.05 690.7560546875 864.5884765625 695.6 864 695.85 864 696.05 863.95 750.65 857.45 783.15 835.8 801.5 823.55 812.8 806.55 817.4 799.6 820.8 791.85 829.65 771.95 830.7 746.85 831.45 728.65 829.45 710.1 828.2 698.7 825.9 687.15 822.1 667.6 815.3 647.65 799.6 636.7 778.15 628.2
M 737.3 675.6
Q 751.75 676.15 762.4 686.85 775.45 699.85 775.45 718.4 775.45 736.8 762.4 749.9 751.75 760.55 737.4 762.5 703 764.4 677.55 731.05 671 722.4 674.8 711 693.65 673.85 737.3 675.6 Z"/>

<path fill="#B38543" stroke="none" d="
M 665.9 741.2
Q 664.7 735.75 658.45 731.6 652.4 727.7 644.5 726.85 642.25 726.6 639.9 726.6 639.5 726.6 639 726.6
L 638.95 726.6
Q 638.55 726.6 638.05 726.6
L 638.05 783.15
Q 638.45 783.15 638.95 783.1 663.35 784.4 672.1 790.95 682.6 799.7 711.55 790 682.6 799.7 672.1 790.95 663.35 784.4 638.95 783.1 638.45 783.15 638.05 783.15
L 638.05 834.15
Q 638.55 834.15 638.95 834.15
L 639 834.15
Q 639.5 834.15 639.9 834.15 659.35 834.15 673 827.1 682.1 822.5 685.15 816.7 706.3 810.05 717.8 800.25 718.35 799.75 718.9 799.25 723.45 795.25 725.5 791.55 726.8 789.1 727.05 786.75 727.7 779.25 716.15 773.5
L 700.55 767.95
Q 693.25 759.2 681.7 751.1 674.6 746 665.9 741.2 Z"/>

<path fill="#1F1F1F" stroke="none" d="
M 806.65 616.7
Q 795.7 620.5 778.15 628.2 799.6 636.7 815.3 647.65 822.1 667.6 825.9 687.15 828.2 698.7 829.45 710.1 851.25 690.4 846.55 674.25 858.45 666.2 853 655 861.1 647.15 857.6 639.35 865.05 630.15 860.3 620.95 869.6 610.9 871.7 598.75 841.55 604.55 806.65 616.7 Z"/>

<path fill="#C97A04" fill-opacity="0.9686274509803922" stroke="none" d="
M 699.65 719.55
Q 699.65 728.55 706 734.95 712.4 741.35 721.4 741.35 730.5 741.35 736.9 734.95 743.25 728.55 743.25 719.55 743.25 710.45 736.9 704.05 730.5 697.7 721.4 697.7 712.4 697.7 706 704.05 699.65 710.45 699.65 719.55
M 718.3 708.25
Q 723.45 708.25 727.1 711.85 730.75 715.55 730.75 720.7 730.75 725.95 727.1 729.55 723.45 733.2 718.3 733.2 713.05 733.2 709.4 729.55 705.8 725.95 705.8 720.7 705.8 715.55 709.4 711.85 713.05 708.25 718.3 708.25 Z"/>
</g>

<g id="Layer12_0_FILL">
<path fill="#000000" fill-opacity="0.2" stroke="none" d="
M 626.8 741.55
Q 625.65 740.4 624 740.4 622.4 740.4 621.25 741.55 620.1 742.7 620.1 744.3 620.1 745.95 621.25 747.1 622.4 748.25 624 748.25 625.65 748.25 626.8 747.1 627.9 745.95 627.9 744.3 627.9 742.7 626.8 741.55
M 653.9 740.4
Q 652.3 740.4 651.15 741.55 650 742.7 650 744.3 650 745.95 651.15 747.1 652.3 748.25 653.9 748.25 655.5 748.25 656.65 747.1 657.85 745.95 657.85 744.3 657.85 742.7 656.65 741.55 655.5 740.4 653.9 740.4 Z"/>
</g>

<g id="Layer11_0_FILL">
<path fill="#E9EBE1" stroke="none" d="
M 666.7 571.05
Q 666.05 566.15 659.7 562.05 655.55 571.4 654.85 581.2 654.35 572.85 648.7 565.05 644.7 570 644.1 575.35 644.05 551.65 637.7 529 631.35 551.6 631.3 575.3 630.7 569.95 626.7 565 621.05 572.8 620.55 581.15 619.85 571.35 615.7 562 609.35 566.1 608.7 571 601.65 559 582.7 555 582.15 559.6 584 563.6 580.9 558.6 571.7 555.6 567 554.05 560.7 553 562.45 558.05 566.45 562.7 560.55 556.15 547.7 558 548.15 562.8 551.7 567 545.75 565.1 540.7 567 543.05 572.3 550.7 576 545.3 576.55 543.7 580 557.05 590.5 561.7 602.65 569.9 604.25 577.95 606.2 571.45 596.25 561.7 587 571.45 596.25 577.95 606.2 578.85 607.6 579.7 609 586.3 613 593.55 613 593.45 611.65 593.25 610.25 591.4 595.65 582.7 581 591.4 595.65 593.25 610.25 593.45 611.65 593.55 613 593.65 614.5 593.7 616 597.95 621.4 607.7 624 613.25 634.95 625.7 643 628.25 657.45 637.7 666.55 647.15 657.5 649.7 643.05 662.15 635 667.7 624.05 677.45 621.45 681.7 616.05 681.75 614.55 681.85 613.05 681.95 611.7 682.15 610.3 684 595.7 692.7 581.05 684 595.7 682.15 610.3 681.95 611.7 681.85 613.05 689.1 613.05 695.7 609.05 696.55 607.65 697.45 606.25 703.95 596.3 713.7 587.05 703.95 596.3 697.45 606.25 705.5 604.3 713.7 602.7 718.35 590.55 731.7 580.05 730.1 576.6 724.7 576.05 732.35 572.35 734.7 567.05 729.65 565.15 723.7 567.05 727.25 562.85 727.7 558.05 714.85 556.2 708.95 562.75 712.95 558.1 714.7 553.05 708.4 554.1 703.7 555.65 694.5 558.65 691.4 563.65 693.25 559.65 692.7 555.05 673.75 559.05 666.7 571.05
M 649.7 633.05
Q 651 626.7 652.7 620.35 657.6 601.7 665.7 583.05 657.6 601.7 652.7 620.35 651 626.7 649.7 633.05
M 625.7 633
Q 624.4 626.65 622.7 620.3 617.8 601.65 609.7 583 617.8 601.65 622.7 620.3 624.4 626.65 625.7 633 Z"/>

<path fill="#FFFFFF" stroke="none" d="
M 679.7 538.05
Q 683.15 535.05 682.7 531.05 670.4 526.55 659.35 533.6 664.1 530.25 663.25 523.1 654.35 521.2 649.7 523.05 649.4 519.3 646.7 514.05 639.25 517.2 637.7 511.5 636.1 517.15 628.7 514 626 519.25 625.7 523 621.05 521.15 612.15 523.05 611.3 530.2 616.05 533.55 605 526.5 592.7 531 592.25 535 595.7 538 585.8 533.25 573.7 535 570.55 545.6 577.7 554
L 571.7 555.6
Q 580.9 558.6 584 563.6 582.15 559.6 582.7 555 601.65 559 608.7 571 609.35 566.1 615.7 562 619.85 571.35 620.55 581.15 621.05 572.8 626.7 565 630.7 569.95 631.3 575.3 631.35 551.6 637.7 529 644.05 551.65 644.1 575.35 644.7 570 648.7 565.05 654.35 572.85 654.85 581.2 655.55 571.4 659.7 562.05 666.05 566.15 666.7 571.05 673.75 559.05 692.7 555.05 693.25 559.65 691.4 563.65 694.5 558.65 703.7 555.65
L 697.7 554.05
Q 704.85 545.65 701.7 535.05 689.6 533.3 679.7 538.05 Z"/>
</g>

<g id="Layer10_0_FILL">
<path fill="#D0D2C5" fill-opacity="0.9686274509803922" stroke="none" d="
M 788.15 724.1
L 788.15 724.15
Q 797.5 749.95 829.5 762.55 836.95 763.3 848.15 754.55 845.5 745.1 831.05 739.55 850.05 742.15 867.15 729.55 856 716.3 829.6 710.65 846.25 711.4 855.15 700.55
L 846.15 689.55
Q 835.15 680.45 825.1 682.6 798.209375 693.0962890625 788.15 724.1 Z"/>
</g>

<g id="Layer9_0_FILL">
<path fill="#CE994E" stroke="none" d="
M 540.65 675.7
Q 526.2 676.25 515.55 686.95 502.5 699.95 502.5 718.5 502.5 736.9 515.55 750 526.2 760.65 540.55 762.6 574.95 764.5 600.4 731.15 606.95 722.5 603.15 711.1 584.3 673.95 540.65 675.7
M 530.5 704.75
Q 540.7 699.2 561.1 705.8 581.55 712.4 598.5 720.3 590.4 730 582.7 736.75 566.7 750.7 552.7 752 527.4 754.25 508.5 714.8 520.35 710.3 530.5 704.75
M 762.4 686.85
Q 751.75 676.15 737.3 675.6 693.65 673.85 674.8 711 671 722.4 677.55 731.05 703 764.4 737.4 762.5 751.75 760.55 762.4 749.9 775.45 736.8 775.45 718.4 775.45 699.85 762.4 686.85
M 679.45 720.2
Q 696.3876953125 712.2990234375 716.8 705.7 737.262109375 699.0923828125 747.4 704.65 757.5908203125 710.216796875 769.45 714.7 750.55 754.15 725.25 751.9 711.25 750.6 695.25 736.65 687.55 729.9 679.45 720.2 Z"/>
</g>

<g id="Symbole_73_0_Layer0_0_FILL">
<path fill="#B77F42" fill-opacity="0.9686274509803922" stroke="none" d="
M 847.35 115.15
Q 882.55 91.2 896.35 97.25 852.05 -4.9 710.7 22 708.45 35.2 698.35 46.15 703.45 56.15 695.35 66.15 699.2 74.65 690.35 83.15 696.3 95.35 683.35 104.15 688.4 121.7 664.7 143.15 666.9 163.35 666.05 183.15 664.95 210.5 655.35 232.15 682.35 253.35 758.35 236.15 826.2 220.65 847.35 115.15
M 216.4 46.15
Q 206.3 35.2 204.05 22 62.7 -4.9 18.4 97.25 32.2 91.2 67.4 115.15 88.55 220.65 156.4 236.15 232.4 253.35 259.4 232.15 249.8 210.5 248.7 183.15 247.85 163.35 250.05 143.15 226.35 121.7 231.4 104.15 218.45 95.35 224.4 83.15 215.55 74.65 219.4 66.15 211.3 56.15 216.4 46.15 Z"/>

<path fill="#333333" fill-opacity="0.9686274509803922" stroke="none" d="
M 274.85 41.45
Q 286.8 45.6 305.9 54 316.1 49.9 327.55 46.35 296.85 32.35 280 26.55 55.35 -51.4 0.55 99.4 -0.6 102.45 0.75 105.45 2.1 108.4 5.15 109.55 8.2 110.65 11.2 109.3 14.15 107.95 15.3 104.9 16.8 101 18.4 97.25 16.75 98 15.4 99.15 16.75 98 18.4 97.25 62.7 -4.9 204.05 22 203.35 18 203.4 13.8 203.35 18 204.05 22 236.85 28.25 274.85 41.45
M 355.9 119.4
Q 347.6 121.75 341 128.35 330.65 138.7 330.65 153.35 330.65 168 341 178.35 350.45 187.8 363.45 188.65 378.7 187.25 396.1 172.05 401.35 163.8 401.35 153.35 401.35 142.5 395.65 134.05 375.8 116.1 355.9 119.4
M 367.6 129.65
Q 377.45 129.65 384.4 136.6 391.35 143.55 391.35 153.4 391.35 163.25 384.4 170.2 377.45 177.15 367.6 177.15 357.75 177.15 350.8 170.2 343.85 163.25 343.85 153.4 343.85 143.55 350.8 136.6 357.75 129.65 367.6 129.65
M 380.7 145.05
Q 376.7 141.1 371.05 141.1 365.4 141.1 361.45 145.05 357.45 149.05 357.45 154.7 357.45 160.35 361.45 164.3 365.4 168.3 371.05 168.3 376.7 168.3 380.7 164.3 384.65 160.35 384.65 154.7 384.65 149.05 380.7 145.05
M 337.15 65.55
Q 339.85 64.5 341.25 62.1 334.25 62.55 327.7 63.75 329.35 64.5 331.1 65.3 334.1 66.65 337.15 65.55
M 329.1 47.05
Q 328.3 46.7 327.55 46.35 316.1 49.9 305.9 54 313.65 57.35 322.55 61.4
L 322.55 61.35
Q 325.05 62.5 327.7 63.75 334.25 62.55 341.25 62.1 341.4 61.75 341.55 61.45 342.9 58.45 341.8 55.4 340.65 52.35 337.7 51 333.25 48.95 329.1 47.05
M 469.4 180.4
Q 469.4 182.15 470.65 183.4 471.9 184.65 473.65 184.65 475.4 184.65 476.65 183.4 477.9 182.15 477.9 180.4 477.9 178.65 476.65 177.4 475.4 176.15 473.65 176.15 471.9 176.15 470.65 177.4 469.4 178.65 469.4 180.4
M 441.1 176.15
Q 439.35 176.15 438.1 177.4 436.85 178.65 436.85 180.4 436.85 182.15 438.1 183.4 439.35 184.65 441.1 184.65 442.85 184.65 444.1 183.4 445.35 182.15 445.35 180.4 445.35 178.65 444.1 177.4 442.85 176.15 441.1 176.15
M 587.2 46.35
Q 598.65 49.9 608.85 54 627.95 45.6 639.9 41.45 677.9 28.25 710.7 22 711.4 18 711.35 13.8 711.4 18 710.7 22 852.05 -4.9 896.35 97.25 898 98 899.35 99.15 898 98 896.35 97.25 897.95 101 899.45 104.9 900.6 107.95 903.55 109.3 906.55 110.65 909.6 109.55 912.65 108.4 914 105.45 915.35 102.45 914.2 99.4 859.4 -51.4 634.75 26.55 617.9 32.35 587.2 46.35
M 587.2 46.35
Q 586.45 46.7 585.65 47.05 581.5 48.95 577.05 51 574.1 52.35 572.95 55.4 571.85 58.45 573.2 61.45 573.35 61.75 573.5 62.1 574.9 64.5 577.6 65.55 580.65 66.65 583.65 65.3 585.4 64.5 587.05 63.75 589.7 62.5 592.2 61.35
L 592.2 61.4
Q 601.1 57.35 608.85 54 598.65 49.9 587.2 46.35
M 513.4 153.35
Q 513.4 163.8 518.65 172.05 536.05 187.25 551.3 188.65 564.3 187.8 573.75 178.35 584.1 168 584.1 153.35 584.1 138.7 573.75 128.35 567.15 121.75 558.85 119.4 538.95 116.1 519.1 134.05 513.4 142.5 513.4 153.35
M 530.35 136.6
Q 537.3 129.65 547.15 129.65 557 129.65 563.95 136.6 570.9 143.55 570.9 153.4 570.9 163.25 563.95 170.2 557 177.15 547.15 177.15 537.3 177.15 530.35 170.2 523.4 163.25 523.4 153.4 523.4 143.55 530.35 136.6
M 543.7 141.1
Q 538.05 141.1 534.05 145.05 530.1 149.05 530.1 154.7 530.1 160.35 534.05 164.3 538.05 168.3 543.7 168.3 549.35 168.3 553.3 164.3 557.3 160.35 557.3 154.7 557.3 149.05 553.3 145.05 549.35 141.1 543.7 141.1 Z"/>

<path fill="#775723" fill-opacity="0.9686274509803922" stroke="none" d="
M 265.4 75.15
Q 282.5 63.25 305.9 54 286.8 45.6 274.85 41.45 236.85 28.25 204.05 22 206.3 35.2 216.4 46.15 211.3 56.15 219.4 66.15 215.55 74.65 224.4 83.15 218.45 95.35 231.4 104.15 226.35 121.7 250.05 143.15 251.4 130.7 253.85 118.15 258 96.85 265.4 75.15
M 322.55 61.35
L 322.55 61.4
Q 313.65 57.35 305.9 54 282.5 63.25 265.4 75.15 258 96.85 253.85 118.15 278.45 72.35 327.7 63.75 325.05 62.5 322.55 61.35
M 371.6 241.25
Q 370.95 240.7 370.35 240.15 365.4 235.8 363.25 231.8 362.65 232.1 362.05 232.4 295.1 266.4 268.15 248.15 280.45 266.65 300.4 279.95 335.8 303.5 395.25 310.65 395.45 310.7 395.7 310.7 401.55 311.4 407.65 311.95 406.8 311.35 406 310.7 377.45 279.05 371.6 241.25
M 639.9 41.45
Q 627.95 45.6 608.85 54 632.25 63.25 649.35 75.15 656.75 96.85 660.9 118.15 663.35 130.7 664.7 143.15 688.4 121.7 683.35 104.15 696.3 95.35 690.35 83.15 699.2 74.65 695.35 66.15 703.45 56.15 698.35 46.15 708.45 35.2 710.7 22 677.9 28.25 639.9 41.45
M 585.65 47.05
Q 586.45 46.7 587.2 46.35 569.7 40.85 549.35 36.5 546.95 35.85 544.5 35.3 528.25 31.55 510.4 31.55 481.95 31.55 457.35 41.05 432.8 31.55 404.35 31.55 386.5 31.55 370.25 35.3 367.8 35.85 365.4 36.5 345.05 40.85 327.55 46.35 328.3 46.7 329.1 47.05 333.25 48.95 337.7 51 340.65 52.35 341.8 55.4 342.9 58.45 341.55 61.45 341.4 61.75 341.25 62.1 358.05 60.9 377.4 63.5 443.95 72.55 451.1 132.95 452.65 145.95 451.45 161.4 453.8 161.15 456.35 161.15 456.85 161.15 457.35 161.15
L 457.4 161.15
Q 457.9 161.15 458.4 161.15 460.95 161.15 463.35 161.4 472 162.3 478.55 166.55 485.4 171.05 486.65 177 496.15 182.25 503.95 187.8 516.45 196.65 524.4 206.15
L 541.4 212.15
Q 553.95 218.45 553.25 226.6 553 229.1 551.55 231.8 549.35 235.8 544.4 240.15 543.8 240.7 543.2 241.25 537.3 279.05 508.75 310.7 507.95 311.35 507.1 311.95 513.2 311.4 519.05 310.7 519.3 310.7 519.5 310.65 578.95 303.5 614.35 279.95 634.3 266.65 646.6 248.15 651.6 240.6 655.35 232.15 664.95 210.5 666.05 183.15 666.9 163.35 664.7 143.15 663.35 130.7 660.9 118.15 656.75 96.85 649.35 75.15 632.25 63.25 608.85 54 601.1 57.35 592.2 61.4
L 592.2 61.35
Q 589.7 62.5 587.05 63.75 585.4 64.5 583.65 65.3 580.65 66.65 577.6 65.55 574.9 64.5 573.5 62.1 573.35 61.75 573.2 61.45 571.85 58.45 572.95 55.4 574.1 52.35 577.05 51 581.5 48.95 585.65 47.05
M 496.4 144.15
Q 516.9 103.65 564.4 105.55 580.1 106.2 591.7 117.8 605.9 132 605.9 152.15 605.9 172.25 591.7 186.45 580.1 198.05 564.5 200.2 527.1 202.25 499.4 166 492.2 156.55 496.4 144.15 Z"/>

<path fill="#E2E4D6" fill-opacity="0.9686274509803922" stroke="none" d="
M 420.3 270.5
Q 410.45 265.5 407.1 259.15 384.05 251.95 371.6 241.25 377.45 279.05 406 310.7 406.8 311.35 407.65 311.95
L 457.35 320.05 507.1 311.95
Q 507.95 311.35 508.75 310.7 537.3 279.05 543.2 241.25 530.7 251.95 507.65 259.15 504.3 265.5 494.45 270.5 479.55 278.15 458.4 278.15 457.9 278.15 457.4 278.15
L 457.35 278.15
Q 456.85 278.15 456.35 278.15 435.2 278.15 420.3 270.5
M 341.25 62.1
Q 339.85 64.5 337.15 65.55 334.1 66.65 331.1 65.3 329.35 64.5 327.7 63.75 278.45 72.35 253.85 118.15 251.4 130.7 250.05 143.15 247.85 163.35 248.7 183.15 249.8 210.5 259.4 232.15 263.15 240.6 268.15 248.15 295.1 266.4 362.05 232.4 362.65 232.1 363.25 231.8 361.75 229.1 361.5 226.6 360.8 218.45 373.35 212.15
L 390.35 206.15
Q 398.3 196.65 410.8 187.8 418.6 182.25 428.1 177 429.35 171.05 436.2 166.55 442.75 162.3 451.45 161.4 452.65 145.95 451.1 132.95 443.95 72.55 377.4 63.5 358.05 60.9 341.25 62.1
M 418.35 144.15
Q 422.55 156.55 415.35 166 387.65 202.25 350.25 200.2 334.65 198.05 323.05 186.45 308.85 172.25 308.85 152.15 308.85 132 323.05 117.8 334.65 106.2 350.35 105.55 397.85 103.65 418.35 144.15 Z"/>

<path fill="#CE994E" fill-opacity="0.9686274509803922" stroke="none" d="
M 415.35 166
Q 422.55 156.55 418.35 144.15 397.85 103.65 350.35 105.55 334.65 106.2 323.05 117.8 308.85 132 308.85 152.15 308.85 172.25 323.05 186.45 334.65 198.05 350.25 200.2 387.65 202.25 415.35 166
M 366 118
Q 380.65 118 391 128.35 393.7 131.05 395.65 134.05 404.5 142 413.35 154.15 404.5 164.7 396.1 172.05 378.7 187.25 363.45 188.65 335.9 191.1 315.35 148.15 335.65 122.7 355.9 119.4 360.7 118 366 118
M 503.95 187.8
Q 496.15 182.25 486.65 177 485.4 171.05 478.55 166.55 472 162.3 463.35 161.4 463.35 161.55 463.35 161.7 463.35 161.55 463.35 161.4 460.95 161.15 458.4 161.15 457.9 161.15 457.4 161.15
L 457.35 161.15
Q 456.85 161.15 456.35 161.15 453.8 161.15 451.45 161.4 451.4 161.55 451.4 161.7 451.4 161.55 451.45 161.4 442.75 162.3 436.2 166.55 429.35 171.05 428.1 177 418.6 182.25 410.8 187.8 398.3 196.65 390.35 206.15
L 373.35 212.15
Q 360.8 218.45 361.5 226.6 361.75 229.1 363.25 231.8 365.4 235.8 370.35 240.15 370.95 240.7 371.6 241.25 384.05 251.95 407.1 259.15 410.45 265.5 420.3 270.5 435.2 278.15 456.35 278.15 456.85 278.15 457.35 278.15
L 457.4 278.15
Q 457.9 278.15 458.4 278.15 479.55 278.15 494.45 270.5 504.3 265.5 507.65 259.15 530.7 251.95 543.2 241.25 543.8 240.7 544.4 240.15 549.35 235.8 551.55 231.8 553 229.1 553.25 226.6 553.95 218.45 541.4 212.15
L 524.4 206.15
Q 516.45 196.65 503.95 187.8
M 438.1 177.4
Q 439.35 176.15 441.1 176.15 442.85 176.15 444.1 177.4 445.35 178.65 445.35 180.4 445.35 182.15 444.1 183.4 442.85 184.65 441.1 184.65 439.35 184.65 438.1 183.4 436.85 182.15 436.85 180.4 436.85 178.65 438.1 177.4
M 470.65 183.4
Q 469.4 182.15 469.4 180.4 469.4 178.65 470.65 177.4 471.9 176.15 473.65 176.15 475.4 176.15 476.65 177.4 477.9 178.65 477.9 180.4 477.9 182.15 476.65 183.4 475.4 184.65 473.65 184.65 471.9 184.65 470.65 183.4
M 421.35 231.15
Q 430.85 224.05 457.35 222.6 483.9 224.05 493.4 231.15 504.9 240.65 536.4 230.15 504.9 240.65 493.4 231.15 483.9 224.05 457.35 222.6 430.85 224.05 421.35 231.15 409.85 240.65 378.35 230.15 409.85 240.65 421.35 231.15
M 564.4 105.55
Q 516.9 103.65 496.4 144.15 492.2 156.55 499.4 166 527.1 202.25 564.5 200.2 580.1 198.05 591.7 186.45 605.9 172.25 605.9 152.15 605.9 132 591.7 117.8 580.1 106.2 564.4 105.55
M 548.75 118
Q 554.05 118 558.85 119.4 579.1 122.7 599.4 148.15 578.85 191.1 551.3 188.65 536.05 187.25 518.65 172.05 510.25 164.7 501.4 154.15 510.25 142 519.1 134.05 521.05 131.05 523.75 128.35 534.1 118 548.75 118 Z"/>

<path fill="#FFFFFF" fill-opacity="0.9686274509803922" stroke="none" d="
M 401.35 153.35
Q 401.35 163.8 396.1 172.05 404.5 164.7 413.35 154.15 404.5 142 395.65 134.05 401.35 142.5 401.35 153.35
M 341 128.35
Q 347.6 121.75 355.9 119.4 335.65 122.7 315.35 148.15 335.9 191.1 363.45 188.65 350.45 187.8 341 178.35 330.65 168 330.65 153.35 330.65 138.7 341 128.35
M 584.1 153.35
Q 584.1 168 573.75 178.35 564.3 187.8 551.3 188.65 578.85 191.1 599.4 148.15 579.1 122.7 558.85 119.4 567.15 121.75 573.75 128.35 584.1 138.7 584.1 153.35
M 518.65 172.05
Q 513.4 163.8 513.4 153.35 513.4 142.5 519.1 134.05 510.25 142 501.4 154.15 510.25 164.7 518.65 172.05 Z"/>

<path fill="#A25317" fill-opacity="0.9686274509803922" stroke="none" d="
M 384.4 136.6
Q 377.45 129.65 367.6 129.65 357.75 129.65 350.8 136.6 343.85 143.55 343.85 153.4 343.85 163.25 350.8 170.2 357.75 177.15 367.6 177.15 377.45 177.15 384.4 170.2 391.35 163.25 391.35 153.4 391.35 143.55 384.4 136.6
M 371.05 141.1
Q 376.7 141.1 380.7 145.05 384.65 149.05 384.65 154.7 384.65 160.35 380.7 164.3 376.7 168.3 371.05 168.3 365.4 168.3 361.45 164.3 357.45 160.35 357.45 154.7 357.45 149.05 361.45 145.05 365.4 141.1 371.05 141.1
M 547.15 129.65
Q 537.3 129.65 530.35 136.6 523.4 143.55 523.4 153.4 523.4 163.25 530.35 170.2 537.3 177.15 547.15 177.15 557 177.15 563.95 170.2 570.9 163.25 570.9 153.4 570.9 143.55 563.95 136.6 557 129.65 547.15 129.65
M 534.05 145.05
Q 538.05 141.1 543.7 141.1 549.35 141.1 553.3 145.05 557.3 149.05 557.3 154.7 557.3 160.35 553.3 164.3 549.35 168.3 543.7 168.3 538.05 168.3 534.05 164.3 530.1 160.35 530.1 154.7 530.1 149.05 534.05 145.05 Z"/>
</g>

<path id="Layer16_0_1_STROKES" stroke="#000000" stroke-opacity="0.2" stroke-width="8" stroke-linejoin="round" stroke-linecap="round" fill="none" d="
M 552.5 844
Q 551.65 845.65 550.95 847.3 545.7 858.5 541.5 869.7 541 871.05 540.6 872.45 532.25 895.25 527.95 918 525.15 932.85 522.2 956.85
M 754.75 953.85
Q 754.5 948.05 753.95 942.25 752.8 929.3 750.3 916.4 743.85 883.1 728.7 849.75"/>

<path id="Layer15_0_1_STROKES" stroke="#CE994E" stroke-width="16" stroke-linejoin="round" stroke-linecap="round" fill="none" d="
M 827.2 609.1
L 1071.15 527.15
M 448.7 609.1
L 204.75 527.15"/>

<path id="Layer14_0_1_STROKES" stroke="#000000" stroke-opacity="0.2" stroke-width="8" stroke-linejoin="round" stroke-linecap="round" fill="none" d="
M 638.05 783.15
Q 638.45 783.15 638.95 783.1 663.35 784.4 672.1 790.95 682.6 799.7 711.55 790
M 638.05 783.15
Q 614.4 784.6 605.85 790.95 595.3 799.7 566.35 790"/>

<path id="Layer13_0_1_STROKES" stroke="#E2E4D6" stroke-width="16" stroke-linejoin="round" stroke-linecap="round" fill="none" d="
M 502.7 723
Q 482.6951171875 725.03984375 468 720"/>

<path id="Layer11_0_1_STROKES" stroke="#000000" stroke-opacity="0.09803921568627451" stroke-width="6" stroke-linejoin="round" stroke-linecap="round" fill="none" d="
M 681.85 613.05
Q 681.95 611.7 682.15 610.3 684 595.7 692.7 581.05
M 649.7 633.05
Q 651 626.7 652.7 620.35 657.6 601.7 665.7 583.05
M 697.45 606.25
Q 703.95 596.3 713.7 587.05
M 625.7 633
Q 624.4 626.65 622.7 620.3 617.8 601.65 609.7 583
M 593.55 613
Q 593.45 611.65 593.25 610.25 591.4 595.65 582.7 581
M 577.95 606.2
Q 571.45 596.25 561.7 587"/>

<path id="Layer10_0_1_STROKES" stroke="#D0D2C5" stroke-width="16" stroke-linejoin="round" stroke-linecap="round" fill="none" d="
M 775.45 723.55
Q 782.096484375 724.23125 788.15 724.125"/>

<path id="Symbole_73_0_Layer0_0_1_STROKES" stroke="#333333" stroke-opacity="0.9686274509803922" stroke-width="1" stroke-linejoin="round" stroke-linecap="round" fill="none" d="
M 587.2 46.35
Q 569.7 40.85 549.35 36.5 546.95 35.85 544.5 35.3 528.25 31.55 510.4 31.55 481.95 31.55 457.35 41.05 432.8 31.55 404.35 31.55 386.5 31.55 370.25 35.3 367.8 35.85 365.4 36.5 345.05 40.85 327.55 46.35
M 341.25 62.1
Q 358.05 60.9 377.4 63.5 443.95 72.55 451.1 132.95 452.65 145.95 451.45 161.4 453.8 161.15 456.35 161.15 456.85 161.15 457.35 161.15
L 457.4 161.15
Q 457.9 161.15 458.4 161.15 460.95 161.15 463.35 161.4 472 162.3 478.55 166.55 485.4 171.05 486.65 177 496.15 182.25 503.95 187.8 516.45 196.65 524.4 206.15
L 541.4 212.15
Q 553.95 218.45 553.25 226.6 553 229.1 551.55 231.8 549.35 235.8 544.4 240.15 543.8 240.7 543.2 241.25 537.3 279.05 508.75 310.7 507.95 311.35 507.1 311.95 513.2 311.4 519.05 310.7 519.3 310.7 519.5 310.65 578.95 303.5 614.35 279.95 634.3 266.65 646.6 248.15 651.6 240.6 655.35 232.15 664.95 210.5 666.05 183.15 666.9 163.35 664.7 143.15 663.35 130.7 660.9 118.15 656.75 96.85 649.35 75.15 632.25 63.25 608.85 54 598.65 49.9 587.2 46.35
M 896.35 97.25
Q 882.55 91.2 847.35 115.15 826.2 220.65 758.35 236.15 682.35 253.35 655.35 232.15
M 519.1 134.05
Q 521.05 131.05 523.75 128.35 534.1 118 548.75 118 554.05 118 558.85 119.4 579.1 122.7 599.4 148.15 578.85 191.1 551.3 188.65 536.05 187.25 518.65 172.05 510.25 164.7 501.4 154.15 510.25 142 519.1 134.05 538.95 116.1 558.85 119.4 567.15 121.75 573.75 128.35 584.1 138.7 584.1 153.35 584.1 168 573.75 178.35 564.3 187.8 551.3 188.65
M 543.7 141.1
Q 549.35 141.1 553.3 145.05 557.3 149.05 557.3 154.7 557.3 160.35 553.3 164.3 549.35 168.3 543.7 168.3 538.05 168.3 534.05 164.3 530.1 160.35 530.1 154.7 530.1 149.05 534.05 145.05 538.05 141.1 543.7 141.1 Z
M 547.15 129.65
Q 557 129.65 563.95 136.6 570.9 143.55 570.9 153.4 570.9 163.25 563.95 170.2 557 177.15 547.15 177.15 537.3 177.15 530.35 170.2 523.4 163.25 523.4 153.4 523.4 143.55 530.35 136.6 537.3 129.65 547.15 129.65 Z
M 518.65 172.05
Q 513.4 163.8 513.4 153.35 513.4 142.5 519.1 134.05
M 327.7 63.75
Q 334.25 62.55 341.25 62.1
M 305.9 54
Q 282.5 63.25 265.4 75.15 258 96.85 253.85 118.15 278.45 72.35 327.7 63.75
M 371.05 141.1
Q 365.4 141.1 361.45 145.05 357.45 149.05 357.45 154.7 357.45 160.35 361.45 164.3 365.4 168.3 371.05 168.3 376.7 168.3 380.7 164.3 384.65 160.35 384.65 154.7 384.65 149.05 380.7 145.05 376.7 141.1 371.05 141.1 Z
M 367.6 129.65
Q 357.75 129.65 350.8 136.6 343.85 143.55 343.85 153.4 343.85 163.25 350.8 170.2 357.75 177.15 367.6 177.15 377.45 177.15 384.4 170.2 391.35 163.25 391.35 153.4 391.35 143.55 384.4 136.6 377.45 129.65 367.6 129.65 Z
M 441.1 176.15
Q 439.35 176.15 438.1 177.4 436.85 178.65 436.85 180.4 436.85 182.15 438.1 183.4 439.35 184.65 441.1 184.65 442.85 184.65 444.1 183.4 445.35 182.15 445.35 180.4 445.35 178.65 444.1 177.4 442.85 176.15 441.1 176.15 Z
M 451.45 161.4
Q 442.75 162.3 436.2 166.55 429.35 171.05 428.1 177 418.6 182.25 410.8 187.8 398.3 196.65 390.35 206.15
L 373.35 212.15
Q 360.8 218.45 361.5 226.6 361.75 229.1 363.25 231.8 365.4 235.8 370.35 240.15 370.95 240.7 371.6 241.25 384.05 251.95 407.1 259.15 410.45 265.5 420.3 270.5 435.2 278.15 456.35 278.15 456.85 278.15 457.35 278.15
L 457.4 278.15
Q 457.9 278.15 458.4 278.15 479.55 278.15 494.45 270.5 504.3 265.5 507.65 259.15 530.7 251.95 543.2 241.25
M 451.4 161.7
Q 451.4 161.55 451.45 161.4
M 463.35 161.7
Q 463.35 161.55 463.35 161.4
M 469.4 180.4
Q 469.4 178.65 470.65 177.4 471.9 176.15 473.65 176.15 475.4 176.15 476.65 177.4 477.9 178.65 477.9 180.4 477.9 182.15 476.65 183.4 475.4 184.65 473.65 184.65 471.9 184.65 470.65 183.4 469.4 182.15 469.4 180.4 Z
M 268.15 248.15
Q 295.1 266.4 362.05 232.4 362.65 232.1 363.25 231.8
M 407.65 311.95
Q 401.55 311.4 395.7 310.7 395.45 310.7 395.25 310.65 335.8 303.5 300.4 279.95 280.45 266.65 268.15 248.15 263.15 240.6 259.4 232.15 232.4 253.35 156.4 236.15 88.55 220.65 67.4 115.15 32.2 91.2 18.4 97.25
M 305.9 54
Q 316.1 49.9 327.55 46.35
M 204.05 22
Q 206.3 35.2 216.4 46.15 211.3 56.15 219.4 66.15 215.55 74.65 224.4 83.15 218.45 95.35 231.4 104.15 226.35 121.7 250.05 143.15 251.4 130.7 253.85 118.15
M 371.6 241.25
Q 377.45 279.05 406 310.7 406.8 311.35 407.65 311.95
L 457.35 320.05 507.1 311.95
M 204.05 22
Q 203.35 18 203.4 13.8
M 259.4 232.15
Q 249.8 210.5 248.7 183.15 247.85 163.35 250.05 143.15
M 18.4 97.25
Q 16.75 98 15.4 99.15
M 896.35 97.25
Q 898 98 899.35 99.15
M 710.7 22
Q 711.4 18 711.35 13.8
M 664.7 143.15
Q 688.4 121.7 683.35 104.15 696.3 95.35 690.35 83.15 699.2 74.65 695.35 66.15 703.45 56.15 698.35 46.15 708.45 35.2 710.7 22"/>

<path id="Symbole_73_0_Layer0_0_2_STROKES" stroke="#333333" stroke-width="8" stroke-linejoin="round" stroke-linecap="round" fill="none" d="
M 496.4 144.15
Q 492.2 156.55 499.4 166 527.1 202.25 564.5 200.2 580.1 198.05 591.7 186.45 605.9 172.25 605.9 152.15 605.9 132 591.7 117.8 580.1 106.2 564.4 105.55 516.9 103.65 496.4 144.15 Z
M 415.35 166
Q 387.65 202.25 350.25 200.2 334.65 198.05 323.05 186.45 308.85 172.25 308.85 152.15 308.85 132 323.05 117.8 334.65 106.2 350.35 105.55 397.85 103.65 418.35 144.15 422.55 156.55 415.35 166 Z"/>

<path id="Symbole_73_0_Layer0_0_3_STROKES" stroke="#000000" stroke-opacity="0.2" stroke-width="8" stroke-linejoin="round" stroke-linecap="round" fill="none" d="
M 378.35 230.15
Q 409.85 240.65 421.35 231.15 430.85 224.05 457.35 222.6 483.9 224.05 493.4 231.15 504.9 240.65 536.4 230.15"/>
</defs>

<g transform="matrix( 1, 0, 0, 1, 0,0) ">
<use xlink:href="#Layer17_0_FILL"/>
</g>

<g transform="matrix( 1, 0, 0, 1, 0,0) ">
<use xlink:href="#Layer16_0_1_STROKES"/>
</g>

<g transform="matrix( 1, 0, 0, 1, 0,0) ">
<use xlink:href="#Layer15_0_FILL"/>

<use xlink:href="#Layer15_0_1_STROKES"/>
</g>

<g transform="matrix( 1, 0, 0, 1, 0,0) ">
<use xlink:href="#Layer14_0_FILL"/>

<use xlink:href="#Layer14_0_1_STROKES"/>
</g>

<g transform="matrix( 1, 0, 0, 1, 0,0) ">
<use xlink:href="#Layer13_0_1_STROKES"/>
</g>

<g transform="matrix( 1, 0, 0, 1, 0,0) ">
<use xlink:href="#Layer12_0_FILL"/>
</g>

<g transform="matrix( 1, 0, 0, 1, 0,0) ">
<use xlink:href="#Layer11_0_FILL"/>

<use xlink:href="#Layer11_0_1_STROKES"/>
</g>

<g transform="matrix( 1, 0, 0, 1, 0,0) ">
<use xlink:href="#Layer10_0_FILL"/>

<use xlink:href="#Layer10_0_1_STROKES"/>
</g>

<g transform="matrix( 1, 0, 0, 1, 0,0) ">
<use xlink:href="#Layer9_0_FILL"/>
</g>

<g transform="matrix( 1, 0, 0, 1, 2111.9,-229.05) ">
<g transform="matrix( 1, 0, 0, 1, 0,0) ">
<use xlink:href="#Symbole_73_0_Layer0_0_FILL"/>

<use xlink:href="#Symbole_73_0_Layer0_0_1_STROKES"/>

<use xlink:href="#Symbole_73_0_Layer0_0_2_STROKES"/>

<use xlink:href="#Symbole_73_0_Layer0_0_3_STROKES"/>
</g>
</g>
</svg>
