
<svg xmlns="http://www.w3.org/2000/svg" version="1.1" xmlns:xlink="http://www.w3.org/1999/xlink" preserveAspectRatio="none" x="0px" y="0px" width="1280px" height="1024px" viewBox="0 0 1280 1024">
<defs>
<g id="Layer10_0_FILL">
<path fill="#34608C" stroke="none" d="
M 512.75 593.5
Q 508.2130859375 591.468359375 503.55 593.2 498.937890625 594.9755859375 496.85 599.5 495.4111328125 602.72578125 495.85 606 496.0671875 607.33515625 496.55 608.65 498.326953125 613.31015625 502.8 615.35 503.5423828125 615.7 504.3 616
L 504.05 615.9
Q 541.8783203125 632.7734375 579.35 640.3
L 579.3 640.3
Q 583.375 641.141796875 587.45 641.8
L 587.35 641.8
Q 595.5490234375 643.261328125 603.7 644.25
L 574 614.55
Q 548.544921875 608.5220703125 522.9 597.9 518.3923828125 596.024609375 513.85 594 513.701953125 593.946484375 513.55 593.85 513.1576171875 593.6998046875 512.75 593.5 Z"/>

<path fill="#2C5176" stroke="none" d="
M 774.8 593.2
Q 770.1869140625 591.468359375 765.6 593.5 765.0552734375 593.7873046875 764.5 594.05 759.91328125 596.1744140625 755.3 598.15 698.09765625 622.4904296875 640 622.45 615.8400390625 622.415625 591.5 618.15
L 591.45 618.15
Q 587.825 617.558203125 584.2 616.8
L 584.1 616.75
Q 579.0689453125 615.7564453125 574 614.55
L 603.7 644.25
Q 621.890625 646.4693359375 640 646.5 707.859375 646.583984375 774.55 615.85 774.7302734375 615.75859375 774.9 615.65 775.2345703125 615.525 775.55 615.35 780.073046875 613.31015625 781.8 608.65 782.3306640625 607.340625 782.5 606 782.9912109375 602.7310546875 781.5 599.5 779.4619140625 594.9755859375 774.8 593.2 Z"/>

<path fill="#E8A994" stroke="none" d="
M 743.2 486.1
L 742.3 479.25 638.2 480.15 535.9 479.25 535.05 486.1 536.25 486.1 522.9 597.9
Q 548.544921875 608.5220703125 574 614.55 579.0689453125 615.7564453125 584.1 616.75
L 584.2 616.8
Q 587.825 617.558203125 591.45 618.15
L 591.5 618.15
Q 615.8400390625 622.415625 640 622.45 698.09765625 622.4904296875 755.3 598.15
L 741.9 486.1 743.2 486.1 Z"/>

<path fill="#632121" stroke="none" d="
M 782.5 606
Q 782.3306640625 607.340625 781.8 608.65 780.073046875 613.31015625 775.55 615.35 775.2345703125 615.525 774.9 615.65 774.7302734375 615.75859375 774.55 615.85 707.859375 646.583984375 640 646.5 621.890625 646.4693359375 603.7 644.25
L 639 679.55 639 981.75 639 982.25 639.75 982.3
Q 639.9 982.3 640 982.3 640.7 982.3 641.35 982.3
L 641.35 981.95 644.75 981.6
Q 726.415625 979.286328125 807.55 966.45 811.1380859375 965.8861328125 814.7 965.3 825.1541015625 963.58828125 835.6 961.7 847.43359375 959.56171875 859.25 957.2 879.53359375 953.15078125 899.8 948.45 909.0294921875 946.3076171875 918.25 944 923.64140625 942.700390625 929 941.3 1003.387109375 922.2904296875 1077.35 894.4 1081.3181640625 892.9556640625 1085.25 891.45 1094.7 887.7625 1104.15 884
L 1160.8 859.6
Q 1145.7 770.85 1110.95 735.85 1072.1 696.7 998.8 692.15 969.295703125 672.6546875 940.65 657.5 898.59375 635.209375 858.4 622.25 836.26328125 615.1521484375 814.7 610.85 798.4494140625 607.6435546875 782.5 606 Z"/>

<path fill="#7A2929" stroke="none" d="
M 279.4 692.15
Q 206.15 696.7 167.3 735.85 132.5 770.85 117.4 859.6 155.167578125 876.6990234375 192.95 891.4 271.8763671875 921.6521484375 351.25 941.8 357.07109375 943.3078125 362.9 944.7 370.66953125 946.641796875 378.45 948.45 386.1197265625 950.23515625 393.8 951.9 404.598046875 954.2982421875 415.4 956.45 417.1775390625 956.84609375 418.95 957.2 430.76953125 959.56015625 442.6 961.7 455.7873046875 964.085546875 469 966.15 469.85 966.3119140625 470.7 966.45 471.5875 966.5869140625 472.45 966.7
L 473 966.35 473.85 966.95
Q 505.130859375 971.823046875 536.45 975.1 537.5265625 975.2359375 538.55 975.35 585.99765625 980.266015625 633.55 981.6 636.287109375 981.6853515625 639 981.75
L 639 679.55 603.7 644.25
Q 595.5490234375 643.261328125 587.35 641.8
L 587.45 641.8
Q 583.375 641.141796875 579.3 640.3
L 579.35 640.3
Q 541.8783203125 632.7734375 504.05 615.9
L 504.3 616
Q 503.5423828125 615.7 502.8 615.35 498.326953125 613.31015625 496.55 608.65 496.0671875 607.33515625 495.85 606 483.390625 607.26875 470.7 609.5 469.850390625 609.6697265625 469 609.8 445.85703125 614.0384765625 422.05 621.55 381.7732421875 634.2689453125 339.6 656.4 309.968359375 671.9515625 279.4 692.15 Z"/>

<path fill="#CF4835" stroke="none" d="
M 473 966.35
L 472.45 966.7
Q 472.95859375 966.8083984375 473.45 966.85 473.6478515625 966.9185546875 473.85 966.95
L 473 966.35 Z"/>
</g>

<g id="Layer9_0_FILL">
<path fill="#000000" fill-opacity="0.2" stroke="none" d="
M 574 654.25
Q 572.95 655.65 573.25 657.6 584.25 722.6 622.65 769.35 623.85 770.8 625.7 771 627.55 771.2 629 770 630.35 768.8 630.65 766.95 630.8 765.05 629.6 763.65 592.75 718.6 582.1 656.1 581.8 654.25 580.25 653.15 578.8 652.05 576.95 652.35 575.05 652.7 574 654.25
M 382.35 707.95
Q 380.95 709.2 380.7 711 380.55 712.8 381.8 714.3 383 715.7 384.8 715.9 456.3 722.85 541.3 755.8 543 756.4 544.7 755.7 546.4 754.9 547.1 753.2 547.8 751.4 547 749.75 546.25 748.1 544.6 747.45 458.2 713.9 385.65 706.9 383.8 706.7 382.35 707.95
M 735.3 751.15
Q 733.45 751.75 732.85 753.45 732.1 755.2 732.75 756.95 733.4 758.65 735.1 759.4 736.8 760.15 738.55 759.5 823.5 726.55 895.05 719.65 896.85 719.45 898 718 899.25 716.55 899.1 714.75 898.85 712.85 897.4 711.7 896 710.5 894.2 710.65 821.6 717.6 735.3 751.15
M 698.55 653.15
Q 697.05 654.25 696.7 656.1 686.1 718.6 649.2 763.65 648.05 765.05 648.2 766.95 648.45 768.8 649.9 770 651.25 771.2 653.2 771 655 770.8 656.25 769.35 694.5 722.6 705.55 657.6 705.9 655.65 704.75 654.25 703.7 652.7 701.9 652.35 700.1 652.05 698.55 653.15 Z"/>
</g>

<g id="Layer8_0_FILL">
<path fill="#7B7B7B" stroke="none" d="
M 795.25 224.75
Q 793.6 223.35 791.4 223.45 789.2 223.55 787.7 225.2 786.2 226.75 786.2 228.95
L 786.2 351.85 758.1 351.85
Q 755.8 351.85 754.2 353.45 752.6 355.05 752.6 357.35
L 752.6 457.75
Q 752.6 459.5 753.6 460.95 754.6 462.35 756.25 462.95 757.9 463.5 759.6 463.05 761.25 462.55 762.35 461.25
L 797.2 418.3 812.1 418.3
Q 813.7 418.3 815 417.45 816.35 416.6 817.05 415.2 817.75 413.75 817.55 412.2
L 797.15 228.35
Q 796.9 226.15 795.25 224.75 Z"/>

<path fill="#CCCCCC" stroke="none" d="
M 484.75 224.75
Q 483.1 226.15 482.85 228.35
L 462.45 412.2
Q 462.25 413.75 462.95 415.2 463.65 416.6 465 417.45 466.3 418.3 467.9 418.3
L 482.8 418.3 517.65 461.25
Q 518.75 462.55 520.4 463.05 522.1 463.5 523.75 462.95 525.4 462.35 526.4 460.95 527.4 459.5 527.4 457.75
L 527.4 357.35
Q 527.4 355.05 525.8 353.45 524.2 351.85 521.9 351.85
L 493.8 351.85 493.8 228.95
Q 493.8 226.75 492.3 225.2 490.8 223.55 488.6 223.45 486.4 223.35 484.75 224.75 Z"/>
</g>

<g id="Layer7_0_FILL">
<path fill="#F2C2A9" stroke="none" d="
M 639 253.15
Q 638.4 253.1 637.9 253.1 505.05 248.95 520.6 438.15
L 531.85 545.85
Q 534.85 570.85 541.55 579.6 548.8 589.45 557.2 598.45
L 557.2 598.5
Q 559.7 601.2 562.35 603.9 563.268359375 604.82890625 564.2 605.75 564.598828125 606.1357421875 565 606.5 568.1017578125 609.566015625 571.35 612.5 573.7 614.7 576.3 616.85 585.5 625.25 598.65 630 602.5 631.45 606.7 632.55 614.35 634.15 621.85 635.1 622.5 635.2 623 635.25
L 639.2 635.25 639.2 510.55 640.25 253.1
Q 639.6275390625 253.1265625 639 253.15 Z"/>

<path fill="#E8A994" stroke="none" d="
M 736.4 579.6
Q 743.1 570.85 746 545.85
L 757.3 438.15
Q 772.8767578125 249.0400390625 640.25 253.1
L 639.2 510.55 639.2 635.25 654.9 635.25
Q 655.45 635.2 656 635.1 663.6 634.15 671.2 632.55 675.4 631.45 679.25 630 692.45 625.25 701.65 616.85 704.25 614.7 706.6 612.5 711.2 608.3 715.6 603.9 715.725 603.7701171875 715.85 603.65 716.25078125 603.2220703125 716.65 602.8 718.716015625 600.6537109375 720.75 598.5
L 720.75 598.45
Q 729.15 589.45 736.4 579.6 Z"/>
</g>

<g id="Layer6_0_FILL">
<path fill="#AEAEAE" stroke="none" d="
M 639.2 243
Q 573.098828125 243.8203125 541.25 282 510.694921875 318.6515625 513 426.25
L 516 562
Q 530.7931640625 601.08359375 561 620.9
L 607 490 639.2 490 639.2 243 Z"/>

<path fill="#8F8F8F" stroke="none" d="
M 764 562
L 767 426.25
Q 769.3 318.65 738.75 282 706.7 243.6 640 243 639.5990234375 243.003515625 639.2 243
L 639.2 490 673 490 719 620.9
Q 749.2 601.1 764 562 Z"/>
</g>

<g id="Layer5_0_FILL">
<path fill="#FFFFFF" stroke="none" d="
M 611.4 460.15
Q 611.185546875 460.3236328125 610.95 460.5 611.0349609375 460.482421875 611.1 460.45 611.25 460.35 611.4 460.15 Z"/>
</g>

<g id="Layer4_0_FILL">
<path fill="#333333" stroke="none" d="
M 617.1 466.8
Q 617.6 466.4 618 465.95 618.4 465.55 618.75 465.1
L 626 456.1 616 450.75
Q 615.55 450.5 615.1 450.25 585.55 435.4 561.8 436.85 560.5 436.9 559.2 437.05
L 546 438.1 548.8 449.1
Q 552.5 463.5 566.8 472.75 567.4 473.1 568 473.4 593.2 485.3 615.7 467.9 615.95 467.65 616.25 467.45 616.45 467.3 616.7 467.1 616.85 466.95 617.1 466.8
M 731.55 449.1
L 734.35 438.1 721.15 437.05
Q 719.85 436.9 718.55 436.85 694.8 435.4 665.25 450.25 664.8 450.5 664.35 450.75
L 654.35 456.1 661.6 465.1
Q 661.95 465.55 662.35 465.95 662.75 466.4 663.25 466.8 663.5 466.95 663.65 467.1 663.9 467.3 664.1 467.45 664.4 467.65 664.65 467.9 687.15 485.3 712.35 473.4 712.95 473.1 713.55 472.75 727.85 463.5 731.55 449.1 Z"/>
</g>

<g id="Layer3_0_FILL">
<path fill="#FFFFFF" stroke="none" d="
M 668.95 459.55
Q 669 459.6 669 459.65 686.85 473.75 706.85 464.4 717.35 457.6 719.55 447.1 697 444.85 668.45 459.2 668.65 459.35 668.85 459.55 668.9 459.55 668.95 459.55
M 611 459.55
Q 611.2 459.35 611.4 459.2 582.85 444.85 560.3 447.1 562.5 457.6 573 464.4 593 473.75 610.85 459.65 610.85 459.6 610.9 459.55 610.95 459.55 611 459.55 Z"/>
</g>

<g id="Layer1_0_FILL">
<path fill="#FFBF00" stroke="none" d="
M 630.5 354.65
L 638.85 382.4 638.85 287.7 630.8 313.3 605.25 299.6 618.6 325.3 590.8 333.7 618.45 342.45 604.75 368.05 630.5 354.65
M 570.7 362.8
Q 585.4150390625 363.5333984375 596.25 387.75 604.676953125 406.4822265625 607.3 430.6 607.5533203125 432.683984375 609.1 434.1 610.7033203125 435.5052734375 612.8 435.5
L 639.05 435.5 639.05 424.5 617.65 424.5
Q 614.555859375 401.4953125 606.3 383.25 591.876953125 351.0490234375 570.7 351.8 549.5283203125 351.0529296875 535 383.25 521.896484375 412.376171875 521.9 453.55 521.902734375 485.812109375 530 510.7 530.6939453125 512.769921875 532.6 513.8 534.5216796875 514.8744140625 536.6 514.3
L 572.5 505.1 572.5 520
Q 572.49453125 522.28359375 574.1 523.9 575.71640625 525.50546875 578 525.5 580.28359375 525.50546875 581.9 523.9 583.50546875 522.28359375 583.5 520
L 583.5 498
Q 583.5046875 496.2890625 582.5 494.85 581.532421875 493.45703125 579.9 492.85 578.276171875 492.244140625 576.6 492.65
L 538.95 502.35
Q 532.8974609375 480.7365234375 532.9 453.55 532.9033203125 415.023828125 545.05 387.75 555.9796875 363.5291015625 570.7 362.8 Z"/>

<path fill="#CD9900" stroke="none" d="
M 659.9 325.65
L 673.65 300.05 647.9 313.45 639.5 285.65 638.85 287.7 638.85 382.4 647.6 354.75 673.2 368.5 659.8 342.75 687.55 334.35 659.9 325.65
M 707.7 351.8
Q 686.5228515625 351.0490234375 672.05 383.25 663.844140625 401.4953125 660.7 424.5
L 639.25 424.5
Q 639.2357421875 424.5 639.2 424.5
L 639.05 424.5 639.05 435.5 665.6 435.5
Q 667.6966796875 435.5052734375 669.25 434.1 670.8466796875 432.683984375 671.05 430.6 673.7228515625 406.4822265625 682.1 387.75 692.984765625 363.5333984375 707.7 362.8 722.4203125 363.5291015625 733.3 387.75 745.496484375 415.023828125 745.5 453.55 745.5025390625 480.7365234375 739.4 502.35
L 701.75 492.65
Q 700.12265625 492.2435546875 698.5 492.85 696.8677734375 493.4568359375 695.85 494.85 694.8951171875 496.2890625 694.9 498
L 694.9 520
Q 694.89453125 522.28359375 696.5 523.9 698.11640625 525.50546875 700.4 525.5 702.68359375 525.50546875 704.3 523.9 705.90546875 522.28359375 705.9 520
L 705.9 505.1 741.75 514.3
Q 743.879296875 514.874609375 745.8 513.8 747.70625 512.7701171875 748.35 510.7 756.4970703125 485.812109375 756.5 453.55 756.5033203125 412.376171875 743.35 383.25 728.8716796875 351.0529296875 707.7 351.8 Z"/>
</g>

<g id="Layer0_0_FILL">
<path fill="#FFFFFF" stroke="none" d="
M 652.75 334.4
Q 652.75 329.1 649 325.35 645.3 321.65 640 321.65 637.95 321.65 636.1 322.25 633.25 323.1 630.95 325.35 627.25 329.1 627.25 334.4 627.25 339.7 630.95 343.4 633.25 345.7 636.1 346.6 637.95 347.15 640 347.15 645.3 347.15 649 343.4 652.75 339.7 652.75 334.4 Z"/>
</g>

<path id="Layer9_0_1_STROKES" stroke="#000000" stroke-opacity="0.2" stroke-width="8" stroke-linejoin="round" stroke-linecap="round" fill="none" d="
M 640 830.05
L 640 960.6
M 265.1 837.15
Q 255.6 875 262.7 911.55
M 1011.9 834.65
Q 1021.4 872.45 1014.3 909.15"/>

<path id="Layer2_0_1_STROKES" stroke="#000000" stroke-opacity="0.2" stroke-width="7.85" stroke-linejoin="round" stroke-linecap="round" fill="none" d="
M 658.35 503.7
L 658.35 511.95 641.65 521.55 625 511.9 625 503.7"/>

<path id="Layer2_0_2_STROKES" stroke="#000000" stroke-opacity="0.2" stroke-width="8" stroke-linejoin="round" stroke-linecap="round" fill="none" d="
M 670.7 573.1
L 612.6 573.35
M 686.75 549.8
L 596.45 549.8"/>
</defs>

<g transform="matrix( 1, 0, 0, 1, 0,0) ">
<use xlink:href="#Layer10_0_FILL"/>
</g>

<g transform="matrix( 1, 0, 0, 1, 0,0) ">
<use xlink:href="#Layer9_0_FILL"/>

<use xlink:href="#Layer9_0_1_STROKES"/>
</g>

<g transform="matrix( 1, 0, 0, 1, 0,0) ">
<use xlink:href="#Layer8_0_FILL"/>
</g>

<g transform="matrix( 1, 0, 0, 1, 0,0) ">
<use xlink:href="#Layer7_0_FILL"/>
</g>

<g transform="matrix( 1, 0, 0, 1, 0,0) ">
<use xlink:href="#Layer6_0_FILL"/>
</g>

<g transform="matrix( 1, 0, 0, 1, 0,0) ">
<use xlink:href="#Layer5_0_FILL"/>
</g>

<g transform="matrix( 1, 0, 0, 1, 0,0) ">
<use xlink:href="#Layer4_0_FILL"/>
</g>

<g transform="matrix( 1, 0, 0, 1, 0,0) ">
<use xlink:href="#Layer3_0_FILL"/>
</g>

<g transform="matrix( 1, 0, 0, 1, 0,0) ">
<use xlink:href="#Layer2_0_1_STROKES"/>

<use xlink:href="#Layer2_0_2_STROKES"/>
</g>

<g transform="matrix( 1, 0, 0, 1, 0,0) ">
<use xlink:href="#Layer1_0_FILL"/>
</g>

<g transform="matrix( 1, 0, 0, 1, 0,0) ">
<use xlink:href="#Layer0_0_FILL"/>
</g>
</svg>
