
<svg xmlns="http://www.w3.org/2000/svg" version="1.1" xmlns:xlink="http://www.w3.org/1999/xlink" preserveAspectRatio="none" x="0px" y="0px" width="1280px" height="1024px" viewBox="0 0 1280 1024">
<defs>
<image id="Bitmap_3" x="0" y="0" width="659" height="1000" xlink:href="./images/Bitmap_3.png"/>

<g id="Layer15_0_FILL">
<path fill="#393918" stroke="none" d="
M 1280 1024
L 1280 0 0 0 0 1024 1280 1024 Z"/>
</g>

<g id="Layer13_0_FILL">
<path fill="#131313" stroke="none" d="
M 640 921
L 640 935.6 640 964.9
Q 648.839453125 964.7904296875 657.6 964.55 670.6876953125 964.24921875 683.6 963.65 688.2111328125 963.482421875 692.8 963.25
L 692.8 935.2 732 935.2 732 960.7
Q 733.6013671875 960.604296875 735.2 960.45 743.4857421875 959.81484375 751.7 959.05
L 751.7 958.65 751.7 921 640 921 Z"/>

<path fill="#222222" stroke="none" d="
M 548 935.6
L 548 960.75
Q 592.9119140625 964.2841796875 640 964.9
L 640 935.6 548 935.6
M 528.3 959.05
L 528.3 921 640 921 640 869.15 575 901 495 887.25 393.5 869.8 359.25 863.9 281 850.45
Q 280.982421875 882.5375 283.7 908.6 320.4498046875 921.0318359375 359.25 930.7 384.20234375 936.9453125 410 942.05 411.99765625 942.4443359375 414 942.8 439.5875 947.783203125 466 951.6 496.595703125 956.083203125 528.3 959.05
M 466 886.8
L 466 943.95 466 886.8
M 414 879.4
L 414 936.7 414 879.4
M 359.25 871.65
L 359.25 926.7 359.25 871.65 Z"/>

<path fill="#181818" stroke="none" d="
M 547.6 960.7
Q 547.8001953125 960.7408203125 548 960.75
L 548 935.6 640 935.6 640 921 528.3 921 528.3 959.05
Q 537.8994140625 959.9525390625 547.6 960.7
M 640 869.15
L 640 921 751.7 921 751.7 958.65 751.7 959.05
Q 754.8552734375 958.7578125 758 958.45 786.4498046875 955.6345703125 814 951.6 840.4140625 947.7720703125 866 942.8 893.8662109375 937.4125 920.75 930.7 959.5482421875 921.03046875 996.3 908.6 999.017578125 882.5470703125 999 850.45
L 920.75 863.9 886.5 869.8 785 887.25 705 901 640 869.15
M 814 886.8
L 814 943.95 814 886.8
M 920.75 871.65
L 920.75 926.65 920.75 871.65
M 866 879.4
L 866 936.7 866 879.4 Z"/>

<path fill="#1F3E5E" stroke="none" d="
M 692.8 963.25
Q 694.251171875 963.1765625 695.7 963.1 695.85 963.0921875 696 963.05 714.1650390625 962.1302734375 732 960.7
L 732 935.2 692.8 935.2 692.8 963.25 Z"/>

<path fill="#0E0E0E" stroke="none" d="
M 784.95 565.6
Q 785.072265625 565.8466796875 785.2 566.1 795.5703125 587.9296875 760.7 598.2 760.54609375 598.2447265625 760.4 598.3 753.832421875 600.1890625 746.7 601.85 735.45 604.35 722.7 606.15 722.6 606.35 722.5 606.55 748.1654296875 645.6712890625 788.85 667.65 789.0158203125 667.727734375 789.15 667.8 789.3 667.9 789.5 668 835.8986328125 692.795703125 901.75 695.45 901.905859375 695.4443359375 902.05 695.45 902.25 695.45 902.45 695.5 919.5078125 696.14453125 937.8 695.3 937.9474609375 695.30703125 938.1 695.3 938.3 695.3 938.5 695.3 972.31171875 693.7017578125 1010.5 687.1 1010.5568359375 687.107421875 1010.6 687.1 1010.8 687.05 1011 687.05 1026.26328125 684.4064453125 1042.2 680.95 1042.26171875 680.958203125 1042.3 680.95 1042.3 680.85 1042.3 680.75 1045.8 634.15 929.8 631.1 934.1994140625 584.8564453125 784.9 565.15
L 772 464 640 464 640 610.15
Q 686.65 611.05 722 606.1 734.7318359375 604.3115234375 746 601.75 753.306640625 600.1185546875 760 598.15 795.7 587.65 785 566
L 784.95 565.6
M 915.5 632.95
Q 910.3447265625 632.84296875 904.9 632.8 904.7 632.8 904.5 632.8 884.10390625 632.7236328125 860.4 633.8 853.087890625 634.1513671875 845.45 634.6 853.087890625 634.1513671875 860.4 633.8 884.10390625 632.7236328125 904.5 632.8 904.7 632.8 904.9 632.8 910.3447265625 632.84296875 915.5 632.95 916.39453125 632.9787109375 917.25 633 917.5 633 917.7 633.05 917.5 633 917.25 633 916.39453125 632.9787109375 915.5 632.95
M 269.65 686.95
Q 269.89375 687.0146484375 270.1 687.05 308.325390625 693.6611328125 342.2 695.2 342.4009765625 695.241015625 342.6 695.25 361.0728515625 696.0896484375 378.2 695.4 378.4392578125 695.40859375 378.65 695.4 444.703125 692.809765625 491.2 667.9 491.3765625 667.843359375 491.55 667.75 532.458203125 645.7533203125 558.15 606.45 558.083203125 606.2830078125 558 606.1 545.2552734375 604.309765625 533.95 601.75 526.6828125 600.115625 520 598.15 484.345703125 587.6634765625 495.95 565.05 495.9103515625 565.06640625 495.85 565.05 346.5080078125 584.7841796875 350.9 631.05 234.89296875 634.0935546875 238.35 680.7 238.3921875 680.8021484375 238.4 680.9 254.384375 684.353515625 269.65 686.95
M 375.8 632.75
Q 376 632.75 376.2 632.75 402.9 632.65 435.25 634.55 402.9 632.65 376.2 632.75 376 632.75 375.8 632.75 369.45 632.8 363.45 632.95 363.2 632.95 363 633 363.2 632.95 363.45 632.95 369.45 632.8 375.8 632.75 Z"/>

<path fill="#4B4B4B" stroke="none" d="
M 1010.6 687.1
Q 1010.5568359375 687.107421875 1010.5 687.1
L 1060.9 705 1065 691 1042.2 680.95
Q 1026.26328125 684.4064453125 1011 687.05 1010.8 687.05 1010.6 687.1
M 938.1 695.3
Q 937.9474609375 695.30703125 937.8 695.3 931.0251953125 729.85703125 926.95 764.3 921.02421875 814.205078125 920.75 863.9
L 999 850.45 1019 847 1060.9 705 1010.5 687.1
Q 972.31171875 693.7017578125 938.5 695.3 938.3 695.3 938.1 695.3
M 789.15 667.8
Q 789.0158203125 667.727734375 788.85 667.65 752.2056640625 767.5330078125 785 887.25
L 886.5 869.8
Q 885.7302734375 802.96328125 895.15 735.75 898.0091796875 715.622265625 901.75 695.45 835.8986328125 692.795703125 789.5 668 789.3 667.9 789.15 667.8
M 1092.5 726.05
Q 1079.95 707.95 1065 691
L 1060.9 705 1019 847
Q 1026.4 854.95 1034 862.45
L 1092.5 726.05
M 722 606.1
Q 686.65 611.05 640 610.15
L 640 869.15 705 901
Q 663.4 735 722 606.1
M 1052 879.15
Q 1055.363671875 882.096484375 1058.75 884.95 1103.726953125 865.9248046875 1145.3 842.35 1134.599609375 799.5306640625 1114 761.1
L 1052 879.15 Z"/>

<path fill="#1E1E1E" stroke="none" d="
M 902.05 695.45
Q 901.905859375 695.4443359375 901.75 695.45 898.0091796875 715.622265625 895.15 735.75 885.7302734375 802.96328125 886.5 869.8
L 920.75 863.9
Q 921.02421875 814.205078125 926.95 764.3 931.0251953125 729.85703125 937.8 695.3 919.5078125 696.14453125 902.45 695.5 902.25 695.45 902.05 695.45
M 746.7 601.85
Q 753.832421875 600.1890625 760.4 598.3
L 760 598.15
Q 753.306640625 600.1185546875 746 601.75 734.7318359375 604.3115234375 722 606.1 663.4 735 705 901
L 785 887.25
Q 752.2056640625 767.5330078125 788.85 667.65 748.1654296875 645.6712890625 722.5 606.55 722.6 606.35 722.7 606.15 735.45 604.35 746.7 601.85
M 785.2 566.1
L 785 566
Q 795.7 587.65 760 598.15
L 760.4 598.3
Q 760.54609375 598.2447265625 760.7 598.2 795.5703125 587.9296875 785.2 566.1
M 1114 761.1
Q 1104.35 743.1 1092.5 726.05
L 1034 862.45
Q 1042.85 871.15 1052 879.15
L 1114 761.1 Z"/>

<path fill="#1C1C1C" stroke="none" d="
M 496 565
L 495.95 565.05
Q 484.345703125 587.6634765625 520 598.15 526.6828125 600.115625 533.95 601.75 545.2552734375 604.309765625 558 606.1 558.1833984375 606.1255859375 558.35 606.15 593.5919921875 611.0453125 640 610.15
L 640 464 508 464 496 565 Z"/>

<path fill="#2B2B2B" stroke="none" d="
M 495.85 565.05
Q 495.9103515625 565.06640625 495.95 565.05
L 496 565 495.85 565.05
M 491.55 667.75
Q 491.3765625 667.843359375 491.2 667.9 527.7478515625 767.702734375 495 887.25
L 575 901
Q 616.541015625 735.235546875 558.15 606.45 532.458203125 645.7533203125 491.55 667.75
M 384.8 735.75
Q 381.9888671875 715.5962890625 378.2 695.4 361.0728515625 696.0896484375 342.6 695.25 342.4009765625 695.241015625 342.2 695.2 348.968359375 729.809765625 353.05 764.3 358.97578125 814.19453125 359.25 863.9
L 393.5 869.8
Q 394.2697265625 802.9599609375 384.8 735.75
M 187.5 726.05
Q 175.65 743.1 166 761.1
L 228 879.15
Q 237.15 871.15 246 862.45
L 187.5 726.05 Z"/>

<path fill="#666666" stroke="none" d="
M 558 606.1
Q 558.083203125 606.2830078125 558.15 606.45 616.541015625 735.235546875 575 901
L 640 869.15 640 610.15
Q 593.5919921875 611.0453125 558.35 606.15 558.1833984375 606.1255859375 558 606.1
M 238.4 680.9
Q 238.3921875 680.8021484375 238.35 680.7
L 238 680.85 215 691 219.1 705 269.65 686.95
Q 254.384375 684.353515625 238.4 680.9
M 270.1 687.05
Q 269.89375 687.0146484375 269.65 686.95
L 219.1 705 261 847 281 850.45 359.25 863.9
Q 358.97578125 814.19453125 353.05 764.3 348.968359375 729.809765625 342.2 695.2 308.325390625 693.6611328125 270.1 687.05
M 378.65 695.4
Q 378.4392578125 695.40859375 378.2 695.4 381.9888671875 715.5962890625 384.8 735.75 394.2697265625 802.9599609375 393.5 869.8
L 495 887.25
Q 527.7478515625 767.702734375 491.2 667.9 444.703125 692.809765625 378.65 695.4
M 215 691
Q 200.05 707.95 187.5 726.05
L 246 862.45
Q 253.6 854.95 261 847
L 219.1 705 215 691
M 221.25 884.9
Q 224.6470703125 882.087109375 228 879.15
L 166 761.1
Q 145.400390625 799.5306640625 134.65 842.35 176.2671875 865.9126953125 221.25 884.9 Z"/>

<path fill="#393918" stroke="none" d="
M 238 680.85
L 238.35 680.7
Q 234.89296875 634.0935546875 350.9 631.05 346.5080078125 584.7841796875 495.85 565.05
L 496 565
Q 346.115625 584.7154296875 350.5 631 234.2412109375 634.1171875 238 680.85 Z"/>

<path fill="#040404" stroke="none" d="
M 1056.4 885.95
Q 1057.5849609375 885.4525390625 1058.75 884.95 1055.363671875 882.096484375 1052 879.15 1042.85 871.15 1034 862.45 1026.4 854.95 1019 847
L 999 850.45
Q 999.017578125 882.5470703125 996.3 908.6 1027.068359375 898.2443359375 1056.4 885.95
M 281 850.45
L 261 847
Q 253.6 854.95 246 862.45 237.15 871.15 228 879.15 224.6470703125 882.087109375 221.25 884.9 251.697265625 897.8017578125 283.7 908.6 280.982421875 882.5375 281 850.45 Z"/>
</g>

<g id="Layer12_0_FILL">
<path fill="#242424" stroke="none" d="
M 640 415
L 622 414.95 565.15 529.5
Q 564.7251953125 530.4150390625 563.9 530.9 564.208984375 531.681640625 564.35 532.5
L 640 532.1 640 415 Z"/>

<path fill="#1C1C1C" stroke="none" d="
M 715.65 532.5
Q 715.7943359375 531.6798828125 716.05 530.9 715.2751953125 530.4158203125 714.8 529.5
L 658 415 640 415 640 532.1 715.65 532.5 Z"/>
</g>

<g id="Layer10_0_FILL">
<path fill="#3B3B3B" stroke="none" d="
M 610 369
Q 564.1716796875 383.7197265625 524 364.5
L 501 397.95 501 398 615 398.95 610 369
M 640 342
L 624 342 624 355 640 355 640 342
M 616.9 407.6
Q 616.9029296875 406.032421875 617.1 404.5
L 539.95 485.7 551.9 525.6
Q 553.4474609375 525 555.25 525 557.405078125 525 559.2 525.85
L 616.95 409.4
Q 616.899609375 408.521484375 616.9 407.6
M 624 325.6
L 640 325.6 640 312.55 624 312.5 624 325.6
M 624 325.6
L 624 342 640 342 640 325.6 624 325.6 Z"/>

<path fill="#171717" stroke="none" d="
M 524 364.5
Q 514.0310546875 324.5689453125 530 317.4 557.51640625 309.723828125 610 329 622.172265625 336.827734375 610 369
L 615 398.95 624 355 624 342 624 325.6 624 312.5 614 312.5
Q 591.6021484375 311.0966796875 565 300.5 535.6740234375 288.81640625 514.9 301 495.4392578125 317.8373046875 501 397.95
L 524 364.5 Z"/>

<path fill="#1C1C1C" stroke="none" d="
M 530 317.4
Q 514.0310546875 324.5689453125 524 364.5 564.1716796875 383.7197265625 610 369 622.172265625 336.827734375 610 329 557.51640625 309.723828125 530 317.4
M 640 384.5
L 640 355 624 355 615 398.95 501 398 501 398.05 539.95 485.7 617.1 404.5
Q 617.5513671875 400.80625 619.15 397.5
L 619.15 397.45
Q 620.8703125 394.083203125 623.65 391.25 630.4521484375 384.4978515625 640 384.5
M 666 272
L 666 268 640 268 640 312.55 656 312.55 666 312.55 666 272
M 666 83
L 666 78 640 78 640 268 666 268 666 83
M 704 263.7
Q 681.4 272.9 666 272
L 666 312.55
Q 688.4 311.1 715 300.5 744.35 288.8 765.1 301 768.7 303.1 772 305.9 792.7 323.35 802 354
L 847 504
Q 865.9 506.6 870.9 519.45
L 804 299
Q 787.05 270.5 751 262 724.7 255.3 704 263.7
M 666 268
L 666 272
Q 681.4 272.9 704 263.7 724.7 255.3 751 262 787.05 270.5 804 299
L 804 221
Q 801.05 98.2 666 83
L 666 268 Z"/>

<path fill="#1F1F1F" stroke="none" d="
M 756 364.5
Q 715.85 383.7 670 369
L 665 398.95 778.95 398 778.95 397.95 756 364.5
M 791 482.3
L 778.95 398.05 740 485.75 728.1 525.6
Q 729.85 526.25 731.3 527.7 732.25 528.65 732.85 529.75
L 775.95 495 791 482.3 Z"/>

<path fill="#0F0F0F" stroke="none" d="
M 670 329
Q 657.85 336.85 670 369 715.85 383.7 756 364.5 765.95 324.55 750 317.4 722.5 309.7 670 329 Z"/>

<path fill="#111111" stroke="none" d="
M 656 312.55
L 656 325.6 656 342 656 355 665 398.95 670 369
Q 657.85 336.85 670 329 722.5 309.7 750 317.4 765.95 324.55 756 364.5
L 778.95 397.95
Q 784.55 317.85 765.1 301 744.35 288.8 715 300.5 688.4 311.1 666 312.55
L 656 312.55 Z"/>

<path fill="#2B2B2B" stroke="none" d="
M 501 398.05
L 489 482.3 504.2 496 547.15 529.7
Q 547.75546875 528.64453125 548.7 527.7 550.1359375 526.2640625 551.9 525.6
L 539.95 485.7 501 398.05 Z"/>

<path fill="#101010" stroke="none" d="
M 514.9 301
Q 511.3228515625 303.095703125 508 305.9 487.305859375 323.3671875 478 354
L 433 504
Q 414.107421875 506.5912109375 409.05 519.45
L 408.1 522.65
Q 408.0650390625 522.841015625 408 523 403.4583984375 546.9302734375 496 565
L 504.2 496 489 482.3 501 398.05 501 398 501 397.95
Q 495.4392578125 317.8373046875 514.9 301
M 662.9 404.55
Q 663.096875 406.034765625 663.1 407.6 663.100390625 408.52109375 663 409.4
L 720.8 525.85
Q 722.594921875 525 724.75 525 726.55 525 728.1 525.6
L 740 485.75 662.9 404.55 Z"/>

<path fill="#5D5D5D" stroke="none" d="
M 640 391.5
L 640 384.5
Q 630.4521484375 384.4978515625 623.65 391.25 620.8703125 394.083203125 619.15 397.45
L 619.15 397.5
Q 617.5513671875 400.80625 617.1 404.5 616.9029296875 406.032421875 616.9 407.6 616.899609375 408.521484375 616.95 409.4
L 559.2 525.85
Q 557.405078125 525 555.25 525 553.4474609375 525 551.9 525.6 550.1359375 526.2640625 548.7 527.7 547.75546875 528.64453125 547.15 529.7 546 531.746875 546 534.25 546 538.1 548.7 540.8 551.4 543.5 555.25 543.5 556.266015625 543.5 557.2 543.3 559.487890625 542.851171875 561.3 541.25 561.553125 541.046875 561.8 540.8 562.53046875 540.06953125 563.05 539.25 563.670703125 539.500390625 564.35 539.5
L 640 539.1 640 532.1 564.35 532.5
Q 564.208984375 531.681640625 563.9 530.9 564.7251953125 530.4150390625 565.15 529.5
L 622 414.95 623.65 411.6
Q 624.151953125 410.6578125 624 409.6 623.9005859375 408.6330078125 623.9 407.6 623.889453125 403.80859375 625.4 400.6 625.4376953125 400.6001953125 625.45 400.55 626.6501953125 398.1958984375 628.6 396.2 633.34765625 391.501953125 640 391.5 Z"/>

<path fill="#444444" stroke="none" d="
M 660.85 397.5
L 660.8 397.45
Q 659.1294921875 394.083203125 656.3 391.25 649.54765625 384.4978515625 640 384.5
L 640 391.5
Q 646.6521484375 391.501953125 651.35 396.2 653.349609375 398.1958984375 654.55 400.55 654.5625 400.6 654.55 400.6 656.110546875 403.80859375 656.1 407.6 656.0994140625 408.6330078125 655.95 409.6 655.8478515625 410.6578125 656.3 411.6
L 658 415 714.8 529.5
Q 715.2751953125 530.4158203125 716.05 530.9 715.7943359375 531.6798828125 715.65 532.5
L 640 532.1 640 539.1 715.6 539.5
Q 716.3291015625 539.500390625 716.9 539.25 717.469140625 540.069140625 718.2 540.8 718.45 541.05 718.7 541.3 720.5 542.85 722.8 543.3 723.75 543.5 724.75 543.5 728.6 543.5 731.3 540.8 734 538.1 734 534.25 734 531.75 732.85 529.75 732.25 528.65 731.3 527.7 729.85 526.25 728.1 525.6 726.55 525 724.75 525 722.594921875 525 720.8 525.85
L 663 409.4
Q 663.100390625 408.52109375 663.1 407.6 663.096875 406.034765625 662.9 404.55 662.5529296875 401.6203125 661.5 398.95 661.1978515625 398.2388671875 660.85 397.5 Z"/>

<path fill="#060606" stroke="none" d="
M 772 305.9
Q 768.7 303.1 765.1 301 784.55 317.85 778.95 397.95
L 779 398 778.95 398.05 791 482.3 775.95 495 785 566
Q 876.5259765625 546.9298828125 871.95 523 871.95 522.85 871.9 522.7
L 870.9 519.45
Q 865.9 506.6 847 504
L 802 354
Q 792.7 323.35 772 305.9
M 660.8 397.45
L 660.85 397.5
Q 661.1978515625 398.2388671875 661.5 398.95
L 665 398.95 656 355 640 355 640 384.5
Q 649.54765625 384.4978515625 656.3 391.25 659.1294921875 394.083203125 660.8 397.45 Z"/>

<path fill="#4E4E4E" stroke="none" d="
M 625.45 400.55
Q 625.4376953125 400.6001953125 625.4 400.6 623.889453125 403.80859375 623.9 407.6 623.9005859375 408.6330078125 624 409.6 624.151953125 410.6578125 623.65 411.6
L 622 414.95 640 415 640 391.5
Q 633.34765625 391.501953125 628.6 396.2 626.6501953125 398.1958984375 625.45 400.55 Z"/>

<path fill="#313131" stroke="none" d="
M 656.1 407.6
Q 656.110546875 403.80859375 654.55 400.6 654.5625 400.6 654.55 400.55 653.349609375 398.1958984375 651.35 396.2 646.6521484375 391.501953125 640 391.5
L 640 415 658 415 656.3 411.6
Q 655.8478515625 410.6578125 655.95 409.6 656.0994140625 408.6330078125 656.1 407.6 Z"/>

<path fill="#2F2F2F" stroke="none" d="
M 656 355
L 656 342 640 342 640 355 656 355
M 656 342
L 656 325.6 640 325.6 640 342 656 342
M 656 325.6
L 656 312.55 640 312.55 640 325.6 656 325.6 Z"/>

<path fill="#191919" stroke="none" d="
M 778.95 398.05
L 778.95 398 665 398.95 661.5 398.95
Q 662.5529296875 401.6203125 662.9 404.55
L 740 485.75 778.95 398.05 Z"/>

<path fill="#242424" stroke="none" d="
M 640 268
L 614 268 614 272 614 312.5 624 312.5 640 312.55 640 268
M 640 78
L 614 78 614 83 614 268 640 268 640 78
M 614 272
Q 598.595703125 272.882421875 576 263.7 555.2765625 255.2884765625 529 262 492.9736328125 270.5142578125 476 299
L 409.05 519.45
Q 414.107421875 506.5912109375 433 504
L 478 354
Q 487.305859375 323.3671875 508 305.9 511.3228515625 303.095703125 514.9 301 535.6740234375 288.81640625 565 300.5 591.6021484375 311.0966796875 614 312.5
L 614 272
M 476 221
L 476 299
Q 492.9736328125 270.5142578125 529 262 555.2765625 255.2884765625 576 263.7 598.595703125 272.882421875 614 272
L 614 268 614 83
Q 478.9392578125 98.1921875 476 221 Z"/>
</g>

<path id="Layer13_0_1_STROKES" stroke="#000000" stroke-opacity="0.4" stroke-width="15" stroke-linejoin="round" stroke-linecap="round" fill="none" d="
M 777.25 464
L 772 464 640 464 508 464"/>

<path id="Layer13_0_2_STROKES" stroke="#000000" stroke-opacity="0.2" stroke-width="8" stroke-linejoin="round" stroke-linecap="round" fill="none" d="
M 760.4 598.3
L 760 598.15
M 1019 847
L 1060.9 705 1010.525 687.125
M 1065 691
L 1060.9 705
M 269.675 686.975
L 219.1 705 261 847
M 215 691
L 219.1 705"/>

<path id="Layer13_0_3_STROKES" stroke="#000000" stroke-opacity="0.2" stroke-width="6" stroke-linejoin="round" stroke-linecap="round" fill="none" d="
M 466 886.8
L 466 943.95
M 414 879.4
L 414 936.7
M 359.25 871.65
L 359.25 926.7
M 814 886.8
L 814 943.95
M 920.75 871.65
L 920.75 926.65
M 866 879.4
L 866 936.7"/>

<path id="Layer13_0_4_STROKES" stroke="#E8E8E8" stroke-opacity="0.06666666666666667" stroke-width="8" stroke-linejoin="round" stroke-linecap="round" fill="none" d="
M 917.7 633.05
Q 917.5 633 917.25 633 916.39453125 632.9787109375 915.525 632.95 910.3447265625 632.84296875 904.9 632.8 904.7 632.8 904.5 632.8 884.10390625 632.7236328125 860.4 633.825 853.087890625 634.1513671875 845.45 634.6"/>

<path id="Layer13_0_5_STROKES" stroke="#E8E8E8" stroke-opacity="0.09803921568627451" stroke-width="8" stroke-linejoin="round" stroke-linecap="round" fill="none" d="
M 363 633
Q 363.2 632.95 363.45 632.95 369.45 632.8 375.8 632.75 376 632.75 376.2 632.75 402.9 632.65 435.25 634.55"/>

<path id="Layer13_0_6_STROKES" stroke="#7A7A7A" stroke-width="8" stroke-linejoin="round" stroke-linecap="round" fill="none" d="
M 640 921
L 528.3 921 528.3 959.05"/>

<path id="Layer13_0_7_STROKES" stroke="#444444" stroke-width="8" stroke-linejoin="round" stroke-linecap="round" fill="none" d="
M 640 921
L 751.7 921 751.7 958.65"/>

<path id="Layer11_0_1_STROKES" stroke="#000000" stroke-opacity="0.4" stroke-width="15" stroke-linejoin="round" stroke-linecap="round" fill="none" d="
M 693.5 518
L 693.5 443
M 666.55 518
L 666.55 411.6
M 639.6 518
L 639.6 398.5
M 612.65 518
L 612.65 426
M 585.7 518
L 585.7 445.15"/>

<path id="Layer10_0_1_STROKES" stroke="#000000" stroke-opacity="0.2" stroke-width="8" stroke-linejoin="round" stroke-linecap="round" fill="none" d="
M 640 325.6
L 656 325.6
M 656 342
L 640 342
M 624 325.6
L 640 325.6
M 640 342
L 624 342"/>

<path id="Layer10_0_2_STROKES" stroke="#66FF00" stroke-width="1" stroke-linejoin="round" stroke-linecap="round" fill="none" d="
M 1468 396.05
Q 1452.7 394.7 1440 392.8 1373.45 383 1378.05 359.05 1378.05 358.9 1378.1 358.75
L 1379.1 355.5 1446 135.05 1446 57.05
Q 1448.95 -65.75 1584 -80.95
L 1584 -85.95 1610 -85.95 1610 -97.55
M 1840.9 355.5
L 1774 135.05 1774 57.05
Q 1771.05 -65.75 1636 -80.95
L 1636 -85.95 1610 -85.95 1610 148.6 1626 148.6 1636 148.6
Q 1658.4 147.15 1685 136.55 1714.35 124.85 1735.1 137.05 1738.7 139.15 1742 141.95 1762.7 159.4 1772 190.05
L 1817 340.05
Q 1835.9 342.65 1840.9 355.5
L 1841.9 358.75
Q 1841.95 358.9 1841.95 359.05 1846.55 383 1780 392.8 1767.3 394.7 1752 396.05
M 1626 191.05
L 1626 179.65 1610 179.65 1610 191.05 1626 191.05 1635 235 1640 205.05
Q 1685.85 219.75 1726 200.55
L 1748.95 234
Q 1754.55 153.9 1735.1 137.05
M 1610 148.6
L 1610 168.05 1626 168.05 1626 148.6
M 1626 179.65
L 1626 168.05
M 1749 234.05
L 1748.95 234 1748.95 234.05 1749 234.05 1748.95 234.1 1761 318.35 1752 325.7 1780 392.8
M 1748.95 234.1
L 1748.95 234.05 1635 235 1627.65 235.05 1710 321.8 1748.95 234.1 Z
M 1685.65 372.1
Q 1686.15 374.8 1688.2 376.85 1688.45 377.1 1688.7 377.35 1690.5 378.9 1692.8 379.35 1693.75 379.55 1694.75 379.55 1698.6 379.55 1701.3 376.85 1704 374.15 1704 370.3 1704 367.8 1702.85 365.8 1702.25 364.7 1701.3 363.75 1699.85 362.3 1698.1 361.65
L 1710 321.8
M 1702.85 365.8
L 1752 325.7
M 1440 392.8
L 1468 325.7 1459 318.35 1471.05 234.1 1471 234.05 1471.05 234
Q 1465.45 153.9 1484.9 137.05 1481.3 139.15 1478 141.95 1457.3 159.4 1448 190.05
L 1403 340.05
Q 1384.1 342.65 1379.1 355.5
M 1471.05 234
L 1494 200.55
Q 1534.15 219.75 1580 205.05
L 1585 235 1594 191.05 1594 179.65 1594 168.05 1594 148.6 1584 148.6
Q 1561.6 147.15 1535 136.55 1505.65 124.85 1484.9 137.05
M 1610 168.05
L 1610 179.65 1594 179.65
M 1594 191.05
L 1610 191.05 1610 399.05
M 1594 168.05
L 1610 168.05
M 1594 148.6
L 1610 148.6
M 1510 321.8
L 1592.35 235.05 1585 235 1471.05 234.05 1471.05 234.1 1510 321.8 1521.9 361.65
Q 1520.15 362.3 1518.7 363.75 1517.75 364.7 1517.15 365.8 1516 367.8 1516 370.3 1516 374.15 1518.7 376.85 1521.4 379.55 1525.25 379.55 1526.25 379.55 1527.2 379.35 1529.5 378.9 1531.3 377.35 1531.55 377.1 1531.8 376.85 1533.85 374.8 1534.35 372.1
M 1471 234.05
L 1471.05 234.05 1471.05 234
M 1468 325.7
L 1517.15 365.8"/>

<path id="Layer10_0_3_STROKES" stroke="#000000" stroke-opacity="0.2" stroke-width="6" stroke-linejoin="round" stroke-linecap="round" fill="none" d="
M 640 268
L 666 268 666 83
M 666 312.55
L 666 272 666 268
M 666 272
Q 681.4 272.9 704 263.7 724.7 255.3 751 262 787.05 270.5 804 299
M 640 268
L 614 268 614 272 614 312.525
M 614 272
Q 598.595703125 272.882421875 576 263.7 555.2765625 255.2884765625 529 262 492.9736328125 270.5142578125 476 299
M 614 268
L 614 83"/>

<path id="Layer10_0_4_STROKES" stroke="#3B3B3B" stroke-width="6" stroke-linejoin="round" stroke-linecap="round" fill="none" d="
M 530 317.4
Q 514.0310546875 324.5689453125 524 364.5
M 610 329
Q 622.172265625 336.827734375 610 369"/>

<path id="Layer10_0_5_STROKES" stroke="#2A2A2A" stroke-width="6" stroke-linejoin="round" stroke-linecap="round" fill="none" d="
M 670 369
Q 657.85 336.85 670 329
M 750 317.4
Q 765.95 324.55 756 364.5"/>

<path id="Layer10_0_6_STROKES" stroke="#444444" stroke-width="6" stroke-linejoin="round" stroke-linecap="round" fill="none" d="
M 670 329
Q 722.5 309.7 750 317.4"/>

<path id="Layer10_0_7_STROKES" stroke="#5D5D5D" stroke-width="6" stroke-linejoin="round" stroke-linecap="round" fill="none" d="
M 610 329
Q 557.51640625 309.723828125 530 317.4"/>

<path id="Layer9_0_1_STROKES" stroke="#7A7A7A" stroke-width="8" stroke-linejoin="round" stroke-linecap="round" fill="none" d="
M 558.2 606.5
Q 631.1033203125 652.758203125 722.5 606.55"/>
</defs>

<g transform="matrix( 1, 0, 0, 1, 0,0) ">
<use xlink:href="#Layer15_0_FILL"/>
</g>

<g transform="matrix( 3.9517669677734375, 0, 0, 3.9517669677734375, 1337,-617) ">
<use xlink:href="#Bitmap_3"/>
</g>

<g transform="matrix( 1, 0, 0, 1, 0,0) ">
<use xlink:href="#Layer13_0_FILL"/>

<use xlink:href="#Layer13_0_1_STROKES"/>

<use xlink:href="#Layer13_0_2_STROKES"/>

<use xlink:href="#Layer13_0_3_STROKES"/>

<use xlink:href="#Layer13_0_4_STROKES"/>

<use xlink:href="#Layer13_0_5_STROKES"/>

<use xlink:href="#Layer13_0_6_STROKES"/>

<use xlink:href="#Layer13_0_7_STROKES"/>
</g>

<g transform="matrix( 1, 0, 0, 1, 0,0) ">
<use xlink:href="#Layer12_0_FILL"/>
</g>

<g transform="matrix( 1, 0, 0, 1, 0,0) ">
<use xlink:href="#Layer11_0_1_STROKES"/>
</g>

<g transform="matrix( 1, 0, 0, 1, 0,0) ">
<use xlink:href="#Layer10_0_FILL"/>

<use xlink:href="#Layer10_0_1_STROKES"/>

<use xlink:href="#Layer10_0_2_STROKES"/>

<use xlink:href="#Layer10_0_3_STROKES"/>

<use xlink:href="#Layer10_0_4_STROKES"/>

<use xlink:href="#Layer10_0_5_STROKES"/>

<use xlink:href="#Layer10_0_6_STROKES"/>

<use xlink:href="#Layer10_0_7_STROKES"/>
</g>

<g transform="matrix( 1, 0, 0, 1, 0,0) ">
<use xlink:href="#Layer9_0_1_STROKES"/>
</g>
</svg>
