
<svg xmlns="http://www.w3.org/2000/svg" version="1.1" xmlns:xlink="http://www.w3.org/1999/xlink" preserveAspectRatio="none" x="0px" y="0px" width="1280px" height="1024px" viewBox="0 0 1280 1024">
<defs>
<g id="Layer12_0_FILL">
<path fill="#333333" stroke="none" d="
M 1280 0
L 0 0 0 1024 1280 1024 1280 0 Z"/>
</g>

<g id="Layer11_0_FILL">
<path fill="#A23A32" stroke="none" d="
M 668.8 711.85
L 668.8 568 540.5 568 540.5 711.85 668.8 711.85 Z"/>

<path fill="#732823" stroke="none" d="
M 749 568
L 668.8 568 668.8 711.85 749 711.85 749 568 Z"/>
</g>

<g id="Layer10_0_FILL">
<path fill="#E7A996" stroke="none" d="
M -36 132
L -168 132 -168 264 -36 264 -36 132 Z"/>

<path fill="#F1C2AB" stroke="none" d="
M -36 132
L -36 0 -168 0 -168 132 -36 132 Z"/>
</g>

<g id="Layer9_0_FILL">
<path fill="#E7A996" stroke="none" d="
M 639.65 428.2
Q 639.6009765625 428.303125 639.55 428.4
L 639.65 428.4 640.05 428.4
Q 640.025 428.3521484375 640 428.3 639.899609375 428.1126953125 639.8 427.9 639.7259765625 428.065625 639.65 428.2 Z"/>

<path fill="#324A64" stroke="none" d="
M 639.8 390.2
L 639.95 391.8
Q 643.06796875 387.6419921875 605.8 372.55 567.6744140625 357.1029296875 533.7 427.8 533.0107421875 430.5365234375 532.4 433.2 527.371875 455.218359375 527.15 474.8 527.0890625 476.3541015625 527.05 477.9 526.5154296875 497.87890625 529.25 517.2
L 529.2 517.2
Q 532.0498046875 542.141015625 539.55 565.05 540.05234375 566.658984375 540.55 568.2 541.1396484375 569.790234375 541.7 571.35 542.6828125 574.1095703125 543.7 576.85 555.4728515625 605.788671875 579 626.85
L 580.8 628.1
Q 592.105859375 635.8748046875 602.85 641.15 618.2 648.65 632.55 651.05 635.3876953125 651.51640625 639 651.9
L 639 511.55 639.65 428.4 639.55 428.4
Q 639.6009765625 428.303125 639.65 428.2 639.7259765625 428.065625 639.8 427.9 639.899609375 428.1126953125 640 428.3
L 640 392.15 639.8 392 639.8 390.2
M 388.15 763.85
Q 387.86953125 763.9513671875 387.6 764.05 357.05 775.75 352.8 818.9 352 822.7 351.35 826.75 350 835.3 349.55 844.75
L 349.6 898.75
Q 349.55 900.25 349.6 901.65 350.1 914.15 357.45 917.35 391.68046875 931.5708984375 426 942.45 427.8927734375 902.2892578125 457.05 874.35 523.4697265625 851.996875 525 713.65 477.7490234375 731.068359375 388.15 763.85 Z"/>

<path fill="#283A4F" stroke="none" d="
M 747.85 433.25
Q 747.163671875 430.540234375 746.4 427.8 701.623828125 342.9900390625 640 392.15
L 640 428.3
Q 640.025 428.3521484375 640.05 428.4
L 639.65 428.4 639 511.55 639 651.9
Q 639.4927734375 651.949609375 640 652
L 640 651.95
Q 644.05 651.6 647.3 651.05 661.65 648.65 677 641.15 688.1 635.7 699.8 627.6 700.2044921875 627.3302734375 700.6 627.05 700.6544921875 627.0302734375 700.7 627
L 700.7 626.95
Q 701.128125 626.56796875 701.55 626.15 724.3404296875 605.5265625 735.85 577.4 735.9884765625 577.1251953125 736.1 576.85 737.15 574.1 738.15 571.35 738.7 569.8 739.25 568.25 739.8 566.65 740.3 565.1 740.6392578125 564.062109375 740.95 563
L 748.7 530.85 750.1 521.2
Q 750.373046875 519.222265625 750.6 517.2 750.6275390625 517.005859375 750.65 516.8
L 750.65 516.55 750.65 516.55
Q 752.5046875 501.933203125 752.85 487.65
L 752.9 484.45
Q 752.9015625 481.1908203125 752.8 477.9 752.761328125 476.3603515625 752.7 474.8
L 752.9 474.8
Q 752.9232421875 463.9037109375 751.5 453 750.26328125 443.1421875 747.85 433.25 Z"/>

<path fill="#233346" stroke="none" d="
M 892 764.3
Q 803.5408203125 731.9443359375 756.2 714.5 757.9841796875 852.0521484375 823.05 874.35 856.787890625 910.913671875 854 942.55 888.1171875 931.7330078125 922.15 917.6 929.485546875 914.4046875 929.95 901.9 930.0298828125 900.50390625 930 899
L 930.05 845
Q 929.6041015625 835.53203125 928.25 826.95 927.61015625 822.9576171875 926.75 819.15
L 926.8 819.15 926.75 819.1
Q 922.5296875 775.994921875 892 764.3 Z"/>

<path fill="#CCCCCC" stroke="none" d="
M 700.6 627.05
Q 700.2044921875 627.3302734375 699.8 627.6 688.1 635.7 677 641.15 661.65 648.65 647.3 651.05 644.05 651.6 640 651.95
L 640 652
Q 639.4927734375 651.949609375 639 651.9 635.3876953125 651.51640625 632.55 651.05 618.2 648.65 602.85 641.15 592.105859375 635.8748046875 580.8 628.1 580.7833984375 628.105859375 580.75 628.1 582.496484375 629.5591796875 583.9 631.75
L 640 687.85 639.05 965.9 640.6 978
Q 640.1 978 639.6 978.05 639.3185546875 978.021875 639 978 639.643359375 978.1677734375 640.25 978.05 640.8775390625 977.9728515625 647.05 978 653.2177734375 978.0265625 665.4 977.35 689.5044921875 976.115234375 713.5 973.25 739.8466796875 970.100390625 766.1 965 779.2265625 962.4880859375 792.35 959.45 823.20859375 952.3642578125 854 942.55 856.787890625 910.913671875 823.05 874.35 757.9841796875 852.0521484375 756.2 714.5 755.4974609375 714.2412109375 754.75 713.95 754.183984375 713.757421875 753.6 713.55 705.085546875 695.6744140625 702.05 694.3 701.4552734375 694.025390625 700.85 693.75 699.861328125 687.3072265625 699.3 680.55 698.8658203125 675.4935546875 698.65 670.25 697.9078125 649.8091796875 698.9 638.55 699.786328125 628.9708984375 700.6 627.05 Z"/>

<path fill="#FFFFFF" stroke="none" d="
M 579 626.85
Q 579.1369140625 627.1431640625 579.25 627.55 579.67734375 630.03359375 580.05 632.35 580.342578125 634.8287109375 580.65 638.3 581.7 649.55 580.9 670 580.75 675.25 580.3 680.35 580.0330078125 683.6025390625 579.65 686.8 579.2646484375 690.1810546875 578.75 693.5 578.2169921875 693.76640625 577.65 694 577.6169921875 694.0220703125 577.55 694.05 574.5671875 695.3921875 527.6 712.7 526.3146484375 713.173828125 525 713.65 523.4697265625 851.996875 457.05 874.35 427.8927734375 902.2892578125 426 942.45 456.5890625 952.1798828125 487.25 959.25 500.35 962.25 513.5 964.8 539.75 969.85 566.05 973 590.1 975.85 614.15 977.15 626.4 977.75 638.6 978 638.80546875 978 639 978
L 639 978
Q 639.3185546875 978.021875 639.6 978.05 640.1 978 640.6 978
L 639.05 965.9 640 687.85 583.9 631.75
Q 582.496484375 629.5591796875 580.75 628.1 580.7833984375 628.105859375 580.8 628.1
L 579 626.85 Z"/>

<path fill="#273950" stroke="none" d="
M 639.95 391.8
L 639.8 390.2 639.8 392 640 392.15 639.95 391.8 Z"/>
</g>

<g id="Layer7_0_FILL">
<path fill="#000000" fill-opacity="0.2980392156862745" stroke="none" d="
M 563.65 475.5
Q 562.7 475.65 561.7 475.9 576.7 484.1 591.75 491.45
L 624.85 507.75 612.7 494.45
Q 588.85 483.65 563.65 475.5
M 717.95 475.9
Q 716.95 475.65 716.05 475.5 690.8 483.65 666.95 494.45
L 654.8 507.75 687.9 491.45
Q 702.95 484.1 717.95 475.9 Z"/>

<path fill="#D6B04C" stroke="none" d="
M 713.6 503.85
L 712 503.75
Q 707.9 503.55 703.85 503.6
L 702.2 503.65
Q 701.4 503.65 700.55 503.7 697.9 503.8 695.35 504.05 694.7 504.1 694.1 504.15 693.6 504.2 693.05 504.25 688.55 504.7 684.35 505.45 683.4 505.65 682.4 505.85 681.45 506.1 680.5 506.4 679 506.75 677.5 507.25 674.3 508.1 671.45 509.35 669.3 510.3 667.3 511.35 666 512.1 664.7 512.9 664.6 512.95 664.5 513 663.25 513.85 662 514.75 687.25 528.1 703.8 519.1 704.1 518.9 704.4 518.75
L 704.9 518.4
Q 705.5 518.1 706.1 517.7
L 717.7 505.25
Q 718.1 504.7 718.4 504.1 715.95 503.9 713.6 503.85 Z"/>

<path fill="#000000" fill-opacity="0.2" stroke="none" d="
M 712 503.75
L 713.6 503.85
Q 715.95 503.9 718.4 504.1 718.1 504.7 717.7 505.25
L 706.1 517.7
Q 705.5 518.1 704.9 518.4
L 704.4 518.75
Q 704.1 518.9 703.8 519.1 725.95 515.5 730.75 497.75 706.65 493.35 692.65 499.85 691.4 500.4 690.25 501.05 687 502.95 684.35 505.45 688.55 504.7 693.05 504.25 693.6 504.2 694.1 504.15 694.7 504.1 695.35 504.05 697.9 503.8 700.55 503.7 701.4 503.65 702.2 503.65
L 703.85 503.6
Q 707.9 503.55 712 503.75
M 562.2 505.25
Q 561.85 504.65 561.5 504.1 563.95 503.85 566.25 503.85
L 567.8 503.75
Q 571.9 503.55 575.85 503.6
L 577.5 503.65
Q 578.25 503.65 579.05 503.7 581.7 503.8 584.2 504.05 584.8 504.1 585.4 504.15 585.95 504.2 586.45 504.25 590.9 504.65 595 505.4 592.45 502.95 589.2 501.1 588.1 500.45 586.85 499.9 573.1 493.5 549.35 497.85 554.1 515.3 575.9 518.8 575.55 518.65 575.3 518.5
L 574.8 518.15
Q 574.2 517.85 573.6 517.45
L 562.2 505.25 Z"/>

<path fill="#F0C945" stroke="none" d="
M 561.5 504.1
Q 561.85 504.65 562.2 505.25
L 573.6 517.45
Q 574.2 517.85 574.8 518.15
L 575.3 518.5
Q 575.55 518.65 575.9 518.8 592.15 527.7 617 514.55 615.8 513.7 614.5 512.85 614.4 512.8 614.35 512.75 613.05 511.95 611.75 511.2 609.8 510.2 607.7 509.25 604.9 508.05 601.75 507.2 600.25 506.7 598.8 506.35 597.85 506.05 596.9 505.85 595.95 505.6 595 505.4 590.9 504.65 586.45 504.25 585.95 504.2 585.4 504.15 584.8 504.1 584.2 504.05 581.7 503.8 579.05 503.7 578.25 503.65 577.5 503.65
L 575.85 503.6
Q 571.9 503.55 567.8 503.75
L 566.25 503.85
Q 563.95 503.85 561.5 504.1 Z"/>
</g>

<g id="Layer5_0_FILL">
<path fill="#233346" stroke="none" d="
M 639.75 588.8
Q 633 583.75 618.45 589.45
L 604.35 596
Q 609.5 613.15 639.75 614.7 639.9 614.7 640 614.7
L 640 599.15 622.2 598.8
Q 625.25 598.6 628.2 597.95 632 596.75 635.7 597.65 638.35 598.35 639.75 597.45 639.85 597.55 640 597.6
L 640 588.65
Q 639.85 588.7 639.75 588.8 Z"/>

<path fill="#FFFFFF" stroke="none" d="
M 656.5 598.75
Q 653.9 598.5 651.2 597.95 647.45 596.75 643.7 597.65 641.3 598.3 640 597.6 639.85 597.55 639.75 597.45 638.35 598.35 635.7 597.65 632 596.75 628.2 597.95 625.25 598.6 622.2 598.8
L 640 599.15 656.5 598.75 Z"/>

<path fill="#192432" stroke="none" d="
M 651.2 597.95
Q 653.9 598.5 656.5 598.75
L 640 599.15 640 614.7
Q 669.95 613.1 675.1 596
L 661 589.45
Q 646.65 583.85 640 588.65
L 640 597.6
Q 641.3 598.3 643.7 597.65 647.45 596.75 651.2 597.95 Z"/>
</g>

<g id="Layer3_0_FILL">
<path fill="#CD4B40" stroke="none" d="
M 640 307.25
Q 639.95 307.25 639.9 307.25 546.2 306.2 512.3 397.8 491.95 452.7 479.1 670.8 503.1 722.2 563.1 734.8 543.35 524.8 561.55 457.1 579 392.05 640 375.7
L 640 307.25 Z"/>

<path fill="#A23A32" stroke="none" d="
M 716.9 734.8
Q 776.9 722.2 800.9 670.8 788.05 452.7 767.7 397.8 733.8 306.2 640.1 307.25 640.05 307.25 640 307.25
L 640 375.7
Q 701 392.05 718.45 457.1 736.65 524.8 716.9 734.8 Z"/>
</g>

<g id="Layer2_0_FILL">
<path fill="#C6C6C6" stroke="none" d="
M 640 375
Q 639.6763671875 375 639.35 375 626.8 375 617.85 385.7 608.95 396.4 608.95 411.55 608.95 416.85 610.1 421.65 627.6 428.15 626.55 444.8 632.35 448.1 639.35 448.1 639.6763671875 448.1 640 448.1
L 640 375
M 632.7 416.05
Q 632.0556640625 416.3634765625 631.35 416.2
L 616.6 412.5
Q 615.9111328125 412.31953125 615.45 411.7 615.04609375 411.1302734375 615.1 410.4 615.1599609375 409.6724609375 615.65 409.15
L 619.95 404.75
Q 620.5001953125 404.2044921875 621.25 404.15 622.01328125 404.101953125 622.6 404.55
L 633.05 412.65
Q 633.6373046875 413.1125 633.8 413.8 633.961328125 414.4869140625 633.65 415.1 633.3427734375 415.7556640625 632.7 416.05
M 636.7 417.45
Q 636.8568359375 417.1447265625 637.15 417 637.488671875 416.84765625 637.8 416.9 638.160546875 417.002734375 638.35 417.25 638.59609375 417.5515625 638.6 417.9
L 638.6 426.2
Q 638.596484375 426.5681640625 638.35 426.85
L 636.45 429.05
Q 636.2490234375 429.2912109375 635.95 429.35 635.6451171875 429.4443359375 635.35 429.3 635.0552734375 429.223828125 634.85 428.95 634.698046875 428.714453125 634.7 428.4
L 634.7 421.75
Q 634.6982421875 421.5146484375 634.8 421.3
L 636.7 417.45 Z"/>

<path fill="#333333" stroke="none" d="
M 637.15 417
Q 636.8568359375 417.1447265625 636.7 417.45
L 634.8 421.3
Q 634.6982421875 421.5146484375 634.7 421.75
L 634.7 428.4
Q 634.698046875 428.714453125 634.85 428.95 635.0552734375 429.223828125 635.35 429.3 635.6451171875 429.4443359375 635.95 429.35 636.2490234375 429.2912109375 636.45 429.05
L 638.35 426.85
Q 638.596484375 426.5681640625 638.6 426.2
L 638.6 417.9
Q 638.59609375 417.5515625 638.35 417.25 638.160546875 417.002734375 637.8 416.9 637.488671875 416.84765625 637.15 417
M 631.35 416.2
Q 632.0556640625 416.3634765625 632.7 416.05 633.3427734375 415.7556640625 633.65 415.1 633.961328125 414.4869140625 633.8 413.8 633.6373046875 413.1125 633.05 412.65
L 622.6 404.55
Q 622.01328125 404.101953125 621.25 404.15 620.5001953125 404.2044921875 619.95 404.75
L 615.65 409.15
Q 615.1599609375 409.6724609375 615.1 410.4 615.04609375 411.1302734375 615.45 411.7 615.9111328125 412.31953125 616.6 412.5
L 631.35 416.2
M 643.35 417.45
Q 643.1951171875 417.15703125 642.85 417 642.561328125 416.846875 642.2 416.9 641.8896484375 417.00234375 641.65 417.25 641.453125 417.5494140625 641.45 417.9
L 641.45 426.2
Q 641.4451171875 426.567578125 641.65 426.85
L 643.5 429.05
Q 643.738671875 429.2921875 644.05 429.35 644.353515625 429.4576171875 644.65 429.35 644.9451171875 429.2375 645.1 428.95 645.3029296875 428.7140625 645.3 428.4
L 645.3 421.75
Q 645.29921875 421.52734375 645.2 421.3
L 643.35 417.45
M 660.1 404.75
Q 659.5998046875 404.2044921875 658.85 404.15 658.08671875 404.101953125 657.45 404.55
L 647 412.65
Q 646.4625 413.1125 646.3 413.8 646.138671875 414.4869140625 646.45 415.1 646.7572265625 415.7556640625 647.4 416.05 648.0443359375 416.3634765625 648.7 416.2
L 663.45 412.5
Q 664.1888671875 412.31953125 664.6 411.7 665.05390625 411.1302734375 665 410.4 664.9400390625 409.6724609375 664.4 409.15
L 660.1 404.75 Z"/>

<path fill="#999999" stroke="none" d="
M 651.9 444.95
Q 652.05 444.9 652.15 444.8 651.15 428.1 668.6 421.7 669.7 416.9 669.7 411.55 669.7 396.4 660.85 385.7 652.1326171875 375.278125 640 375
L 640 448.1
Q 646.4716796875 447.9498046875 651.9 444.95
M 658.85 404.15
Q 659.5998046875 404.2044921875 660.1 404.75
L 664.4 409.15
Q 664.9400390625 409.6724609375 665 410.4 665.05390625 411.1302734375 664.6 411.7 664.1888671875 412.31953125 663.45 412.5
L 648.7 416.2
Q 648.0443359375 416.3634765625 647.4 416.05 646.7572265625 415.7556640625 646.45 415.1 646.138671875 414.4869140625 646.3 413.8 646.4625 413.1125 647 412.65
L 657.45 404.55
Q 658.08671875 404.101953125 658.85 404.15
M 642.85 417
Q 643.1951171875 417.15703125 643.35 417.45
L 645.2 421.3
Q 645.29921875 421.52734375 645.3 421.75
L 645.3 428.4
Q 645.3029296875 428.7140625 645.1 428.95 644.9451171875 429.2375 644.65 429.35 644.353515625 429.4576171875 644.05 429.35 643.738671875 429.2921875 643.5 429.05
L 641.65 426.85
Q 641.4451171875 426.567578125 641.45 426.2
L 641.45 417.9
Q 641.453125 417.5494140625 641.65 417.25 641.8896484375 417.00234375 642.2 416.9 642.561328125 416.846875 642.85 417 Z"/>
</g>

<path id="Layer9_0_1_STROKES" stroke="#000000" stroke-opacity="0.2" stroke-width="0.1" stroke-linejoin="round" stroke-linecap="round" fill="none" d="
M 746.4 427.8
Q 701.623828125 342.9900390625 640 392.15"/>

<path id="Layer8_0_1_STROKES" stroke="#000000" stroke-opacity="0.2" stroke-width="8" stroke-linejoin="round" stroke-linecap="round" fill="none" d="
M 760.4 764.6
Q 689.25 770.2 662.55 790.5
M 518.7 764.6
Q 589.85 770.2 616.55 790.5
M 457.05 874.35
Q 481.3 851.1 483.05 821.15
M 823.05 874.35
Q 798.8 851.1 797.05 821.15"/>

<path id="Symbole_33_0_Layer0_0_1_STROKES" stroke="#000000" stroke-opacity="0.2" stroke-width="8" stroke-linejoin="round" stroke-linecap="round" fill="none" d="
M 5.5 2.35
L 0 0
M 19.15 2.35
L 24.6 0"/>
</defs>

<g transform="matrix( 1, 0, 0, 1, 0,0) ">
<use xlink:href="#Layer12_0_FILL"/>
</g>

<g transform="matrix( 1, 0, 0, 1, 0,0) ">
<use xlink:href="#Layer11_0_FILL"/>
</g>

<g transform="matrix( 1, 0, 0, 1, 0,0) ">
<use xlink:href="#Layer10_0_FILL"/>
</g>

<g transform="matrix( 1, 0, 0, 1, 0,0) ">
<use xlink:href="#Layer9_0_FILL"/>

<use xlink:href="#Layer9_0_1_STROKES"/>
</g>

<g transform="matrix( 1, 0, 0, 1, 0,0) ">
<use xlink:href="#Layer8_0_1_STROKES"/>
</g>

<g transform="matrix( 1, 0, 0, 1, 627.7,566.85) ">
<g transform="matrix( 1, 0, 0, 1, 0,0) ">
<use xlink:href="#Symbole_33_0_Layer0_0_1_STROKES"/>
</g>
</g>

<g transform="matrix( 1, 0, 0, 1, 0,0) ">
<use xlink:href="#Layer7_0_FILL"/>
</g>

<g transform="matrix( 1, 0, 0, 1, 0,0) ">
<use xlink:href="#Layer5_0_FILL"/>
</g>

<g transform="matrix( 1, 0, 0, 1, 0,0) ">
<use xlink:href="#Layer3_0_FILL"/>
</g>

<g transform="matrix( 1, 0, 0, 1, 0,0) ">
<use xlink:href="#Layer2_0_FILL"/>
</g>
</svg>
