
<svg xmlns="http://www.w3.org/2000/svg" version="1.1" xmlns:xlink="http://www.w3.org/1999/xlink" preserveAspectRatio="none" x="0px" y="0px" width="1280px" height="1024px" viewBox="0 0 1280 1024">
<defs>
<image id="Bitmap_14" x="0" y="0" width="792" height="1247" xlink:href="./images/Bitmap_14.png"/>

<g id="Layer13_0_FILL">
<path fill="#333333" stroke="none" d="
M 1280 0
L 0 0 0 1024 1280 1024 1280 0 Z"/>
</g>

<g id="Layer11_0_FILL">
<path fill="#FFFFFF" stroke="none" d="
M -69.9 367.9
Q -58.9 367.9 -50.45 361.85
L -69.9 342.4 -89.35 361.85
Q -80.9 367.9 -69.9 367.9
M -42.05 314.6
L -61.5 334 -42.05 353.45
Q -36 345 -36 334 -36 323.05 -42.05 314.6
M -69.9 325.65
L -50.45 306.2
Q -58.9 300.1 -69.9 300.1 -80.9 300.1 -89.35 306.2
L -69.9 325.65
M -97.75 314.6
Q -103.8 323.05 -103.8 334 -103.8 345 -97.75 353.45
L -78.3 334 -97.75 314.6 Z"/>
</g>

<g id="Layer10_0_FILL">
<path fill="#E7A996" stroke="none" d="
M -168 264
L -36 264 -36 132 -168 132 -168 264 Z"/>

<path fill="#F1C2AB" stroke="none" d="
M -36 132
L -36 0 -168 0 -168 132 -36 132 Z"/>
</g>

<g id="Layer7_0_FILL">
<path fill="#F2F185" stroke="none" d="
M 716.4 282.65
Q 699.1666015625 284.2107421875 681.6 294.6 699.1666015625 284.2107421875 716.4 282.65 667.731640625 258.299609375 634.45 273.5 618.67734375 280.7083984375 605 295 618.67734375 280.7083984375 634.45 273.5 556.1423828125 258.213671875 522 306.05 477.9650390625 339.30234375 470.15 425.3 419.606640625 549.546875 469.1 669 479.297265625 648.2208984375 494.3 628 524.0755859375 590.540625 525 547.85 524.0755859375 590.540625 494.3 628 479.297265625 648.2208984375 469.1 669 444.9419921875 718.4001953125 448 771
L 793 771 822.4 750.6
Q 838.6576171875 704.3640625 840.25 662.5 842.6830078125 599.63828125 812.05 546.65 842.6830078125 599.63828125 840.25 662.5 898.7021484375 584.585546875 845.45 468.95 837.0236328125 450.687890625 825.8 431.45 837.0236328125 450.687890625 845.45 468.95 850.5546875 377.0626953125 800.35 329.75 759.3787109375 278.78203125 716.4 282.65
M 555.35 640.05
Q 548.8404296875 697.1130859375 521 751.05 548.8404296875 697.1130859375 555.35 640.05 Z"/>
</g>

<g id="Layer6_0_FILL">
<path fill="#E0E0E0" stroke="none" d="
M 839.15 874.8
Q 814.9 851.55 813.15 821.6 676.7 818 678.95 976.35 678.95 976.4 678.95 976.45
L 678.95 976.45
Q 679.35 976.455078125 679.75 976.4 722.4453125 973.27265625 765 965.05 809.55 956.4357421875 853.9 942.25 856.673046875 941.3982421875 859.4 940.5 864.1158203125 938.96640625 868.8 937.35 868.8 937.233984375 868.8 937.1 865.4 901.15 839.15 874.8 Z"/>

<path fill="#94B1BF" stroke="none" d="
M 699.3 686.65
Q 698.65 683.55 698.3 680.6 698.2 679.7 698.15 678.85 698.1 677.9 698 677 697.8 673.65 697.65 670.25 696.95 649.85 699.85 627
L 640 642.2 580.15 627
Q 580.3892578125 628.885546875 580.6 630.75
L 639.3 689.45 639.3 978.2
Q 639.65 978.2427734375 640 978.25 651.872265625 978.006640625 663.75 977.4 664.072265625 977.4162109375 664.4 977.4 666.8732421875 977.269921875 669.35 977.1 674.1509765625 976.8392578125 678.95 976.45
L 678.95 976.45
Q 678.95 976.4 678.95 976.35 676.7 818 813.15 821.6 814.9 851.55 839.15 874.8 865.4 901.15 868.8 937.1 868.8 937.233984375 868.8 937.35 869.18984375 937.23203125 869.55 937.1 895.3900390625 928.2947265625 921.15 917.6 928.3 914.45 928.95 902.4 929.05 900.8 929 899
L 929.05 845
Q 928.8 839.7 928.25 834.75 925.7 810.4 916.35 792.8 908.25 779 895.15 767.3 893.45 765.8 891.65 764.3 716.75 719.25 701.3 694.05
L 699.3 686.65
M 639.3 651.9
L 639.3 651.95
Q 639.149609375 651.9724609375 639 651.95
L 639 651.85
Q 639.15 651.8890625 639.3 651.9 Z"/>

<path fill="#AFD1BB" stroke="none" d="
M 639.3 651.95
L 639.3 651.9
Q 639.15 651.8890625 639 651.85
L 639 651.95
Q 639.149609375 651.9724609375 639.3 651.95 Z"/>

<path fill="#FFFFFF" stroke="none" d="
M 515 965.05
Q 558.1796875 973.3935546875 601.5 976.5 604.0431640625 817.55546875 467.3 821.15 465.55 851.1 441.3 874.35 414.741796875 901.0072265625 411.55 937.5 463.16640625 955.02734375 515 965.05 Z"/>

<path fill="#BADEEF" stroke="none" d="
M 388.35 764.3
Q 386.55 765.8 384.85 767.3 371.75 779 363.65 792.8 354.3 810.4 351.75 834.75 351.2 839.7 350.95 845
L 351 899
Q 350.95 900.8 351.05 902.4 351.7 914.45 358.85 917.6 385.1474609375 928.5177734375 411.5 937.45 411.5330078125 937.486328125 411.55 937.5 414.741796875 901.0072265625 441.3 874.35 465.55 851.1 467.3 821.15 604.0431640625 817.55546875 601.5 976.5 608.5517578125 977.0294921875 615.6 977.4 627.45 977.9828125 639.3 978.2
L 639.3 689.45 580.6 630.75
Q 582.9921875 651.5333984375 582.35 670.25 582.2 673.65 582 677 581.9 677.9 581.85 678.85 581.8 679.7 581.7 680.6 581.35 683.55 580.7 686.65
L 578.7 694.05
Q 563.25 719.25 388.35 764.3 Z"/>

<path fill="#E7A996" stroke="none" d="
M 639.55 428.4
L 640.05 428.4
Q 640.025 428.3521484375 640 428.3 639.899609375 428.1126953125 639.8 427.9 639.6751953125 428.1623046875 639.55 428.4 Z"/>
</g>

<g id="Layer4_0_FILL">
<path fill="#F1C2AB" stroke="none" d="
M 589.25 436
L 589.25 414.6 535.35 414.6
Q 531.348828125 426.9228515625 529.65 440.35 528.4 450.3 528.4 460.8 528.4 467.4 528.5 473.9
L 528.15 478
Q 526.6302734375 499.86796875 530.6 520.6 533.8 549 543.05 574.75 550.6 595.95 562.15 615.45 562.7 616.3 563.15 617.1 570.4 623.1 577.35 628.15 578.85 629.25 580.4 630.3 580.45 630.35 580.5 630.4 580.95 630.7 581.4 631 593.1 639.1 604.2 644.55 619.55 652.05 633.9 654.45 636.6 654.892578125 639.3 655.2
L 639.3 436 589.25 436 Z"/>

<path fill="#E7A996" stroke="none" d="
M 750.35 440.35
Q 748.651171875 426.9228515625 744.65 414.6
L 693.05 414.6 693.05 436 639.3 436 639.3 655.2
Q 639.65 655.259765625 640 655.3 643.05 654.95 646.1 654.45 660.45 652.05 675.8 644.55 686.9 639.1 698.6 631 699.05 630.7 699.5 630.4 699.55 630.35 699.6 630.3 701.15 629.25 702.65 628.15 709.6 623.1 716.85 617.1 717.3 616.3 717.85 615.45 729.4 595.95 736.95 574.75 746.2 549 749.4 520.6 752.35 499.8 751.5 478.2
L 751.5 473.9
Q 751.6 467.4 751.6 460.8 751.6 450.3 750.35 440.35 Z"/>
</g>

<g id="Layer3_0_FILL">
<path fill="#FFFFFF" stroke="none" d="
M 595.35 509.35
Q 595.1025390625 509.3046875 594.85 509.25 590.9814453125 508.57578125 586.8 508.2 586.78046875 508.2390625 586.75 508.25 586.4966796875 508.8455078125 586.45 509.5 586.35 510 586.35 510.6 586.35 513.3 588.2 515.15 590.05 517 592.75 517 595.4 517 597.25 515.15 598.9 513.5 599.15 511.3 599.15 510.95 599.15 510.6 599.15 510.5181640625 599.15 510.4 599.15 510.3681640625 599.15 510.3 598.2 510 597.25 509.8 596.3 509.55 595.35 509.35
M 693.9 510.7
Q 693.9 510.05 693.8 509.55 693.7013671875 508.810546875 693.4 508.2
L 693.4 508.2
Q 692.6126953125 508.2787109375 691.8 508.35
L 685.15 509.3
Q 684.919140625 509.3609375 684.7 509.4 683.75 509.6 682.75 509.8 681.8 510.05 680.85 510.35 680.85 510.5 680.85 510.7 680.85 511 680.85 511.35 681.1 513.6 682.75 515.3 684.65 517.2 687.35 517.2 690.1 517.2 692 515.3 693.9 513.4 693.9 510.7 Z"/>

<path fill="#000000" fill-opacity="0.2" stroke="none" d="
M 562.2 509.25
Q 561.85 508.65 561.5 508.1 563.95 507.85 566.25 507.85
L 567.8 507.75
Q 571.9 507.55 575.85 507.6
L 577.5 507.65
Q 578.25 507.65 579.05 507.7 581.7 507.8 584.2 508.05 584.8 508.1 585.4 508.15 585.95 508.2 586.45 508.25 586.60625 508.2640625 586.75 508.25 586.78046875 508.2390625 586.8 508.2 590.9814453125 508.57578125 594.85 509.25 592.3572265625 506.897265625 589.2 505.1 588.1 504.45 586.85 503.9 573.1 497.5 549.35 501.85 554.1 519.3 575.9 522.8 575.55 522.65 575.3 522.5
L 574.8 522.15
Q 574.2 521.85 573.6 521.45
L 562.2 509.25 Z"/>

<path fill="#333333" stroke="none" d="
M 561.5 508.1
Q 561.85 508.65 562.2 509.25
L 573.6 521.45
Q 574.2 521.85 574.8 522.15
L 575.3 522.5
Q 575.55 522.65 575.9 522.8 592.15 531.7 617 518.55 615.8 517.7 614.5 516.85 614.4 516.8 614.35 516.75 613.05 515.95 611.75 515.2 609.8 514.2 607.7 513.25 604.9 512.05 601.75 511.2 600.4306640625 510.76015625 599.15 510.4 599.15 510.5181640625 599.15 510.6 599.15 510.95 599.15 511.3 598.9 513.5 597.25 515.15 595.4 517 592.75 517 590.05 517 588.2 515.15 586.35 513.3 586.35 510.6 586.35 510 586.45 509.5 586.4966796875 508.8455078125 586.75 508.25 586.60625 508.2640625 586.45 508.25 585.95 508.2 585.4 508.15 584.8 508.1 584.2 508.05 581.7 507.8 579.05 507.7 578.25 507.65 577.5 507.65
L 575.85 507.6
Q 571.9 507.55 567.8 507.75
L 566.25 507.85
Q 563.95 507.85 561.5 508.1 Z"/>

<path fill="#000000" stroke="none" d="
M 718.4 508.1
Q 715.95 507.9 713.6 507.85
L 712 507.75
Q 707.9 507.55 703.85 507.6
L 702.2 507.65
Q 701.4 507.65 700.55 507.7 697.9 507.8 695.35 508.05 694.7 508.1 694.1 508.15 693.7654296875 508.1833984375 693.4 508.2 693.7013671875 508.810546875 693.8 509.55 693.9 510.05 693.9 510.7 693.9 513.4 692 515.3 690.1 517.2 687.35 517.2 684.65 517.2 682.75 515.3 681.1 513.6 680.85 511.35 680.85 511 680.85 510.7 680.85 510.5 680.85 510.35 681.8 510.05 682.75 509.8 683.75 509.6 684.7 509.4 684.919140625 509.3609375 685.15 509.3 684.7423828125 509.3798828125 684.35 509.45 683.4 509.65 682.4 509.85 681.45 510.1 680.5 510.4 679 510.75 677.5 511.25 674.3 512.1 671.45 513.35 669.3 514.3 667.3 515.35 666 516.1 664.7 516.9 664.6 516.95 664.5 517 663.25 517.85 662 518.75 687.25 532.1 703.8 523.1 704.1 522.9 704.4 522.75
L 704.9 522.4
Q 705.5 522.1 706.1 521.7
L 717.7 509.25
Q 718.1 508.7 718.4 508.1 Z"/>

<path fill="#0A0A0A" fill-opacity="0.2784313725490196" stroke="none" d="
M 713.6 507.85
Q 715.95 507.9 718.4 508.1 718.1 508.7 717.7 509.25
L 706.1 521.7
Q 705.5 522.1 704.9 522.4
L 704.4 522.75
Q 704.1 522.9 703.8 523.1 725.95 519.5 730.75 501.75 706.65 497.35 692.65 503.85 691.4 504.4 690.25 505.05 687 506.95 684.35 509.45 684.7423828125 509.3798828125 685.15 509.3
L 691.8 508.35
Q 692.6126953125 508.2787109375 693.4 508.2
L 693.4 508.2
Q 693.7654296875 508.1833984375 694.1 508.15 694.7 508.1 695.35 508.05 697.9 507.8 700.55 507.7 701.4 507.65 702.2 507.65
L 703.85 507.6
Q 707.9 507.55 712 507.75
L 713.6 507.85 Z"/>

<path fill="#000000" fill-opacity="0.2980392156862745" stroke="none" d="
M 563.65 479.5
Q 562.7 479.65 561.7 479.9 576.7 488.1 591.75 495.45
L 624.85 511.75 612.7 498.45
Q 588.85 487.65 563.65 479.5
M 717.95 479.9
Q 716.95 479.65 716.05 479.5 690.8 487.65 666.95 498.45
L 654.8 511.75 687.9 495.45
Q 702.95 488.1 717.95 479.9 Z"/>
</g>

<g id="Layer2_0_FILL">
<path fill="#B88778" stroke="none" d="
M 644.1 571.5
Q 657.8 573.5 658.1 569.5 657.05 563.8 644.1 571.5 Z"/>

<path fill="#C09B88" stroke="none" d="
M 636.2 571.5
Q 623.25 563.8 622.2 569.5 622.5 573.5 636.2 571.5 Z"/>

<path fill="#E7A996" stroke="none" d="
M 639.35 591.2
Q 632.6 586.15 618.05 591.85
L 603.95 598.4
Q 609.1 615.55 639.35 617.1 639.475390625 617.0935546875 639.6 617.05
L 639.6 601.55 621.8 601.2
Q 624.85 601 627.8 600.35 631.6 599.15 635.3 600.05 637.95 600.75 639.35 599.85 639.4693359375 599.9326171875 639.6 600
L 639.6 591
Q 639.4736328125 591.1060546875 639.35 591.2 Z"/>

<path fill="#FFFFFF" stroke="none" d="
M 656.1 601.15
Q 653.5 600.9 650.8 600.35 647.05 599.15 643.3 600.05 640.893359375 600.6857421875 639.6 600 639.4693359375 599.9326171875 639.35 599.85 637.95 600.75 635.3 600.05 631.6 599.15 627.8 600.35 624.85 601 621.8 601.2
L 639.6 601.55 656.1 601.15 Z"/>

<path fill="#B58576" stroke="none" d="
M 650.8 600.35
Q 653.5 600.9 656.1 601.15
L 639.6 601.55 639.6 617.05
Q 669.5712890625 615.47890625 674.7 598.4
L 660.6 591.85
Q 646.271484375 586.2560546875 639.6 591
L 639.6 600
Q 640.893359375 600.6857421875 643.3 600.05 647.05 599.15 650.8 600.35 Z"/>
</g>

<g id="Layer1_0_FILL">
<path fill="#FFFFFF" stroke="none" d="
M 639.3 365.35
L 639.3 302.45
Q 588.397265625 386.6791015625 609 418 511.883203125 297.770703125 505.95 170.7 454.880859375 281.3982421875 491 375 454.96484375 349.6310546875 430 307 440.855859375 407.606640625 493 485 465.1369140625 478.226171875 442 462 450.929296875 496.466015625 508 534.8 529.7572265625 549.4328125 571.7 591.65 503.2126953125 518.488671875 542 420 566.15625 446.1427734375 604 468.3 630.4830078125 483.87734375 639.3 500.5
L 639.3 470.7
Q 610.4970703125 410.839453125 639.3 365.35 Z"/>

<path fill="#E0E0E0" stroke="none" d="
M 850 307
Q 825.05 349.65 789 375 825.1 281.4 774 170.75 768.1 297.75 671 418 691.75 386.45 640 301.3 639.6486328125 301.8783203125 639.3 302.45
L 639.3 365.35
Q 639.64609375 364.7939453125 640 364.25 670.2 410.65 640 472.15 639.64609375 471.4294921875 639.3 470.7
L 639.3 500.5
Q 639.665234375 501.2091796875 640 501.9 648.4 484.5 676 468.3 713.85 446.15 738 420 775.4353515625 518.5 708.25 591.65 750.25 549.45 772 534.8 829.05 496.45 838 462 814.85 478.25 787 485 839.15 407.6 850 307 Z"/>

<path fill="#79DDF5" stroke="none" d="
M 639.3 470.7
L 639.3 365.35
Q 610.4970703125 410.839453125 639.3 470.7 Z"/>

<path fill="#6BC4DA" stroke="none" d="
M 640 364.25
Q 639.64609375 364.7939453125 639.3 365.35
L 639.3 470.7
Q 639.64609375 471.4294921875 640 472.15 670.2 410.65 640 364.25 Z"/>
</g>

<g id="Layer0_0_FILL">
<path fill="#F2F185" stroke="none" d="
M 763.8 636.25
Q 757.5708984375 647.0251953125 749.05 660.15 719.9 705.05 710.8 746.5 719.9 705.05 749.05 660.15 757.5708984375 647.0251953125 763.8 636.25
L 717 631
Q 718.965234375 648.143359375 696 699.95 669.63046875 754.425 663.1 816 662.763671875 820.8439453125 662.6 826 662.55 827.562109375 662.55 829.15 662.55 857.65 678.55 877.75 694.6 897.9 717.3 897.9 740 897.9 756 877.75 757.3802734375 876.0212890625 758.65 874.2 752.7888671875 879 745.45 879 734.85 879 727.35 869.05 719.85 859.1 719.85 845 718.4640625 783.7146484375 760.25 727 807.6466796875 663.2515625 775 637.5
L 763.8 636.25 Z"/>
</g>

<path id="Layer7_0_1_STROKES" stroke="#000000" stroke-opacity="0.09803921568627451" stroke-width="8" stroke-linejoin="round" stroke-linecap="round" fill="none" d="
M 716.4 282.65
Q 699.1666015625 284.2107421875 681.6 294.6
M 605 295
Q 618.67734375 280.7083984375 634.475 273.5
M 825.8 431.45
Q 837.0236328125 450.687890625 845.45 468.975
M 840.275 662.5
Q 842.6830078125 599.63828125 812.05 546.65
M 555.35 640.05
Q 548.8404296875 697.1130859375 521 751.05
M 525 547.85
Q 524.0755859375 590.540625 494.3 628 479.297265625 648.2208984375 469.125 669"/>

<path id="Layer5_0_1_STROKES" stroke="#000000" stroke-opacity="0.2" stroke-width="8" stroke-linejoin="round" stroke-linecap="round" fill="none" d="
M 760.4 764.6
Q 689.25 770.2 662.55 790.5
M 518.7 764.6
Q 589.85 770.2 616.55 790.5"/>

<path id="Symbole_33_0_Layer0_0_1_STROKES" stroke="#000000" stroke-opacity="0.2" stroke-width="8" stroke-linejoin="round" stroke-linecap="round" fill="none" d="
M 5.5 2.35
L 0 0
M 19.15 2.35
L 24.6 0"/>

<path id="Layer0_0_1_STROKES" stroke="#000000" stroke-opacity="0.09803921568627451" stroke-width="8" stroke-linejoin="round" stroke-linecap="round" fill="none" d="
M 763.8 636.25
Q 757.5708984375 647.0251953125 749.05 660.15 719.9 705.05 710.8 746.5
M 780.65 597.8
Q 778.9162109375 610.14921875 763.8 636.25"/>
</defs>

<g transform="matrix( 1, 0, 0, 1, 0,0) ">
<use xlink:href="#Layer13_0_FILL"/>
</g>

<g transform="matrix( 2.7257843017578125, 0, 0, 2.7257843017578125, 1445,-227) ">
<use xlink:href="#Bitmap_14"/>
</g>

<g transform="matrix( 1, 0, 0, 1, 0,0) ">
<use xlink:href="#Layer11_0_FILL"/>
</g>

<g transform="matrix( 1, 0, 0, 1, 0,0) ">
<use xlink:href="#Layer10_0_FILL"/>
</g>

<g transform="matrix( 1, 0, 0, 1, 0,0) ">
<use xlink:href="#Layer7_0_FILL"/>

<use xlink:href="#Layer7_0_1_STROKES"/>
</g>

<g transform="matrix( 1, 0, 0, 1, 0,0) ">
<use xlink:href="#Layer6_0_FILL"/>
</g>

<g transform="matrix( 1, 0, 0, 1, 0,0) ">
<use xlink:href="#Layer5_0_1_STROKES"/>
</g>

<g transform="matrix( 1, 0, 0, 1, 627.1,569.25) ">
<g transform="matrix( 1, 0, 0, 1, 0,0) ">
<use xlink:href="#Symbole_33_0_Layer0_0_1_STROKES"/>
</g>
</g>

<g transform="matrix( 1, 0, 0, 1, 0,0) ">
<use xlink:href="#Layer4_0_FILL"/>
</g>

<g transform="matrix( 1, 0, 0, 1, 0,0) ">
<use xlink:href="#Layer3_0_FILL"/>
</g>

<g transform="matrix( 1, 0, 0, 1, 0,0) ">
<use xlink:href="#Layer2_0_FILL"/>
</g>

<g transform="matrix( 1, 0, 0, 1, 0,0) ">
<use xlink:href="#Layer1_0_FILL"/>
</g>

<g transform="matrix( 1, 0, 0, 1, 0,0) ">
<use xlink:href="#Layer0_0_FILL"/>

<use xlink:href="#Layer0_0_1_STROKES"/>
</g>
</svg>
