
<svg xmlns="http://www.w3.org/2000/svg" version="1.1" xmlns:xlink="http://www.w3.org/1999/xlink" preserveAspectRatio="none" x="0px" y="0px" width="1280px" height="1024px" viewBox="0 0 1280 1024">
<defs>
<g id="Layer12_0_FILL">
<path fill="#3C3C3C" stroke="none" d="
M 987.6 701.3
Q 987.4 701.45 987.25 701.65 911.3 789.3 801.95 826.8 795.85 828.9 789.7 830.8
L 789 831
Q 794.945703125 825.1345703125 778.5 832.75 763.1 835.4 747.75 837.4 693.15 844.6 639 844.65
L 639 983 639.7 983.05
Q 639.85 983.05 639.95 983.05 640.65 983.05 641.25 983.05
L 641.25 982.75 847.4 961.25
Q 884.85 954.25 922.25 944.35 975.75 930.3 1029.6 911.05 1038.6 907.85 1047.65 904.55 1096.35 886.35 1145.2 864.05 1130.55 777.95 1096.8 744 1075.55 722.55 1043.6 711.85 1018.95 703.55 988.05 701.6 987.8 701.45 987.6 701.3 Z"/>

<path fill="#666666" stroke="none" d="
M 233.65 712.15
Q 202.35 722.9 181.4 744 147.65 777.95 133 864.05 181.85 886.35 230.55 904.55 239.55 907.85 248.55 911.05 302.4 930.3 355.9 944.35 393.3 954.25 430.75 961.25
L 636.9 982.75 636.9 983.05
Q 637.6 983.05 638.2 983.05 638.35 983.05 638.45 983.05
L 639 983 639 844.65
Q 637.3 844.65 635.6 844.65 584.25 844.4 533.15 837.65 518.75 835.75 504.45 833.35 497.65 832.6 490.6 831.65 487.6 830.7 484.65 829.8 369.25 792.9 290.15 701.6 258.55 703.55 233.65 712.15 Z"/>
</g>

<g id="Layer11_0_FILL">
<path fill="#D0BE5A" stroke="none" d="
M 639.95 859
Q 641.55 858.9 645.1 857.2 650.25 854.9 653.6 851.2
L 658.75 861.3
Q 665.8 871.2 676.3 870.3 686.55 869.45 699.65 860.95
L 710.7 852.6 725.05 863.75
Q 739.9 879.05 741.5 899.2 742.55 911.45 736.55 920.1 733.5 924.55 730.3 926.5 727.3 923.85 723.25 921.2 714.9 915.85 708.9 916.4 702.85 916.9 695.05 925.05 691.2 929.15 688.5 933.25 678.55 929.5 669.35 930.4 663.7 930.95 651.1 941.95 645 947.3 639.95 952.5
L 639.95 974.85
Q 717.3 974.55 772.3 953.2 827.95 931.55 827.95 900.9 827.95 870.3 772.3 848.65 717.3 827.3 639.95 827.05
L 639.95 859 Z"/>

<path fill="#101010" stroke="none" d="
M 603.45 870.3
Q 593 869.45 580.05 860.95
L 569.05 852.6 554.7 863.75
Q 539.8 879.05 538.25 899.2 537.2 911.45 543.2 920.1 546 924.55 549.2 926.5 552.2 923.85 556.5 921.2 564.85 915.85 570.85 916.4 576.65 916.9 584.45 925.05 588.55 929.15 591.2 933.25
L 597.25 931.45
Q 604.5 929.85 610.2 930.4 616.05 930.95 628.4 941.95 634.6 947.4 639.75 952.7 639.85 952.6 639.95 952.5 645 947.3 651.1 941.95 663.7 930.95 669.35 930.4 678.55 929.5 688.5 933.25 691.2 929.15 695.05 925.05 702.85 916.9 708.9 916.4 714.9 915.85 723.25 921.2 727.3 923.85 730.3 926.5 733.5 924.55 736.55 920.1 742.55 911.45 741.5 899.2 739.9 879.05 725.05 863.75
L 710.7 852.6 699.65 860.95
Q 686.55 869.45 676.3 870.3 665.8 871.2 658.75 861.3
L 653.6 851.2
Q 650.25 854.9 645.1 857.2 641.55 858.9 639.95 859 639.85 859 639.75 859 638.15 859 634.5 857.2 629.35 854.9 625.95 851.2
L 620.8 861.3
Q 613.7 871.2 603.45 870.3 Z"/>

<path fill="#F2DD69" stroke="none" d="
M 639.95 827.05
Q 638.95 827.05 637.85 827.05 559.1 827.05 503.4 848.65 447.75 870.3 447.75 900.9 447.75 931.55 503.4 953.2 559.1 974.85 637.85 974.85 638.95 974.85 639.95 974.85
L 639.95 952.5
Q 639.85 952.6 639.75 952.7 634.6 947.4 628.4 941.95 616.05 930.95 610.2 930.4 604.5 929.85 597.25 931.45
L 591.2 933.25
Q 588.55 929.15 584.45 925.05 576.65 916.9 570.85 916.4 564.85 915.85 556.5 921.2 552.2 923.85 549.2 926.5 546 924.55 543.2 920.1 537.2 911.45 538.25 899.2 539.8 879.05 554.7 863.75
L 569.05 852.6 580.05 860.95
Q 593 869.45 603.45 870.3 613.7 871.2 620.8 861.3
L 625.95 851.2
Q 629.35 854.9 634.5 857.2 638.15 859 639.75 859 639.85 859 639.95 859
L 639.95 827.05 Z"/>
</g>

<g id="Layer10_0_FILL">
<path fill="#120808" stroke="none" d="
M 744.15 201.85
L 742.4 211.05 712 295.1
Q 684.5 274.25 639.2 275.6
L 638.9 333.1 639.2 518.95 563.45 503.55
Q 559.25 534.95 558.1 562.4 556.9 589.25 559.65 610.7
L 559.65 610.75
Q 562.05 613.35 564.65 616 568.85 620.25 573.35 624.35 574 624.9 574.6 625.5
L 574.55 625.55 639 690 639 844.65
Q 641.05 844.65 642.75 844.65 694.153125 844.40625 727.3 840.95 760.4904296875 837.5310546875 778.3 833.25 780.7 832.6 788 831.35 790.75 830.7 793.7 829.8 909.1 792.9 988.2 701.6 1019.8 703.55 1044.75 712.15 1001.2 604.65 938.75 671.7 903.3 652.35 859.5 638.35 820.65 625.9 783.9 620.25 758.7 611.05 755.7 583.1
L 744.3 205.85 744.15 201.85 Z"/>

<path fill="#202020" stroke="none" d="
M 639.2 275.6
Q 594.9 274.3 567.65 294.2
L 534.2 201.85 522.7 583.1
Q 519.65 611.05 494.45 620.25 457.75 625.9 418.9 638.35 375.1 652.35 339.6 671.7 277.15 604.65 233.65 712.15 258.55 703.55 290.15 701.6 369.25 792.9 484.65 829.8 487.6 830.7 490.6 831.65 497.65 832.6 504.45 833.35 518.75 835.75 533.15 837.65 584.25 844.4 635.6 844.65 637.3 844.65 639 844.65
L 639 690 574.55 625.55 574.6 625.5
Q 574 624.9 573.35 624.35 568.85 620.25 564.65 616 562.05 613.35 559.65 610.75
L 559.65 610.7
Q 556.9 589.25 558.1 562.4 559.25 534.95 563.45 503.55
L 639.2 518.95 638.9 333.1 639.2 275.6 Z"/>
</g>

<g id="Symbole_15_0_Layer0_0_FILL">
<path fill="#F2C2A9" stroke="none" d="
M 5.9 0
Q 1.55 32.35 0.35 60.65 -0.85 88.35 1.95 110.45
L 1.95 110.5
Q 4.45 113.2 7.1 115.9 11.45 120.3 16.1 124.5 16.75 125.1 17.4 125.7 19.15 127.3 21.05 128.85 30.25 137.25 43.4 142 47.25 143.45 51.45 144.55 59.1 146.15 66.6 147.1 67.25 147.2 67.75 147.25
L 83.95 147.25 83.95 11.85 5.9 0 Z"/>

<path fill="#EAA993" stroke="none" d="
M 167.55 60.65
Q 166.35 32.35 162 0
L 83.95 11.85 83.95 147.25 100.15 147.25
Q 100.65 147.2 101.3 147.1 108.8 146.15 116.45 144.55 120.65 143.45 124.5 142 137.65 137.25 146.85 128.85 148.75 127.3 150.5 125.7 151.15 125.1 151.8 124.5 156.45 120.3 160.8 115.9 163.45 113.2 165.95 110.5
L 165.95 110.45
Q 168.75 88.35 167.55 60.65 Z"/>
</g>

<g id="Layer1_0_FILL">
<path fill="#FFFFFF" stroke="none" d="
M 567.45 465.3
Q 581.05 477.65 607.25 469.6
L 607.3 469.55
Q 607.55 469.45 607.75 469.4 610.6 467.75 611.15 467.25 611.65 466.85 611.9 466.7 611.9 466.6 611.95 466.6 611.95 466.55 612 466.5 612.05 466.5 612.2 466.5 612.35 466.4 612.45 466.3 610.7 465.8 608.9 465.4 608.25 465.05 607.5 464.75 606.6 464.5 605.65 464.3 602.55 463.5 599.4 462.8 598.95 462.65 598.5 462.6 597.45 462.35 596.55 462.25 587.8 460.55 587.1 460.4 586.2 460.2 585.25 460.05 583.55 459.8 581.85 459.5
L 562.9 457.95 567.45 465.3
M 670.05 469.55
L 670.1 469.6
Q 696.3 477.65 709.9 465.3
L 714.45 457.95 695.5 459.5
Q 693.8 459.8 692.1 460.05 691.15 460.2 690.25 460.4 689.55 460.55 680.8 462.25 679.9 462.35 678.85 462.6 678.4 462.65 677.95 462.8 674.8 463.5 671.7 464.3 670.75 464.5 669.85 464.75 669.1 465.05 668.45 465.4 666.65 465.8 664.9 466.3 665 466.4 665.15 466.5 665.3 466.5 665.35 466.5 665.4 466.55 665.4 466.6 665.45 466.6 665.45 466.7 665.7 466.85 666.2 467.25 666.75 467.75 669.6 469.4 669.8 469.45 670.05 469.55 Z"/>
</g>

<path id="Layer9_0_1_STROKES" stroke="#000000" stroke-opacity="0.2" stroke-width="0.1" stroke-linejoin="round" stroke-linecap="round" fill="none" d="
M 1045 715.35
Q 1044.4 713.75 1043.75 712.15 1043.65 712 1043.6 711.85
M 232.35 715.3
Q 233 713.7 233.65 712.15"/>

<path id="Layer9_0_2_STROKES" stroke="#000000" stroke-opacity="0.2" stroke-width="8" stroke-linejoin="round" stroke-linecap="round" fill="none" d="
M 930.35 678.4
Q 930.15 678.6 930 678.75 911.75 698.4 879 722.05
M 992.25 696.65
Q 996.7 691.45 1001.05 686.2
M 285.5 696.95
Q 280.85 691.6 276.35 686.15
M 347.4 678.7
Q 365.65 698.35 398.4 722"/>

<path id="Layer8_0_1_STROKES" stroke="#000000" stroke-opacity="0.2" stroke-width="8" stroke-linejoin="round" stroke-linecap="round" fill="none" d="
M 639.2 852.05
L 639.2 978.7
M 276.25 842.25
Q 267.05 879 273.95 914.45
M 1000.75 839.85
Q 1009.95 876.5 1003.05 912.1"/>

<path id="Layer0_0_1_STROKES" stroke="#000000" stroke-opacity="0.2" stroke-width="8" stroke-linejoin="round" stroke-linecap="round" fill="none" d="
M 684.85 548.15
L 597.25 548.15
M 669.25 570.75
L 612.9 571"/>
</defs>

<g transform="matrix( 1, 0, 0, 1, 0,0) ">
<use xlink:href="#Layer12_0_FILL"/>
</g>

<g transform="matrix( 1, 0, 0, 1, 0,0) ">
<use xlink:href="#Layer11_0_FILL"/>
</g>

<g transform="matrix( 1, 0, 0, 1, 0,0) ">
<use xlink:href="#Layer10_0_FILL"/>
</g>

<g transform="matrix( 0.9700927734375, 0, 0, 0.9700927734375, 557.75,503.55) ">
<g transform="matrix( 1, 0, 0, 1, 0,0) ">
<use xlink:href="#Symbole_15_0_Layer0_0_FILL"/>
</g>
</g>

<g transform="matrix( 1, 0, 0, 1, 0,0) ">
<use xlink:href="#Layer9_0_1_STROKES"/>

<use xlink:href="#Layer9_0_2_STROKES"/>
</g>

<g transform="matrix( 1, 0, 0, 1, 0,0) ">
<use xlink:href="#Layer8_0_1_STROKES"/>
</g>

<g transform="matrix( 1, 0, 0, 1, 0,0) ">
<use xlink:href="#Layer1_0_FILL"/>
</g>

<g transform="matrix( 1, 0, 0, 1, 0,0) ">
<use xlink:href="#Layer0_0_1_STROKES"/>
</g>
</svg>
