
<svg xmlns="http://www.w3.org/2000/svg" version="1.1" xmlns:xlink="http://www.w3.org/1999/xlink" preserveAspectRatio="none" x="0px" y="0px" width="1280px" height="1024px" viewBox="0 0 1280 1024">
<defs>
<g id="Layer27_0_FILL">
<path fill="#F5CD08" stroke="none" d="
M 640.4 818.6
L 640.4 802.15
Q 620.535546875 801.6916015625 602.65 810.95 599.4 818.45 599.4 827.25 599.4 844.15 611.35 856.05 622.9 867.6 638.95 868.05 639.6 868.05 640.2 868.05 640.3 868.05 640.4 868.05
L 640.4 842.15
Q 640.300390625 842.15 640.2 842.15 639.6 842.15 638.95 842.15 638.75 842.1 638.65 842.1 634.75 841.6 631.85 838.75 628.45 835.3 628.45 830.35 628.45 825.45 631.85 822 635.3 818.6 640.2 818.6 640.300390625 818.6 640.4 818.6 Z"/>

<path fill="#E0BC07" stroke="none" d="
M 640.4 802.15
L 640.4 818.6
Q 645.2189453125 818.6689453125 648.55 822 652 825.45 652 830.35 652 835.3 648.55 838.75 645.2189453125 842.0810546875 640.4 842.15
L 640.4 868.05
Q 657.170703125 867.97890625 669.05 856.05 681.05 844.15 681.05 827.25 681.05 818.4 677.8 810.95 658.296875 802.6083984375 640.4 802.15 Z"/>
</g>

<g id="Layer22_0_FILL">
<path fill="#FFFFFF" stroke="none" d="
M 624.15 371.3
Q 609.3 352.1 588.2 352.1 567 352.1 552.1 371.3 537.25 390.45 537.25 417.65 537.25 428.75 539.75 438.55 439.3 479.8 428.7 553.5 417.2 633.4 507.6 754.5 573.35 760.85 639.15 760.95 639.574609375 760.9494140625 640 760.95
L 640 405.15
Q 639.2064453125 410.780859375 639.15 416.8 638.9 390.15 624.15 371.3
M 618.1 430.45
Q 615.1 433.45 610.9 433.45 606.7 433.45 603.7 430.45 600.7 427.45 600.7 423.25 600.7 419.05 603.7 416.05 606.7 413.05 610.9 413.05 615.1 413.05 618.1 416.05 621.1 419.05 621.1 423.25 621.1 427.45 618.1 430.45 Z"/>

<path fill="#E5E5E5" stroke="none" d="
M 726.15 371.3
Q 711.25 352.1 690.1 352.1 669 352.1 654.1 371.3 642.7201171875 385.892578125 640 405.15
L 640 760.95
Q 705.3744140625 760.808984375 770.7 754.5 861.1 633.4 849.55 553.5 838.95 479.8 738.25 439.8 741.05 429.45 741.05 417.65 741.05 390.45 726.15 371.3
M 674.95 430.45
Q 672 433.45 667.75 433.45 663.55 433.45 660.55 430.45 657.55 427.45 657.55 423.25 657.55 419.05 660.55 416.05 663.55 413.05 667.75 413.05 672 413.05 674.95 416.05 677.95 419.05 677.95 423.25 677.95 427.45 674.95 430.45 Z"/>
</g>

<g id="Layer19_0_FILL">
<path fill="#0099E2" stroke="none" d="
M 572.65 790.9
Q 529.15 785.3 485.9 772.8 423.55 847.85 459.75 901.2 468.7244140625 914.4888671875 483.85 926.4 486.2865234375 928.292578125 488.85 930.15 489.25 930.5 489.6 930.75
L 485.35 963.75
Q 515.05 970.8 544.6 975.2 485.45 870.95 572.65 790.9
M 490.15 926.4
L 497.4 870.85 490.15 926.4
M 640.4 334
Q 639.7751953125 334.0021484375 639.15 334 638.5751953125 334.0021484375 638 334 540.89296875 334.7568359375 472 403.6 402.4 473.3 402.4 571.8 402.4 670.35 472 739.95 478.35 746.25 484.95 752.05 485.3 752.05 485.6 752.15 496.55 753.4 507.6 754.5 417.2 633.4 428.7 553.5
L 419.6 553.3 428.7 553.5
Q 439.3 479.8 539.75 438.55 537.25 428.75 537.25 417.65 537.25 390.45 552.1 371.3 567 352.1 588.2 352.1 609.3 352.1 624.15 371.3 634.99296875 385.15703125 638 403.2 639.0837890625 409.741015625 639.15 416.8 639.2193359375 409.4095703125 640.4 402.6
L 640.4 334 Z"/>

<path fill="#0081BF" stroke="none" d="
M 792.35 772.8
Q 749.15 785.3 705.65 790.9 792.8 870.95 733.4 976.25 757.548828125 972.8232421875 781.6 967.5 787.3779296875 966.2349609375 793.15 964.85
L 788.65 930.75
Q 793.2619140625 927.4296875 797.35 924 868.690234375 864.64453125 792.35 772.8
M 787.75 924
L 780.9 870.85 787.75 924
M 690.1 352.1
Q 711.25 352.1 726.15 371.3 741.05 390.45 741.05 417.65 741.05 429.45 738.25 439.8 838.95 479.8 849.55 553.5
L 858.7 553.3 849.55 553.5
Q 861.1 633.4 770.7 754.5 781.7 753.4 792.7 752.15 793 752.05 793.3 752.05 799.95 746.25 806.25 739.95 875.9 670.35 875.9 571.8 875.9 473.3 806.25 403.6 737.39296875 334.7927734375 640.4 334
L 640.4 402.6
Q 643.4765625 384.92265625 654.1 371.3 669 352.1 690.1 352.1 Z"/>

<path fill="#E5E5E5" stroke="none" d="
M 640 868.05
L 640 879.05 723.5 879.05
Q 710.1119140625 972.268359375 640 970.55
L 640 982.6
Q 686.99765625 982.8220703125 733.4 976.25 792.8 870.95 705.65 790.9 685.3 793.5 664.85 794.65 667 796.3 669.05 798.35 674.8 804.1 677.8 810.95 681.05 818.4 681.05 827.25 681.05 844.15 669.05 856.05 657.1 868.05 640.2 868.05 640.10078125 868.05 640 868.05
M 640 879.05
L 640 970.55
Q 710.1119140625 972.268359375 723.5 879.05
L 640 879.05 Z"/>

<path fill="#C64239" stroke="none" d="
M 792.95 752.4
Q 792.8 752.25 792.7 752.15 781.7 753.4 770.7 754.5 705.575 760.7896484375 640.4 760.95
L 640.4 786.45
Q 654.3255859375 786.5083984375 664.85 794.65 685.3 793.5 705.65 790.9 749.15 785.3 792.35 772.8 803.4 761.4 792.95 752.4 Z"/>

<path fill="#E0BC07" stroke="none" d="
M 677.8 810.95
Q 674.8 804.1 669.05 798.35 667 796.3 664.85 794.65 654.3255859375 786.5083984375 640.4 786.45
L 640.4 802.15
Q 658.2970703125 802.60859375 677.8 810.95 Z"/>

<path fill="#645B4B" stroke="none" d="
M 640.2 818.6
Q 640.0998046875 818.6 640 818.6 635.2294921875 818.66953125 631.85 822 628.45 825.45 628.45 830.35 628.45 835.3 631.85 838.75 634.75 841.6 638.65 842.1 638.75 842.1 638.95 842.15 639.492578125 842.15 640 842.15 640.10078125 842.15 640.2 842.15 645.15 842.15 648.55 838.75 652 835.3 652 830.35 652 825.45 648.55 822 645.15 818.6 640.2 818.6 Z"/>

<path fill="#F5CD08" stroke="none" d="
M 640.4 786.45
Q 640.3001953125 786.45 640.2 786.45 640.0998046875 786.45 640 786.45 638.9916015625 786.454296875 638 786.5 625.3005859375 787.109765625 615.4 794.8 613.3 796.4 611.35 798.35 605.65 804.1 602.65 810.95 619.4521484375 802.25234375 638 802.15 638.99765625 802.155078125 640 802.15 640.2 802.1787109375 640.4 802.15
L 640.4 786.45 Z"/>

<path fill="#E54D42" stroke="none" d="
M 485.35 752.4
Q 474.9 761.4 485.9 772.8 529.15 785.3 572.65 790.9 594 793.65 615.4 794.8 625.3005859375 787.109765625 638 786.5 638.9916015625 786.454296875 640 786.45 640.0998046875 786.45 640.2 786.45 640.3001953125 786.45 640.4 786.45
L 640.4 760.95
Q 640.2001953125 760.949609375 640 760.95 639.575390625 760.9494140625 639.15 760.95 638.574609375 760.94921875 638 760.95 572.7751953125 760.79453125 507.6 754.5 496.55 753.4 485.6 752.15 485.45 752.25 485.35 752.4 Z"/>

<path fill="#FFFFFF" stroke="none" d="
M 667.75 433.45
Q 672 433.45 674.95 430.45 677.95 427.45 677.95 423.25 677.95 419.05 674.95 416.05 672 413.05 667.75 413.05 663.55 413.05 660.55 416.05 657.55 419.05 657.55 423.25 657.55 427.45 660.55 430.45 663.55 433.45 667.75 433.45
M 610.9 433.45
Q 615.1 433.45 618.1 430.45 621.1 427.45 621.1 423.25 621.1 419.05 618.1 416.05 615.1 413.05 610.9 413.05 606.7 413.05 603.7 416.05 600.7 419.05 600.7 423.25 600.7 427.45 603.7 430.45 606.7 433.45 610.9 433.45
M 611.35 798.35
Q 613.3 796.4 615.4 794.8 594 793.65 572.65 790.9 485.45 870.95 544.6 975.2 592.602734375 982.3552734375 640 982.6
L 640 970.55
Q 639.67578125 970.5599609375 639.35 970.55 639.67578125 970.5599609375 640 970.55
L 640 879.05 554.8 879.05
Q 568.25 972.7 638.95 970.55 568.25 972.7 554.8 879.05
L 640 879.05 640 868.05
Q 639.492578125 868.05 638.95 868.05 622.9 867.6 611.35 856.05 599.4 844.15 599.4 827.25 599.4 818.45 602.65 810.95 605.65 804.1 611.35 798.35 Z"/>
</g>

<g id="Layer18_0_FILL">
<path fill="#E54D42" stroke="none" d="
M 607.25 478.65
Q 605.15 485.5 605.15 493.25 605.15 510.55 615.4 522.7 624.8 533.85 637.65 534.9 638.95 534.95 640.2 534.95 640.3001953125 534.95 640.4 534.95
L 640.4 451.55
Q 640.3001953125 451.55 640.2 451.55 635.5 451.55 631.3 452.85 628.6 453.65 626.05 455 620.25 458 615.4 463.75 610.9 469.1 608.4 475.45 607.75 477 607.25 478.65
M 627.3 493.15
Q 622.95 493.15 619.9 489.45 616.8 485.75 616.8 480.5 616.8 475.3 619.9 471.6 622.95 467.9 627.3 467.9 631.6 467.9 634.65 471.6 637.75 475.3 637.75 480.5 637.75 485.75 634.65 489.45 631.6 493.15 627.3 493.15 Z"/>

<path fill="#C64239" stroke="none" d="
M 665.05 463.75
Q 659.05 456.6 651.5 453.65 649.45 452.85 647.3 452.3 647 452.25 646.75 452.2 643.6927734375 451.569140625 640.4 451.55
L 640.4 534.95
Q 654.8208984375 534.865625 665.05 522.7 675.3 510.55 675.3 493.25 675.3 486.1 673.55 479.85 673.25 479.75 673.05 479.4 673.25 479.5 673.45 479.6 673.1 478.4 672.75 477.3 670.2 469.9 665.05 463.75 Z"/>
</g>

<path id="Layer26_0_1_STROKES" stroke="#000000" stroke-opacity="0.2" stroke-width="4" stroke-linejoin="round" stroke-linecap="round" fill="none" d="
M 640.2 868.05
L 640.2 842.15"/>

<path id="Layer25_0_1_STROKES" stroke="#000000" stroke-opacity="0.2" stroke-width="8" stroke-linejoin="round" stroke-linecap="round" fill="none" d="
M 602.65 810.95
Q 636.65 793.35 677.8 810.95"/>

<path id="Layer21_0_1_STROKES" stroke="#000000" stroke-opacity="0.2" stroke-width="8" stroke-linejoin="round" stroke-linecap="round" fill="none" d="
M 607.25 483.75
Q 598.45 488.3 588.2 488.3 567 488.3 552.1 469.1 544.15 458.75 540.45 446.2 540.05 444.9 539.75 443.65"/>

<path id="Layer20_0_1_STROKES" stroke="#000000" stroke-opacity="0.2" stroke-width="8" stroke-linejoin="round" stroke-linecap="round" fill="none" d="
M 676.65 483.95
Q 684.3 487.25 693.15 487.25 714.3 487.25 729.25 468.05 737.2 457.75 740.9 445.2 741.1 444.55 741.3 443.9"/>

<path id="Layer19_0_1_STROKES" stroke="#000000" stroke-width="8.35" stroke-linejoin="round" stroke-linecap="round" fill="none" d="
M 667.75 433.45
Q 663.55 433.45 660.55 430.45 657.55 427.45 657.55 423.25 657.55 419.05 660.55 416.05 663.55 413.05 667.75 413.05 672 413.05 674.95 416.05 677.95 419.05 677.95 423.25 677.95 427.45 674.95 430.45 672 433.45 667.75 433.45 Z
M 610.9 433.45
Q 606.7 433.45 603.7 430.45 600.7 427.45 600.7 423.25 600.7 419.05 603.7 416.05 606.7 413.05 610.9 413.05 615.1 413.05 618.1 416.05 621.1 419.05 621.1 423.25 621.1 427.45 618.1 430.45 615.1 433.45 610.9 433.45 Z"/>

<path id="Layer19_0_2_STROKES" stroke="#000000" stroke-opacity="0.2" stroke-width="8" stroke-linejoin="round" stroke-linecap="round" fill="none" d="
M 428.7 553.5
L 570.1 555.85
M 858.7 553.3
L 849.55 553.5
M 705.65 521.45
L 800 488.3
M 805.1 595.4
Q 799.2 609 792.25 620.95
L 830.6 632.4
M 640.4 534.95
L 640.2 710.45
Q 640.2994140625 710.4474609375 640.4 710.45 742.0490234375 707.665234375 792.25 620.95
L 710.75 596.7
M 708.2 555.85
L 849.55 553.5
M 428.7 553.5
L 419.6 553.3
M 567.55 596.7
L 486.05 620.95
Q 535.76640625 706.828125 638 710.375 639.096484375 710.4212890625 640.2 710.45
M 447.65 632.4
L 486.05 620.95
Q 479.1 609 473.15 595.4
M 572.65 521.45
L 478.25 488.3
M 640 879.05
L 723.5 879.05
Q 710.1119140625 972.268359375 640 970.575 639.67578125 970.5599609375 639.35 970.55
M 640 879.05
L 554.8 879.05
Q 568.25 972.7 638.95 970.55
M 490.175 926.4
L 497.4 870.85
M 787.775 924
L 780.9 870.85"/>
</defs>

<g transform="matrix( 1, 0, 0, 1, 0,0) ">
<use xlink:href="#Layer27_0_FILL"/>
</g>

<g transform="matrix( 1, 0, 0, 1, 0,0) ">
<use xlink:href="#Layer26_0_1_STROKES"/>
</g>

<g transform="matrix( 1, 0, 0, 1, 0,0) ">
<use xlink:href="#Layer25_0_1_STROKES"/>
</g>

<g transform="matrix( 1, 0, 0, 1, 0,0) ">
<use xlink:href="#Layer22_0_FILL"/>
</g>

<g transform="matrix( 1, 0, 0, 1, 0,0) ">
<use xlink:href="#Layer21_0_1_STROKES"/>
</g>

<g transform="matrix( 1, 0, 0, 1, 0,0) ">
<use xlink:href="#Layer20_0_1_STROKES"/>
</g>

<g transform="matrix( 1, 0, 0, 1, 0,0) ">
<use xlink:href="#Layer19_0_FILL"/>

<use xlink:href="#Layer19_0_1_STROKES"/>

<use xlink:href="#Layer19_0_2_STROKES"/>
</g>

<g transform="matrix( 1, 0, 0, 1, 0,0) ">
<use xlink:href="#Layer18_0_FILL"/>
</g>
</svg>
