
<svg xmlns="http://www.w3.org/2000/svg" version="1.1" xmlns:xlink="http://www.w3.org/1999/xlink" preserveAspectRatio="none" x="0px" y="0px" width="1280px" height="1024px" viewBox="0 0 1280 1024">
<defs>
<g id="Layer17_0_FILL">
<path fill="#DAB341" stroke="none" d="
M 640.1 808.15
L 640.1 829.85 697.7 829.85 640.1 808.15
M 462.7 662.85
Q 437.45 664.65 412.2 685
L 529.35 758.85 462.7 662.85
M 550.6 548.6
L 580.45 548.85
Q 457.0376953125 537.6263671875 334.7 478.25 334.65 478.25 334.65 478.3 424.6359375 565.34609375 496.95 658.9 517.721875 655.4140625 537.85 655.1
L 540.8 630.5 550.6 548.6
M 279.75 739.6
Q 279.9533203125 740.3541015625 280.15 741.1
L 589.35 864.85 639.45 864.85 639.45 857.95 639.45 829.85 578.65 829.85 529.35 758.85 412.2 685 388.15 669.85
Q 358.7765625 680.513671875 367.55 707.45 367.8349609375 708.3330078125 368.15 709.2 367.4734375 708.5435546875 366.75 707.9 345.18125 687.929296875 313.15 688.85 269.83125 698.8201171875 279.75 739.6
M 387 725
L 470 765 387 725 Z"/>

<path fill="#314A65" stroke="none" d="
M 537.85 655.1
Q 517.721875 655.4140625 496.95 658.9 541.6826171875 716.730078125 593.05 790.45
L 639.45 807.9 639.45 792.55 639.45 729.15 540.8 630.5 537.85 655.1
M 367.55 707.45
Q 367.1681640625 707.69140625 366.75 707.9 367.4734375 708.5435546875 368.15 709.2 367.8349609375 708.3330078125 367.55 707.45
M 279.75 739.6
Q 277.1447265625 740.5666015625 274.6 741.6 252.05 750.8 236.2 766.75 206.65 796.5 193.8 871.95 200 874.5 205.5 877.15 356.85 950.2 506.45 973.1 528.765625 976.5189453125 551.05 978.8 559.81953125 979.72890625 568.55 980.45 587.9666015625 982.0775390625 607.3 982.85 607.74765625 982.8669921875 608.15 982.85 608.9068359375 982.9041015625 609.65 982.9 624.14765625 983.483984375 638.65 983.55 639.05 983.55 639.45 983.55
L 639.45 868.2 639.45 864.85 589.35 864.85 280.15 741.1
Q 279.9533203125 740.3541015625 279.75 739.6 Z"/>

<path fill="#FFD14C" stroke="none" d="
M 334.65 478.3
L 334.65 478.35 462.7 662.85 529.35 758.85 578.65 829.85 639.45 829.85 639.45 807.9 593.05 790.45
Q 541.6826171875 716.730078125 496.95 658.9 424.6359375 565.34609375 334.65 478.3 Z"/>

<path fill="#A28530" stroke="none" d="
M 944.8 479.25
Q 854.9787109375 566.16015625 782.8 659.55 735.9599609375 720.1646484375 677 792.55
L 640.1 792.55 640.1 808.15 697.7 829.85 701.4 829.85 750.7 758.85 817.35 662.85 944.8 479.25 Z"/>

<path fill="#C29F39" stroke="none" d="
M 891.9 669.85
L 867.85 685 750.7 758.85 701.4 829.85 697.7 829.85 640.1 829.85 640.1 864.85 690.7 864.85 999.9 741.1 999.9 741.05
Q 1010.9771484375 698.9947265625 966.9 688.85 933.85 687.9 911.9 709.2 922.2 680.85 891.9 669.85
M 760 792
L 866 738 760 792
M 867.85 685
Q 842.6 664.65 817.35 662.85
L 750.7 758.85 867.85 685
M 944.8 479.25
L 945.45 478.35
Q 945.35 478.2 945.25 478.15 820.06484375 537.60078125 695.95 548.85
L 725.25 548.6 738.1 655.1
Q 760.063671875 655.46015625 782.8 659.55 854.9787109375 566.16015625 944.8 479.25 Z"/>

<path fill="#273A50" stroke="none" d="
M 725.25 548.6
L 695.95 548.85 637.95 549.4 580.45 548.85 550.6 548.6 540.8 630.5 639.45 729.15 639.45 792.55 639.45 807.9 639.45 829.85 639.45 857.95 639.45 864.85 639.45 868.2 639.45 983.55
Q 641.0255859375 983.5427734375 642.6 983.5 643.95078125 983.5169921875 645.3 983.5 648.4716796875 983.46484375 651.65 983.4 680.696875 982.8732421875 709.8 980.4 718.59765625 979.6865234375 727.35 978.75 749.488671875 976.4927734375 771.65 973.1 921.25 950.2 1072.6 877.15 1076.5 875.3 1080.4 873.35 1080.95 873.1 1081.5 872.8 1081.85 872.25 1082.15 872.1 1077.05 842 1069.3 819.2 1063 800.8 1055.05 787.15 1048.05 775.1 1039.7 766.75 1024.55 751.5 1003.3 742.45 1001.6248046875 741.733984375 999.9 741.05
L 999.9 741.1 690.7 864.85 640.1 864.85 640.1 829.85 640.1 808.15 640.1 792.55 677 792.55
Q 735.9599609375 720.1646484375 782.8 659.55 760.063671875 655.46015625 738.1 655.1
L 725.25 548.6 Z"/>
</g>

<g id="Layer12_0_FILL">
<path fill="#000000" fill-opacity="0.2" stroke="none" d="
M 584.45 688.45
Q 583.1 687.45 581.4 687.75 579.7 688.05 578.7 689.45 577.75 690.8 578 692.55 588.15 752.25 623.4 795.25 624.5 796.55 626.2 796.75 627.9 796.95 629.25 795.85 630.5 794.75 630.75 793.05 630.9 791.3 629.8 790 595.9 748.6 586.15 691.15 585.85 689.45 584.45 688.45
M 696.25 687.75
Q 694.55 687.45 693.15 688.45 691.75 689.45 691.45 691.15 681.7 748.6 647.8 790 646.75 791.3 646.9 793.05 647.1 794.75 648.45 795.85 649.7 796.95 651.45 796.75 653.15 796.55 654.25 795.25 689.45 752.25 699.6 692.55 699.9 690.8 698.85 689.45 697.9 688.05 696.25 687.75 Z"/>
</g>

<g id="Layer8_0_FILL">
<path fill="#F6CA49" stroke="none" d="
M 500.45 464.95
L 500.45 465
Q 500.219140625 469.90078125 500.55 475.85 500.91796875 482.603125 501.9 488.75 506.9205078125 520.19140625 528 535.75 537.85 542.95 538.2 530.35
L 522.7 443.9
Q 501.7857421875 435.859375 500.45 464.95 Z"/>

<path fill="#A37F27" stroke="none" d="
M 775.55 484.95
Q 776.094921875 480.5748046875 776.35 475.9 776.958203125 464.7091796875 775.6 457.2 772.01796875 437.0408203125 754.25 443.9
L 738.7 530.4
Q 739.1 542.95 748.85 535.75 771.2384765625 519.2578125 775.55 484.95 Z"/>
</g>

<g id="Layer6_0_FILL">
<path fill="#F0C548" stroke="none" d="
M 640 277
Q 637.85 280.55 633.4 285.8 628.15 292.05 626 293.05 615.3 293.15 607.2 294.55 601 295.65 590.8 298.6 585.6 300 580.65 302.1 529.35 322.5 520.7 389.35 519.8 396.65 519.35 404.5 518.85 413.85 519.05 423.35 519.1 425.65 519.15 428 519.3 432.9 519.65 438 520.3 449.05 521.8 460.9 521.85 461.25 521.9 461.6 522 462.25 522.1 462.95 522.2 464.8 522.45 466.6
L 523.2 471.6 525.3 486.35
Q 528.685546875 535.0552734375 524.75 579.45 523.05 598.65 520 617
L 599.6 662.4 640 688
Q 639.973046875 685.95234375 639.95 684.3
L 640 682.7
Q 640.0072265625 679.7482421875 640.15 678.6
L 640 277 Z"/>

<path fill="#DAB341" stroke="none" d="
M 673.15 294.55
Q 665.05 293.15 654.35 293.05 652.2 292.05 646.95 285.8 642.5 280.55 640 277
L 640.15 678.6
Q 640.0072265625 679.7482421875 640 682.7
L 639.95 684.3
Q 639.973046875 685.95234375 640 688 653.55 678.35 654.15 678
L 680.7 662.4 760.35 617
Q 757.3 598.65 755.6 579.45 751.65 535.05 755.05 486.4
L 757.15 471.6 757.9 466.6
Q 758.15 464.8 758.25 462.95 758.35 462.25 758.45 461.6 758.5 461.25 758.55 460.9 760.05 449.05 760.7 438 761.05 432.9 761.2 428 761.25 425.65 761.3 423.35 761.5 413.85 761 404.5 760.55 396.65 759.65 389.35 751 322.5 699.7 302.1 694.75 300 689.55 298.6 679.35 295.65 673.15 294.55 Z"/>
</g>

<g id="Layer5_0_FILL">
<path fill="#FFFFFF" stroke="none" d="
M 602.35 478.45
Q 601.35 478.2 600.5 477.95 599.15 477.45 598 477.2 586.5 474.05 585.65 473.85 584.75 473.6 583.8 473.35 581.25 472.75 578.75 472.2
L 554 469.3 560 482.85
Q 577.65 505.65 611.95 490.85
L 612 490.8
Q 612.3 490.6 612.65 490.45 616.3 487.45 617.05 486.45 617.65 485.75 617.95 485.45 618 485.3 618.1 485.25 618.1 485.2 618.15 485.15 618.25 485.1 618.35 485.05 618.5 484.9 618.75 484.7 616.45 483.85 614.1 483 613.2 482.45 612.2 481.9 611.05 481.4 609.85 481.05 606.1 479.75 602.35 478.45 Z"/>

<path fill="#E7E7E7" stroke="none" d="
M 659.85 484.7
Q 660.1 484.9 660.25 485.05 660.35 485.1 660.45 485.15 660.5 485.2 660.5 485.25 660.6 485.3 660.65 485.45 660.95 485.75 661.55 486.45 662.3 487.45 665.95 490.45 666.3 490.6 666.6 490.8
L 666.65 490.85
Q 700.95 505.65 718.6 482.85
L 724.6 469.3 699.85 472.2
Q 697.35 472.75 694.8 473.35 693.85 473.6 692.95 473.85 692.1 474.05 680.6 477.2 679.45 477.45 678.1 477.95 677.25 478.2 676.25 478.45 672.5 479.75 668.75 481.05 667.55 481.4 666.4 481.9 665.4 482.45 664.5 483 662.15 483.85 659.85 484.7 Z"/>
</g>

<g id="Layer2_0_FILL">
<path fill="#F0C548" stroke="none" d="
M 640 765
Q 613.7 765 595.1 783.6 576.5 802.2 576.5 828.5 576.5 854.8 595.1 873.4 613.7 892 640 892 666.3 892 684.9 873.4 703.5 854.8 703.5 828.5 703.5 802.2 684.9 783.6 666.3 765 640 765
M 588.4 828.5
Q 588.4 807.15 603.5 792.05 618.65 776.9 640 776.9 661.35 776.9 676.5 792.05 691.6 807.15 691.6 828.5 691.6 849.9 676.5 865 661.35 880.1 640 880.1 618.65 880.1 603.5 865 588.4 849.9 588.4 828.5
M 603.5 792.05
Q 588.4 807.15 588.4 828.5 588.4 849.9 603.5 865 618.65 880.1 640 880.1 661.35 880.1 676.5 865 691.6 849.9 691.6 828.5 691.6 807.15 676.5 792.05 661.35 776.9 640 776.9 618.65 776.9 603.5 792.05 Z"/>
</g>

<g id="Layer1_0_FILL">
<path fill="#F0DFB0" stroke="none" d="
M 620.85 836.65
Q 629.1 836.65 634.95 830.8 640.8 824.95 640.8 816.7 640.8 808.45 634.95 802.6 629.1 796.75 620.85 796.75 612.6 796.75 606.75 802.6 600.9 808.45 600.9 816.7 600.9 824.95 606.75 830.8 612.6 836.65 620.85 836.65 Z"/>
</g>

<g id="Layer0_0_FILL">
<path fill="#F0DFB0" stroke="none" d="
M 538.25 371.4
Q 537.65 383.05 544.1 386.8 550.55 390.5 560.3 384.15 570.05 377.75 577.4 365.05 584.75 352.3 585.4 340.65 586.05 329 579.6 325.3 573.15 321.55 563.35 327.9 553.6 334.3 546.25 347.05 538.9 359.75 538.25 371.4 Z"/>
</g>

<path id="Layer17_0_1_STROKES" stroke="#0000FF" stroke-width="0.1" stroke-linejoin="round" stroke-linecap="round" fill="none" d="
M 1082.15 872.1
Q 1082.45 871.9 1082.8 871.75"/>

<path id="Layer17_0_2_STROKES" stroke="#000000" stroke-opacity="0.2" stroke-width="8" stroke-linejoin="round" stroke-linecap="round" fill="none" d="
M 867.85 685
L 750.7 758.85
M 387 725
L 470 765
M 412.2 685
L 529.35 758.85
M 760 792
L 866 738"/>

<path id="Layer13_0_1_STROKES" stroke="#000000" stroke-opacity="0.2" stroke-width="8" stroke-linejoin="round" stroke-linecap="round" fill="none" d="
M 323.65 916.15
Q 321.2 903.45 321.1 890.6 320.9 872.05 325.65 853.15
M 957.35 851.05
Q 963.9 877.3 961.05 902.9 960.45 908.5 959.35 914.05"/>

<path id="Layer12_0_1_STROKES" stroke="#000000" stroke-opacity="0.09803921568627451" stroke-width="8" stroke-linejoin="round" stroke-linecap="round" fill="none" d="
M 639.7 869.8
L 639.7 973.05"/>

<path id="Layer4_0_1_STROKES" stroke="#33FF00" stroke-width="0.1" stroke-linejoin="round" stroke-linecap="round" fill="none" d="
M 519.15 463
L 519.6 462.65"/>

<path id="Layer2_0_1_STROKES" stroke="#000000" stroke-opacity="0.2" stroke-width="8" stroke-linejoin="round" stroke-linecap="round" fill="none" d="
M 691.6 828.5
Q 691.6 849.9 676.5 865 661.35 880.1 640 880.1 618.65 880.1 603.5 865 588.4 849.9 588.4 828.5 588.4 807.15 603.5 792.05 618.65 776.9 640 776.9 661.35 776.9 676.5 792.05 691.6 807.15 691.6 828.5 Z"/>
</defs>

<g transform="matrix( 1, 0, 0, 1, 0,0) ">
<use xlink:href="#Layer17_0_FILL"/>

<use xlink:href="#Layer17_0_1_STROKES"/>

<use xlink:href="#Layer17_0_2_STROKES"/>
</g>

<g transform="matrix( 1, 0, 0, 1, 0,0) ">
<use xlink:href="#Layer13_0_1_STROKES"/>
</g>

<g transform="matrix( 1, 0, 0, 1, 0,0) ">
<use xlink:href="#Layer12_0_FILL"/>

<use xlink:href="#Layer12_0_1_STROKES"/>
</g>

<g transform="matrix( 1, 0, 0, 1, 0,0) ">
<use xlink:href="#Layer8_0_FILL"/>
</g>

<g transform="matrix( 1, 0, 0, 1, 0,0) ">
<use xlink:href="#Layer6_0_FILL"/>
</g>

<g transform="matrix( 1, 0, 0, 1, 0,0) ">
<use xlink:href="#Layer5_0_FILL"/>
</g>

<g transform="matrix( 1, 0, 0, 1, 0,0) ">
<use xlink:href="#Layer4_0_1_STROKES"/>
</g>

<g transform="matrix( 1, 0, 0, 1, 0,0) ">
<use xlink:href="#Layer2_0_FILL"/>

<use xlink:href="#Layer2_0_1_STROKES"/>
</g>

<g transform="matrix( 1, 0, 0, 1, 0,0) ">
<use xlink:href="#Layer1_0_FILL"/>
</g>

<g transform="matrix( 1, 0, 0, 1, 0,0) ">
<use xlink:href="#Layer0_0_FILL"/>
</g>
</svg>
