
<svg xmlns="http://www.w3.org/2000/svg" version="1.1" xmlns:xlink="http://www.w3.org/1999/xlink" preserveAspectRatio="none" x="0px" y="0px" width="1280px" height="1024px" viewBox="0 0 1280 1024">
<defs>
<g id="Layer12_0_FILL">
<path fill="#BBBDB1" stroke="none" d="
M 795.5 936.1
Q 793.55 915.6 786.95 895.9 755.75 921.7 761.1 954.85 778.85 946.75 795.5 936.1
M 643.6 832.45
L 638.05 832.85 638.05 969.95 647.65 979.55
Q 682 978.75 713.3 971.2 699.2 928.2 698.1 854.9
L 723.75 852.4 726.9 849.4 733.45 843.25 643.6 832.45 Z"/>

<path fill="#573F19" stroke="none" d="
M 762.45 846.8
L 733.45 843.25 726.9 849.4
Q 727.85 851.35 728.7 853.4
L 723.75 852.4 698.1 854.9
Q 699.2 928.2 713.3 971.2 734.75 965.95 754.75 957.55 758 956.2 761.1 954.85 755.75 921.7 786.95 895.9 778.5 870.7 762.45 846.8
M 754.75 953.85
Q 752.4 901.85 728.7 849.75 752.4 901.85 754.75 953.85
M 541.5 869.7
Q 541 871.05 540.6 872.45
L 577.4 909.3
Q 579.85 885.45 580.35 857.1
L 550.95 847.3
Q 545.7 858.5 541.5 869.7
M 516.1 846.8
Q 515.85 847.1 515.6 847.5
L 540.6 872.45
Q 541 871.05 541.5 869.7 545.7 858.5 550.95 847.3
L 527.85 839.65 516.1 846.8 Z"/>

<path fill="#E1E3D5" stroke="none" d="
M 647.65 979.55
L 638.05 969.95 577.4 909.3
Q 573.6 945.55 565.2 971.15 600.25 979.65 639.25 979.6 643.45 979.6 647.65 979.55
M 517.45 954.75
Q 522.8 921.7 491.6 895.8 484.95 915.6 483.05 936.05 499.65 946.7 517.45 954.75 Z"/>

<path fill="#765621" stroke="none" d="
M 540.6 872.45
L 515.6 847.5
Q 499.9 871.05 491.6 895.8 522.8 921.7 517.45 954.75 520.6 956.15 523.75 957.5 543.8 965.95 565.2 971.15 573.6 945.55 577.4 909.3
L 540.6 872.45
Q 525.65 913.15 523.75 953.8 525.65 913.15 540.6 872.45 Z"/>

<path fill="#CFD1C4" stroke="none" d="
M 552.5 844
Q 551.65 845.65 550.95 847.3
L 580.35 857.1
Q 579.85 885.45 577.4 909.3
L 638.05 969.95 638.05 832.85 527.85 839.65 550.95 847.3
Q 551.65 845.65 552.5 844 Z"/>
</g>

<g id="Layer11_0_FILL">
<path fill="#775723" stroke="none" d="
M 581.9 863.95
Q 582.05 864 582.3 864 587.65 864.65 593.3 865.15 592.5 864.6 591.8 864 565.55 835 560.15 800.25 559.55 799.75 559 799.25 554.45 795.25 552.5 791.55 551.95 791.8 551.35 792.1 489.9 823.35 465.15 806.55 476.45 823.55 494.75 835.8 527.3 857.45 581.9 863.95
M 638.05 615.95
Q 615.85 607.55 590.25 607.55 573.85 607.55 558.9 611.05 556.7 611.5 554.45 612.1 535.8 616.15 519.7 621.2 520.4 621.5 521.15 621.85 524.95 623.55 529.05 625.45 531.75 626.7 532.75 629.45 533.8 632.3 532.55 635.1 532.45 635.35 532.3 635.65 547.7 634.5 565.5 636.95 626.6 645.2 633.25 700.75 634.65 712.7 633.55 726.85 635.7 726.6 638.05 726.6
L 638.05 615.95
M 462.65 647.65
Q 455.85 667.6 452 687.15 474.6 645.1 519.85 637.15 517.45 636 515.1 635
L 515.1 635.05
Q 506.9 631.3 499.8 628.2 478.35 636.7 462.65 647.65 Z"/>

<path fill="#E2E4D6" stroke="none" d="
M 604.9 827.1
Q 595.8 822.5 592.75 816.7 571.6 810.05 560.15 800.25 565.55 835 591.8 864 592.5 864.6 593.3 865.15
L 638.05 872.45 638.05 834.15
Q 618.6 834.15 604.9 827.1
M 447.3 746.85
Q 448.25 771.95 457.1 791.85 460.55 799.6 465.15 806.55 489.9 823.35 551.35 792.1 551.95 791.8 552.5 791.55 551.1 789.1 550.9 786.75 550.2 779.25 561.75 773.5
L 577.4 767.95
Q 584.7 759.2 596.2 751.1 603.35 746 612.1 741.2 613.25 735.75 619.5 731.6 625.55 727.7 633.55 726.85 634.65 712.7 633.25 700.75 626.6 645.2 565.5 636.95 547.7 634.5 532.3 635.65 531 637.85 528.55 638.85 525.7 639.85 522.95 638.6 521.35 637.85 519.85 637.15 474.6 645.1 452 687.15 449.75 698.7 448.55 710.1 446.5 728.65 447.3 746.85
M 515.6 686.85
Q 526.25 676.15 540.65 675.6 584.3 673.85 603.15 711 607 722.4 600.35 731.05 574.95 764.4 540.6 762.5 526.25 760.55 515.6 749.9 502.5 736.8 502.5 718.4 502.5 699.85 515.6 686.85 Z"/>

<path fill="#D0D2C5" stroke="none" d="
M 639.9 834.15
Q 639.5 834.15 639 834.15
L 638.95 834.15
Q 638.55 834.15 638.05 834.15
L 638.05 872.45 638.95 872.6 684.65 865.15
Q 685.4 864.6 686.15 864 712.4 835 717.8 800.25 706.3 810.05 685.15 816.7 682.1 822.5 673 827.1 659.35 834.15 639.9 834.15 Z"/>

<path fill="#CE994E" stroke="none" d="
M 550.9 786.75
Q 551.1 789.1 552.5 791.55 554.45 795.25 559 799.25 559.55 799.75 560.15 800.25 571.6 810.05 592.75 816.7 595.8 822.5 604.9 827.1 618.6 834.15 638.05 834.15
L 638.05 783.15
Q 614.4 784.6 605.85 790.95 595.3 799.7 566.35 790 595.3 799.7 605.85 790.95 614.4 784.6 638.05 783.15
L 638.05 726.6
Q 635.7 726.6 633.55 726.85 625.55 727.7 619.5 731.6 613.25 735.75 612.1 741.2 603.35 746 596.2 751.1 584.7 759.2 577.4 767.95
L 561.75 773.5
Q 550.2 779.25 550.9 786.75
M 540.65 675.6
Q 526.25 676.15 515.6 686.85 502.5 699.85 502.5 718.4 502.5 736.8 515.6 749.9 526.25 760.55 540.6 762.5 574.95 764.4 600.35 731.05 607 722.4 603.15 711 584.3 673.85 540.65 675.6
M 552.7 751.9
Q 527.4 754.15 508.5 714.7 527.1 691.35 545.7 688.3 564 685.2 582.3 701.75 590.4 709.05 598.5 720.2 590.4 729.9 582.65 736.65 566.7 750.6 552.7 751.9
M 762.4 686.85
Q 751.75 676.15 737.3 675.6 693.65 673.85 674.8 711 671 722.4 677.55 731.05 703 764.4 737.4 762.5 751.75 760.55 762.4 749.9 775.45 736.8 775.45 718.4 775.45 699.85 762.4 686.85
M 725.25 751.9
Q 711.25 750.6 695.25 736.65 687.55 729.9 679.45 720.2 687.55 709.05 695.65 701.75 713.9 685.2 732.2 688.3 750.8 691.35 769.45 714.7 750.55 754.15 725.25 751.9 Z"/>

<path fill="#E1E2D7" fill-opacity="0.9686274509803922" stroke="none" d="
M 528.55 638.85
Q 531 637.85 532.3 635.65 525.85 636.05 519.85 637.15 521.35 637.85 522.95 638.6 525.7 639.85 528.55 638.85 Z"/>

<path fill="#785722" stroke="none" d="
M 532.75 629.45
Q 531.75 626.7 529.05 625.45 524.95 623.55 521.15 621.85 520.4 621.5 519.7 621.2 509.2 624.45 499.8 628.2 506.9 631.3 515.1 635.05
L 515.1 635
Q 517.45 636 519.85 637.15 525.85 636.05 532.3 635.65 532.45 635.35 532.55 635.1 533.8 632.3 532.75 629.45 Z"/>

<path fill="#FFFFFF" fill-opacity="0.9686274509803922" stroke="none" d="
M 587.5 719.5
Q 587.5 729.1 582.65 736.65 590.4 729.9 598.5 720.2 590.4 709.05 582.3 701.75 587.5 709.5 587.5 719.5
M 508.5 714.7
Q 527.4 754.15 552.7 751.9 540.7 751.1 532.05 742.4 522.55 732.9 522.55 719.5 522.55 706 532.05 696.5 538.1 690.45 545.7 688.3 527.1 691.35 508.5 714.7
M 755.4 719.5
Q 755.4 732.9 745.9 742.4 737.2 751.1 725.25 751.9 750.55 754.15 769.45 714.7 750.8 691.35 732.2 688.3 739.8 690.45 745.9 696.5 755.4 706 755.4 719.5
M 695.25 736.65
Q 690.4 729.1 690.4 719.5 690.4 709.5 695.65 701.75 687.55 709.05 679.45 720.2 687.55 729.9 695.25 736.65 Z"/>

<path fill="#333333" stroke="none" d="
M 532.05 742.4
Q 540.7 751.1 552.7 751.9 566.7 750.6 582.65 736.65 587.5 729.1 587.5 719.5 587.5 709.5 582.3 701.75 564 685.2 545.7 688.3 538.1 690.45 532.05 696.5 522.55 706 522.55 719.5 522.55 732.9 532.05 742.4
M 534.7 719.55
Q 534.7 710.45 541.05 704.05 547.45 697.7 556.5 697.7 565.55 697.7 571.95 704.05 578.3 710.45 578.3 719.55 578.3 728.55 571.95 734.95 565.55 741.35 556.5 741.35 547.45 741.35 541.05 734.95 534.7 728.55 534.7 719.55
M 550.8 711.85
Q 547.15 715.55 547.15 720.7 547.15 725.95 550.8 729.55 554.45 733.2 559.65 733.2 564.85 733.2 568.5 729.55 572.15 725.95 572.15 720.7 572.15 715.55 568.5 711.85 564.85 708.25 559.65 708.25 554.45 708.25 550.8 711.85
M 690.4 719.5
Q 690.4 729.1 695.25 736.65 711.25 750.6 725.25 751.9 737.2 751.1 745.9 742.4 755.4 732.9 755.4 719.5 755.4 706 745.9 696.5 739.8 690.45 732.2 688.3 713.9 685.2 695.65 701.75 690.4 709.5 690.4 719.5
M 706 734.95
Q 699.65 728.55 699.65 719.55 699.65 710.45 706 704.05 712.4 697.7 721.4 697.7 730.5 697.7 736.9 704.05 743.25 710.45 743.25 719.55 743.25 728.55 736.9 734.95 730.5 741.35 721.4 741.35 712.4 741.35 706 734.95
M 718.3 708.25
Q 713.05 708.25 709.4 711.85 705.8 715.55 705.8 720.7 705.8 725.95 709.4 729.55 713.05 733.2 718.3 733.2 723.45 733.2 727.1 729.55 730.75 725.95 730.75 720.7 730.75 715.55 727.1 711.85 723.45 708.25 718.3 708.25 Z"/>

<path fill="#A25317" fill-opacity="0.9686274509803922" stroke="none" d="
M 541.05 704.05
Q 534.7 710.45 534.7 719.55 534.7 728.55 541.05 734.95 547.45 741.35 556.5 741.35 565.55 741.35 571.95 734.95 578.3 728.55 578.3 719.55 578.3 710.45 571.95 704.05 565.55 697.7 556.5 697.7 547.45 697.7 541.05 704.05
M 547.15 720.7
Q 547.15 715.55 550.8 711.85 554.45 708.25 559.65 708.25 564.85 708.25 568.5 711.85 572.15 715.55 572.15 720.7 572.15 725.95 568.5 729.55 564.85 733.2 559.65 733.2 554.45 733.2 550.8 729.55 547.15 725.95 547.15 720.7
M 699.65 719.55
Q 699.65 728.55 706 734.95 712.4 741.35 721.4 741.35 730.5 741.35 736.9 734.95 743.25 728.55 743.25 719.55 743.25 710.45 736.9 704.05 730.5 697.7 721.4 697.7 712.4 697.7 706 704.05 699.65 710.45 699.65 719.55
M 709.4 711.85
Q 713.05 708.25 718.3 708.25 723.45 708.25 727.1 711.85 730.75 715.55 730.75 720.7 730.75 725.95 727.1 729.55 723.45 733.2 718.3 733.2 713.05 733.2 709.4 729.55 705.8 725.95 705.8 720.7 705.8 715.55 709.4 711.85 Z"/>

<path fill="#785824" stroke="none" d="
M 406.25 598.75
Q 436.4 604.55 471.3 616.7 482.3 620.5 499.8 628.2 509.2 624.45 519.7 621.2 491.5 608.3 476.05 603 440.35 590.6 409.35 584.5 401.25 590.9 406.25 598.75 Z"/>

<path fill="#573F17" stroke="none" d="
M 406.25 598.75
Q 408.3 610.9 417.6 620.95 412.9 630.15 420.35 639.35 416.8 647.15 424.9 655 419.5 666.2 431.4 674.25 426.7 690.4 448.55 710.1 449.75 698.7 452 687.15 455.85 667.6 462.65 647.65 478.35 636.7 499.8 628.2 482.3 620.5 471.3 616.7 436.4 604.55 406.25 598.75 Z"/>

<path fill="#B77F42" stroke="none" d="
M 235.65 667.95
Q 248.35 662.35 280.7 684.35 300.15 781.3 362.45 795.55 432.25 811.3 457.1 791.85 448.25 771.95 447.3 746.85 446.5 728.65 448.55 710.1 426.7 690.4 431.4 674.25 419.5 666.2 424.9 655 416.8 647.15 420.35 639.35 412.9 630.15 417.6 620.95 408.3 610.9 406.25 598.75 276.4 574.1 235.65 667.95 Z"/>

<path fill="#DE9A4D" stroke="none" d="
M 232.85 675
Q 234.25 671.4 235.65 667.95 276.4 574.1 406.25 598.75 401.25 590.9 409.35 584.5 261 555.35 219.3 669.95 218.2 672.7 219.5 675.45 220.75 678.15 223.55 679.25 226.35 680.2 229.1 678.95 231.75 677.75 232.85 675 Z"/>

<path fill="#B77F40" fill-opacity="0.9686274509803922" stroke="none" d="
M 868.7 584.5
Q 874.6 590.6 871.7 598.75 1001.55 574.1 1042.25 667.95 1043.75 671.4 1045.05 675 1046.15 677.75 1048.85 678.95 1051.6 680.2 1054.45 679.25 1057.2 678.15 1058.45 675.45 1059.7 672.7 1058.65 669.95 1017 555.4 868.7 584.5 Z"/>

<path fill="#9E6D39" stroke="none" d="
M 871.7 598.75
Q 869.6 610.9 860.3 620.95 865.05 630.15 857.6 639.35 861.1 647.15 853 655 858.45 666.2 846.55 674.25 851.25 690.4 829.45 710.1 831.45 728.65 830.7 746.85 829.65 771.95 820.8 791.85 845.65 811.3 915.45 795.55 977.8 781.3 997.25 684.35 1029.55 662.35 1042.25 667.95 1001.55 574.1 871.7 598.75 Z"/>

<path fill="#B38543" stroke="none" d="
M 665.9 741.2
Q 664.7 735.75 658.45 731.6 652.4 727.7 644.5 726.85 642.25 726.6 639.9 726.6 639.5 726.6 639 726.6
L 638.95 726.6
Q 638.55 726.6 638.05 726.6
L 638.05 783.15
Q 638.45 783.15 638.95 783.1 663.35 784.4 672.1 790.95 682.6 799.7 711.55 790 682.6 799.7 672.1 790.95 663.35 784.4 638.95 783.1 638.45 783.15 638.05 783.15
L 638.05 834.15
Q 638.55 834.15 638.95 834.15
L 639 834.15
Q 639.5 834.15 639.9 834.15 659.35 834.15 673 827.1 682.1 822.5 685.15 816.7 706.3 810.05 717.8 800.25 718.35 799.75 718.9 799.25 723.45 795.25 725.5 791.55 726.8 789.1 727.05 786.75 727.7 779.25 716.15 773.5
L 700.55 767.95
Q 693.25 759.2 681.7 751.1 674.6 746 665.9 741.2 Z"/>

<path fill="#594119" stroke="none" d="
M 745.35 635.1
Q 745.55 635.35 745.6 635.65 746.95 637.85 749.4 638.85 752.2 639.85 754.95 638.6 756.6 637.85 758.1 637.15 760.55 636 762.8 635
L 762.8 635.05
Q 771 631.3 778.15 628.2 768.75 624.45 758.25 621.2 757.5 621.5 756.85 621.85 753 623.55 748.9 625.45 746.2 626.7 745.1 629.45 744.15 632.3 745.35 635.1 Z"/>

<path fill="#573F19" stroke="none" d="
M 745.6 635.65
Q 745.55 635.35 745.35 635.1 744.15 632.3 745.1 629.45 746.2 626.7 748.9 625.45 753 623.55 756.85 621.85 757.5 621.5 758.25 621.2 742.15 616.15 723.45 612.1 721.25 611.5 719 611.05 704.1 607.55 687.65 607.55 661.55 607.55 638.95 616.3 638.55 616.15 638.05 615.95
L 638.05 726.6
Q 638.55 726.6 638.95 726.6
L 639 726.6
Q 639.5 726.6 639.9 726.6 642.25 726.6 644.5 726.85 652.4 727.7 658.45 731.6 664.7 735.75 665.9 741.2 674.6 746 681.7 751.1 693.25 759.2 700.55 767.95
L 716.15 773.5
Q 727.7 779.25 727.05 786.75 726.8 789.1 725.5 791.55 723.45 795.25 718.9 799.25 718.35 799.75 717.8 800.25 712.4 835 686.15 864 685.4 864.6 684.65 865.15 690.25 864.65 695.6 864 695.85 864 696.05 863.95 750.65 857.45 783.15 835.8 801.5 823.55 812.8 806.55 817.4 799.6 820.8 791.85 829.65 771.95 830.7 746.85 831.45 728.65 829.45 710.1 828.2 698.7 825.9 687.15 822.1 667.6 815.3 647.65 799.6 636.7 778.15 628.2 771 631.3 762.8 635.05
L 762.8 635
Q 760.55 636 758.1 637.15 756.6 637.85 754.95 638.6 752.2 639.85 749.4 638.85 746.95 637.85 745.6 635.65
M 737.3 675.6
Q 751.75 676.15 762.4 686.85 775.45 699.85 775.45 718.4 775.45 736.8 762.4 749.9 751.75 760.55 737.4 762.5 703 764.4 677.55 731.05 671 722.4 674.8 711 693.65 673.85 737.3 675.6 Z"/>

<path fill="#412F12" stroke="none" d="
M 806.65 616.7
Q 795.7 620.5 778.15 628.2 799.6 636.7 815.3 647.65 822.1 667.6 825.9 687.15 828.2 698.7 829.45 710.1 851.25 690.4 846.55 674.25 858.45 666.2 853 655 861.1 647.15 857.6 639.35 865.05 630.15 860.3 620.95 869.6 610.9 871.7 598.75 841.55 604.55 806.65 616.7 Z"/>

<path fill="#594019" stroke="none" d="
M 778.15 628.2
Q 795.7 620.5 806.65 616.7 841.55 604.55 871.7 598.75 874.6 590.6 868.7 584.5 837.65 590.6 801.95 603 786.45 608.3 758.25 621.2 768.75 624.45 778.15 628.2 Z"/>
</g>

<g id="Layer10_0_FILL">
<path fill="#000000" fill-opacity="0.2" stroke="none" d="
M 626.8 741.55
Q 625.65 740.4 624 740.4 622.4 740.4 621.25 741.55 620.1 742.7 620.1 744.3 620.1 745.95 621.25 747.1 622.4 748.25 624 748.25 625.65 748.25 626.8 747.1 627.9 745.95 627.9 744.3 627.9 742.7 626.8 741.55
M 653.9 740.4
Q 652.3 740.4 651.15 741.55 650 742.7 650 744.3 650 745.95 651.15 747.1 652.3 748.25 653.9 748.25 655.5 748.25 656.65 747.1 657.85 745.95 657.85 744.3 657.85 742.7 656.65 741.55 655.5 740.4 653.9 740.4 Z"/>
</g>

<path id="Layer12_0_1_STROKES" stroke="#000000" stroke-opacity="0.2" stroke-width="8" stroke-linejoin="round" stroke-linecap="round" fill="none" d="
M 550.95 847.3
Q 545.7 858.5 541.5 869.7 541 871.05 540.6 872.45
M 552.5 844
Q 551.65 845.65 550.95 847.3
M 540.6 872.45
Q 525.65 913.15 523.75 953.8
M 754.75 953.85
Q 752.4 901.85 728.7 849.75"/>

<path id="Layer11_0_1_STROKES" stroke="#000000" stroke-opacity="0.2" stroke-width="8" stroke-linejoin="round" stroke-linecap="round" fill="none" d="
M 638.05 783.15
Q 638.45 783.15 638.95 783.1 663.35 784.4 672.1 790.95 682.6 799.7 711.55 790
M 638.05 783.15
Q 614.4 784.6 605.85 790.95 595.3 799.7 566.35 790"/>
</defs>

<g transform="matrix( 1, 0, 0, 1, 0,0) ">
<use xlink:href="#Layer12_0_FILL"/>

<use xlink:href="#Layer12_0_1_STROKES"/>
</g>

<g transform="matrix( 1, 0, 0, 1, 0,0) ">
<use xlink:href="#Layer11_0_FILL"/>

<use xlink:href="#Layer11_0_1_STROKES"/>
</g>

<g transform="matrix( 1, 0, 0, 1, 0,0) ">
<use xlink:href="#Layer10_0_FILL"/>
</g>
</svg>
